<?xml version="1.0" encoding="utf-8" standalone="no"?>
<!DOCTYPE svg PUBLIC "-//W3C//DTD SVG 1.1//EN"
  "http://www.w3.org/Graphics/SVG/1.1/DTD/svg11.dtd">
<svg xmlns:xlink="http://www.w3.org/1999/xlink" width="864pt" height="360pt" viewBox="0 0 864 360" xmlns="http://www.w3.org/2000/svg" version="1.1">
 <metadata>
  <rdf:RDF xmlns:dc="http://purl.org/dc/elements/1.1/" xmlns:cc="http://creativecommons.org/ns#" xmlns:rdf="http://www.w3.org/1999/02/22-rdf-syntax-ns#">
   <cc:Work>
    <dc:type rdf:resource="http://purl.org/dc/dcmitype/StillImage"/>
    <dc:date>2023-03-31T19:57:04.098686</dc:date>
    <dc:format>image/svg+xml</dc:format>
    <dc:creator>
     <cc:Agent>
      <dc:title>Matplotlib v3.5.2, https://matplotlib.org/</dc:title>
     </cc:Agent>
    </dc:creator>
   </cc:Work>
  </rdf:RDF>
 </metadata>
 <defs>
  <style type="text/css">*{stroke-linejoin: round; stroke-linecap: butt}</style>
 </defs>
 <g id="figure_1">
  <g id="patch_1">
   <path d="M 0 360 
L 864 360 
L 864 0 
L 0 0 
z
" style="fill: #ffffff"/>
  </g>
  <g id="axes_1">
   <g id="patch_2">
    <path d="M 108 320.4 
L 777.6 320.4 
L 777.6 43.2 
L 108 43.2 
z
" style="fill: #ffffff"/>
   </g>
   <g id="matplotlib.axis_1">
    <g id="xtick_1">
     <g id="line2d_1">
      <path d="M 108 320.4 
L 108 43.2 
" clip-path="url(#pb5228d7220)" style="fill: none; stroke: #b0b0b0; stroke-width: 0.8; stroke-linecap: square"/>
     </g>
     <g id="line2d_2">
      <defs>
       <path id="m08a6b262c1" d="M 0 0 
L 0 3.5 
" style="stroke: #000000; stroke-width: 0.8"/>
      </defs>
      <g>
       <use xlink:href="#m08a6b262c1" x="108" y="320.4" style="stroke: #000000; stroke-width: 0.8"/>
      </g>
     </g>
     <g id="text_1">
      <!-- $\mathdefault{10^{1}}$ -->
      <g transform="translate(97.44 336.518125)scale(0.12 -0.12)">
       <defs>
        <path id="DejaVuSans-31" d="M 794 531 
L 1825 531 
L 1825 4091 
L 703 3866 
L 703 4441 
L 1819 4666 
L 2450 4666 
L 2450 531 
L 3481 531 
L 3481 0 
L 794 0 
L 794 531 
z
" transform="scale(0.015625)"/>
        <path id="DejaVuSans-30" d="M 2034 4250 
Q 1547 4250 1301 3770 
Q 1056 3291 1056 2328 
Q 1056 1369 1301 889 
Q 1547 409 2034 409 
Q 2525 409 2770 889 
Q 3016 1369 3016 2328 
Q 3016 3291 2770 3770 
Q 2525 4250 2034 4250 
z
M 2034 4750 
Q 2819 4750 3233 4129 
Q 3647 3509 3647 2328 
Q 3647 1150 3233 529 
Q 2819 -91 2034 -91 
Q 1250 -91 836 529 
Q 422 1150 422 2328 
Q 422 3509 836 4129 
Q 1250 4750 2034 4750 
z
" transform="scale(0.015625)"/>
       </defs>
       <use xlink:href="#DejaVuSans-31" transform="translate(0 0.684375)"/>
       <use xlink:href="#DejaVuSans-30" transform="translate(63.623047 0.684375)"/>
       <use xlink:href="#DejaVuSans-31" transform="translate(128.203125 38.965625)scale(0.7)"/>
      </g>
     </g>
    </g>
    <g id="xtick_2">
     <g id="line2d_3">
      <path d="M 219.6 320.4 
L 219.6 43.2 
" clip-path="url(#pb5228d7220)" style="fill: none; stroke: #b0b0b0; stroke-width: 0.8; stroke-linecap: square"/>
     </g>
     <g id="line2d_4">
      <g>
       <use xlink:href="#m08a6b262c1" x="219.6" y="320.4" style="stroke: #000000; stroke-width: 0.8"/>
      </g>
     </g>
     <g id="text_2">
      <!-- $\mathdefault{10^{2}}$ -->
      <g transform="translate(209.04 336.518125)scale(0.12 -0.12)">
       <defs>
        <path id="DejaVuSans-32" d="M 1228 531 
L 3431 531 
L 3431 0 
L 469 0 
L 469 531 
Q 828 903 1448 1529 
Q 2069 2156 2228 2338 
Q 2531 2678 2651 2914 
Q 2772 3150 2772 3378 
Q 2772 3750 2511 3984 
Q 2250 4219 1831 4219 
Q 1534 4219 1204 4116 
Q 875 4013 500 3803 
L 500 4441 
Q 881 4594 1212 4672 
Q 1544 4750 1819 4750 
Q 2544 4750 2975 4387 
Q 3406 4025 3406 3419 
Q 3406 3131 3298 2873 
Q 3191 2616 2906 2266 
Q 2828 2175 2409 1742 
Q 1991 1309 1228 531 
z
" transform="scale(0.015625)"/>
       </defs>
       <use xlink:href="#DejaVuSans-31" transform="translate(0 0.765625)"/>
       <use xlink:href="#DejaVuSans-30" transform="translate(63.623047 0.765625)"/>
       <use xlink:href="#DejaVuSans-32" transform="translate(128.203125 39.046875)scale(0.7)"/>
      </g>
     </g>
    </g>
    <g id="xtick_3">
     <g id="line2d_5">
      <path d="M 331.2 320.4 
L 331.2 43.2 
" clip-path="url(#pb5228d7220)" style="fill: none; stroke: #b0b0b0; stroke-width: 0.8; stroke-linecap: square"/>
     </g>
     <g id="line2d_6">
      <g>
       <use xlink:href="#m08a6b262c1" x="331.2" y="320.4" style="stroke: #000000; stroke-width: 0.8"/>
      </g>
     </g>
     <g id="text_3">
      <!-- $\mathdefault{10^{3}}$ -->
      <g transform="translate(320.64 336.518125)scale(0.12 -0.12)">
       <defs>
        <path id="DejaVuSans-33" d="M 2597 2516 
Q 3050 2419 3304 2112 
Q 3559 1806 3559 1356 
Q 3559 666 3084 287 
Q 2609 -91 1734 -91 
Q 1441 -91 1130 -33 
Q 819 25 488 141 
L 488 750 
Q 750 597 1062 519 
Q 1375 441 1716 441 
Q 2309 441 2620 675 
Q 2931 909 2931 1356 
Q 2931 1769 2642 2001 
Q 2353 2234 1838 2234 
L 1294 2234 
L 1294 2753 
L 1863 2753 
Q 2328 2753 2575 2939 
Q 2822 3125 2822 3475 
Q 2822 3834 2567 4026 
Q 2313 4219 1838 4219 
Q 1578 4219 1281 4162 
Q 984 4106 628 3988 
L 628 4550 
Q 988 4650 1302 4700 
Q 1616 4750 1894 4750 
Q 2613 4750 3031 4423 
Q 3450 4097 3450 3541 
Q 3450 3153 3228 2886 
Q 3006 2619 2597 2516 
z
" transform="scale(0.015625)"/>
       </defs>
       <use xlink:href="#DejaVuSans-31" transform="translate(0 0.765625)"/>
       <use xlink:href="#DejaVuSans-30" transform="translate(63.623047 0.765625)"/>
       <use xlink:href="#DejaVuSans-33" transform="translate(128.203125 39.046875)scale(0.7)"/>
      </g>
     </g>
    </g>
    <g id="xtick_4">
     <g id="line2d_7">
      <path d="M 442.8 320.4 
L 442.8 43.2 
" clip-path="url(#pb5228d7220)" style="fill: none; stroke: #b0b0b0; stroke-width: 0.8; stroke-linecap: square"/>
     </g>
     <g id="line2d_8">
      <g>
       <use xlink:href="#m08a6b262c1" x="442.8" y="320.4" style="stroke: #000000; stroke-width: 0.8"/>
      </g>
     </g>
     <g id="text_4">
      <!-- $\mathdefault{10^{4}}$ -->
      <g transform="translate(432.24 336.518125)scale(0.12 -0.12)">
       <defs>
        <path id="DejaVuSans-34" d="M 2419 4116 
L 825 1625 
L 2419 1625 
L 2419 4116 
z
M 2253 4666 
L 3047 4666 
L 3047 1625 
L 3713 1625 
L 3713 1100 
L 3047 1100 
L 3047 0 
L 2419 0 
L 2419 1100 
L 313 1100 
L 313 1709 
L 2253 4666 
z
" transform="scale(0.015625)"/>
       </defs>
       <use xlink:href="#DejaVuSans-31" transform="translate(0 0.684375)"/>
       <use xlink:href="#DejaVuSans-30" transform="translate(63.623047 0.684375)"/>
       <use xlink:href="#DejaVuSans-34" transform="translate(128.203125 38.965625)scale(0.7)"/>
      </g>
     </g>
    </g>
    <g id="xtick_5">
     <g id="line2d_9">
      <path d="M 554.4 320.4 
L 554.4 43.2 
" clip-path="url(#pb5228d7220)" style="fill: none; stroke: #b0b0b0; stroke-width: 0.8; stroke-linecap: square"/>
     </g>
     <g id="line2d_10">
      <g>
       <use xlink:href="#m08a6b262c1" x="554.4" y="320.4" style="stroke: #000000; stroke-width: 0.8"/>
      </g>
     </g>
     <g id="text_5">
      <!-- $\mathdefault{10^{5}}$ -->
      <g transform="translate(543.84 336.518125)scale(0.12 -0.12)">
       <defs>
        <path id="DejaVuSans-35" d="M 691 4666 
L 3169 4666 
L 3169 4134 
L 1269 4134 
L 1269 2991 
Q 1406 3038 1543 3061 
Q 1681 3084 1819 3084 
Q 2600 3084 3056 2656 
Q 3513 2228 3513 1497 
Q 3513 744 3044 326 
Q 2575 -91 1722 -91 
Q 1428 -91 1123 -41 
Q 819 9 494 109 
L 494 744 
Q 775 591 1075 516 
Q 1375 441 1709 441 
Q 2250 441 2565 725 
Q 2881 1009 2881 1497 
Q 2881 1984 2565 2268 
Q 2250 2553 1709 2553 
Q 1456 2553 1204 2497 
Q 953 2441 691 2322 
L 691 4666 
z
" transform="scale(0.015625)"/>
       </defs>
       <use xlink:href="#DejaVuSans-31" transform="translate(0 0.684375)"/>
       <use xlink:href="#DejaVuSans-30" transform="translate(63.623047 0.684375)"/>
       <use xlink:href="#DejaVuSans-35" transform="translate(128.203125 38.965625)scale(0.7)"/>
      </g>
     </g>
    </g>
    <g id="xtick_6">
     <g id="line2d_11">
      <path d="M 666 320.4 
L 666 43.2 
" clip-path="url(#pb5228d7220)" style="fill: none; stroke: #b0b0b0; stroke-width: 0.8; stroke-linecap: square"/>
     </g>
     <g id="line2d_12">
      <g>
       <use xlink:href="#m08a6b262c1" x="666" y="320.4" style="stroke: #000000; stroke-width: 0.8"/>
      </g>
     </g>
     <g id="text_6">
      <!-- $\mathdefault{10^{6}}$ -->
      <g transform="translate(655.44 336.518125)scale(0.12 -0.12)">
       <defs>
        <path id="DejaVuSans-36" d="M 2113 2584 
Q 1688 2584 1439 2293 
Q 1191 2003 1191 1497 
Q 1191 994 1439 701 
Q 1688 409 2113 409 
Q 2538 409 2786 701 
Q 3034 994 3034 1497 
Q 3034 2003 2786 2293 
Q 2538 2584 2113 2584 
z
M 3366 4563 
L 3366 3988 
Q 3128 4100 2886 4159 
Q 2644 4219 2406 4219 
Q 1781 4219 1451 3797 
Q 1122 3375 1075 2522 
Q 1259 2794 1537 2939 
Q 1816 3084 2150 3084 
Q 2853 3084 3261 2657 
Q 3669 2231 3669 1497 
Q 3669 778 3244 343 
Q 2819 -91 2113 -91 
Q 1303 -91 875 529 
Q 447 1150 447 2328 
Q 447 3434 972 4092 
Q 1497 4750 2381 4750 
Q 2619 4750 2861 4703 
Q 3103 4656 3366 4563 
z
" transform="scale(0.015625)"/>
       </defs>
       <use xlink:href="#DejaVuSans-31" transform="translate(0 0.765625)"/>
       <use xlink:href="#DejaVuSans-30" transform="translate(63.623047 0.765625)"/>
       <use xlink:href="#DejaVuSans-36" transform="translate(128.203125 39.046875)scale(0.7)"/>
      </g>
     </g>
    </g>
    <g id="xtick_7">
     <g id="line2d_13">
      <path d="M 777.6 320.4 
L 777.6 43.2 
" clip-path="url(#pb5228d7220)" style="fill: none; stroke: #b0b0b0; stroke-width: 0.8; stroke-linecap: square"/>
     </g>
     <g id="line2d_14">
      <g>
       <use xlink:href="#m08a6b262c1" x="777.6" y="320.4" style="stroke: #000000; stroke-width: 0.8"/>
      </g>
     </g>
     <g id="text_7">
      <!-- $\mathdefault{10^{7}}$ -->
      <g transform="translate(767.04 336.518125)scale(0.12 -0.12)">
       <defs>
        <path id="DejaVuSans-37" d="M 525 4666 
L 3525 4666 
L 3525 4397 
L 1831 0 
L 1172 0 
L 2766 4134 
L 525 4134 
L 525 4666 
z
" transform="scale(0.015625)"/>
       </defs>
       <use xlink:href="#DejaVuSans-31" transform="translate(0 0.684375)"/>
       <use xlink:href="#DejaVuSans-30" transform="translate(63.623047 0.684375)"/>
       <use xlink:href="#DejaVuSans-37" transform="translate(128.203125 38.965625)scale(0.7)"/>
      </g>
     </g>
    </g>
    <g id="xtick_8">
     <g id="line2d_15">
      <path d="M 141.594948 320.4 
L 141.594948 43.2 
" clip-path="url(#pb5228d7220)" style="fill: none; stroke: #b0b0b0; stroke-width: 0.8; stroke-linecap: square"/>
     </g>
     <g id="line2d_16">
      <defs>
       <path id="mbd1ddd360f" d="M 0 0 
L 0 2 
" style="stroke: #000000; stroke-width: 0.6"/>
      </defs>
      <g>
       <use xlink:href="#mbd1ddd360f" x="141.594948" y="320.4" style="stroke: #000000; stroke-width: 0.6"/>
      </g>
     </g>
    </g>
    <g id="xtick_9">
     <g id="line2d_17">
      <path d="M 161.246732 320.4 
L 161.246732 43.2 
" clip-path="url(#pb5228d7220)" style="fill: none; stroke: #b0b0b0; stroke-width: 0.8; stroke-linecap: square"/>
     </g>
     <g id="line2d_18">
      <g>
       <use xlink:href="#mbd1ddd360f" x="161.246732" y="320.4" style="stroke: #000000; stroke-width: 0.6"/>
      </g>
     </g>
    </g>
    <g id="xtick_10">
     <g id="line2d_19">
      <path d="M 175.189895 320.4 
L 175.189895 43.2 
" clip-path="url(#pb5228d7220)" style="fill: none; stroke: #b0b0b0; stroke-width: 0.8; stroke-linecap: square"/>
     </g>
     <g id="line2d_20">
      <g>
       <use xlink:href="#mbd1ddd360f" x="175.189895" y="320.4" style="stroke: #000000; stroke-width: 0.6"/>
      </g>
     </g>
    </g>
    <g id="xtick_11">
     <g id="line2d_21">
      <path d="M 186.005052 320.4 
L 186.005052 43.2 
" clip-path="url(#pb5228d7220)" style="fill: none; stroke: #b0b0b0; stroke-width: 0.8; stroke-linecap: square"/>
     </g>
     <g id="line2d_22">
      <g>
       <use xlink:href="#mbd1ddd360f" x="186.005052" y="320.4" style="stroke: #000000; stroke-width: 0.6"/>
      </g>
     </g>
    </g>
    <g id="xtick_12">
     <g id="line2d_23">
      <path d="M 194.84168 320.4 
L 194.84168 43.2 
" clip-path="url(#pb5228d7220)" style="fill: none; stroke: #b0b0b0; stroke-width: 0.8; stroke-linecap: square"/>
     </g>
     <g id="line2d_24">
      <g>
       <use xlink:href="#mbd1ddd360f" x="194.84168" y="320.4" style="stroke: #000000; stroke-width: 0.6"/>
      </g>
     </g>
    </g>
    <g id="xtick_13">
     <g id="line2d_25">
      <path d="M 202.312941 320.4 
L 202.312941 43.2 
" clip-path="url(#pb5228d7220)" style="fill: none; stroke: #b0b0b0; stroke-width: 0.8; stroke-linecap: square"/>
     </g>
     <g id="line2d_26">
      <g>
       <use xlink:href="#mbd1ddd360f" x="202.312941" y="320.4" style="stroke: #000000; stroke-width: 0.6"/>
      </g>
     </g>
    </g>
    <g id="xtick_14">
     <g id="line2d_27">
      <path d="M 208.784843 320.4 
L 208.784843 43.2 
" clip-path="url(#pb5228d7220)" style="fill: none; stroke: #b0b0b0; stroke-width: 0.8; stroke-linecap: square"/>
     </g>
     <g id="line2d_28">
      <g>
       <use xlink:href="#mbd1ddd360f" x="208.784843" y="320.4" style="stroke: #000000; stroke-width: 0.6"/>
      </g>
     </g>
    </g>
    <g id="xtick_15">
     <g id="line2d_29">
      <path d="M 214.493464 320.4 
L 214.493464 43.2 
" clip-path="url(#pb5228d7220)" style="fill: none; stroke: #b0b0b0; stroke-width: 0.8; stroke-linecap: square"/>
     </g>
     <g id="line2d_30">
      <g>
       <use xlink:href="#mbd1ddd360f" x="214.493464" y="320.4" style="stroke: #000000; stroke-width: 0.6"/>
      </g>
     </g>
    </g>
    <g id="xtick_16">
     <g id="line2d_31">
      <path d="M 253.194948 320.4 
L 253.194948 43.2 
" clip-path="url(#pb5228d7220)" style="fill: none; stroke: #b0b0b0; stroke-width: 0.8; stroke-linecap: square"/>
     </g>
     <g id="line2d_32">
      <g>
       <use xlink:href="#mbd1ddd360f" x="253.194948" y="320.4" style="stroke: #000000; stroke-width: 0.6"/>
      </g>
     </g>
    </g>
    <g id="xtick_17">
     <g id="line2d_33">
      <path d="M 272.846732 320.4 
L 272.846732 43.2 
" clip-path="url(#pb5228d7220)" style="fill: none; stroke: #b0b0b0; stroke-width: 0.8; stroke-linecap: square"/>
     </g>
     <g id="line2d_34">
      <g>
       <use xlink:href="#mbd1ddd360f" x="272.846732" y="320.4" style="stroke: #000000; stroke-width: 0.6"/>
      </g>
     </g>
    </g>
    <g id="xtick_18">
     <g id="line2d_35">
      <path d="M 286.789895 320.4 
L 286.789895 43.2 
" clip-path="url(#pb5228d7220)" style="fill: none; stroke: #b0b0b0; stroke-width: 0.8; stroke-linecap: square"/>
     </g>
     <g id="line2d_36">
      <g>
       <use xlink:href="#mbd1ddd360f" x="286.789895" y="320.4" style="stroke: #000000; stroke-width: 0.6"/>
      </g>
     </g>
    </g>
    <g id="xtick_19">
     <g id="line2d_37">
      <path d="M 297.605052 320.4 
L 297.605052 43.2 
" clip-path="url(#pb5228d7220)" style="fill: none; stroke: #b0b0b0; stroke-width: 0.8; stroke-linecap: square"/>
     </g>
     <g id="line2d_38">
      <g>
       <use xlink:href="#mbd1ddd360f" x="297.605052" y="320.4" style="stroke: #000000; stroke-width: 0.6"/>
      </g>
     </g>
    </g>
    <g id="xtick_20">
     <g id="line2d_39">
      <path d="M 306.44168 320.4 
L 306.44168 43.2 
" clip-path="url(#pb5228d7220)" style="fill: none; stroke: #b0b0b0; stroke-width: 0.8; stroke-linecap: square"/>
     </g>
     <g id="line2d_40">
      <g>
       <use xlink:href="#mbd1ddd360f" x="306.44168" y="320.4" style="stroke: #000000; stroke-width: 0.6"/>
      </g>
     </g>
    </g>
    <g id="xtick_21">
     <g id="line2d_41">
      <path d="M 313.912941 320.4 
L 313.912941 43.2 
" clip-path="url(#pb5228d7220)" style="fill: none; stroke: #b0b0b0; stroke-width: 0.8; stroke-linecap: square"/>
     </g>
     <g id="line2d_42">
      <g>
       <use xlink:href="#mbd1ddd360f" x="313.912941" y="320.4" style="stroke: #000000; stroke-width: 0.6"/>
      </g>
     </g>
    </g>
    <g id="xtick_22">
     <g id="line2d_43">
      <path d="M 320.384843 320.4 
L 320.384843 43.2 
" clip-path="url(#pb5228d7220)" style="fill: none; stroke: #b0b0b0; stroke-width: 0.8; stroke-linecap: square"/>
     </g>
     <g id="line2d_44">
      <g>
       <use xlink:href="#mbd1ddd360f" x="320.384843" y="320.4" style="stroke: #000000; stroke-width: 0.6"/>
      </g>
     </g>
    </g>
    <g id="xtick_23">
     <g id="line2d_45">
      <path d="M 326.093464 320.4 
L 326.093464 43.2 
" clip-path="url(#pb5228d7220)" style="fill: none; stroke: #b0b0b0; stroke-width: 0.8; stroke-linecap: square"/>
     </g>
     <g id="line2d_46">
      <g>
       <use xlink:href="#mbd1ddd360f" x="326.093464" y="320.4" style="stroke: #000000; stroke-width: 0.6"/>
      </g>
     </g>
    </g>
    <g id="xtick_24">
     <g id="line2d_47">
      <path d="M 364.794948 320.4 
L 364.794948 43.2 
" clip-path="url(#pb5228d7220)" style="fill: none; stroke: #b0b0b0; stroke-width: 0.8; stroke-linecap: square"/>
     </g>
     <g id="line2d_48">
      <g>
       <use xlink:href="#mbd1ddd360f" x="364.794948" y="320.4" style="stroke: #000000; stroke-width: 0.6"/>
      </g>
     </g>
    </g>
    <g id="xtick_25">
     <g id="line2d_49">
      <path d="M 384.446732 320.4 
L 384.446732 43.2 
" clip-path="url(#pb5228d7220)" style="fill: none; stroke: #b0b0b0; stroke-width: 0.8; stroke-linecap: square"/>
     </g>
     <g id="line2d_50">
      <g>
       <use xlink:href="#mbd1ddd360f" x="384.446732" y="320.4" style="stroke: #000000; stroke-width: 0.6"/>
      </g>
     </g>
    </g>
    <g id="xtick_26">
     <g id="line2d_51">
      <path d="M 398.389895 320.4 
L 398.389895 43.2 
" clip-path="url(#pb5228d7220)" style="fill: none; stroke: #b0b0b0; stroke-width: 0.8; stroke-linecap: square"/>
     </g>
     <g id="line2d_52">
      <g>
       <use xlink:href="#mbd1ddd360f" x="398.389895" y="320.4" style="stroke: #000000; stroke-width: 0.6"/>
      </g>
     </g>
    </g>
    <g id="xtick_27">
     <g id="line2d_53">
      <path d="M 409.205052 320.4 
L 409.205052 43.2 
" clip-path="url(#pb5228d7220)" style="fill: none; stroke: #b0b0b0; stroke-width: 0.8; stroke-linecap: square"/>
     </g>
     <g id="line2d_54">
      <g>
       <use xlink:href="#mbd1ddd360f" x="409.205052" y="320.4" style="stroke: #000000; stroke-width: 0.6"/>
      </g>
     </g>
    </g>
    <g id="xtick_28">
     <g id="line2d_55">
      <path d="M 418.04168 320.4 
L 418.04168 43.2 
" clip-path="url(#pb5228d7220)" style="fill: none; stroke: #b0b0b0; stroke-width: 0.8; stroke-linecap: square"/>
     </g>
     <g id="line2d_56">
      <g>
       <use xlink:href="#mbd1ddd360f" x="418.04168" y="320.4" style="stroke: #000000; stroke-width: 0.6"/>
      </g>
     </g>
    </g>
    <g id="xtick_29">
     <g id="line2d_57">
      <path d="M 425.512941 320.4 
L 425.512941 43.2 
" clip-path="url(#pb5228d7220)" style="fill: none; stroke: #b0b0b0; stroke-width: 0.8; stroke-linecap: square"/>
     </g>
     <g id="line2d_58">
      <g>
       <use xlink:href="#mbd1ddd360f" x="425.512941" y="320.4" style="stroke: #000000; stroke-width: 0.6"/>
      </g>
     </g>
    </g>
    <g id="xtick_30">
     <g id="line2d_59">
      <path d="M 431.984843 320.4 
L 431.984843 43.2 
" clip-path="url(#pb5228d7220)" style="fill: none; stroke: #b0b0b0; stroke-width: 0.8; stroke-linecap: square"/>
     </g>
     <g id="line2d_60">
      <g>
       <use xlink:href="#mbd1ddd360f" x="431.984843" y="320.4" style="stroke: #000000; stroke-width: 0.6"/>
      </g>
     </g>
    </g>
    <g id="xtick_31">
     <g id="line2d_61">
      <path d="M 437.693464 320.4 
L 437.693464 43.2 
" clip-path="url(#pb5228d7220)" style="fill: none; stroke: #b0b0b0; stroke-width: 0.8; stroke-linecap: square"/>
     </g>
     <g id="line2d_62">
      <g>
       <use xlink:href="#mbd1ddd360f" x="437.693464" y="320.4" style="stroke: #000000; stroke-width: 0.6"/>
      </g>
     </g>
    </g>
    <g id="xtick_32">
     <g id="line2d_63">
      <path d="M 476.394948 320.4 
L 476.394948 43.2 
" clip-path="url(#pb5228d7220)" style="fill: none; stroke: #b0b0b0; stroke-width: 0.8; stroke-linecap: square"/>
     </g>
     <g id="line2d_64">
      <g>
       <use xlink:href="#mbd1ddd360f" x="476.394948" y="320.4" style="stroke: #000000; stroke-width: 0.6"/>
      </g>
     </g>
    </g>
    <g id="xtick_33">
     <g id="line2d_65">
      <path d="M 496.046732 320.4 
L 496.046732 43.2 
" clip-path="url(#pb5228d7220)" style="fill: none; stroke: #b0b0b0; stroke-width: 0.8; stroke-linecap: square"/>
     </g>
     <g id="line2d_66">
      <g>
       <use xlink:href="#mbd1ddd360f" x="496.046732" y="320.4" style="stroke: #000000; stroke-width: 0.6"/>
      </g>
     </g>
    </g>
    <g id="xtick_34">
     <g id="line2d_67">
      <path d="M 509.989895 320.4 
L 509.989895 43.2 
" clip-path="url(#pb5228d7220)" style="fill: none; stroke: #b0b0b0; stroke-width: 0.8; stroke-linecap: square"/>
     </g>
     <g id="line2d_68">
      <g>
       <use xlink:href="#mbd1ddd360f" x="509.989895" y="320.4" style="stroke: #000000; stroke-width: 0.6"/>
      </g>
     </g>
    </g>
    <g id="xtick_35">
     <g id="line2d_69">
      <path d="M 520.805052 320.4 
L 520.805052 43.2 
" clip-path="url(#pb5228d7220)" style="fill: none; stroke: #b0b0b0; stroke-width: 0.8; stroke-linecap: square"/>
     </g>
     <g id="line2d_70">
      <g>
       <use xlink:href="#mbd1ddd360f" x="520.805052" y="320.4" style="stroke: #000000; stroke-width: 0.6"/>
      </g>
     </g>
    </g>
    <g id="xtick_36">
     <g id="line2d_71">
      <path d="M 529.64168 320.4 
L 529.64168 43.2 
" clip-path="url(#pb5228d7220)" style="fill: none; stroke: #b0b0b0; stroke-width: 0.8; stroke-linecap: square"/>
     </g>
     <g id="line2d_72">
      <g>
       <use xlink:href="#mbd1ddd360f" x="529.64168" y="320.4" style="stroke: #000000; stroke-width: 0.6"/>
      </g>
     </g>
    </g>
    <g id="xtick_37">
     <g id="line2d_73">
      <path d="M 537.112941 320.4 
L 537.112941 43.2 
" clip-path="url(#pb5228d7220)" style="fill: none; stroke: #b0b0b0; stroke-width: 0.8; stroke-linecap: square"/>
     </g>
     <g id="line2d_74">
      <g>
       <use xlink:href="#mbd1ddd360f" x="537.112941" y="320.4" style="stroke: #000000; stroke-width: 0.6"/>
      </g>
     </g>
    </g>
    <g id="xtick_38">
     <g id="line2d_75">
      <path d="M 543.584843 320.4 
L 543.584843 43.2 
" clip-path="url(#pb5228d7220)" style="fill: none; stroke: #b0b0b0; stroke-width: 0.8; stroke-linecap: square"/>
     </g>
     <g id="line2d_76">
      <g>
       <use xlink:href="#mbd1ddd360f" x="543.584843" y="320.4" style="stroke: #000000; stroke-width: 0.6"/>
      </g>
     </g>
    </g>
    <g id="xtick_39">
     <g id="line2d_77">
      <path d="M 549.293464 320.4 
L 549.293464 43.2 
" clip-path="url(#pb5228d7220)" style="fill: none; stroke: #b0b0b0; stroke-width: 0.8; stroke-linecap: square"/>
     </g>
     <g id="line2d_78">
      <g>
       <use xlink:href="#mbd1ddd360f" x="549.293464" y="320.4" style="stroke: #000000; stroke-width: 0.6"/>
      </g>
     </g>
    </g>
    <g id="xtick_40">
     <g id="line2d_79">
      <path d="M 587.994948 320.4 
L 587.994948 43.2 
" clip-path="url(#pb5228d7220)" style="fill: none; stroke: #b0b0b0; stroke-width: 0.8; stroke-linecap: square"/>
     </g>
     <g id="line2d_80">
      <g>
       <use xlink:href="#mbd1ddd360f" x="587.994948" y="320.4" style="stroke: #000000; stroke-width: 0.6"/>
      </g>
     </g>
    </g>
    <g id="xtick_41">
     <g id="line2d_81">
      <path d="M 607.646732 320.4 
L 607.646732 43.2 
" clip-path="url(#pb5228d7220)" style="fill: none; stroke: #b0b0b0; stroke-width: 0.8; stroke-linecap: square"/>
     </g>
     <g id="line2d_82">
      <g>
       <use xlink:href="#mbd1ddd360f" x="607.646732" y="320.4" style="stroke: #000000; stroke-width: 0.6"/>
      </g>
     </g>
    </g>
    <g id="xtick_42">
     <g id="line2d_83">
      <path d="M 621.589895 320.4 
L 621.589895 43.2 
" clip-path="url(#pb5228d7220)" style="fill: none; stroke: #b0b0b0; stroke-width: 0.8; stroke-linecap: square"/>
     </g>
     <g id="line2d_84">
      <g>
       <use xlink:href="#mbd1ddd360f" x="621.589895" y="320.4" style="stroke: #000000; stroke-width: 0.6"/>
      </g>
     </g>
    </g>
    <g id="xtick_43">
     <g id="line2d_85">
      <path d="M 632.405052 320.4 
L 632.405052 43.2 
" clip-path="url(#pb5228d7220)" style="fill: none; stroke: #b0b0b0; stroke-width: 0.8; stroke-linecap: square"/>
     </g>
     <g id="line2d_86">
      <g>
       <use xlink:href="#mbd1ddd360f" x="632.405052" y="320.4" style="stroke: #000000; stroke-width: 0.6"/>
      </g>
     </g>
    </g>
    <g id="xtick_44">
     <g id="line2d_87">
      <path d="M 641.24168 320.4 
L 641.24168 43.2 
" clip-path="url(#pb5228d7220)" style="fill: none; stroke: #b0b0b0; stroke-width: 0.8; stroke-linecap: square"/>
     </g>
     <g id="line2d_88">
      <g>
       <use xlink:href="#mbd1ddd360f" x="641.24168" y="320.4" style="stroke: #000000; stroke-width: 0.6"/>
      </g>
     </g>
    </g>
    <g id="xtick_45">
     <g id="line2d_89">
      <path d="M 648.712941 320.4 
L 648.712941 43.2 
" clip-path="url(#pb5228d7220)" style="fill: none; stroke: #b0b0b0; stroke-width: 0.8; stroke-linecap: square"/>
     </g>
     <g id="line2d_90">
      <g>
       <use xlink:href="#mbd1ddd360f" x="648.712941" y="320.4" style="stroke: #000000; stroke-width: 0.6"/>
      </g>
     </g>
    </g>
    <g id="xtick_46">
     <g id="line2d_91">
      <path d="M 655.184843 320.4 
L 655.184843 43.2 
" clip-path="url(#pb5228d7220)" style="fill: none; stroke: #b0b0b0; stroke-width: 0.8; stroke-linecap: square"/>
     </g>
     <g id="line2d_92">
      <g>
       <use xlink:href="#mbd1ddd360f" x="655.184843" y="320.4" style="stroke: #000000; stroke-width: 0.6"/>
      </g>
     </g>
    </g>
    <g id="xtick_47">
     <g id="line2d_93">
      <path d="M 660.893464 320.4 
L 660.893464 43.2 
" clip-path="url(#pb5228d7220)" style="fill: none; stroke: #b0b0b0; stroke-width: 0.8; stroke-linecap: square"/>
     </g>
     <g id="line2d_94">
      <g>
       <use xlink:href="#mbd1ddd360f" x="660.893464" y="320.4" style="stroke: #000000; stroke-width: 0.6"/>
      </g>
     </g>
    </g>
    <g id="xtick_48">
     <g id="line2d_95">
      <path d="M 699.594948 320.4 
L 699.594948 43.2 
" clip-path="url(#pb5228d7220)" style="fill: none; stroke: #b0b0b0; stroke-width: 0.8; stroke-linecap: square"/>
     </g>
     <g id="line2d_96">
      <g>
       <use xlink:href="#mbd1ddd360f" x="699.594948" y="320.4" style="stroke: #000000; stroke-width: 0.6"/>
      </g>
     </g>
    </g>
    <g id="xtick_49">
     <g id="line2d_97">
      <path d="M 719.246732 320.4 
L 719.246732 43.2 
" clip-path="url(#pb5228d7220)" style="fill: none; stroke: #b0b0b0; stroke-width: 0.8; stroke-linecap: square"/>
     </g>
     <g id="line2d_98">
      <g>
       <use xlink:href="#mbd1ddd360f" x="719.246732" y="320.4" style="stroke: #000000; stroke-width: 0.6"/>
      </g>
     </g>
    </g>
    <g id="xtick_50">
     <g id="line2d_99">
      <path d="M 733.189895 320.4 
L 733.189895 43.2 
" clip-path="url(#pb5228d7220)" style="fill: none; stroke: #b0b0b0; stroke-width: 0.8; stroke-linecap: square"/>
     </g>
     <g id="line2d_100">
      <g>
       <use xlink:href="#mbd1ddd360f" x="733.189895" y="320.4" style="stroke: #000000; stroke-width: 0.6"/>
      </g>
     </g>
    </g>
    <g id="xtick_51">
     <g id="line2d_101">
      <path d="M 744.005052 320.4 
L 744.005052 43.2 
" clip-path="url(#pb5228d7220)" style="fill: none; stroke: #b0b0b0; stroke-width: 0.8; stroke-linecap: square"/>
     </g>
     <g id="line2d_102">
      <g>
       <use xlink:href="#mbd1ddd360f" x="744.005052" y="320.4" style="stroke: #000000; stroke-width: 0.6"/>
      </g>
     </g>
    </g>
    <g id="xtick_52">
     <g id="line2d_103">
      <path d="M 752.84168 320.4 
L 752.84168 43.2 
" clip-path="url(#pb5228d7220)" style="fill: none; stroke: #b0b0b0; stroke-width: 0.8; stroke-linecap: square"/>
     </g>
     <g id="line2d_104">
      <g>
       <use xlink:href="#mbd1ddd360f" x="752.84168" y="320.4" style="stroke: #000000; stroke-width: 0.6"/>
      </g>
     </g>
    </g>
    <g id="xtick_53">
     <g id="line2d_105">
      <path d="M 760.312941 320.4 
L 760.312941 43.2 
" clip-path="url(#pb5228d7220)" style="fill: none; stroke: #b0b0b0; stroke-width: 0.8; stroke-linecap: square"/>
     </g>
     <g id="line2d_106">
      <g>
       <use xlink:href="#mbd1ddd360f" x="760.312941" y="320.4" style="stroke: #000000; stroke-width: 0.6"/>
      </g>
     </g>
    </g>
    <g id="xtick_54">
     <g id="line2d_107">
      <path d="M 766.784843 320.4 
L 766.784843 43.2 
" clip-path="url(#pb5228d7220)" style="fill: none; stroke: #b0b0b0; stroke-width: 0.8; stroke-linecap: square"/>
     </g>
     <g id="line2d_108">
      <g>
       <use xlink:href="#mbd1ddd360f" x="766.784843" y="320.4" style="stroke: #000000; stroke-width: 0.6"/>
      </g>
     </g>
    </g>
    <g id="xtick_55">
     <g id="line2d_109">
      <path d="M 772.493464 320.4 
L 772.493464 43.2 
" clip-path="url(#pb5228d7220)" style="fill: none; stroke: #b0b0b0; stroke-width: 0.8; stroke-linecap: square"/>
     </g>
     <g id="line2d_110">
      <g>
       <use xlink:href="#mbd1ddd360f" x="772.493464" y="320.4" style="stroke: #000000; stroke-width: 0.6"/>
      </g>
     </g>
    </g>
    <g id="text_8">
     <!-- $\lambda$ -->
     <g transform="translate(439.2 352.131875)scale(0.12 -0.12)">
      <defs>
       <path id="DejaVuSans-Oblique-3bb" d="M 2350 4316 
L 3125 0 
L 2516 0 
L 2038 2588 
L 328 0 
L -281 0 
L 1903 3356 
L 1794 3975 
Q 1725 4369 1391 4369 
L 1091 4369 
L 1184 4863 
L 1550 4856 
Q 2253 4847 2350 4316 
z
" transform="scale(0.015625)"/>
      </defs>
      <use xlink:href="#DejaVuSans-Oblique-3bb" transform="translate(0 0.015625)"/>
     </g>
    </g>
   </g>
   <g id="matplotlib.axis_2">
    <g id="ytick_1">
     <g id="line2d_111">
      <path d="M 108 320.4 
L 777.6 320.4 
" clip-path="url(#pb5228d7220)" style="fill: none; stroke: #b0b0b0; stroke-width: 0.8; stroke-linecap: square"/>
     </g>
     <g id="line2d_112">
      <defs>
       <path id="mc6109b14f0" d="M 0 0 
L -3.5 0 
" style="stroke: #000000; stroke-width: 0.8"/>
      </defs>
      <g>
       <use xlink:href="#mc6109b14f0" x="108" y="320.4" style="stroke: #000000; stroke-width: 0.8"/>
      </g>
     </g>
     <g id="text_9">
      <!-- $\mathdefault{10^{-15}}$ -->
      <g transform="translate(67.52 324.959062)scale(0.12 -0.12)">
       <defs>
        <path id="DejaVuSans-2212" d="M 678 2272 
L 4684 2272 
L 4684 1741 
L 678 1741 
L 678 2272 
z
" transform="scale(0.015625)"/>
       </defs>
       <use xlink:href="#DejaVuSans-31" transform="translate(0 0.684375)"/>
       <use xlink:href="#DejaVuSans-30" transform="translate(63.623047 0.684375)"/>
       <use xlink:href="#DejaVuSans-2212" transform="translate(128.203125 38.965625)scale(0.7)"/>
       <use xlink:href="#DejaVuSans-31" transform="translate(186.855469 38.965625)scale(0.7)"/>
       <use xlink:href="#DejaVuSans-35" transform="translate(231.391602 38.965625)scale(0.7)"/>
      </g>
     </g>
    </g>
    <g id="ytick_2">
     <g id="line2d_113">
      <path d="M 108 292.68 
L 777.6 292.68 
" clip-path="url(#pb5228d7220)" style="fill: none; stroke: #b0b0b0; stroke-width: 0.8; stroke-linecap: square"/>
     </g>
     <g id="line2d_114">
      <g>
       <use xlink:href="#mc6109b14f0" x="108" y="292.68" style="stroke: #000000; stroke-width: 0.8"/>
      </g>
     </g>
     <g id="text_10">
      <!-- $\mathdefault{10^{-14}}$ -->
      <g transform="translate(67.52 297.239062)scale(0.12 -0.12)">
       <use xlink:href="#DejaVuSans-31" transform="translate(0 0.684375)"/>
       <use xlink:href="#DejaVuSans-30" transform="translate(63.623047 0.684375)"/>
       <use xlink:href="#DejaVuSans-2212" transform="translate(128.203125 38.965625)scale(0.7)"/>
       <use xlink:href="#DejaVuSans-31" transform="translate(186.855469 38.965625)scale(0.7)"/>
       <use xlink:href="#DejaVuSans-34" transform="translate(231.391602 38.965625)scale(0.7)"/>
      </g>
     </g>
    </g>
    <g id="ytick_3">
     <g id="line2d_115">
      <path d="M 108 264.96 
L 777.6 264.96 
" clip-path="url(#pb5228d7220)" style="fill: none; stroke: #b0b0b0; stroke-width: 0.8; stroke-linecap: square"/>
     </g>
     <g id="line2d_116">
      <g>
       <use xlink:href="#mc6109b14f0" x="108" y="264.96" style="stroke: #000000; stroke-width: 0.8"/>
      </g>
     </g>
     <g id="text_11">
      <!-- $\mathdefault{10^{-13}}$ -->
      <g transform="translate(67.52 269.519062)scale(0.12 -0.12)">
       <use xlink:href="#DejaVuSans-31" transform="translate(0 0.765625)"/>
       <use xlink:href="#DejaVuSans-30" transform="translate(63.623047 0.765625)"/>
       <use xlink:href="#DejaVuSans-2212" transform="translate(128.203125 39.046875)scale(0.7)"/>
       <use xlink:href="#DejaVuSans-31" transform="translate(186.855469 39.046875)scale(0.7)"/>
       <use xlink:href="#DejaVuSans-33" transform="translate(231.391602 39.046875)scale(0.7)"/>
      </g>
     </g>
    </g>
    <g id="ytick_4">
     <g id="line2d_117">
      <path d="M 108 237.24 
L 777.6 237.24 
" clip-path="url(#pb5228d7220)" style="fill: none; stroke: #b0b0b0; stroke-width: 0.8; stroke-linecap: square"/>
     </g>
     <g id="line2d_118">
      <g>
       <use xlink:href="#mc6109b14f0" x="108" y="237.24" style="stroke: #000000; stroke-width: 0.8"/>
      </g>
     </g>
     <g id="text_12">
      <!-- $\mathdefault{10^{-12}}$ -->
      <g transform="translate(67.52 241.799062)scale(0.12 -0.12)">
       <use xlink:href="#DejaVuSans-31" transform="translate(0 0.765625)"/>
       <use xlink:href="#DejaVuSans-30" transform="translate(63.623047 0.765625)"/>
       <use xlink:href="#DejaVuSans-2212" transform="translate(128.203125 39.046875)scale(0.7)"/>
       <use xlink:href="#DejaVuSans-31" transform="translate(186.855469 39.046875)scale(0.7)"/>
       <use xlink:href="#DejaVuSans-32" transform="translate(231.391602 39.046875)scale(0.7)"/>
      </g>
     </g>
    </g>
    <g id="ytick_5">
     <g id="line2d_119">
      <path d="M 108 209.52 
L 777.6 209.52 
" clip-path="url(#pb5228d7220)" style="fill: none; stroke: #b0b0b0; stroke-width: 0.8; stroke-linecap: square"/>
     </g>
     <g id="line2d_120">
      <g>
       <use xlink:href="#mc6109b14f0" x="108" y="209.52" style="stroke: #000000; stroke-width: 0.8"/>
      </g>
     </g>
     <g id="text_13">
      <!-- $\mathdefault{10^{-11}}$ -->
      <g transform="translate(67.52 214.079062)scale(0.12 -0.12)">
       <use xlink:href="#DejaVuSans-31" transform="translate(0 0.684375)"/>
       <use xlink:href="#DejaVuSans-30" transform="translate(63.623047 0.684375)"/>
       <use xlink:href="#DejaVuSans-2212" transform="translate(128.203125 38.965625)scale(0.7)"/>
       <use xlink:href="#DejaVuSans-31" transform="translate(186.855469 38.965625)scale(0.7)"/>
       <use xlink:href="#DejaVuSans-31" transform="translate(231.391602 38.965625)scale(0.7)"/>
      </g>
     </g>
    </g>
    <g id="ytick_6">
     <g id="line2d_121">
      <path d="M 108 181.8 
L 777.6 181.8 
" clip-path="url(#pb5228d7220)" style="fill: none; stroke: #b0b0b0; stroke-width: 0.8; stroke-linecap: square"/>
     </g>
     <g id="line2d_122">
      <g>
       <use xlink:href="#mc6109b14f0" x="108" y="181.8" style="stroke: #000000; stroke-width: 0.8"/>
      </g>
     </g>
     <g id="text_14">
      <!-- $\mathdefault{10^{-10}}$ -->
      <g transform="translate(67.52 186.359062)scale(0.12 -0.12)">
       <use xlink:href="#DejaVuSans-31" transform="translate(0 0.765625)"/>
       <use xlink:href="#DejaVuSans-30" transform="translate(63.623047 0.765625)"/>
       <use xlink:href="#DejaVuSans-2212" transform="translate(128.203125 39.046875)scale(0.7)"/>
       <use xlink:href="#DejaVuSans-31" transform="translate(186.855469 39.046875)scale(0.7)"/>
       <use xlink:href="#DejaVuSans-30" transform="translate(231.391602 39.046875)scale(0.7)"/>
      </g>
     </g>
    </g>
    <g id="ytick_7">
     <g id="line2d_123">
      <path d="M 108 154.08 
L 777.6 154.08 
" clip-path="url(#pb5228d7220)" style="fill: none; stroke: #b0b0b0; stroke-width: 0.8; stroke-linecap: square"/>
     </g>
     <g id="line2d_124">
      <g>
       <use xlink:href="#mc6109b14f0" x="108" y="154.08" style="stroke: #000000; stroke-width: 0.8"/>
      </g>
     </g>
     <g id="text_15">
      <!-- $\mathdefault{10^{-9}}$ -->
      <g transform="translate(72.8 158.639062)scale(0.12 -0.12)">
       <defs>
        <path id="DejaVuSans-39" d="M 703 97 
L 703 672 
Q 941 559 1184 500 
Q 1428 441 1663 441 
Q 2288 441 2617 861 
Q 2947 1281 2994 2138 
Q 2813 1869 2534 1725 
Q 2256 1581 1919 1581 
Q 1219 1581 811 2004 
Q 403 2428 403 3163 
Q 403 3881 828 4315 
Q 1253 4750 1959 4750 
Q 2769 4750 3195 4129 
Q 3622 3509 3622 2328 
Q 3622 1225 3098 567 
Q 2575 -91 1691 -91 
Q 1453 -91 1209 -44 
Q 966 3 703 97 
z
M 1959 2075 
Q 2384 2075 2632 2365 
Q 2881 2656 2881 3163 
Q 2881 3666 2632 3958 
Q 2384 4250 1959 4250 
Q 1534 4250 1286 3958 
Q 1038 3666 1038 3163 
Q 1038 2656 1286 2365 
Q 1534 2075 1959 2075 
z
" transform="scale(0.015625)"/>
       </defs>
       <use xlink:href="#DejaVuSans-31" transform="translate(0 0.765625)"/>
       <use xlink:href="#DejaVuSans-30" transform="translate(63.623047 0.765625)"/>
       <use xlink:href="#DejaVuSans-2212" transform="translate(128.203125 39.046875)scale(0.7)"/>
       <use xlink:href="#DejaVuSans-39" transform="translate(186.855469 39.046875)scale(0.7)"/>
      </g>
     </g>
    </g>
    <g id="ytick_8">
     <g id="line2d_125">
      <path d="M 108 126.36 
L 777.6 126.36 
" clip-path="url(#pb5228d7220)" style="fill: none; stroke: #b0b0b0; stroke-width: 0.8; stroke-linecap: square"/>
     </g>
     <g id="line2d_126">
      <g>
       <use xlink:href="#mc6109b14f0" x="108" y="126.36" style="stroke: #000000; stroke-width: 0.8"/>
      </g>
     </g>
     <g id="text_16">
      <!-- $\mathdefault{10^{-8}}$ -->
      <g transform="translate(72.8 130.919062)scale(0.12 -0.12)">
       <defs>
        <path id="DejaVuSans-38" d="M 2034 2216 
Q 1584 2216 1326 1975 
Q 1069 1734 1069 1313 
Q 1069 891 1326 650 
Q 1584 409 2034 409 
Q 2484 409 2743 651 
Q 3003 894 3003 1313 
Q 3003 1734 2745 1975 
Q 2488 2216 2034 2216 
z
M 1403 2484 
Q 997 2584 770 2862 
Q 544 3141 544 3541 
Q 544 4100 942 4425 
Q 1341 4750 2034 4750 
Q 2731 4750 3128 4425 
Q 3525 4100 3525 3541 
Q 3525 3141 3298 2862 
Q 3072 2584 2669 2484 
Q 3125 2378 3379 2068 
Q 3634 1759 3634 1313 
Q 3634 634 3220 271 
Q 2806 -91 2034 -91 
Q 1263 -91 848 271 
Q 434 634 434 1313 
Q 434 1759 690 2068 
Q 947 2378 1403 2484 
z
M 1172 3481 
Q 1172 3119 1398 2916 
Q 1625 2713 2034 2713 
Q 2441 2713 2670 2916 
Q 2900 3119 2900 3481 
Q 2900 3844 2670 4047 
Q 2441 4250 2034 4250 
Q 1625 4250 1398 4047 
Q 1172 3844 1172 3481 
z
" transform="scale(0.015625)"/>
       </defs>
       <use xlink:href="#DejaVuSans-31" transform="translate(0 0.765625)"/>
       <use xlink:href="#DejaVuSans-30" transform="translate(63.623047 0.765625)"/>
       <use xlink:href="#DejaVuSans-2212" transform="translate(128.203125 39.046875)scale(0.7)"/>
       <use xlink:href="#DejaVuSans-38" transform="translate(186.855469 39.046875)scale(0.7)"/>
      </g>
     </g>
    </g>
    <g id="ytick_9">
     <g id="line2d_127">
      <path d="M 108 98.64 
L 777.6 98.64 
" clip-path="url(#pb5228d7220)" style="fill: none; stroke: #b0b0b0; stroke-width: 0.8; stroke-linecap: square"/>
     </g>
     <g id="line2d_128">
      <g>
       <use xlink:href="#mc6109b14f0" x="108" y="98.64" style="stroke: #000000; stroke-width: 0.8"/>
      </g>
     </g>
     <g id="text_17">
      <!-- $\mathdefault{10^{-7}}$ -->
      <g transform="translate(72.8 103.199062)scale(0.12 -0.12)">
       <use xlink:href="#DejaVuSans-31" transform="translate(0 0.684375)"/>
       <use xlink:href="#DejaVuSans-30" transform="translate(63.623047 0.684375)"/>
       <use xlink:href="#DejaVuSans-2212" transform="translate(128.203125 38.965625)scale(0.7)"/>
       <use xlink:href="#DejaVuSans-37" transform="translate(186.855469 38.965625)scale(0.7)"/>
      </g>
     </g>
    </g>
    <g id="ytick_10">
     <g id="line2d_129">
      <path d="M 108 70.92 
L 777.6 70.92 
" clip-path="url(#pb5228d7220)" style="fill: none; stroke: #b0b0b0; stroke-width: 0.8; stroke-linecap: square"/>
     </g>
     <g id="line2d_130">
      <g>
       <use xlink:href="#mc6109b14f0" x="108" y="70.92" style="stroke: #000000; stroke-width: 0.8"/>
      </g>
     </g>
     <g id="text_18">
      <!-- $\mathdefault{10^{-6}}$ -->
      <g transform="translate(72.8 75.479062)scale(0.12 -0.12)">
       <use xlink:href="#DejaVuSans-31" transform="translate(0 0.765625)"/>
       <use xlink:href="#DejaVuSans-30" transform="translate(63.623047 0.765625)"/>
       <use xlink:href="#DejaVuSans-2212" transform="translate(128.203125 39.046875)scale(0.7)"/>
       <use xlink:href="#DejaVuSans-36" transform="translate(186.855469 39.046875)scale(0.7)"/>
      </g>
     </g>
    </g>
    <g id="ytick_11">
     <g id="line2d_131">
      <path d="M 108 43.2 
L 777.6 43.2 
" clip-path="url(#pb5228d7220)" style="fill: none; stroke: #b0b0b0; stroke-width: 0.8; stroke-linecap: square"/>
     </g>
     <g id="line2d_132">
      <g>
       <use xlink:href="#mc6109b14f0" x="108" y="43.2" style="stroke: #000000; stroke-width: 0.8"/>
      </g>
     </g>
     <g id="text_19">
      <!-- $\mathdefault{10^{-5}}$ -->
      <g transform="translate(72.8 47.759062)scale(0.12 -0.12)">
       <use xlink:href="#DejaVuSans-31" transform="translate(0 0.684375)"/>
       <use xlink:href="#DejaVuSans-30" transform="translate(63.623047 0.684375)"/>
       <use xlink:href="#DejaVuSans-2212" transform="translate(128.203125 38.965625)scale(0.7)"/>
       <use xlink:href="#DejaVuSans-35" transform="translate(186.855469 38.965625)scale(0.7)"/>
      </g>
     </g>
    </g>
    <g id="text_20">
     <!-- relative error -->
     <g transform="translate(61.024375 220.859062)rotate(-90)scale(0.12 -0.12)">
      <defs>
       <path id="DejaVuSans-72" d="M 2631 2963 
Q 2534 3019 2420 3045 
Q 2306 3072 2169 3072 
Q 1681 3072 1420 2755 
Q 1159 2438 1159 1844 
L 1159 0 
L 581 0 
L 581 3500 
L 1159 3500 
L 1159 2956 
Q 1341 3275 1631 3429 
Q 1922 3584 2338 3584 
Q 2397 3584 2469 3576 
Q 2541 3569 2628 3553 
L 2631 2963 
z
" transform="scale(0.015625)"/>
       <path id="DejaVuSans-65" d="M 3597 1894 
L 3597 1613 
L 953 1613 
Q 991 1019 1311 708 
Q 1631 397 2203 397 
Q 2534 397 2845 478 
Q 3156 559 3463 722 
L 3463 178 
Q 3153 47 2828 -22 
Q 2503 -91 2169 -91 
Q 1331 -91 842 396 
Q 353 884 353 1716 
Q 353 2575 817 3079 
Q 1281 3584 2069 3584 
Q 2775 3584 3186 3129 
Q 3597 2675 3597 1894 
z
M 3022 2063 
Q 3016 2534 2758 2815 
Q 2500 3097 2075 3097 
Q 1594 3097 1305 2825 
Q 1016 2553 972 2059 
L 3022 2063 
z
" transform="scale(0.015625)"/>
       <path id="DejaVuSans-6c" d="M 603 4863 
L 1178 4863 
L 1178 0 
L 603 0 
L 603 4863 
z
" transform="scale(0.015625)"/>
       <path id="DejaVuSans-61" d="M 2194 1759 
Q 1497 1759 1228 1600 
Q 959 1441 959 1056 
Q 959 750 1161 570 
Q 1363 391 1709 391 
Q 2188 391 2477 730 
Q 2766 1069 2766 1631 
L 2766 1759 
L 2194 1759 
z
M 3341 1997 
L 3341 0 
L 2766 0 
L 2766 531 
Q 2569 213 2275 61 
Q 1981 -91 1556 -91 
Q 1019 -91 701 211 
Q 384 513 384 1019 
Q 384 1609 779 1909 
Q 1175 2209 1959 2209 
L 2766 2209 
L 2766 2266 
Q 2766 2663 2505 2880 
Q 2244 3097 1772 3097 
Q 1472 3097 1187 3025 
Q 903 2953 641 2809 
L 641 3341 
Q 956 3463 1253 3523 
Q 1550 3584 1831 3584 
Q 2591 3584 2966 3190 
Q 3341 2797 3341 1997 
z
" transform="scale(0.015625)"/>
       <path id="DejaVuSans-74" d="M 1172 4494 
L 1172 3500 
L 2356 3500 
L 2356 3053 
L 1172 3053 
L 1172 1153 
Q 1172 725 1289 603 
Q 1406 481 1766 481 
L 2356 481 
L 2356 0 
L 1766 0 
Q 1100 0 847 248 
Q 594 497 594 1153 
L 594 3053 
L 172 3053 
L 172 3500 
L 594 3500 
L 594 4494 
L 1172 4494 
z
" transform="scale(0.015625)"/>
       <path id="DejaVuSans-69" d="M 603 3500 
L 1178 3500 
L 1178 0 
L 603 0 
L 603 3500 
z
M 603 4863 
L 1178 4863 
L 1178 4134 
L 603 4134 
L 603 4863 
z
" transform="scale(0.015625)"/>
       <path id="DejaVuSans-76" d="M 191 3500 
L 800 3500 
L 1894 563 
L 2988 3500 
L 3597 3500 
L 2284 0 
L 1503 0 
L 191 3500 
z
" transform="scale(0.015625)"/>
       <path id="DejaVuSans-20" transform="scale(0.015625)"/>
       <path id="DejaVuSans-6f" d="M 1959 3097 
Q 1497 3097 1228 2736 
Q 959 2375 959 1747 
Q 959 1119 1226 758 
Q 1494 397 1959 397 
Q 2419 397 2687 759 
Q 2956 1122 2956 1747 
Q 2956 2369 2687 2733 
Q 2419 3097 1959 3097 
z
M 1959 3584 
Q 2709 3584 3137 3096 
Q 3566 2609 3566 1747 
Q 3566 888 3137 398 
Q 2709 -91 1959 -91 
Q 1206 -91 779 398 
Q 353 888 353 1747 
Q 353 2609 779 3096 
Q 1206 3584 1959 3584 
z
" transform="scale(0.015625)"/>
      </defs>
      <use xlink:href="#DejaVuSans-72"/>
      <use xlink:href="#DejaVuSans-65" x="38.863281"/>
      <use xlink:href="#DejaVuSans-6c" x="100.386719"/>
      <use xlink:href="#DejaVuSans-61" x="128.169922"/>
      <use xlink:href="#DejaVuSans-74" x="189.449219"/>
      <use xlink:href="#DejaVuSans-69" x="228.658203"/>
      <use xlink:href="#DejaVuSans-76" x="256.441406"/>
      <use xlink:href="#DejaVuSans-65" x="315.621094"/>
      <use xlink:href="#DejaVuSans-20" x="377.144531"/>
      <use xlink:href="#DejaVuSans-65" x="408.931641"/>
      <use xlink:href="#DejaVuSans-72" x="470.455078"/>
      <use xlink:href="#DejaVuSans-72" x="509.818359"/>
      <use xlink:href="#DejaVuSans-6f" x="548.681641"/>
      <use xlink:href="#DejaVuSans-72" x="609.863281"/>
     </g>
    </g>
   </g>
   <g id="line2d_133">
    <path d="M 406.285904 -1 
L 668.29895 64.113693 
L 802.67874 97.492091 
L 802.67874 97.492091 
" clip-path="url(#pb5228d7220)" style="fill: none; stroke: #1f77b4; stroke-width: 1.5; stroke-linecap: square"/>
   </g>
   <g id="line2d_134">
    <path d="M 221.924119 -1 
L 268.09789 21.916943 
L 533.91916 154.106368 
L 802.67874 287.719552 
L 802.67874 287.719552 
" clip-path="url(#pb5228d7220)" style="fill: none; stroke: #ff7f0e; stroke-width: 1.5; stroke-linecap: square"/>
   </g>
   <g id="line2d_135">
    <path d="M 158.284933 -1 
L 175.189895 17.168238 
L 194.84168 37.947324 
L 215.558722 59.521178 
L 239.893744 84.526561 
L 268.09789 113.18173 
L 304.463149 149.794626 
L 355.880711 201.208639 
L 399.53937 244.70621 
L 433.134318 278.059752 
L 466.729265 310.809584 
L 466.790998 361 
M 533.891483 361 
L 533.91916 338.520413 
L 634.704003 338.517239 
L 634.731684 361 
M 701.866216 361 
L 701.893898 338.516833 
L 735.488845 338.516759 
L 735.516527 361 
M 802.651059 361 
L 802.67874 338.516699 
L 802.67874 338.516699 
" clip-path="url(#pb5228d7220)" style="fill: none; stroke: #2ca02c; stroke-width: 1.5; stroke-linecap: square"/>
   </g>
   <g id="line2d_136">
    <path d="M 124.216677 -1 
L 139.108902 21.969707 
L 208.784843 129.814616 
L 237.273254 173.318458 
L 270.868202 224.199478 
L 307.083639 278.684468 
L 309.569685 282.292855 
L 311.934411 285.947952 
L 314.189109 289.701601 
L 316.343564 292.482431 
L 318.406312 295.368936 
L 320.384843 298.807002 
L 322.285763 301.590971 
L 324.114934 304.019419 
L 327.578354 310.161882 
L 329.22147 311.352459 
L 330.810703 312.97475 
L 332.349475 317.087783 
L 335.287785 320.502373 
L 338.058097 327.464426 
L 340.678587 329.620256 
L 343.164633 324.916787 
L 345.529358 332.081887 
L 347.784056 330.957485 
L 349.938512 333.346525 
L 352.00126 345.543924 
L 353.97979 336.213077 
L 353.981517 361 
M 362.815162 361 
L 362.816417 340.153895 
L 362.817631 361 
M 365.943159 361 
L 365.944423 338.595532 
L 365.946835 361 
M 371.651328 361 
L 371.653044 344.096654 
L 383.533459 338.181265 
L 383.535184 361 
M 391.303599 361 
L 391.304829 342.65775 
L 391.306014 361 
M 396.410107 361 
L 396.411365 340.116577 
L 398.000598 339.325802 
L 398.00182 361 
M 433.106665 361 
L 433.134318 338.540456 
L 634.704003 338.517239 
L 634.731684 361 
M 701.866216 361 
L 701.893898 338.516833 
L 735.488845 338.516759 
L 735.516527 361 
M 802.651059 361 
L 802.67874 338.516699 
L 802.67874 338.516699 
" clip-path="url(#pb5228d7220)" style="fill: none; stroke: #d62728; stroke-width: 1.5; stroke-linecap: square"/>
   </g>
   <g id="line2d_137">
    <path d="M 119.493994 -1 
L 139.108902 42.262533 
L 156.140196 79.296302 
L 172.703849 114.790877 
L 191.497784 154.479708 
L 211.149568 195.408232 
L 231.564633 237.425793 
L 253.194948 281.569729 
L 258.687679 292.529695 
L 262.031575 299.990749 
L 263.620808 302.515418 
L 265.15958 305.573812 
L 268.09789 313.215442 
L 270.868202 316.702219 
L 275.974738 322.478256 
L 278.339463 332.320541 
L 280.594161 331.187691 
L 280.596515 361 
M 286.788718 361 
L 286.789895 344.766006 
L 288.690816 343.812197 
L 290.519986 334.5501 
L 290.521695 361 
M 295.625278 361 
L 295.626522 340.334418 
L 297.215755 339.53801 
L 297.216965 361 
M 304.461448 361 
L 304.463149 344.252809 
L 304.464758 361 
M 309.567167 361 
L 309.569685 333.352674 
L 309.572081 361 
M 314.186634 361 
L 314.189109 331.042147 
L 316.343564 346.654033 
L 318.406312 337.278342 
L 320.384843 344.634053 
L 322.285763 343.684178 
L 322.286924 361 
M 327.57711 361 
L 327.578354 341.040391 
L 327.579556 361 
M 330.809446 361 
L 330.810703 339.426353 
L 330.811919 361 
M 338.056386 361 
L 338.058097 344.153529 
L 338.059715 361 
M 343.162106 361 
L 343.164633 333.261339 
L 345.529358 340.426439 
L 349.938512 338.227775 
L 349.940233 361 
M 353.978598 361 
L 353.97979 344.557628 
L 355.880711 343.610126 
L 355.881877 361 
M 362.815162 361 
L 362.816417 340.153895 
L 362.817631 361 
M 365.943159 361 
L 365.944423 338.595532 
L 365.946835 361 
M 371.651328 361 
L 371.653044 344.096654 
L 383.533459 338.181265 
L 383.535184 361 
M 391.303599 361 
L 391.304829 342.65775 
L 391.306014 361 
M 396.410107 361 
L 396.411365 340.116577 
L 398.000598 339.325802 
L 398.00182 361 
M 433.106665 361 
L 433.134318 338.540456 
L 634.704003 338.517239 
L 634.731684 361 
M 701.866216 361 
L 701.893898 338.516833 
L 735.488845 338.516759 
L 735.516527 361 
M 802.651059 361 
L 802.67874 338.516699 
L 802.67874 338.516699 
" clip-path="url(#pb5228d7220)" style="fill: none; stroke: #9467bd; stroke-width: 1.5; stroke-linecap: square"/>
   </g>
   <g id="line2d_138">
    <path d="M 107.826195 -1 
L 136.488412 93.661064 
L 154.311026 151.671438 
L 170.083359 202.310612 
L 187.905973 258.768074 
L 196.430913 285.559907 
L 200.907995 298.758941 
L 203.678307 307.388885 
L 206.298797 317.342382 
L 208.784843 329.296037 
L 211.149568 328.08688 
L 211.152287 361 
M 215.555673 361 
L 215.558722 322.371407 
L 217.62147 346.352475 
L 217.622532 361 
M 225.091539 361 
L 225.092731 342.545557 
L 225.093882 361 
M 230.024153 361 
L 230.02586 331.692031 
L 230.027512 361 
M 239.892051 361 
L 239.893744 343.372969 
L 242.37979 333.768828 
L 242.38215 361 
M 249.151907 361 
L 249.153669 338.685414 
L 251.216417 345.98725 
L 253.194948 344.987593 
L 253.196063 361 
M 256.92328 361 
L 256.925039 334.759666 
L 258.687679 342.214793 
L 260.388459 341.356913 
L 262.031575 332.18387 
L 262.033253 361 
M 268.095356 361 
L 268.09789 337.472141 
L 268.100278 361 
M 273.486973 361 
L 273.488692 343.103845 
L 275.974738 333.509153 
L 275.97712 361 
M 280.592387 361 
L 280.594161 339.532242 
L 282.748617 338.450163 
L 284.811365 345.759057 
L 284.81247 361 
M 288.689618 361 
L 288.690816 343.812197 
L 290.519986 334.5501 
L 290.521695 361 
M 295.625278 361 
L 295.626522 340.334418 
L 297.215755 339.53801 
L 297.216965 361 
M 304.461448 361 
L 304.463149 344.252809 
L 304.464758 361 
M 309.567167 361 
L 309.569685 333.352674 
L 309.572081 361 
M 314.186634 361 
L 314.189109 331.042147 
L 316.343564 346.654033 
L 318.406312 337.278342 
L 320.384843 344.634053 
L 322.285763 343.684178 
L 322.286924 361 
M 327.57711 361 
L 327.578354 341.040391 
L 327.579556 361 
M 330.809446 361 
L 330.810703 339.426353 
L 330.811919 361 
M 338.056386 361 
L 338.058097 344.153529 
L 338.059715 361 
M 343.162106 361 
L 343.164633 333.261339 
L 345.529358 340.426439 
L 349.938512 338.227775 
L 349.940233 361 
M 353.978598 361 
L 353.97979 344.557628 
L 355.880711 343.610126 
L 355.881877 361 
M 362.815162 361 
L 362.816417 340.153895 
L 362.817631 361 
M 365.943159 361 
L 365.944423 338.595532 
L 365.946835 361 
M 371.651328 361 
L 371.653044 344.096654 
L 383.533459 338.181265 
L 383.535184 361 
M 391.303599 361 
L 391.304829 342.65775 
L 391.306014 361 
M 396.410107 361 
L 396.411365 340.116577 
L 398.000598 339.325802 
L 398.00182 361 
M 433.106665 361 
L 433.134318 338.540456 
L 634.704003 338.517239 
L 634.731684 361 
M 701.866216 361 
L 701.893898 338.516833 
L 735.488845 338.516759 
L 735.516527 361 
M 802.651059 361 
L 802.67874 338.516699 
L 802.67874 338.516699 
" clip-path="url(#pb5228d7220)" style="fill: none; stroke: #8c564b; stroke-width: 1.5; stroke-linecap: square"/>
   </g>
   <g id="line2d_139">
    <path d="M 101.917956 -1 
L 143.959673 183.092523 
L 162.835965 264.300153 
L 170.083359 294.936065 
L 172.703849 305.157939 
L 175.189895 316.646826 
L 177.554621 328.652992 
L 179.809319 340.716305 
L 181.963774 331.261376 
L 186.005052 345.868964 
L 186.006107 361 
M 191.496085 361 
L 191.497784 334.698463 
L 193.198564 325.479692 
L 193.200702 361 
M 197.968015 361 
L 197.969685 331.374044 
L 200.907995 333.330067 
L 203.678307 345.135981 
L 206.298797 343.793984 
L 208.784843 334.177287 
L 211.149568 341.312681 
L 213.404266 340.16061 
L 215.558722 325.834709 
L 215.561379 361 
M 225.091539 361 
L 225.092731 342.545557 
L 225.093882 361 
M 230.024153 361 
L 230.02586 331.692031 
L 230.027512 361 
M 239.892051 361 
L 239.893744 343.372969 
L 242.37979 333.768828 
L 242.38215 361 
M 249.151907 361 
L 249.153669 338.685414 
L 251.216417 345.98725 
L 253.194948 344.987593 
L 253.196063 361 
M 256.92328 361 
L 256.925039 334.759666 
L 258.687679 342.214793 
L 260.388459 341.356913 
L 262.031575 332.18387 
L 262.033253 361 
M 268.095356 361 
L 268.09789 337.472141 
L 268.100278 361 
M 273.486973 361 
L 273.488692 343.103845 
L 275.974738 333.509153 
L 275.97712 361 
M 280.592387 361 
L 280.594161 339.532242 
L 282.748617 338.450163 
L 284.811365 345.759057 
L 284.81247 361 
M 288.689618 361 
L 288.690816 343.812197 
L 290.519986 334.5501 
L 290.521695 361 
M 295.625278 361 
L 295.626522 340.334418 
L 297.215755 339.53801 
L 297.216965 361 
M 304.461448 361 
L 304.463149 344.252809 
L 304.464758 361 
M 309.567167 361 
L 309.569685 333.352674 
L 309.572081 361 
M 314.186634 361 
L 314.189109 331.042147 
L 316.343564 346.654033 
L 318.406312 337.278342 
L 320.384843 344.634053 
L 322.285763 343.684178 
L 322.286924 361 
M 327.57711 361 
L 327.578354 341.040391 
L 327.579556 361 
M 330.809446 361 
L 330.810703 339.426353 
L 330.811919 361 
M 338.056386 361 
L 338.058097 344.153529 
L 338.059715 361 
M 343.162106 361 
L 343.164633 333.261339 
L 345.529358 340.426439 
L 349.938512 338.227775 
L 349.940233 361 
M 353.978598 361 
L 353.97979 344.557628 
L 355.880711 343.610126 
L 355.881877 361 
M 362.815162 361 
L 362.816417 340.153895 
L 362.817631 361 
M 365.943159 361 
L 365.944423 338.595532 
L 365.946835 361 
M 371.651328 361 
L 371.653044 344.096654 
L 383.533459 338.181265 
L 383.535184 361 
M 391.303599 361 
L 391.304829 342.65775 
L 391.306014 361 
M 396.410107 361 
L 396.411365 340.116577 
L 398.000598 339.325802 
L 398.00182 361 
M 433.106665 361 
L 433.134318 338.540456 
L 634.704003 338.517239 
L 634.731684 361 
M 701.866216 361 
L 701.893898 338.516833 
L 735.488845 338.516759 
L 735.516527 361 
M 802.651059 361 
L 802.67874 338.516699 
L 802.67874 338.516699 
" clip-path="url(#pb5228d7220)" style="fill: none; stroke: #e377c2; stroke-width: 1.5; stroke-linecap: square"/>
   </g>
   <g id="patch_3">
    <path d="M 108 320.4 
L 108 43.2 
" style="fill: none; stroke: #000000; stroke-width: 0.8; stroke-linejoin: miter; stroke-linecap: square"/>
   </g>
   <g id="patch_4">
    <path d="M 777.6 320.4 
L 777.6 43.2 
" style="fill: none; stroke: #000000; stroke-width: 0.8; stroke-linejoin: miter; stroke-linecap: square"/>
   </g>
   <g id="patch_5">
    <path d="M 108 320.4 
L 777.6 320.4 
" style="fill: none; stroke: #000000; stroke-width: 0.8; stroke-linejoin: miter; stroke-linecap: square"/>
   </g>
   <g id="patch_6">
    <path d="M 108 43.2 
L 777.6 43.2 
" style="fill: none; stroke: #000000; stroke-width: 0.8; stroke-linejoin: miter; stroke-linecap: square"/>
   </g>
   <g id="legend_1">
    <g id="patch_7">
     <path d="M 676.965 176.09625 
L 769.2 176.09625 
Q 771.6 176.09625 771.6 173.69625 
L 771.6 51.6 
Q 771.6 49.2 769.2 49.2 
L 676.965 49.2 
Q 674.565 49.2 674.565 51.6 
L 674.565 173.69625 
Q 674.565 176.09625 676.965 176.09625 
z
" style="fill: #ffffff; opacity: 0.8; stroke: #cccccc; stroke-linejoin: miter"/>
    </g>
    <g id="line2d_140">
     <path d="M 679.365 58.918125 
L 691.365 58.918125 
L 703.365 58.918125 
" style="fill: none; stroke: #1f77b4; stroke-width: 1.5; stroke-linecap: square"/>
    </g>
    <g id="text_21">
     <!-- 1 terms -->
     <g transform="translate(712.965 63.118125)scale(0.12 -0.12)">
      <defs>
       <path id="DejaVuSans-6d" d="M 3328 2828 
Q 3544 3216 3844 3400 
Q 4144 3584 4550 3584 
Q 5097 3584 5394 3201 
Q 5691 2819 5691 2113 
L 5691 0 
L 5113 0 
L 5113 2094 
Q 5113 2597 4934 2840 
Q 4756 3084 4391 3084 
Q 3944 3084 3684 2787 
Q 3425 2491 3425 1978 
L 3425 0 
L 2847 0 
L 2847 2094 
Q 2847 2600 2669 2842 
Q 2491 3084 2119 3084 
Q 1678 3084 1418 2786 
Q 1159 2488 1159 1978 
L 1159 0 
L 581 0 
L 581 3500 
L 1159 3500 
L 1159 2956 
Q 1356 3278 1631 3431 
Q 1906 3584 2284 3584 
Q 2666 3584 2933 3390 
Q 3200 3197 3328 2828 
z
" transform="scale(0.015625)"/>
       <path id="DejaVuSans-73" d="M 2834 3397 
L 2834 2853 
Q 2591 2978 2328 3040 
Q 2066 3103 1784 3103 
Q 1356 3103 1142 2972 
Q 928 2841 928 2578 
Q 928 2378 1081 2264 
Q 1234 2150 1697 2047 
L 1894 2003 
Q 2506 1872 2764 1633 
Q 3022 1394 3022 966 
Q 3022 478 2636 193 
Q 2250 -91 1575 -91 
Q 1294 -91 989 -36 
Q 684 19 347 128 
L 347 722 
Q 666 556 975 473 
Q 1284 391 1588 391 
Q 1994 391 2212 530 
Q 2431 669 2431 922 
Q 2431 1156 2273 1281 
Q 2116 1406 1581 1522 
L 1381 1569 
Q 847 1681 609 1914 
Q 372 2147 372 2553 
Q 372 3047 722 3315 
Q 1072 3584 1716 3584 
Q 2034 3584 2315 3537 
Q 2597 3491 2834 3397 
z
" transform="scale(0.015625)"/>
      </defs>
      <use xlink:href="#DejaVuSans-31"/>
      <use xlink:href="#DejaVuSans-20" x="63.623047"/>
      <use xlink:href="#DejaVuSans-74" x="95.410156"/>
      <use xlink:href="#DejaVuSans-65" x="134.619141"/>
      <use xlink:href="#DejaVuSans-72" x="196.142578"/>
      <use xlink:href="#DejaVuSans-6d" x="235.505859"/>
      <use xlink:href="#DejaVuSans-73" x="332.917969"/>
     </g>
    </g>
    <g id="line2d_141">
     <path d="M 679.365 76.531875 
L 691.365 76.531875 
L 703.365 76.531875 
" style="fill: none; stroke: #ff7f0e; stroke-width: 1.5; stroke-linecap: square"/>
    </g>
    <g id="text_22">
     <!-- 2 terms -->
     <g transform="translate(712.965 80.731875)scale(0.12 -0.12)">
      <use xlink:href="#DejaVuSans-32"/>
      <use xlink:href="#DejaVuSans-20" x="63.623047"/>
      <use xlink:href="#DejaVuSans-74" x="95.410156"/>
      <use xlink:href="#DejaVuSans-65" x="134.619141"/>
      <use xlink:href="#DejaVuSans-72" x="196.142578"/>
      <use xlink:href="#DejaVuSans-6d" x="235.505859"/>
      <use xlink:href="#DejaVuSans-73" x="332.917969"/>
     </g>
    </g>
    <g id="line2d_142">
     <path d="M 679.365 94.145625 
L 691.365 94.145625 
L 703.365 94.145625 
" style="fill: none; stroke: #2ca02c; stroke-width: 1.5; stroke-linecap: square"/>
    </g>
    <g id="text_23">
     <!-- 4 terms -->
     <g transform="translate(712.965 98.345625)scale(0.12 -0.12)">
      <use xlink:href="#DejaVuSans-34"/>
      <use xlink:href="#DejaVuSans-20" x="63.623047"/>
      <use xlink:href="#DejaVuSans-74" x="95.410156"/>
      <use xlink:href="#DejaVuSans-65" x="134.619141"/>
      <use xlink:href="#DejaVuSans-72" x="196.142578"/>
      <use xlink:href="#DejaVuSans-6d" x="235.505859"/>
      <use xlink:href="#DejaVuSans-73" x="332.917969"/>
     </g>
    </g>
    <g id="line2d_143">
     <path d="M 679.365 111.759375 
L 691.365 111.759375 
L 703.365 111.759375 
" style="fill: none; stroke: #d62728; stroke-width: 1.5; stroke-linecap: square"/>
    </g>
    <g id="text_24">
     <!-- 6 terms -->
     <g transform="translate(712.965 115.959375)scale(0.12 -0.12)">
      <use xlink:href="#DejaVuSans-36"/>
      <use xlink:href="#DejaVuSans-20" x="63.623047"/>
      <use xlink:href="#DejaVuSans-74" x="95.410156"/>
      <use xlink:href="#DejaVuSans-65" x="134.619141"/>
      <use xlink:href="#DejaVuSans-72" x="196.142578"/>
      <use xlink:href="#DejaVuSans-6d" x="235.505859"/>
      <use xlink:href="#DejaVuSans-73" x="332.917969"/>
     </g>
    </g>
    <g id="line2d_144">
     <path d="M 679.365 129.373125 
L 691.365 129.373125 
L 703.365 129.373125 
" style="fill: none; stroke: #9467bd; stroke-width: 1.5; stroke-linecap: square"/>
    </g>
    <g id="text_25">
     <!-- 8 terms -->
     <g transform="translate(712.965 133.573125)scale(0.12 -0.12)">
      <use xlink:href="#DejaVuSans-38"/>
      <use xlink:href="#DejaVuSans-20" x="63.623047"/>
      <use xlink:href="#DejaVuSans-74" x="95.410156"/>
      <use xlink:href="#DejaVuSans-65" x="134.619141"/>
      <use xlink:href="#DejaVuSans-72" x="196.142578"/>
      <use xlink:href="#DejaVuSans-6d" x="235.505859"/>
      <use xlink:href="#DejaVuSans-73" x="332.917969"/>
     </g>
    </g>
    <g id="line2d_145">
     <path d="M 679.365 146.986875 
L 691.365 146.986875 
L 703.365 146.986875 
" style="fill: none; stroke: #8c564b; stroke-width: 1.5; stroke-linecap: square"/>
    </g>
    <g id="text_26">
     <!-- 12 terms -->
     <g transform="translate(712.965 151.186875)scale(0.12 -0.12)">
      <use xlink:href="#DejaVuSans-31"/>
      <use xlink:href="#DejaVuSans-32" x="63.623047"/>
      <use xlink:href="#DejaVuSans-20" x="127.246094"/>
      <use xlink:href="#DejaVuSans-74" x="159.033203"/>
      <use xlink:href="#DejaVuSans-65" x="198.242188"/>
      <use xlink:href="#DejaVuSans-72" x="259.765625"/>
      <use xlink:href="#DejaVuSans-6d" x="299.128906"/>
      <use xlink:href="#DejaVuSans-73" x="396.541016"/>
     </g>
    </g>
    <g id="line2d_146">
     <path d="M 679.365 164.600625 
L 691.365 164.600625 
L 703.365 164.600625 
" style="fill: none; stroke: #e377c2; stroke-width: 1.5; stroke-linecap: square"/>
    </g>
    <g id="text_27">
     <!-- 16 terms -->
     <g transform="translate(712.965 168.800625)scale(0.12 -0.12)">
      <use xlink:href="#DejaVuSans-31"/>
      <use xlink:href="#DejaVuSans-36" x="63.623047"/>
      <use xlink:href="#DejaVuSans-20" x="127.246094"/>
      <use xlink:href="#DejaVuSans-74" x="159.033203"/>
      <use xlink:href="#DejaVuSans-65" x="198.242188"/>
      <use xlink:href="#DejaVuSans-72" x="259.765625"/>
      <use xlink:href="#DejaVuSans-6d" x="299.128906"/>
      <use xlink:href="#DejaVuSans-73" x="396.541016"/>
     </g>
    </g>
   </g>
  </g>
 </g>
 <defs>
  <clipPath id="pb5228d7220">
   <rect x="108" y="43.2" width="669.6" height="277.2"/>
  </clipPath>
 </defs>
</svg>
