<?xml version="1.0" encoding="utf-8" standalone="no"?>
<!DOCTYPE svg PUBLIC "-//W3C//DTD SVG 1.1//EN"
  "http://www.w3.org/Graphics/SVG/1.1/DTD/svg11.dtd">
<svg xmlns:xlink="http://www.w3.org/1999/xlink" width="750.65375pt" height="330.386563pt" viewBox="0 0 750.65375 330.386563" xmlns="http://www.w3.org/2000/svg" version="1.1">
 <metadata>
  <rdf:RDF xmlns:dc="http://purl.org/dc/elements/1.1/" xmlns:cc="http://creativecommons.org/ns#" xmlns:rdf="http://www.w3.org/1999/02/22-rdf-syntax-ns#">
   <cc:Work>
    <dc:type rdf:resource="http://purl.org/dc/dcmitype/StillImage"/>
    <dc:date>2023-03-31T20:07:25.605018</dc:date>
    <dc:format>image/svg+xml</dc:format>
    <dc:creator>
     <cc:Agent>
      <dc:title>Matplotlib v3.5.2, https://matplotlib.org/</dc:title>
     </cc:Agent>
    </dc:creator>
   </cc:Work>
  </rdf:RDF>
 </metadata>
 <defs>
  <style type="text/css">*{stroke-linejoin: round; stroke-linecap: butt}</style>
 </defs>
 <g id="figure_1">
  <g id="patch_1">
   <path d="M 0 330.386563 
L 750.65375 330.386563 
L 750.65375 0 
L 0 0 
z
" style="fill: #ffffff"/>
  </g>
  <g id="axes_1">
   <g id="patch_2">
    <path d="M 63.29375 288.959063 
L 732.89375 288.959063 
L 732.89375 11.759063 
L 63.29375 11.759063 
z
" style="fill: #ffffff"/>
   </g>
   <g id="matplotlib.axis_1">
    <g id="xtick_1">
     <g id="line2d_1">
      <path d="M 63.29375 288.959063 
L 63.29375 11.759063 
" clip-path="url(#p082cc5165d)" style="fill: none; stroke: #b0b0b0; stroke-width: 0.8; stroke-linecap: square"/>
     </g>
     <g id="line2d_2">
      <defs>
       <path id="mc7cdfdb90d" d="M 0 0 
L 0 3.5 
" style="stroke: #000000; stroke-width: 0.8"/>
      </defs>
      <g>
       <use xlink:href="#mc7cdfdb90d" x="63.29375" y="288.959063" style="stroke: #000000; stroke-width: 0.8"/>
      </g>
     </g>
     <g id="text_1">
      <!-- $\mathdefault{10^{1}}$ -->
      <g transform="translate(52.73375 305.077188)scale(0.12 -0.12)">
       <defs>
        <path id="DejaVuSans-31" d="M 794 531 
L 1825 531 
L 1825 4091 
L 703 3866 
L 703 4441 
L 1819 4666 
L 2450 4666 
L 2450 531 
L 3481 531 
L 3481 0 
L 794 0 
L 794 531 
z
" transform="scale(0.015625)"/>
        <path id="DejaVuSans-30" d="M 2034 4250 
Q 1547 4250 1301 3770 
Q 1056 3291 1056 2328 
Q 1056 1369 1301 889 
Q 1547 409 2034 409 
Q 2525 409 2770 889 
Q 3016 1369 3016 2328 
Q 3016 3291 2770 3770 
Q 2525 4250 2034 4250 
z
M 2034 4750 
Q 2819 4750 3233 4129 
Q 3647 3509 3647 2328 
Q 3647 1150 3233 529 
Q 2819 -91 2034 -91 
Q 1250 -91 836 529 
Q 422 1150 422 2328 
Q 422 3509 836 4129 
Q 1250 4750 2034 4750 
z
" transform="scale(0.015625)"/>
       </defs>
       <use xlink:href="#DejaVuSans-31" transform="translate(0 0.684375)"/>
       <use xlink:href="#DejaVuSans-30" transform="translate(63.623047 0.684375)"/>
       <use xlink:href="#DejaVuSans-31" transform="translate(128.203125 38.965625)scale(0.7)"/>
      </g>
     </g>
    </g>
    <g id="xtick_2">
     <g id="line2d_3">
      <path d="M 174.89375 288.959063 
L 174.89375 11.759063 
" clip-path="url(#p082cc5165d)" style="fill: none; stroke: #b0b0b0; stroke-width: 0.8; stroke-linecap: square"/>
     </g>
     <g id="line2d_4">
      <g>
       <use xlink:href="#mc7cdfdb90d" x="174.89375" y="288.959063" style="stroke: #000000; stroke-width: 0.8"/>
      </g>
     </g>
     <g id="text_2">
      <!-- $\mathdefault{10^{2}}$ -->
      <g transform="translate(164.33375 305.077188)scale(0.12 -0.12)">
       <defs>
        <path id="DejaVuSans-32" d="M 1228 531 
L 3431 531 
L 3431 0 
L 469 0 
L 469 531 
Q 828 903 1448 1529 
Q 2069 2156 2228 2338 
Q 2531 2678 2651 2914 
Q 2772 3150 2772 3378 
Q 2772 3750 2511 3984 
Q 2250 4219 1831 4219 
Q 1534 4219 1204 4116 
Q 875 4013 500 3803 
L 500 4441 
Q 881 4594 1212 4672 
Q 1544 4750 1819 4750 
Q 2544 4750 2975 4387 
Q 3406 4025 3406 3419 
Q 3406 3131 3298 2873 
Q 3191 2616 2906 2266 
Q 2828 2175 2409 1742 
Q 1991 1309 1228 531 
z
" transform="scale(0.015625)"/>
       </defs>
       <use xlink:href="#DejaVuSans-31" transform="translate(0 0.765625)"/>
       <use xlink:href="#DejaVuSans-30" transform="translate(63.623047 0.765625)"/>
       <use xlink:href="#DejaVuSans-32" transform="translate(128.203125 39.046875)scale(0.7)"/>
      </g>
     </g>
    </g>
    <g id="xtick_3">
     <g id="line2d_5">
      <path d="M 286.49375 288.959063 
L 286.49375 11.759063 
" clip-path="url(#p082cc5165d)" style="fill: none; stroke: #b0b0b0; stroke-width: 0.8; stroke-linecap: square"/>
     </g>
     <g id="line2d_6">
      <g>
       <use xlink:href="#mc7cdfdb90d" x="286.49375" y="288.959063" style="stroke: #000000; stroke-width: 0.8"/>
      </g>
     </g>
     <g id="text_3">
      <!-- $\mathdefault{10^{3}}$ -->
      <g transform="translate(275.93375 305.077188)scale(0.12 -0.12)">
       <defs>
        <path id="DejaVuSans-33" d="M 2597 2516 
Q 3050 2419 3304 2112 
Q 3559 1806 3559 1356 
Q 3559 666 3084 287 
Q 2609 -91 1734 -91 
Q 1441 -91 1130 -33 
Q 819 25 488 141 
L 488 750 
Q 750 597 1062 519 
Q 1375 441 1716 441 
Q 2309 441 2620 675 
Q 2931 909 2931 1356 
Q 2931 1769 2642 2001 
Q 2353 2234 1838 2234 
L 1294 2234 
L 1294 2753 
L 1863 2753 
Q 2328 2753 2575 2939 
Q 2822 3125 2822 3475 
Q 2822 3834 2567 4026 
Q 2313 4219 1838 4219 
Q 1578 4219 1281 4162 
Q 984 4106 628 3988 
L 628 4550 
Q 988 4650 1302 4700 
Q 1616 4750 1894 4750 
Q 2613 4750 3031 4423 
Q 3450 4097 3450 3541 
Q 3450 3153 3228 2886 
Q 3006 2619 2597 2516 
z
" transform="scale(0.015625)"/>
       </defs>
       <use xlink:href="#DejaVuSans-31" transform="translate(0 0.765625)"/>
       <use xlink:href="#DejaVuSans-30" transform="translate(63.623047 0.765625)"/>
       <use xlink:href="#DejaVuSans-33" transform="translate(128.203125 39.046875)scale(0.7)"/>
      </g>
     </g>
    </g>
    <g id="xtick_4">
     <g id="line2d_7">
      <path d="M 398.09375 288.959063 
L 398.09375 11.759063 
" clip-path="url(#p082cc5165d)" style="fill: none; stroke: #b0b0b0; stroke-width: 0.8; stroke-linecap: square"/>
     </g>
     <g id="line2d_8">
      <g>
       <use xlink:href="#mc7cdfdb90d" x="398.09375" y="288.959063" style="stroke: #000000; stroke-width: 0.8"/>
      </g>
     </g>
     <g id="text_4">
      <!-- $\mathdefault{10^{4}}$ -->
      <g transform="translate(387.53375 305.077188)scale(0.12 -0.12)">
       <defs>
        <path id="DejaVuSans-34" d="M 2419 4116 
L 825 1625 
L 2419 1625 
L 2419 4116 
z
M 2253 4666 
L 3047 4666 
L 3047 1625 
L 3713 1625 
L 3713 1100 
L 3047 1100 
L 3047 0 
L 2419 0 
L 2419 1100 
L 313 1100 
L 313 1709 
L 2253 4666 
z
" transform="scale(0.015625)"/>
       </defs>
       <use xlink:href="#DejaVuSans-31" transform="translate(0 0.684375)"/>
       <use xlink:href="#DejaVuSans-30" transform="translate(63.623047 0.684375)"/>
       <use xlink:href="#DejaVuSans-34" transform="translate(128.203125 38.965625)scale(0.7)"/>
      </g>
     </g>
    </g>
    <g id="xtick_5">
     <g id="line2d_9">
      <path d="M 509.69375 288.959063 
L 509.69375 11.759063 
" clip-path="url(#p082cc5165d)" style="fill: none; stroke: #b0b0b0; stroke-width: 0.8; stroke-linecap: square"/>
     </g>
     <g id="line2d_10">
      <g>
       <use xlink:href="#mc7cdfdb90d" x="509.69375" y="288.959063" style="stroke: #000000; stroke-width: 0.8"/>
      </g>
     </g>
     <g id="text_5">
      <!-- $\mathdefault{10^{5}}$ -->
      <g transform="translate(499.13375 305.077188)scale(0.12 -0.12)">
       <defs>
        <path id="DejaVuSans-35" d="M 691 4666 
L 3169 4666 
L 3169 4134 
L 1269 4134 
L 1269 2991 
Q 1406 3038 1543 3061 
Q 1681 3084 1819 3084 
Q 2600 3084 3056 2656 
Q 3513 2228 3513 1497 
Q 3513 744 3044 326 
Q 2575 -91 1722 -91 
Q 1428 -91 1123 -41 
Q 819 9 494 109 
L 494 744 
Q 775 591 1075 516 
Q 1375 441 1709 441 
Q 2250 441 2565 725 
Q 2881 1009 2881 1497 
Q 2881 1984 2565 2268 
Q 2250 2553 1709 2553 
Q 1456 2553 1204 2497 
Q 953 2441 691 2322 
L 691 4666 
z
" transform="scale(0.015625)"/>
       </defs>
       <use xlink:href="#DejaVuSans-31" transform="translate(0 0.684375)"/>
       <use xlink:href="#DejaVuSans-30" transform="translate(63.623047 0.684375)"/>
       <use xlink:href="#DejaVuSans-35" transform="translate(128.203125 38.965625)scale(0.7)"/>
      </g>
     </g>
    </g>
    <g id="xtick_6">
     <g id="line2d_11">
      <path d="M 621.29375 288.959063 
L 621.29375 11.759063 
" clip-path="url(#p082cc5165d)" style="fill: none; stroke: #b0b0b0; stroke-width: 0.8; stroke-linecap: square"/>
     </g>
     <g id="line2d_12">
      <g>
       <use xlink:href="#mc7cdfdb90d" x="621.29375" y="288.959063" style="stroke: #000000; stroke-width: 0.8"/>
      </g>
     </g>
     <g id="text_6">
      <!-- $\mathdefault{10^{6}}$ -->
      <g transform="translate(610.73375 305.077188)scale(0.12 -0.12)">
       <defs>
        <path id="DejaVuSans-36" d="M 2113 2584 
Q 1688 2584 1439 2293 
Q 1191 2003 1191 1497 
Q 1191 994 1439 701 
Q 1688 409 2113 409 
Q 2538 409 2786 701 
Q 3034 994 3034 1497 
Q 3034 2003 2786 2293 
Q 2538 2584 2113 2584 
z
M 3366 4563 
L 3366 3988 
Q 3128 4100 2886 4159 
Q 2644 4219 2406 4219 
Q 1781 4219 1451 3797 
Q 1122 3375 1075 2522 
Q 1259 2794 1537 2939 
Q 1816 3084 2150 3084 
Q 2853 3084 3261 2657 
Q 3669 2231 3669 1497 
Q 3669 778 3244 343 
Q 2819 -91 2113 -91 
Q 1303 -91 875 529 
Q 447 1150 447 2328 
Q 447 3434 972 4092 
Q 1497 4750 2381 4750 
Q 2619 4750 2861 4703 
Q 3103 4656 3366 4563 
z
" transform="scale(0.015625)"/>
       </defs>
       <use xlink:href="#DejaVuSans-31" transform="translate(0 0.765625)"/>
       <use xlink:href="#DejaVuSans-30" transform="translate(63.623047 0.765625)"/>
       <use xlink:href="#DejaVuSans-36" transform="translate(128.203125 39.046875)scale(0.7)"/>
      </g>
     </g>
    </g>
    <g id="xtick_7">
     <g id="line2d_13">
      <path d="M 732.89375 288.959063 
L 732.89375 11.759063 
" clip-path="url(#p082cc5165d)" style="fill: none; stroke: #b0b0b0; stroke-width: 0.8; stroke-linecap: square"/>
     </g>
     <g id="line2d_14">
      <g>
       <use xlink:href="#mc7cdfdb90d" x="732.89375" y="288.959063" style="stroke: #000000; stroke-width: 0.8"/>
      </g>
     </g>
     <g id="text_7">
      <!-- $\mathdefault{10^{7}}$ -->
      <g transform="translate(722.33375 305.077188)scale(0.12 -0.12)">
       <defs>
        <path id="DejaVuSans-37" d="M 525 4666 
L 3525 4666 
L 3525 4397 
L 1831 0 
L 1172 0 
L 2766 4134 
L 525 4134 
L 525 4666 
z
" transform="scale(0.015625)"/>
       </defs>
       <use xlink:href="#DejaVuSans-31" transform="translate(0 0.684375)"/>
       <use xlink:href="#DejaVuSans-30" transform="translate(63.623047 0.684375)"/>
       <use xlink:href="#DejaVuSans-37" transform="translate(128.203125 38.965625)scale(0.7)"/>
      </g>
     </g>
    </g>
    <g id="xtick_8">
     <g id="line2d_15">
      <path d="M 96.888698 288.959063 
L 96.888698 11.759063 
" clip-path="url(#p082cc5165d)" style="fill: none; stroke: #b0b0b0; stroke-width: 0.8; stroke-linecap: square"/>
     </g>
     <g id="line2d_16">
      <defs>
       <path id="m866d09a2e2" d="M 0 0 
L 0 2 
" style="stroke: #000000; stroke-width: 0.6"/>
      </defs>
      <g>
       <use xlink:href="#m866d09a2e2" x="96.888698" y="288.959063" style="stroke: #000000; stroke-width: 0.6"/>
      </g>
     </g>
    </g>
    <g id="xtick_9">
     <g id="line2d_17">
      <path d="M 116.540482 288.959063 
L 116.540482 11.759063 
" clip-path="url(#p082cc5165d)" style="fill: none; stroke: #b0b0b0; stroke-width: 0.8; stroke-linecap: square"/>
     </g>
     <g id="line2d_18">
      <g>
       <use xlink:href="#m866d09a2e2" x="116.540482" y="288.959063" style="stroke: #000000; stroke-width: 0.6"/>
      </g>
     </g>
    </g>
    <g id="xtick_10">
     <g id="line2d_19">
      <path d="M 130.483645 288.959063 
L 130.483645 11.759063 
" clip-path="url(#p082cc5165d)" style="fill: none; stroke: #b0b0b0; stroke-width: 0.8; stroke-linecap: square"/>
     </g>
     <g id="line2d_20">
      <g>
       <use xlink:href="#m866d09a2e2" x="130.483645" y="288.959063" style="stroke: #000000; stroke-width: 0.6"/>
      </g>
     </g>
    </g>
    <g id="xtick_11">
     <g id="line2d_21">
      <path d="M 141.298802 288.959063 
L 141.298802 11.759063 
" clip-path="url(#p082cc5165d)" style="fill: none; stroke: #b0b0b0; stroke-width: 0.8; stroke-linecap: square"/>
     </g>
     <g id="line2d_22">
      <g>
       <use xlink:href="#m866d09a2e2" x="141.298802" y="288.959063" style="stroke: #000000; stroke-width: 0.6"/>
      </g>
     </g>
    </g>
    <g id="xtick_12">
     <g id="line2d_23">
      <path d="M 150.13543 288.959063 
L 150.13543 11.759063 
" clip-path="url(#p082cc5165d)" style="fill: none; stroke: #b0b0b0; stroke-width: 0.8; stroke-linecap: square"/>
     </g>
     <g id="line2d_24">
      <g>
       <use xlink:href="#m866d09a2e2" x="150.13543" y="288.959063" style="stroke: #000000; stroke-width: 0.6"/>
      </g>
     </g>
    </g>
    <g id="xtick_13">
     <g id="line2d_25">
      <path d="M 157.606691 288.959063 
L 157.606691 11.759063 
" clip-path="url(#p082cc5165d)" style="fill: none; stroke: #b0b0b0; stroke-width: 0.8; stroke-linecap: square"/>
     </g>
     <g id="line2d_26">
      <g>
       <use xlink:href="#m866d09a2e2" x="157.606691" y="288.959063" style="stroke: #000000; stroke-width: 0.6"/>
      </g>
     </g>
    </g>
    <g id="xtick_14">
     <g id="line2d_27">
      <path d="M 164.078593 288.959063 
L 164.078593 11.759063 
" clip-path="url(#p082cc5165d)" style="fill: none; stroke: #b0b0b0; stroke-width: 0.8; stroke-linecap: square"/>
     </g>
     <g id="line2d_28">
      <g>
       <use xlink:href="#m866d09a2e2" x="164.078593" y="288.959063" style="stroke: #000000; stroke-width: 0.6"/>
      </g>
     </g>
    </g>
    <g id="xtick_15">
     <g id="line2d_29">
      <path d="M 169.787214 288.959063 
L 169.787214 11.759063 
" clip-path="url(#p082cc5165d)" style="fill: none; stroke: #b0b0b0; stroke-width: 0.8; stroke-linecap: square"/>
     </g>
     <g id="line2d_30">
      <g>
       <use xlink:href="#m866d09a2e2" x="169.787214" y="288.959063" style="stroke: #000000; stroke-width: 0.6"/>
      </g>
     </g>
    </g>
    <g id="xtick_16">
     <g id="line2d_31">
      <path d="M 208.488698 288.959063 
L 208.488698 11.759063 
" clip-path="url(#p082cc5165d)" style="fill: none; stroke: #b0b0b0; stroke-width: 0.8; stroke-linecap: square"/>
     </g>
     <g id="line2d_32">
      <g>
       <use xlink:href="#m866d09a2e2" x="208.488698" y="288.959063" style="stroke: #000000; stroke-width: 0.6"/>
      </g>
     </g>
    </g>
    <g id="xtick_17">
     <g id="line2d_33">
      <path d="M 228.140482 288.959063 
L 228.140482 11.759063 
" clip-path="url(#p082cc5165d)" style="fill: none; stroke: #b0b0b0; stroke-width: 0.8; stroke-linecap: square"/>
     </g>
     <g id="line2d_34">
      <g>
       <use xlink:href="#m866d09a2e2" x="228.140482" y="288.959063" style="stroke: #000000; stroke-width: 0.6"/>
      </g>
     </g>
    </g>
    <g id="xtick_18">
     <g id="line2d_35">
      <path d="M 242.083645 288.959063 
L 242.083645 11.759063 
" clip-path="url(#p082cc5165d)" style="fill: none; stroke: #b0b0b0; stroke-width: 0.8; stroke-linecap: square"/>
     </g>
     <g id="line2d_36">
      <g>
       <use xlink:href="#m866d09a2e2" x="242.083645" y="288.959063" style="stroke: #000000; stroke-width: 0.6"/>
      </g>
     </g>
    </g>
    <g id="xtick_19">
     <g id="line2d_37">
      <path d="M 252.898802 288.959063 
L 252.898802 11.759063 
" clip-path="url(#p082cc5165d)" style="fill: none; stroke: #b0b0b0; stroke-width: 0.8; stroke-linecap: square"/>
     </g>
     <g id="line2d_38">
      <g>
       <use xlink:href="#m866d09a2e2" x="252.898802" y="288.959063" style="stroke: #000000; stroke-width: 0.6"/>
      </g>
     </g>
    </g>
    <g id="xtick_20">
     <g id="line2d_39">
      <path d="M 261.73543 288.959063 
L 261.73543 11.759063 
" clip-path="url(#p082cc5165d)" style="fill: none; stroke: #b0b0b0; stroke-width: 0.8; stroke-linecap: square"/>
     </g>
     <g id="line2d_40">
      <g>
       <use xlink:href="#m866d09a2e2" x="261.73543" y="288.959063" style="stroke: #000000; stroke-width: 0.6"/>
      </g>
     </g>
    </g>
    <g id="xtick_21">
     <g id="line2d_41">
      <path d="M 269.206691 288.959063 
L 269.206691 11.759063 
" clip-path="url(#p082cc5165d)" style="fill: none; stroke: #b0b0b0; stroke-width: 0.8; stroke-linecap: square"/>
     </g>
     <g id="line2d_42">
      <g>
       <use xlink:href="#m866d09a2e2" x="269.206691" y="288.959063" style="stroke: #000000; stroke-width: 0.6"/>
      </g>
     </g>
    </g>
    <g id="xtick_22">
     <g id="line2d_43">
      <path d="M 275.678593 288.959063 
L 275.678593 11.759063 
" clip-path="url(#p082cc5165d)" style="fill: none; stroke: #b0b0b0; stroke-width: 0.8; stroke-linecap: square"/>
     </g>
     <g id="line2d_44">
      <g>
       <use xlink:href="#m866d09a2e2" x="275.678593" y="288.959063" style="stroke: #000000; stroke-width: 0.6"/>
      </g>
     </g>
    </g>
    <g id="xtick_23">
     <g id="line2d_45">
      <path d="M 281.387214 288.959063 
L 281.387214 11.759063 
" clip-path="url(#p082cc5165d)" style="fill: none; stroke: #b0b0b0; stroke-width: 0.8; stroke-linecap: square"/>
     </g>
     <g id="line2d_46">
      <g>
       <use xlink:href="#m866d09a2e2" x="281.387214" y="288.959063" style="stroke: #000000; stroke-width: 0.6"/>
      </g>
     </g>
    </g>
    <g id="xtick_24">
     <g id="line2d_47">
      <path d="M 320.088698 288.959063 
L 320.088698 11.759063 
" clip-path="url(#p082cc5165d)" style="fill: none; stroke: #b0b0b0; stroke-width: 0.8; stroke-linecap: square"/>
     </g>
     <g id="line2d_48">
      <g>
       <use xlink:href="#m866d09a2e2" x="320.088698" y="288.959063" style="stroke: #000000; stroke-width: 0.6"/>
      </g>
     </g>
    </g>
    <g id="xtick_25">
     <g id="line2d_49">
      <path d="M 339.740482 288.959063 
L 339.740482 11.759063 
" clip-path="url(#p082cc5165d)" style="fill: none; stroke: #b0b0b0; stroke-width: 0.8; stroke-linecap: square"/>
     </g>
     <g id="line2d_50">
      <g>
       <use xlink:href="#m866d09a2e2" x="339.740482" y="288.959063" style="stroke: #000000; stroke-width: 0.6"/>
      </g>
     </g>
    </g>
    <g id="xtick_26">
     <g id="line2d_51">
      <path d="M 353.683645 288.959063 
L 353.683645 11.759063 
" clip-path="url(#p082cc5165d)" style="fill: none; stroke: #b0b0b0; stroke-width: 0.8; stroke-linecap: square"/>
     </g>
     <g id="line2d_52">
      <g>
       <use xlink:href="#m866d09a2e2" x="353.683645" y="288.959063" style="stroke: #000000; stroke-width: 0.6"/>
      </g>
     </g>
    </g>
    <g id="xtick_27">
     <g id="line2d_53">
      <path d="M 364.498802 288.959063 
L 364.498802 11.759063 
" clip-path="url(#p082cc5165d)" style="fill: none; stroke: #b0b0b0; stroke-width: 0.8; stroke-linecap: square"/>
     </g>
     <g id="line2d_54">
      <g>
       <use xlink:href="#m866d09a2e2" x="364.498802" y="288.959063" style="stroke: #000000; stroke-width: 0.6"/>
      </g>
     </g>
    </g>
    <g id="xtick_28">
     <g id="line2d_55">
      <path d="M 373.33543 288.959063 
L 373.33543 11.759063 
" clip-path="url(#p082cc5165d)" style="fill: none; stroke: #b0b0b0; stroke-width: 0.8; stroke-linecap: square"/>
     </g>
     <g id="line2d_56">
      <g>
       <use xlink:href="#m866d09a2e2" x="373.33543" y="288.959063" style="stroke: #000000; stroke-width: 0.6"/>
      </g>
     </g>
    </g>
    <g id="xtick_29">
     <g id="line2d_57">
      <path d="M 380.806691 288.959063 
L 380.806691 11.759063 
" clip-path="url(#p082cc5165d)" style="fill: none; stroke: #b0b0b0; stroke-width: 0.8; stroke-linecap: square"/>
     </g>
     <g id="line2d_58">
      <g>
       <use xlink:href="#m866d09a2e2" x="380.806691" y="288.959063" style="stroke: #000000; stroke-width: 0.6"/>
      </g>
     </g>
    </g>
    <g id="xtick_30">
     <g id="line2d_59">
      <path d="M 387.278593 288.959063 
L 387.278593 11.759063 
" clip-path="url(#p082cc5165d)" style="fill: none; stroke: #b0b0b0; stroke-width: 0.8; stroke-linecap: square"/>
     </g>
     <g id="line2d_60">
      <g>
       <use xlink:href="#m866d09a2e2" x="387.278593" y="288.959063" style="stroke: #000000; stroke-width: 0.6"/>
      </g>
     </g>
    </g>
    <g id="xtick_31">
     <g id="line2d_61">
      <path d="M 392.987214 288.959063 
L 392.987214 11.759063 
" clip-path="url(#p082cc5165d)" style="fill: none; stroke: #b0b0b0; stroke-width: 0.8; stroke-linecap: square"/>
     </g>
     <g id="line2d_62">
      <g>
       <use xlink:href="#m866d09a2e2" x="392.987214" y="288.959063" style="stroke: #000000; stroke-width: 0.6"/>
      </g>
     </g>
    </g>
    <g id="xtick_32">
     <g id="line2d_63">
      <path d="M 431.688698 288.959063 
L 431.688698 11.759063 
" clip-path="url(#p082cc5165d)" style="fill: none; stroke: #b0b0b0; stroke-width: 0.8; stroke-linecap: square"/>
     </g>
     <g id="line2d_64">
      <g>
       <use xlink:href="#m866d09a2e2" x="431.688698" y="288.959063" style="stroke: #000000; stroke-width: 0.6"/>
      </g>
     </g>
    </g>
    <g id="xtick_33">
     <g id="line2d_65">
      <path d="M 451.340482 288.959063 
L 451.340482 11.759063 
" clip-path="url(#p082cc5165d)" style="fill: none; stroke: #b0b0b0; stroke-width: 0.8; stroke-linecap: square"/>
     </g>
     <g id="line2d_66">
      <g>
       <use xlink:href="#m866d09a2e2" x="451.340482" y="288.959063" style="stroke: #000000; stroke-width: 0.6"/>
      </g>
     </g>
    </g>
    <g id="xtick_34">
     <g id="line2d_67">
      <path d="M 465.283645 288.959063 
L 465.283645 11.759063 
" clip-path="url(#p082cc5165d)" style="fill: none; stroke: #b0b0b0; stroke-width: 0.8; stroke-linecap: square"/>
     </g>
     <g id="line2d_68">
      <g>
       <use xlink:href="#m866d09a2e2" x="465.283645" y="288.959063" style="stroke: #000000; stroke-width: 0.6"/>
      </g>
     </g>
    </g>
    <g id="xtick_35">
     <g id="line2d_69">
      <path d="M 476.098802 288.959063 
L 476.098802 11.759063 
" clip-path="url(#p082cc5165d)" style="fill: none; stroke: #b0b0b0; stroke-width: 0.8; stroke-linecap: square"/>
     </g>
     <g id="line2d_70">
      <g>
       <use xlink:href="#m866d09a2e2" x="476.098802" y="288.959063" style="stroke: #000000; stroke-width: 0.6"/>
      </g>
     </g>
    </g>
    <g id="xtick_36">
     <g id="line2d_71">
      <path d="M 484.93543 288.959063 
L 484.93543 11.759063 
" clip-path="url(#p082cc5165d)" style="fill: none; stroke: #b0b0b0; stroke-width: 0.8; stroke-linecap: square"/>
     </g>
     <g id="line2d_72">
      <g>
       <use xlink:href="#m866d09a2e2" x="484.93543" y="288.959063" style="stroke: #000000; stroke-width: 0.6"/>
      </g>
     </g>
    </g>
    <g id="xtick_37">
     <g id="line2d_73">
      <path d="M 492.406691 288.959063 
L 492.406691 11.759063 
" clip-path="url(#p082cc5165d)" style="fill: none; stroke: #b0b0b0; stroke-width: 0.8; stroke-linecap: square"/>
     </g>
     <g id="line2d_74">
      <g>
       <use xlink:href="#m866d09a2e2" x="492.406691" y="288.959063" style="stroke: #000000; stroke-width: 0.6"/>
      </g>
     </g>
    </g>
    <g id="xtick_38">
     <g id="line2d_75">
      <path d="M 498.878593 288.959063 
L 498.878593 11.759063 
" clip-path="url(#p082cc5165d)" style="fill: none; stroke: #b0b0b0; stroke-width: 0.8; stroke-linecap: square"/>
     </g>
     <g id="line2d_76">
      <g>
       <use xlink:href="#m866d09a2e2" x="498.878593" y="288.959063" style="stroke: #000000; stroke-width: 0.6"/>
      </g>
     </g>
    </g>
    <g id="xtick_39">
     <g id="line2d_77">
      <path d="M 504.587214 288.959063 
L 504.587214 11.759063 
" clip-path="url(#p082cc5165d)" style="fill: none; stroke: #b0b0b0; stroke-width: 0.8; stroke-linecap: square"/>
     </g>
     <g id="line2d_78">
      <g>
       <use xlink:href="#m866d09a2e2" x="504.587214" y="288.959063" style="stroke: #000000; stroke-width: 0.6"/>
      </g>
     </g>
    </g>
    <g id="xtick_40">
     <g id="line2d_79">
      <path d="M 543.288698 288.959063 
L 543.288698 11.759063 
" clip-path="url(#p082cc5165d)" style="fill: none; stroke: #b0b0b0; stroke-width: 0.8; stroke-linecap: square"/>
     </g>
     <g id="line2d_80">
      <g>
       <use xlink:href="#m866d09a2e2" x="543.288698" y="288.959063" style="stroke: #000000; stroke-width: 0.6"/>
      </g>
     </g>
    </g>
    <g id="xtick_41">
     <g id="line2d_81">
      <path d="M 562.940482 288.959063 
L 562.940482 11.759063 
" clip-path="url(#p082cc5165d)" style="fill: none; stroke: #b0b0b0; stroke-width: 0.8; stroke-linecap: square"/>
     </g>
     <g id="line2d_82">
      <g>
       <use xlink:href="#m866d09a2e2" x="562.940482" y="288.959063" style="stroke: #000000; stroke-width: 0.6"/>
      </g>
     </g>
    </g>
    <g id="xtick_42">
     <g id="line2d_83">
      <path d="M 576.883645 288.959063 
L 576.883645 11.759063 
" clip-path="url(#p082cc5165d)" style="fill: none; stroke: #b0b0b0; stroke-width: 0.8; stroke-linecap: square"/>
     </g>
     <g id="line2d_84">
      <g>
       <use xlink:href="#m866d09a2e2" x="576.883645" y="288.959063" style="stroke: #000000; stroke-width: 0.6"/>
      </g>
     </g>
    </g>
    <g id="xtick_43">
     <g id="line2d_85">
      <path d="M 587.698802 288.959063 
L 587.698802 11.759063 
" clip-path="url(#p082cc5165d)" style="fill: none; stroke: #b0b0b0; stroke-width: 0.8; stroke-linecap: square"/>
     </g>
     <g id="line2d_86">
      <g>
       <use xlink:href="#m866d09a2e2" x="587.698802" y="288.959063" style="stroke: #000000; stroke-width: 0.6"/>
      </g>
     </g>
    </g>
    <g id="xtick_44">
     <g id="line2d_87">
      <path d="M 596.53543 288.959063 
L 596.53543 11.759063 
" clip-path="url(#p082cc5165d)" style="fill: none; stroke: #b0b0b0; stroke-width: 0.8; stroke-linecap: square"/>
     </g>
     <g id="line2d_88">
      <g>
       <use xlink:href="#m866d09a2e2" x="596.53543" y="288.959063" style="stroke: #000000; stroke-width: 0.6"/>
      </g>
     </g>
    </g>
    <g id="xtick_45">
     <g id="line2d_89">
      <path d="M 604.006691 288.959063 
L 604.006691 11.759063 
" clip-path="url(#p082cc5165d)" style="fill: none; stroke: #b0b0b0; stroke-width: 0.8; stroke-linecap: square"/>
     </g>
     <g id="line2d_90">
      <g>
       <use xlink:href="#m866d09a2e2" x="604.006691" y="288.959063" style="stroke: #000000; stroke-width: 0.6"/>
      </g>
     </g>
    </g>
    <g id="xtick_46">
     <g id="line2d_91">
      <path d="M 610.478593 288.959063 
L 610.478593 11.759063 
" clip-path="url(#p082cc5165d)" style="fill: none; stroke: #b0b0b0; stroke-width: 0.8; stroke-linecap: square"/>
     </g>
     <g id="line2d_92">
      <g>
       <use xlink:href="#m866d09a2e2" x="610.478593" y="288.959063" style="stroke: #000000; stroke-width: 0.6"/>
      </g>
     </g>
    </g>
    <g id="xtick_47">
     <g id="line2d_93">
      <path d="M 616.187214 288.959063 
L 616.187214 11.759063 
" clip-path="url(#p082cc5165d)" style="fill: none; stroke: #b0b0b0; stroke-width: 0.8; stroke-linecap: square"/>
     </g>
     <g id="line2d_94">
      <g>
       <use xlink:href="#m866d09a2e2" x="616.187214" y="288.959063" style="stroke: #000000; stroke-width: 0.6"/>
      </g>
     </g>
    </g>
    <g id="xtick_48">
     <g id="line2d_95">
      <path d="M 654.888698 288.959063 
L 654.888698 11.759063 
" clip-path="url(#p082cc5165d)" style="fill: none; stroke: #b0b0b0; stroke-width: 0.8; stroke-linecap: square"/>
     </g>
     <g id="line2d_96">
      <g>
       <use xlink:href="#m866d09a2e2" x="654.888698" y="288.959063" style="stroke: #000000; stroke-width: 0.6"/>
      </g>
     </g>
    </g>
    <g id="xtick_49">
     <g id="line2d_97">
      <path d="M 674.540482 288.959063 
L 674.540482 11.759063 
" clip-path="url(#p082cc5165d)" style="fill: none; stroke: #b0b0b0; stroke-width: 0.8; stroke-linecap: square"/>
     </g>
     <g id="line2d_98">
      <g>
       <use xlink:href="#m866d09a2e2" x="674.540482" y="288.959063" style="stroke: #000000; stroke-width: 0.6"/>
      </g>
     </g>
    </g>
    <g id="xtick_50">
     <g id="line2d_99">
      <path d="M 688.483645 288.959063 
L 688.483645 11.759063 
" clip-path="url(#p082cc5165d)" style="fill: none; stroke: #b0b0b0; stroke-width: 0.8; stroke-linecap: square"/>
     </g>
     <g id="line2d_100">
      <g>
       <use xlink:href="#m866d09a2e2" x="688.483645" y="288.959063" style="stroke: #000000; stroke-width: 0.6"/>
      </g>
     </g>
    </g>
    <g id="xtick_51">
     <g id="line2d_101">
      <path d="M 699.298802 288.959063 
L 699.298802 11.759063 
" clip-path="url(#p082cc5165d)" style="fill: none; stroke: #b0b0b0; stroke-width: 0.8; stroke-linecap: square"/>
     </g>
     <g id="line2d_102">
      <g>
       <use xlink:href="#m866d09a2e2" x="699.298802" y="288.959063" style="stroke: #000000; stroke-width: 0.6"/>
      </g>
     </g>
    </g>
    <g id="xtick_52">
     <g id="line2d_103">
      <path d="M 708.13543 288.959063 
L 708.13543 11.759063 
" clip-path="url(#p082cc5165d)" style="fill: none; stroke: #b0b0b0; stroke-width: 0.8; stroke-linecap: square"/>
     </g>
     <g id="line2d_104">
      <g>
       <use xlink:href="#m866d09a2e2" x="708.13543" y="288.959063" style="stroke: #000000; stroke-width: 0.6"/>
      </g>
     </g>
    </g>
    <g id="xtick_53">
     <g id="line2d_105">
      <path d="M 715.606691 288.959063 
L 715.606691 11.759063 
" clip-path="url(#p082cc5165d)" style="fill: none; stroke: #b0b0b0; stroke-width: 0.8; stroke-linecap: square"/>
     </g>
     <g id="line2d_106">
      <g>
       <use xlink:href="#m866d09a2e2" x="715.606691" y="288.959063" style="stroke: #000000; stroke-width: 0.6"/>
      </g>
     </g>
    </g>
    <g id="xtick_54">
     <g id="line2d_107">
      <path d="M 722.078593 288.959063 
L 722.078593 11.759063 
" clip-path="url(#p082cc5165d)" style="fill: none; stroke: #b0b0b0; stroke-width: 0.8; stroke-linecap: square"/>
     </g>
     <g id="line2d_108">
      <g>
       <use xlink:href="#m866d09a2e2" x="722.078593" y="288.959063" style="stroke: #000000; stroke-width: 0.6"/>
      </g>
     </g>
    </g>
    <g id="xtick_55">
     <g id="line2d_109">
      <path d="M 727.787214 288.959063 
L 727.787214 11.759063 
" clip-path="url(#p082cc5165d)" style="fill: none; stroke: #b0b0b0; stroke-width: 0.8; stroke-linecap: square"/>
     </g>
     <g id="line2d_110">
      <g>
       <use xlink:href="#m866d09a2e2" x="727.787214" y="288.959063" style="stroke: #000000; stroke-width: 0.6"/>
      </g>
     </g>
    </g>
    <g id="text_8">
     <!-- $\lambda$ -->
     <g transform="translate(394.49375 320.690938)scale(0.12 -0.12)">
      <defs>
       <path id="DejaVuSans-Oblique-3bb" d="M 2350 4316 
L 3125 0 
L 2516 0 
L 2038 2588 
L 328 0 
L -281 0 
L 1903 3356 
L 1794 3975 
Q 1725 4369 1391 4369 
L 1091 4369 
L 1184 4863 
L 1550 4856 
Q 2253 4847 2350 4316 
z
" transform="scale(0.015625)"/>
      </defs>
      <use xlink:href="#DejaVuSans-Oblique-3bb" transform="translate(0 0.015625)"/>
     </g>
    </g>
   </g>
   <g id="matplotlib.axis_2">
    <g id="ytick_1">
     <g id="line2d_111">
      <path d="M 63.29375 288.959063 
L 732.89375 288.959063 
" clip-path="url(#p082cc5165d)" style="fill: none; stroke: #b0b0b0; stroke-width: 0.8; stroke-linecap: square"/>
     </g>
     <g id="line2d_112">
      <defs>
       <path id="m4d45e2f685" d="M 0 0 
L -3.5 0 
" style="stroke: #000000; stroke-width: 0.8"/>
      </defs>
      <g>
       <use xlink:href="#m4d45e2f685" x="63.29375" y="288.959063" style="stroke: #000000; stroke-width: 0.8"/>
      </g>
     </g>
     <g id="text_9">
      <!-- $\mathdefault{10^{-15}}$ -->
      <g transform="translate(22.81375 293.518125)scale(0.12 -0.12)">
       <defs>
        <path id="DejaVuSans-2212" d="M 678 2272 
L 4684 2272 
L 4684 1741 
L 678 1741 
L 678 2272 
z
" transform="scale(0.015625)"/>
       </defs>
       <use xlink:href="#DejaVuSans-31" transform="translate(0 0.684375)"/>
       <use xlink:href="#DejaVuSans-30" transform="translate(63.623047 0.684375)"/>
       <use xlink:href="#DejaVuSans-2212" transform="translate(128.203125 38.965625)scale(0.7)"/>
       <use xlink:href="#DejaVuSans-31" transform="translate(186.855469 38.965625)scale(0.7)"/>
       <use xlink:href="#DejaVuSans-35" transform="translate(231.391602 38.965625)scale(0.7)"/>
      </g>
     </g>
    </g>
    <g id="ytick_2">
     <g id="line2d_113">
      <path d="M 63.29375 261.239063 
L 732.89375 261.239063 
" clip-path="url(#p082cc5165d)" style="fill: none; stroke: #b0b0b0; stroke-width: 0.8; stroke-linecap: square"/>
     </g>
     <g id="line2d_114">
      <g>
       <use xlink:href="#m4d45e2f685" x="63.29375" y="261.239063" style="stroke: #000000; stroke-width: 0.8"/>
      </g>
     </g>
     <g id="text_10">
      <!-- $\mathdefault{10^{-14}}$ -->
      <g transform="translate(22.81375 265.798125)scale(0.12 -0.12)">
       <use xlink:href="#DejaVuSans-31" transform="translate(0 0.684375)"/>
       <use xlink:href="#DejaVuSans-30" transform="translate(63.623047 0.684375)"/>
       <use xlink:href="#DejaVuSans-2212" transform="translate(128.203125 38.965625)scale(0.7)"/>
       <use xlink:href="#DejaVuSans-31" transform="translate(186.855469 38.965625)scale(0.7)"/>
       <use xlink:href="#DejaVuSans-34" transform="translate(231.391602 38.965625)scale(0.7)"/>
      </g>
     </g>
    </g>
    <g id="ytick_3">
     <g id="line2d_115">
      <path d="M 63.29375 233.519063 
L 732.89375 233.519063 
" clip-path="url(#p082cc5165d)" style="fill: none; stroke: #b0b0b0; stroke-width: 0.8; stroke-linecap: square"/>
     </g>
     <g id="line2d_116">
      <g>
       <use xlink:href="#m4d45e2f685" x="63.29375" y="233.519063" style="stroke: #000000; stroke-width: 0.8"/>
      </g>
     </g>
     <g id="text_11">
      <!-- $\mathdefault{10^{-13}}$ -->
      <g transform="translate(22.81375 238.078125)scale(0.12 -0.12)">
       <use xlink:href="#DejaVuSans-31" transform="translate(0 0.765625)"/>
       <use xlink:href="#DejaVuSans-30" transform="translate(63.623047 0.765625)"/>
       <use xlink:href="#DejaVuSans-2212" transform="translate(128.203125 39.046875)scale(0.7)"/>
       <use xlink:href="#DejaVuSans-31" transform="translate(186.855469 39.046875)scale(0.7)"/>
       <use xlink:href="#DejaVuSans-33" transform="translate(231.391602 39.046875)scale(0.7)"/>
      </g>
     </g>
    </g>
    <g id="ytick_4">
     <g id="line2d_117">
      <path d="M 63.29375 205.799063 
L 732.89375 205.799063 
" clip-path="url(#p082cc5165d)" style="fill: none; stroke: #b0b0b0; stroke-width: 0.8; stroke-linecap: square"/>
     </g>
     <g id="line2d_118">
      <g>
       <use xlink:href="#m4d45e2f685" x="63.29375" y="205.799063" style="stroke: #000000; stroke-width: 0.8"/>
      </g>
     </g>
     <g id="text_12">
      <!-- $\mathdefault{10^{-12}}$ -->
      <g transform="translate(22.81375 210.358125)scale(0.12 -0.12)">
       <use xlink:href="#DejaVuSans-31" transform="translate(0 0.765625)"/>
       <use xlink:href="#DejaVuSans-30" transform="translate(63.623047 0.765625)"/>
       <use xlink:href="#DejaVuSans-2212" transform="translate(128.203125 39.046875)scale(0.7)"/>
       <use xlink:href="#DejaVuSans-31" transform="translate(186.855469 39.046875)scale(0.7)"/>
       <use xlink:href="#DejaVuSans-32" transform="translate(231.391602 39.046875)scale(0.7)"/>
      </g>
     </g>
    </g>
    <g id="ytick_5">
     <g id="line2d_119">
      <path d="M 63.29375 178.079063 
L 732.89375 178.079063 
" clip-path="url(#p082cc5165d)" style="fill: none; stroke: #b0b0b0; stroke-width: 0.8; stroke-linecap: square"/>
     </g>
     <g id="line2d_120">
      <g>
       <use xlink:href="#m4d45e2f685" x="63.29375" y="178.079063" style="stroke: #000000; stroke-width: 0.8"/>
      </g>
     </g>
     <g id="text_13">
      <!-- $\mathdefault{10^{-11}}$ -->
      <g transform="translate(22.81375 182.638125)scale(0.12 -0.12)">
       <use xlink:href="#DejaVuSans-31" transform="translate(0 0.684375)"/>
       <use xlink:href="#DejaVuSans-30" transform="translate(63.623047 0.684375)"/>
       <use xlink:href="#DejaVuSans-2212" transform="translate(128.203125 38.965625)scale(0.7)"/>
       <use xlink:href="#DejaVuSans-31" transform="translate(186.855469 38.965625)scale(0.7)"/>
       <use xlink:href="#DejaVuSans-31" transform="translate(231.391602 38.965625)scale(0.7)"/>
      </g>
     </g>
    </g>
    <g id="ytick_6">
     <g id="line2d_121">
      <path d="M 63.29375 150.359063 
L 732.89375 150.359063 
" clip-path="url(#p082cc5165d)" style="fill: none; stroke: #b0b0b0; stroke-width: 0.8; stroke-linecap: square"/>
     </g>
     <g id="line2d_122">
      <g>
       <use xlink:href="#m4d45e2f685" x="63.29375" y="150.359063" style="stroke: #000000; stroke-width: 0.8"/>
      </g>
     </g>
     <g id="text_14">
      <!-- $\mathdefault{10^{-10}}$ -->
      <g transform="translate(22.81375 154.918125)scale(0.12 -0.12)">
       <use xlink:href="#DejaVuSans-31" transform="translate(0 0.765625)"/>
       <use xlink:href="#DejaVuSans-30" transform="translate(63.623047 0.765625)"/>
       <use xlink:href="#DejaVuSans-2212" transform="translate(128.203125 39.046875)scale(0.7)"/>
       <use xlink:href="#DejaVuSans-31" transform="translate(186.855469 39.046875)scale(0.7)"/>
       <use xlink:href="#DejaVuSans-30" transform="translate(231.391602 39.046875)scale(0.7)"/>
      </g>
     </g>
    </g>
    <g id="ytick_7">
     <g id="line2d_123">
      <path d="M 63.29375 122.639063 
L 732.89375 122.639063 
" clip-path="url(#p082cc5165d)" style="fill: none; stroke: #b0b0b0; stroke-width: 0.8; stroke-linecap: square"/>
     </g>
     <g id="line2d_124">
      <g>
       <use xlink:href="#m4d45e2f685" x="63.29375" y="122.639063" style="stroke: #000000; stroke-width: 0.8"/>
      </g>
     </g>
     <g id="text_15">
      <!-- $\mathdefault{10^{-9}}$ -->
      <g transform="translate(28.09375 127.198125)scale(0.12 -0.12)">
       <defs>
        <path id="DejaVuSans-39" d="M 703 97 
L 703 672 
Q 941 559 1184 500 
Q 1428 441 1663 441 
Q 2288 441 2617 861 
Q 2947 1281 2994 2138 
Q 2813 1869 2534 1725 
Q 2256 1581 1919 1581 
Q 1219 1581 811 2004 
Q 403 2428 403 3163 
Q 403 3881 828 4315 
Q 1253 4750 1959 4750 
Q 2769 4750 3195 4129 
Q 3622 3509 3622 2328 
Q 3622 1225 3098 567 
Q 2575 -91 1691 -91 
Q 1453 -91 1209 -44 
Q 966 3 703 97 
z
M 1959 2075 
Q 2384 2075 2632 2365 
Q 2881 2656 2881 3163 
Q 2881 3666 2632 3958 
Q 2384 4250 1959 4250 
Q 1534 4250 1286 3958 
Q 1038 3666 1038 3163 
Q 1038 2656 1286 2365 
Q 1534 2075 1959 2075 
z
" transform="scale(0.015625)"/>
       </defs>
       <use xlink:href="#DejaVuSans-31" transform="translate(0 0.765625)"/>
       <use xlink:href="#DejaVuSans-30" transform="translate(63.623047 0.765625)"/>
       <use xlink:href="#DejaVuSans-2212" transform="translate(128.203125 39.046875)scale(0.7)"/>
       <use xlink:href="#DejaVuSans-39" transform="translate(186.855469 39.046875)scale(0.7)"/>
      </g>
     </g>
    </g>
    <g id="ytick_8">
     <g id="line2d_125">
      <path d="M 63.29375 94.919063 
L 732.89375 94.919063 
" clip-path="url(#p082cc5165d)" style="fill: none; stroke: #b0b0b0; stroke-width: 0.8; stroke-linecap: square"/>
     </g>
     <g id="line2d_126">
      <g>
       <use xlink:href="#m4d45e2f685" x="63.29375" y="94.919063" style="stroke: #000000; stroke-width: 0.8"/>
      </g>
     </g>
     <g id="text_16">
      <!-- $\mathdefault{10^{-8}}$ -->
      <g transform="translate(28.09375 99.478125)scale(0.12 -0.12)">
       <defs>
        <path id="DejaVuSans-38" d="M 2034 2216 
Q 1584 2216 1326 1975 
Q 1069 1734 1069 1313 
Q 1069 891 1326 650 
Q 1584 409 2034 409 
Q 2484 409 2743 651 
Q 3003 894 3003 1313 
Q 3003 1734 2745 1975 
Q 2488 2216 2034 2216 
z
M 1403 2484 
Q 997 2584 770 2862 
Q 544 3141 544 3541 
Q 544 4100 942 4425 
Q 1341 4750 2034 4750 
Q 2731 4750 3128 4425 
Q 3525 4100 3525 3541 
Q 3525 3141 3298 2862 
Q 3072 2584 2669 2484 
Q 3125 2378 3379 2068 
Q 3634 1759 3634 1313 
Q 3634 634 3220 271 
Q 2806 -91 2034 -91 
Q 1263 -91 848 271 
Q 434 634 434 1313 
Q 434 1759 690 2068 
Q 947 2378 1403 2484 
z
M 1172 3481 
Q 1172 3119 1398 2916 
Q 1625 2713 2034 2713 
Q 2441 2713 2670 2916 
Q 2900 3119 2900 3481 
Q 2900 3844 2670 4047 
Q 2441 4250 2034 4250 
Q 1625 4250 1398 4047 
Q 1172 3844 1172 3481 
z
" transform="scale(0.015625)"/>
       </defs>
       <use xlink:href="#DejaVuSans-31" transform="translate(0 0.765625)"/>
       <use xlink:href="#DejaVuSans-30" transform="translate(63.623047 0.765625)"/>
       <use xlink:href="#DejaVuSans-2212" transform="translate(128.203125 39.046875)scale(0.7)"/>
       <use xlink:href="#DejaVuSans-38" transform="translate(186.855469 39.046875)scale(0.7)"/>
      </g>
     </g>
    </g>
    <g id="ytick_9">
     <g id="line2d_127">
      <path d="M 63.29375 67.199063 
L 732.89375 67.199063 
" clip-path="url(#p082cc5165d)" style="fill: none; stroke: #b0b0b0; stroke-width: 0.8; stroke-linecap: square"/>
     </g>
     <g id="line2d_128">
      <g>
       <use xlink:href="#m4d45e2f685" x="63.29375" y="67.199063" style="stroke: #000000; stroke-width: 0.8"/>
      </g>
     </g>
     <g id="text_17">
      <!-- $\mathdefault{10^{-7}}$ -->
      <g transform="translate(28.09375 71.758125)scale(0.12 -0.12)">
       <use xlink:href="#DejaVuSans-31" transform="translate(0 0.684375)"/>
       <use xlink:href="#DejaVuSans-30" transform="translate(63.623047 0.684375)"/>
       <use xlink:href="#DejaVuSans-2212" transform="translate(128.203125 38.965625)scale(0.7)"/>
       <use xlink:href="#DejaVuSans-37" transform="translate(186.855469 38.965625)scale(0.7)"/>
      </g>
     </g>
    </g>
    <g id="ytick_10">
     <g id="line2d_129">
      <path d="M 63.29375 39.479063 
L 732.89375 39.479063 
" clip-path="url(#p082cc5165d)" style="fill: none; stroke: #b0b0b0; stroke-width: 0.8; stroke-linecap: square"/>
     </g>
     <g id="line2d_130">
      <g>
       <use xlink:href="#m4d45e2f685" x="63.29375" y="39.479063" style="stroke: #000000; stroke-width: 0.8"/>
      </g>
     </g>
     <g id="text_18">
      <!-- $\mathdefault{10^{-6}}$ -->
      <g transform="translate(28.09375 44.038125)scale(0.12 -0.12)">
       <use xlink:href="#DejaVuSans-31" transform="translate(0 0.765625)"/>
       <use xlink:href="#DejaVuSans-30" transform="translate(63.623047 0.765625)"/>
       <use xlink:href="#DejaVuSans-2212" transform="translate(128.203125 39.046875)scale(0.7)"/>
       <use xlink:href="#DejaVuSans-36" transform="translate(186.855469 39.046875)scale(0.7)"/>
      </g>
     </g>
    </g>
    <g id="ytick_11">
     <g id="line2d_131">
      <path d="M 63.29375 11.759063 
L 732.89375 11.759063 
" clip-path="url(#p082cc5165d)" style="fill: none; stroke: #b0b0b0; stroke-width: 0.8; stroke-linecap: square"/>
     </g>
     <g id="line2d_132">
      <g>
       <use xlink:href="#m4d45e2f685" x="63.29375" y="11.759063" style="stroke: #000000; stroke-width: 0.8"/>
      </g>
     </g>
     <g id="text_19">
      <!-- $\mathdefault{10^{-5}}$ -->
      <g transform="translate(28.09375 16.318125)scale(0.12 -0.12)">
       <use xlink:href="#DejaVuSans-31" transform="translate(0 0.684375)"/>
       <use xlink:href="#DejaVuSans-30" transform="translate(63.623047 0.684375)"/>
       <use xlink:href="#DejaVuSans-2212" transform="translate(128.203125 38.965625)scale(0.7)"/>
       <use xlink:href="#DejaVuSans-35" transform="translate(186.855469 38.965625)scale(0.7)"/>
      </g>
     </g>
    </g>
    <g id="text_20">
     <!-- relative error -->
     <g transform="translate(16.318125 189.418125)rotate(-90)scale(0.12 -0.12)">
      <defs>
       <path id="DejaVuSans-72" d="M 2631 2963 
Q 2534 3019 2420 3045 
Q 2306 3072 2169 3072 
Q 1681 3072 1420 2755 
Q 1159 2438 1159 1844 
L 1159 0 
L 581 0 
L 581 3500 
L 1159 3500 
L 1159 2956 
Q 1341 3275 1631 3429 
Q 1922 3584 2338 3584 
Q 2397 3584 2469 3576 
Q 2541 3569 2628 3553 
L 2631 2963 
z
" transform="scale(0.015625)"/>
       <path id="DejaVuSans-65" d="M 3597 1894 
L 3597 1613 
L 953 1613 
Q 991 1019 1311 708 
Q 1631 397 2203 397 
Q 2534 397 2845 478 
Q 3156 559 3463 722 
L 3463 178 
Q 3153 47 2828 -22 
Q 2503 -91 2169 -91 
Q 1331 -91 842 396 
Q 353 884 353 1716 
Q 353 2575 817 3079 
Q 1281 3584 2069 3584 
Q 2775 3584 3186 3129 
Q 3597 2675 3597 1894 
z
M 3022 2063 
Q 3016 2534 2758 2815 
Q 2500 3097 2075 3097 
Q 1594 3097 1305 2825 
Q 1016 2553 972 2059 
L 3022 2063 
z
" transform="scale(0.015625)"/>
       <path id="DejaVuSans-6c" d="M 603 4863 
L 1178 4863 
L 1178 0 
L 603 0 
L 603 4863 
z
" transform="scale(0.015625)"/>
       <path id="DejaVuSans-61" d="M 2194 1759 
Q 1497 1759 1228 1600 
Q 959 1441 959 1056 
Q 959 750 1161 570 
Q 1363 391 1709 391 
Q 2188 391 2477 730 
Q 2766 1069 2766 1631 
L 2766 1759 
L 2194 1759 
z
M 3341 1997 
L 3341 0 
L 2766 0 
L 2766 531 
Q 2569 213 2275 61 
Q 1981 -91 1556 -91 
Q 1019 -91 701 211 
Q 384 513 384 1019 
Q 384 1609 779 1909 
Q 1175 2209 1959 2209 
L 2766 2209 
L 2766 2266 
Q 2766 2663 2505 2880 
Q 2244 3097 1772 3097 
Q 1472 3097 1187 3025 
Q 903 2953 641 2809 
L 641 3341 
Q 956 3463 1253 3523 
Q 1550 3584 1831 3584 
Q 2591 3584 2966 3190 
Q 3341 2797 3341 1997 
z
" transform="scale(0.015625)"/>
       <path id="DejaVuSans-74" d="M 1172 4494 
L 1172 3500 
L 2356 3500 
L 2356 3053 
L 1172 3053 
L 1172 1153 
Q 1172 725 1289 603 
Q 1406 481 1766 481 
L 2356 481 
L 2356 0 
L 1766 0 
Q 1100 0 847 248 
Q 594 497 594 1153 
L 594 3053 
L 172 3053 
L 172 3500 
L 594 3500 
L 594 4494 
L 1172 4494 
z
" transform="scale(0.015625)"/>
       <path id="DejaVuSans-69" d="M 603 3500 
L 1178 3500 
L 1178 0 
L 603 0 
L 603 3500 
z
M 603 4863 
L 1178 4863 
L 1178 4134 
L 603 4134 
L 603 4863 
z
" transform="scale(0.015625)"/>
       <path id="DejaVuSans-76" d="M 191 3500 
L 800 3500 
L 1894 563 
L 2988 3500 
L 3597 3500 
L 2284 0 
L 1503 0 
L 191 3500 
z
" transform="scale(0.015625)"/>
       <path id="DejaVuSans-20" transform="scale(0.015625)"/>
       <path id="DejaVuSans-6f" d="M 1959 3097 
Q 1497 3097 1228 2736 
Q 959 2375 959 1747 
Q 959 1119 1226 758 
Q 1494 397 1959 397 
Q 2419 397 2687 759 
Q 2956 1122 2956 1747 
Q 2956 2369 2687 2733 
Q 2419 3097 1959 3097 
z
M 1959 3584 
Q 2709 3584 3137 3096 
Q 3566 2609 3566 1747 
Q 3566 888 3137 398 
Q 2709 -91 1959 -91 
Q 1206 -91 779 398 
Q 353 888 353 1747 
Q 353 2609 779 3096 
Q 1206 3584 1959 3584 
z
" transform="scale(0.015625)"/>
      </defs>
      <use xlink:href="#DejaVuSans-72"/>
      <use xlink:href="#DejaVuSans-65" x="38.863281"/>
      <use xlink:href="#DejaVuSans-6c" x="100.386719"/>
      <use xlink:href="#DejaVuSans-61" x="128.169922"/>
      <use xlink:href="#DejaVuSans-74" x="189.449219"/>
      <use xlink:href="#DejaVuSans-69" x="228.658203"/>
      <use xlink:href="#DejaVuSans-76" x="256.441406"/>
      <use xlink:href="#DejaVuSans-65" x="315.621094"/>
      <use xlink:href="#DejaVuSans-20" x="377.144531"/>
      <use xlink:href="#DejaVuSans-65" x="408.931641"/>
      <use xlink:href="#DejaVuSans-72" x="470.455078"/>
      <use xlink:href="#DejaVuSans-72" x="509.818359"/>
      <use xlink:href="#DejaVuSans-6f" x="548.681641"/>
      <use xlink:href="#DejaVuSans-72" x="609.863281"/>
     </g>
    </g>
   </g>
   <g id="line2d_133">
    <path d="M 488.037871 -1 
L 751.65375 64.481658 
L 751.65375 64.481658 
" clip-path="url(#p082cc5165d)" style="fill: none; stroke: #1f77b4; stroke-width: 1.5; stroke-linecap: square"/>
   </g>
   <g id="line2d_134">
    <path d="M 240.513694 -1 
L 422.023015 89.281421 
L 751.65375 253.123043 
L 751.65375 253.123043 
" clip-path="url(#p082cc5165d)" style="fill: none; stroke: #ff7f0e; stroke-width: 1.5; stroke-linecap: square"/>
   </g>
   <g id="line2d_135">
    <path d="M 142.999547 -1 
L 161.592547 18.474667 
L 185.31961 42.983196 
L 212.218789 70.423219 
L 245.813736 104.349277 
L 290.581535 149.209693 
L 354.83312 213.265272 
L 388.428068 246.618814 
L 422.023015 279.368646 
L 422.086995 331.386563 
M 489.182983 331.386563 
L 489.21291 307.079475 
L 589.997753 307.076302 
L 590.027684 331.386563 
M 657.157716 331.386563 
L 657.187648 307.075896 
L 690.782595 307.075822 
L 690.812527 331.386563 
L 690.812527 331.386563 
" clip-path="url(#p082cc5165d)" style="fill: none; stroke: #2ca02c; stroke-width: 1.5; stroke-linecap: square"/>
   </g>
   <g id="line2d_136">
    <path d="M 99.862805 -1 
L 153.263435 81.755345 
L 182.087262 125.917434 
L 213.981429 174.354947 
L 252.509505 232.444624 
L 267.228161 254.507014 
L 269.482859 258.260663 
L 271.637314 261.041494 
L 273.700062 263.927998 
L 275.678593 267.366064 
L 277.579513 270.150034 
L 279.408684 272.578482 
L 282.872104 278.720944 
L 284.51522 279.911521 
L 286.104453 281.533813 
L 287.643225 285.646845 
L 290.581535 289.061436 
L 293.351847 296.023488 
L 295.972337 298.179319 
L 298.458383 293.47585 
L 300.823108 300.64095 
L 303.077806 299.516548 
L 305.232262 301.905587 
L 307.29501 314.102987 
L 309.27354 304.772139 
L 309.275394 331.386563 
M 318.108802 331.386563 
L 318.110167 308.712957 
L 318.111488 331.386563 
M 321.236806 331.386563 
L 321.238173 307.154595 
L 321.240782 331.386563 
M 326.944892 331.386563 
L 326.946794 312.655716 
L 338.827209 306.740328 
L 338.829072 331.386563 
M 346.597226 331.386563 
L 346.598579 311.216812 
L 346.599882 331.386563 
M 351.703747 331.386563 
L 351.705115 308.67564 
L 353.294348 307.884865 
L 353.295673 331.386563 
M 388.398165 331.386563 
L 388.428068 307.099519 
L 589.997753 307.076302 
L 590.027684 331.386563 
M 657.157716 331.386563 
L 657.187648 307.075896 
L 690.782595 307.075822 
L 690.812527 331.386563 
L 690.812527 331.386563 
" clip-path="url(#p082cc5165d)" style="fill: none; stroke: #d62728; stroke-width: 1.5; stroke-linecap: square"/>
   </g>
   <g id="line2d_137">
    <path d="M 89.016395 -1 
L 107.703855 39.791045 
L 125.377109 77.768047 
L 143.199723 115.498104 
L 161.592547 153.912891 
L 183.730377 199.577157 
L 208.488698 250.128792 
L 213.981429 261.088758 
L 217.325325 268.549811 
L 218.914558 271.074481 
L 220.45333 274.132874 
L 223.39164 281.774505 
L 226.161952 285.261282 
L 231.268488 291.037319 
L 233.633213 300.879603 
L 235.887911 299.746753 
L 235.890409 331.386563 
M 242.082335 331.386563 
L 242.083645 313.325068 
L 243.984566 312.37126 
L 245.813736 303.109162 
L 245.815563 331.386563 
M 250.918918 331.386563 
L 250.920272 308.893481 
L 252.509505 308.097072 
L 252.510819 331.386563 
M 259.755013 331.386563 
L 259.756899 312.811872 
L 259.758683 331.386563 
M 264.86075 331.386563 
L 264.863435 301.911737 
L 264.865989 331.386563 
M 269.480233 331.386563 
L 269.482859 299.601209 
L 271.637314 315.213096 
L 273.700062 305.837405 
L 275.678593 313.193115 
L 277.579513 312.24324 
L 277.580797 331.386563 
M 282.870746 331.386563 
L 282.872104 309.599454 
L 282.873416 331.386563 
M 286.10309 331.386563 
L 286.104453 307.985415 
L 286.105772 331.386563 
M 293.34995 331.386563 
L 293.351847 312.712591 
L 293.35364 331.386563 
M 298.455689 331.386563 
L 298.458383 301.820401 
L 300.823108 308.985501 
L 305.232262 306.786837 
L 305.234121 331.386563 
M 309.272215 331.386563 
L 309.27354 313.116691 
L 311.174461 312.169189 
L 311.175749 331.386563 
M 318.108802 331.386563 
L 318.110167 308.712957 
L 318.111488 331.386563 
M 321.236806 331.386563 
L 321.238173 307.154595 
L 321.240782 331.386563 
M 326.944892 331.386563 
L 326.946794 312.655716 
L 338.827209 306.740328 
L 338.829072 331.386563 
M 346.597226 331.386563 
L 346.598579 311.216812 
L 346.599882 331.386563 
M 351.703747 331.386563 
L 351.705115 308.67564 
L 353.294348 307.884865 
L 353.295673 331.386563 
M 388.398165 331.386563 
L 388.428068 307.099519 
L 589.997753 307.076302 
L 590.027684 331.386563 
M 657.157716 331.386563 
L 657.187648 307.075896 
L 690.782595 307.075822 
L 690.812527 331.386563 
L 690.812527 331.386563 
" clip-path="url(#p082cc5165d)" style="fill: none; stroke: #9467bd; stroke-width: 1.5; stroke-linecap: square"/>
   </g>
   <g id="line2d_138">
    <path d="M 72.605231 -1 
L 94.402652 70.800013 
L 111.433946 126.1371 
L 127.997599 179.22053 
L 145.028894 233.087828 
L 153.263435 258.592561 
L 156.201745 267.318004 
L 158.972057 275.947948 
L 161.592547 285.901444 
L 164.078593 297.8551 
L 166.443318 296.645942 
L 166.446188 331.386563 
M 170.849279 331.386563 
L 170.852472 290.930469 
L 172.91522 314.911537 
L 172.916415 331.386563 
M 180.385171 331.386563 
L 180.386481 311.104619 
L 180.387746 331.386563 
M 185.317797 331.386563 
L 185.31961 300.251094 
L 185.321365 331.386563 
M 195.185626 331.386563 
L 195.187494 311.932031 
L 197.67354 302.327891 
L 197.676058 331.386563 
M 204.445513 331.386563 
L 204.447419 307.244477 
L 206.510167 314.546313 
L 208.488698 313.546656 
L 208.489941 331.386563 
M 212.216907 331.386563 
L 212.218789 303.318728 
L 213.981429 310.773855 
L 215.682209 309.915975 
L 217.325325 300.742932 
L 217.327109 331.386563 
M 223.388909 331.386563 
L 223.39164 306.031203 
L 223.394214 331.386563 
M 228.780547 331.386563 
L 228.782442 311.662908 
L 231.268488 302.068216 
L 231.271028 331.386563 
M 235.885986 331.386563 
L 235.887911 308.091305 
L 238.042367 307.009226 
L 240.105115 314.31812 
L 240.106353 331.386563 
M 243.983241 331.386563 
L 243.984566 312.37126 
L 245.813736 303.109162 
L 245.815563 331.386563 
M 250.918918 331.386563 
L 250.920272 308.893481 
L 252.509505 308.097072 
L 252.510819 331.386563 
M 259.755013 331.386563 
L 259.756899 312.811872 
L 259.758683 331.386563 
M 264.86075 331.386563 
L 264.863435 301.911737 
L 264.865989 331.386563 
M 269.480233 331.386563 
L 269.482859 299.601209 
L 271.637314 315.213096 
L 273.700062 305.837405 
L 275.678593 313.193115 
L 277.579513 312.24324 
L 277.580797 331.386563 
M 282.870746 331.386563 
L 282.872104 309.599454 
L 282.873416 331.386563 
M 286.10309 331.386563 
L 286.104453 307.985415 
L 286.105772 331.386563 
M 293.34995 331.386563 
L 293.351847 312.712591 
L 293.35364 331.386563 
M 298.455689 331.386563 
L 298.458383 301.820401 
L 300.823108 308.985501 
L 305.232262 306.786837 
L 305.234121 331.386563 
M 309.272215 331.386563 
L 309.27354 313.116691 
L 311.174461 312.169189 
L 311.175749 331.386563 
M 318.108802 331.386563 
L 318.110167 308.712957 
L 318.111488 331.386563 
M 321.236806 331.386563 
L 321.238173 307.154595 
L 321.240782 331.386563 
M 326.944892 331.386563 
L 326.946794 312.655716 
L 338.827209 306.740328 
L 338.829072 331.386563 
M 346.597226 331.386563 
L 346.598579 311.216812 
L 346.599882 331.386563 
M 351.703747 331.386563 
L 351.705115 308.67564 
L 353.294348 307.884865 
L 353.295673 331.386563 
M 388.398165 331.386563 
L 388.428068 307.099519 
L 589.997753 307.076302 
L 590.027684 331.386563 
M 657.157716 331.386563 
L 657.187648 307.075896 
L 690.782595 307.075822 
L 690.812527 331.386563 
L 690.812527 331.386563 
" clip-path="url(#p082cc5165d)" style="fill: none; stroke: #8c564b; stroke-width: 1.5; stroke-linecap: square"/>
   </g>
   <g id="line2d_139">
    <path d="M 64.364749 -1 
L 91.782162 119.201404 
L 109.604776 196.31478 
L 119.668488 239.338578 
L 127.997599 273.717002 
L 130.483645 285.205888 
L 132.848371 297.212054 
L 135.103069 309.275367 
L 137.257524 299.820439 
L 141.298802 314.428027 
L 141.299984 331.386563 
M 146.789717 331.386563 
L 146.791534 303.257526 
L 148.492314 294.038755 
L 148.494562 331.386563 
M 153.261662 331.386563 
L 153.263435 299.933107 
L 156.201745 301.88913 
L 158.972057 313.695043 
L 161.592547 312.353047 
L 164.078593 302.736349 
L 166.443318 309.871743 
L 168.698016 308.719672 
L 170.852472 294.393771 
L 170.855267 331.386563 
M 180.385171 331.386563 
L 180.386481 311.104619 
L 180.387746 331.386563 
M 185.317797 331.386563 
L 185.31961 300.251094 
L 185.321365 331.386563 
M 195.185626 331.386563 
L 195.187494 311.932031 
L 197.67354 302.327891 
L 197.676058 331.386563 
M 204.445513 331.386563 
L 204.447419 307.244477 
L 206.510167 314.546313 
L 208.488698 313.546656 
L 208.489941 331.386563 
M 212.216907 331.386563 
L 212.218789 303.318728 
L 213.981429 310.773855 
L 215.682209 309.915975 
L 217.325325 300.742932 
L 217.327109 331.386563 
M 223.388909 331.386563 
L 223.39164 306.031203 
L 223.394214 331.386563 
M 228.780547 331.386563 
L 228.782442 311.662908 
L 231.268488 302.068216 
L 231.271028 331.386563 
M 235.885986 331.386563 
L 235.887911 308.091305 
L 238.042367 307.009226 
L 240.105115 314.31812 
L 240.106353 331.386563 
M 243.983241 331.386563 
L 243.984566 312.37126 
L 245.813736 303.109162 
L 245.815563 331.386563 
M 250.918918 331.386563 
L 250.920272 308.893481 
L 252.509505 308.097072 
L 252.510819 331.386563 
M 259.755013 331.386563 
L 259.756899 312.811872 
L 259.758683 331.386563 
M 264.86075 331.386563 
L 264.863435 301.911737 
L 264.865989 331.386563 
M 269.480233 331.386563 
L 269.482859 299.601209 
L 271.637314 315.213096 
L 273.700062 305.837405 
L 275.678593 313.193115 
L 277.579513 312.24324 
L 277.580797 331.386563 
M 282.870746 331.386563 
L 282.872104 309.599454 
L 282.873416 331.386563 
M 286.10309 331.386563 
L 286.104453 307.985415 
L 286.105772 331.386563 
M 293.34995 331.386563 
L 293.351847 312.712591 
L 293.35364 331.386563 
M 298.455689 331.386563 
L 298.458383 301.820401 
L 300.823108 308.985501 
L 305.232262 306.786837 
L 305.234121 331.386563 
M 309.272215 331.386563 
L 309.27354 313.116691 
L 311.174461 312.169189 
L 311.175749 331.386563 
M 318.108802 331.386563 
L 318.110167 308.712957 
L 318.111488 331.386563 
M 321.236806 331.386563 
L 321.238173 307.154595 
L 321.240782 331.386563 
M 326.944892 331.386563 
L 326.946794 312.655716 
L 338.827209 306.740328 
L 338.829072 331.386563 
M 346.597226 331.386563 
L 346.598579 311.216812 
L 346.599882 331.386563 
M 351.703747 331.386563 
L 351.705115 308.67564 
L 353.294348 307.884865 
L 353.295673 331.386563 
M 388.398165 331.386563 
L 388.428068 307.099519 
L 589.997753 307.076302 
L 590.027684 331.386563 
M 657.157716 331.386563 
L 657.187648 307.075896 
L 690.782595 307.075822 
L 690.812527 331.386563 
L 690.812527 331.386563 
" clip-path="url(#p082cc5165d)" style="fill: none; stroke: #e377c2; stroke-width: 1.5; stroke-linecap: square"/>
   </g>
   <g id="patch_3">
    <path d="M 63.29375 288.959063 
L 63.29375 11.759063 
" style="fill: none; stroke: #000000; stroke-width: 0.8; stroke-linejoin: miter; stroke-linecap: square"/>
   </g>
   <g id="patch_4">
    <path d="M 732.89375 288.959063 
L 732.89375 11.759063 
" style="fill: none; stroke: #000000; stroke-width: 0.8; stroke-linejoin: miter; stroke-linecap: square"/>
   </g>
   <g id="patch_5">
    <path d="M 63.29375 288.959063 
L 732.89375 288.959063 
" style="fill: none; stroke: #000000; stroke-width: 0.8; stroke-linejoin: miter; stroke-linecap: square"/>
   </g>
   <g id="patch_6">
    <path d="M 63.29375 11.759063 
L 732.89375 11.759063 
" style="fill: none; stroke: #000000; stroke-width: 0.8; stroke-linejoin: miter; stroke-linecap: square"/>
   </g>
   <g id="legend_1">
    <g id="patch_7">
     <path d="M 632.25875 144.655312 
L 724.49375 144.655312 
Q 726.89375 144.655312 726.89375 142.255312 
L 726.89375 20.159062 
Q 726.89375 17.759062 724.49375 17.759062 
L 632.25875 17.759062 
Q 629.85875 17.759062 629.85875 20.159062 
L 629.85875 142.255312 
Q 629.85875 144.655312 632.25875 144.655312 
z
" style="fill: #ffffff; opacity: 0.8; stroke: #cccccc; stroke-linejoin: miter"/>
    </g>
    <g id="line2d_140">
     <path d="M 634.65875 27.477188 
L 646.65875 27.477188 
L 658.65875 27.477188 
" style="fill: none; stroke: #1f77b4; stroke-width: 1.5; stroke-linecap: square"/>
    </g>
    <g id="text_21">
     <!-- 1 terms -->
     <g transform="translate(668.25875 31.677188)scale(0.12 -0.12)">
      <defs>
       <path id="DejaVuSans-6d" d="M 3328 2828 
Q 3544 3216 3844 3400 
Q 4144 3584 4550 3584 
Q 5097 3584 5394 3201 
Q 5691 2819 5691 2113 
L 5691 0 
L 5113 0 
L 5113 2094 
Q 5113 2597 4934 2840 
Q 4756 3084 4391 3084 
Q 3944 3084 3684 2787 
Q 3425 2491 3425 1978 
L 3425 0 
L 2847 0 
L 2847 2094 
Q 2847 2600 2669 2842 
Q 2491 3084 2119 3084 
Q 1678 3084 1418 2786 
Q 1159 2488 1159 1978 
L 1159 0 
L 581 0 
L 581 3500 
L 1159 3500 
L 1159 2956 
Q 1356 3278 1631 3431 
Q 1906 3584 2284 3584 
Q 2666 3584 2933 3390 
Q 3200 3197 3328 2828 
z
" transform="scale(0.015625)"/>
       <path id="DejaVuSans-73" d="M 2834 3397 
L 2834 2853 
Q 2591 2978 2328 3040 
Q 2066 3103 1784 3103 
Q 1356 3103 1142 2972 
Q 928 2841 928 2578 
Q 928 2378 1081 2264 
Q 1234 2150 1697 2047 
L 1894 2003 
Q 2506 1872 2764 1633 
Q 3022 1394 3022 966 
Q 3022 478 2636 193 
Q 2250 -91 1575 -91 
Q 1294 -91 989 -36 
Q 684 19 347 128 
L 347 722 
Q 666 556 975 473 
Q 1284 391 1588 391 
Q 1994 391 2212 530 
Q 2431 669 2431 922 
Q 2431 1156 2273 1281 
Q 2116 1406 1581 1522 
L 1381 1569 
Q 847 1681 609 1914 
Q 372 2147 372 2553 
Q 372 3047 722 3315 
Q 1072 3584 1716 3584 
Q 2034 3584 2315 3537 
Q 2597 3491 2834 3397 
z
" transform="scale(0.015625)"/>
      </defs>
      <use xlink:href="#DejaVuSans-31"/>
      <use xlink:href="#DejaVuSans-20" x="63.623047"/>
      <use xlink:href="#DejaVuSans-74" x="95.410156"/>
      <use xlink:href="#DejaVuSans-65" x="134.619141"/>
      <use xlink:href="#DejaVuSans-72" x="196.142578"/>
      <use xlink:href="#DejaVuSans-6d" x="235.505859"/>
      <use xlink:href="#DejaVuSans-73" x="332.917969"/>
     </g>
    </g>
    <g id="line2d_141">
     <path d="M 634.65875 45.090937 
L 646.65875 45.090937 
L 658.65875 45.090937 
" style="fill: none; stroke: #ff7f0e; stroke-width: 1.5; stroke-linecap: square"/>
    </g>
    <g id="text_22">
     <!-- 2 terms -->
     <g transform="translate(668.25875 49.290937)scale(0.12 -0.12)">
      <use xlink:href="#DejaVuSans-32"/>
      <use xlink:href="#DejaVuSans-20" x="63.623047"/>
      <use xlink:href="#DejaVuSans-74" x="95.410156"/>
      <use xlink:href="#DejaVuSans-65" x="134.619141"/>
      <use xlink:href="#DejaVuSans-72" x="196.142578"/>
      <use xlink:href="#DejaVuSans-6d" x="235.505859"/>
      <use xlink:href="#DejaVuSans-73" x="332.917969"/>
     </g>
    </g>
    <g id="line2d_142">
     <path d="M 634.65875 62.704688 
L 646.65875 62.704688 
L 658.65875 62.704688 
" style="fill: none; stroke: #2ca02c; stroke-width: 1.5; stroke-linecap: square"/>
    </g>
    <g id="text_23">
     <!-- 4 terms -->
     <g transform="translate(668.25875 66.904688)scale(0.12 -0.12)">
      <use xlink:href="#DejaVuSans-34"/>
      <use xlink:href="#DejaVuSans-20" x="63.623047"/>
      <use xlink:href="#DejaVuSans-74" x="95.410156"/>
      <use xlink:href="#DejaVuSans-65" x="134.619141"/>
      <use xlink:href="#DejaVuSans-72" x="196.142578"/>
      <use xlink:href="#DejaVuSans-6d" x="235.505859"/>
      <use xlink:href="#DejaVuSans-73" x="332.917969"/>
     </g>
    </g>
    <g id="line2d_143">
     <path d="M 634.65875 80.318438 
L 646.65875 80.318438 
L 658.65875 80.318438 
" style="fill: none; stroke: #d62728; stroke-width: 1.5; stroke-linecap: square"/>
    </g>
    <g id="text_24">
     <!-- 6 terms -->
     <g transform="translate(668.25875 84.518438)scale(0.12 -0.12)">
      <use xlink:href="#DejaVuSans-36"/>
      <use xlink:href="#DejaVuSans-20" x="63.623047"/>
      <use xlink:href="#DejaVuSans-74" x="95.410156"/>
      <use xlink:href="#DejaVuSans-65" x="134.619141"/>
      <use xlink:href="#DejaVuSans-72" x="196.142578"/>
      <use xlink:href="#DejaVuSans-6d" x="235.505859"/>
      <use xlink:href="#DejaVuSans-73" x="332.917969"/>
     </g>
    </g>
    <g id="line2d_144">
     <path d="M 634.65875 97.932188 
L 646.65875 97.932188 
L 658.65875 97.932188 
" style="fill: none; stroke: #9467bd; stroke-width: 1.5; stroke-linecap: square"/>
    </g>
    <g id="text_25">
     <!-- 8 terms -->
     <g transform="translate(668.25875 102.132188)scale(0.12 -0.12)">
      <use xlink:href="#DejaVuSans-38"/>
      <use xlink:href="#DejaVuSans-20" x="63.623047"/>
      <use xlink:href="#DejaVuSans-74" x="95.410156"/>
      <use xlink:href="#DejaVuSans-65" x="134.619141"/>
      <use xlink:href="#DejaVuSans-72" x="196.142578"/>
      <use xlink:href="#DejaVuSans-6d" x="235.505859"/>
      <use xlink:href="#DejaVuSans-73" x="332.917969"/>
     </g>
    </g>
    <g id="line2d_145">
     <path d="M 634.65875 115.545937 
L 646.65875 115.545937 
L 658.65875 115.545937 
" style="fill: none; stroke: #8c564b; stroke-width: 1.5; stroke-linecap: square"/>
    </g>
    <g id="text_26">
     <!-- 12 terms -->
     <g transform="translate(668.25875 119.745937)scale(0.12 -0.12)">
      <use xlink:href="#DejaVuSans-31"/>
      <use xlink:href="#DejaVuSans-32" x="63.623047"/>
      <use xlink:href="#DejaVuSans-20" x="127.246094"/>
      <use xlink:href="#DejaVuSans-74" x="159.033203"/>
      <use xlink:href="#DejaVuSans-65" x="198.242188"/>
      <use xlink:href="#DejaVuSans-72" x="259.765625"/>
      <use xlink:href="#DejaVuSans-6d" x="299.128906"/>
      <use xlink:href="#DejaVuSans-73" x="396.541016"/>
     </g>
    </g>
    <g id="line2d_146">
     <path d="M 634.65875 133.159688 
L 646.65875 133.159688 
L 658.65875 133.159688 
" style="fill: none; stroke: #e377c2; stroke-width: 1.5; stroke-linecap: square"/>
    </g>
    <g id="text_27">
     <!-- 16 terms -->
     <g transform="translate(668.25875 137.359688)scale(0.12 -0.12)">
      <use xlink:href="#DejaVuSans-31"/>
      <use xlink:href="#DejaVuSans-36" x="63.623047"/>
      <use xlink:href="#DejaVuSans-20" x="127.246094"/>
      <use xlink:href="#DejaVuSans-74" x="159.033203"/>
      <use xlink:href="#DejaVuSans-65" x="198.242188"/>
      <use xlink:href="#DejaVuSans-72" x="259.765625"/>
      <use xlink:href="#DejaVuSans-6d" x="299.128906"/>
      <use xlink:href="#DejaVuSans-73" x="396.541016"/>
     </g>
    </g>
   </g>
  </g>
 </g>
 <defs>
  <clipPath id="p082cc5165d">
   <rect x="63.29375" y="11.759063" width="669.6" height="277.2"/>
  </clipPath>
 </defs>
</svg>
