<?xml version="1.0" encoding="UTF-8" standalone="no"?>
<!-- Created with Inkscape (http://www.inkscape.org/) -->

<svg
   xmlns:dc="http://purl.org/dc/elements/1.1/"
   xmlns:cc="http://creativecommons.org/ns#"
   xmlns:rdf="http://www.w3.org/1999/02/22-rdf-syntax-ns#"
   xmlns:svg="http://www.w3.org/2000/svg"
   xmlns="http://www.w3.org/2000/svg"
   xmlns:sodipodi="http://sodipodi.sourceforge.net/DTD/sodipodi-0.dtd"
   xmlns:inkscape="http://www.inkscape.org/namespaces/inkscape"
   width="68.844032mm"
   height="10.173279mm"
   viewBox="0 0 68.844032 10.173279"
   version="1.1"
   id="svg8"
   inkscape:version="0.92.4 (5da689c313, 2019-01-14)"
   sodipodi:docname="convert_bits_binary_logit.svg">
  <defs
     id="defs2">
    <marker
       inkscape:stockid="Arrow2Send"
       orient="auto"
       refY="0"
       refX="0"
       id="Arrow2Send"
       style="overflow:visible"
       inkscape:isstock="true">
      <path
         id="path862"
         style="fill:#000000;fill-opacity:1;fill-rule:evenodd;stroke:#000000;stroke-width:0.625;stroke-linejoin:round;stroke-opacity:1"
         d="M 8.7185878,4.0337352 -2.2072895,0.01601326 8.7185884,-4.0017078 c -1.7454984,2.3720609 -1.7354408,5.6174519 -6e-7,8.035443 z"
         transform="matrix(-0.3,0,0,-0.3,0.69,0)"
         inkscape:connector-curvature="0" />
    </marker>
    <marker
       inkscape:stockid="Arrow2Sstart"
       orient="auto"
       refY="0"
       refX="0"
       id="Arrow2Sstart"
       style="overflow:visible"
       inkscape:isstock="true">
      <path
         id="path859"
         style="fill:#000000;fill-opacity:1;fill-rule:evenodd;stroke:#000000;stroke-width:0.625;stroke-linejoin:round;stroke-opacity:1"
         d="M 8.7185878,4.0337352 -2.2072895,0.01601326 8.7185884,-4.0017078 c -1.7454984,2.3720609 -1.7354408,5.6174519 -6e-7,8.035443 z"
         transform="matrix(0.3,0,0,0.3,-0.69,0)"
         inkscape:connector-curvature="0" />
    </marker>
    <marker
       inkscape:stockid="Arrow1Send"
       orient="auto"
       refY="0"
       refX="0"
       id="Arrow1Send"
       style="overflow:visible"
       inkscape:isstock="true">
      <path
         id="path844"
         d="M 0,0 5,-5 -12.5,0 5,5 Z"
         style="fill:#000000;fill-opacity:1;fill-rule:evenodd;stroke:#000000;stroke-width:1.00000003pt;stroke-opacity:1"
         transform="matrix(-0.2,0,0,-0.2,-1.2,0)"
         inkscape:connector-curvature="0" />
    </marker>
    <marker
       inkscape:stockid="Arrow1Mend"
       orient="auto"
       refY="0"
       refX="0"
       id="Arrow1Mend"
       style="overflow:visible"
       inkscape:isstock="true">
      <path
         id="path838"
         d="M 0,0 5,-5 -12.5,0 5,5 Z"
         style="fill:#000000;fill-opacity:1;fill-rule:evenodd;stroke:#000000;stroke-width:1.00000003pt;stroke-opacity:1"
         transform="matrix(-0.4,0,0,-0.4,-4,0)"
         inkscape:connector-curvature="0" />
    </marker>
  </defs>
  <sodipodi:namedview
     id="base"
     pagecolor="#ffffff"
     bordercolor="#666666"
     borderopacity="1.0"
     inkscape:pageopacity="0.0"
     inkscape:pageshadow="2"
     inkscape:zoom="3.959798"
     inkscape:cx="103.21074"
     inkscape:cy="43.779486"
     inkscape:document-units="mm"
     inkscape:current-layer="text1219"
     showgrid="true"
     inkscape:snap-grids="true"
     inkscape:snap-bbox="true"
     inkscape:snap-object-midpoints="true"
     inkscape:snap-center="true"
     inkscape:bbox-paths="true"
     inkscape:bbox-nodes="true"
     inkscape:snap-bbox-edge-midpoints="true"
     inkscape:snap-bbox-midpoints="true"
     fit-margin-top="0"
     fit-margin-left="0"
     fit-margin-right="0"
     fit-margin-bottom="0"
     inkscape:window-width="1920"
     inkscape:window-height="1017"
     inkscape:window-x="-8"
     inkscape:window-y="-8"
     inkscape:window-maximized="1">
    <inkscape:grid
       type="xygrid"
       id="grid815"
       originx="-1.4242023"
       originy="-261.69796" />
  </sodipodi:namedview>
  <metadata
     id="metadata5">
    <rdf:RDF>
      <cc:Work
         rdf:about="">
        <dc:format>image/svg+xml</dc:format>
        <dc:type
           rdf:resource="http://purl.org/dc/dcmitype/StillImage" />
        <dc:title></dc:title>
      </cc:Work>
    </rdf:RDF>
  </metadata>
  <g
     inkscape:label="レイヤー 1"
     inkscape:groupmode="layer"
     id="layer1"
     transform="translate(-1.4242023,-25.128763)">
    <g
       aria-label="0x00070123456789ABCDEF"
       style="font-style:normal;font-variant:normal;font-weight:normal;font-stretch:normal;font-size:5.64444447px;line-height:1.25;font-family:Tahoma;-inkscape-font-specification:Tahoma;letter-spacing:0px;word-spacing:0px;fill:#000000;fill-opacity:1;stroke:none;stroke-width:0.52916664"
       id="text819">
      <path
         d="m 4.047987,27.27299 q 0,1.105187 -0.3224609,1.623329 -0.3197049,0.515387 -0.9894315,0.515387 -0.6779948,0 -0.9949436,-0.526411 -0.3169487,-0.526411 -0.3169487,-1.606793 0,-1.110698 0.3197048,-1.623329 0.322461,-0.515386 0.9921875,-0.515386 0.6779948,0 0.9949436,0.531923 0.3169488,0.531923 0.3169488,1.60128 z m -0.7055556,1.251259 q 0.079926,-0.20395 0.1129992,-0.515386 0.033073,-0.311437 0.033073,-0.735873 0,-0.421679 -0.033073,-0.733116 Q 3.4223577,26.228437 3.3396754,26.021732 3.2569931,25.81227 3.110921,25.704783 2.967605,25.59454 2.7360946,25.59454 q -0.2287543,0 -0.3775824,0.110243 -0.1460721,0.107487 -0.2315105,0.322461 -0.082682,0.209462 -0.1129991,0.529166 -0.030317,0.319705 -0.030317,0.722092 0,0.429948 0.024805,0.719336 0.027561,0.289388 0.1157552,0.518143 0.079926,0.212218 0.2259982,0.327973 0.1488282,0.112999 0.3858507,0.112999 0.2287544,0 0.3748264,-0.107487 0.1488281,-0.110243 0.2315104,-0.325217 z"
         style="stroke-width:0.52916664"
         id="path1319" />
      <path
         d="M 7.0493542,29.326267 H 6.4127006 L 5.6658039,28.163203 4.8968585,29.326267 H 4.3098143 L 5.3791719,27.799401 4.3208386,26.24773 h 0.6366536 l 0.7413846,1.15204 0.7606771,-1.15204 h 0.5898003 l -1.0638455,1.515842 z"
         style="stroke-width:0.52916664"
         id="path1321" />
      <path
         d="m 9.9349661,27.27299 q 0,1.105187 -0.3224609,1.623329 -0.3197049,0.515387 -0.9894315,0.515387 -0.6779948,0 -0.9949435,-0.526411 -0.3169488,-0.526411 -0.3169488,-1.606793 0,-1.110698 0.3197048,-1.623329 0.322461,-0.515386 0.9921875,-0.515386 0.6779948,0 0.9949436,0.531923 0.3169488,0.531923 0.3169488,1.60128 z m -0.7055556,1.251259 q 0.079926,-0.20395 0.1129992,-0.515386 0.033073,-0.311437 0.033073,-0.735873 0,-0.421679 -0.033073,-0.733116 Q 9.3093368,26.228437 9.2266545,26.021732 9.1439722,25.81227 8.9979001,25.704783 8.8545841,25.59454 8.6230737,25.59454 q -0.2287543,0 -0.3775824,0.110243 -0.1460721,0.107487 -0.2315105,0.322461 -0.082682,0.209462 -0.1129991,0.529166 -0.030317,0.319705 -0.030317,0.722092 0,0.429948 0.024805,0.719336 0.027561,0.289388 0.1157552,0.518143 0.079926,0.212218 0.2259982,0.327973 0.1488282,0.112999 0.3858507,0.112999 0.2287544,0 0.3748264,-0.107487 0.1488281,-0.110243 0.2315104,-0.325217 z"
         style="stroke-width:0.52916664"
         id="path1323" />
      <path
         d="m 13.021771,27.27299 q 0,1.105187 -0.32246,1.623329 -0.319705,0.515387 -0.989432,0.515387 -0.677995,0 -0.994944,-0.526411 -0.316948,-0.526411 -0.316948,-1.606793 0,-1.110698 0.319705,-1.623329 0.322461,-0.515386 0.992187,-0.515386 0.677995,0 0.994944,0.531923 0.316948,0.531923 0.316948,1.60128 z m -0.705555,1.251259 q 0.07993,-0.20395 0.112999,-0.515386 0.03307,-0.311437 0.03307,-0.735873 0,-0.421679 -0.03307,-0.733116 -0.03307,-0.311437 -0.115755,-0.518142 -0.08268,-0.209462 -0.228755,-0.316949 -0.143316,-0.110243 -0.374826,-0.110243 -0.228754,0 -0.377582,0.110243 -0.146072,0.107487 -0.231511,0.322461 -0.08268,0.209462 -0.112999,0.529166 -0.03032,0.319705 -0.03032,0.722092 0,0.429948 0.0248,0.719336 0.02756,0.289388 0.115755,0.518143 0.07993,0.212218 0.225998,0.327973 0.148829,0.112999 0.385851,0.112999 0.228754,0 0.374826,-0.107487 0.148829,-0.110243 0.231511,-0.325217 z"
         style="stroke-width:0.52916664"
         id="path1325" />
      <path
         d="m 16.108578,27.27299 q 0,1.105187 -0.322461,1.623329 -0.319705,0.515387 -0.989432,0.515387 -0.677994,0 -0.994943,-0.526411 -0.316949,-0.526411 -0.316949,-1.606793 0,-1.110698 0.319705,-1.623329 0.322461,-0.515386 0.992187,-0.515386 0.677995,0 0.994944,0.531923 0.316949,0.531923 0.316949,1.60128 z m -0.705556,1.251259 q 0.07993,-0.20395 0.112999,-0.515386 0.03307,-0.311437 0.03307,-0.735873 0,-0.421679 -0.03307,-0.733116 -0.03307,-0.311437 -0.115755,-0.518142 -0.08268,-0.209462 -0.228754,-0.316949 -0.143316,-0.110243 -0.374827,-0.110243 -0.228754,0 -0.377582,0.110243 -0.146072,0.107487 -0.231511,0.322461 -0.08268,0.209462 -0.112999,0.529166 -0.03032,0.319705 -0.03032,0.722092 0,0.429948 0.0248,0.719336 0.02756,0.289388 0.115755,0.518143 0.07993,0.212218 0.225999,0.327973 0.148828,0.112999 0.38585,0.112999 0.228755,0 0.374827,-0.107487 0.148828,-0.110243 0.23151,-0.325217 z"
         style="stroke-width:0.52916664"
         id="path1327" />
      <path
         d="m 19.220188,25.837075 -1.774913,3.489192 H 16.85823 l 1.879644,-3.621484 h -2.122178 v -0.482314 h 2.604492 z"
         style="stroke-width:0.52916664"
         id="path1329" />
      <path
         d="m 22.282188,27.27299 q 0,1.105187 -0.322461,1.623329 -0.319704,0.515387 -0.989431,0.515387 -0.677995,0 -0.994944,-0.526411 -0.316948,-0.526411 -0.316948,-1.606793 0,-1.110698 0.319705,-1.623329 0.32246,-0.515386 0.992187,-0.515386 0.677995,0 0.994944,0.531923 0.316948,0.531923 0.316948,1.60128 z m -0.705555,1.251259 q 0.07993,-0.20395 0.112999,-0.515386 0.03307,-0.311437 0.03307,-0.735873 0,-0.421679 -0.03307,-0.733116 -0.03307,-0.311437 -0.115755,-0.518142 -0.08268,-0.209462 -0.228755,-0.316949 -0.143316,-0.110243 -0.374826,-0.110243 -0.228754,0 -0.377582,0.110243 -0.146072,0.107487 -0.231511,0.322461 -0.08268,0.209462 -0.112999,0.529166 -0.03032,0.319705 -0.03032,0.722092 0,0.429948 0.02481,0.719336 0.02756,0.289388 0.115755,0.518143 0.07993,0.212218 0.225998,0.327973 0.148828,0.112999 0.385851,0.112999 0.228754,0 0.374826,-0.107487 0.148829,-0.110243 0.231511,-0.325217 z"
         style="stroke-width:0.52916664"
         id="path1331" />
      <path
         d="m 25.140239,29.326267 h -2.000911 v -0.418923 h 0.744141 v -2.750565 h -0.744141 v -0.374826 q 0.42168,0 0.620117,-0.118511 0.201194,-0.121268 0.225998,-0.454753 h 0.427192 v 3.698655 h 0.727604 z"
         style="stroke-width:0.52916664"
         id="path1333" />
      <path
         d="m 28.436507,29.326267 h -2.532835 v -0.57602 q 0.272852,-0.259071 0.515387,-0.496093 0.242534,-0.237023 0.474045,-0.493338 0.468533,-0.515386 0.63941,-0.824067 0.170876,-0.311437 0.170876,-0.642166 0,-0.170877 -0.05512,-0.300412 -0.05237,-0.129536 -0.146072,-0.214974 -0.09646,-0.08268 -0.223243,-0.124024 -0.126779,-0.04134 -0.278363,-0.04134 -0.146072,0 -0.297656,0.03859 -0.148829,0.03583 -0.286632,0.09095 -0.115756,0.04685 -0.223243,0.112999 -0.107487,0.06615 -0.173632,0.112999 h -0.03032 v -0.584288 q 0.170876,-0.08544 0.474045,-0.165365 0.305924,-0.08268 0.578776,-0.08268 0.573264,0 0.898481,0.305925 0.325217,0.303168 0.325217,0.824066 0,0.239779 -0.05788,0.443729 -0.05512,0.203949 -0.15434,0.377582 -0.101975,0.179145 -0.245291,0.355534 -0.143316,0.176389 -0.303168,0.347266 -0.259071,0.281119 -0.578776,0.584288 -0.316949,0.303168 -0.507118,0.479557 h 2.017448 z"
         style="stroke-width:0.52916664"
         id="path1335" />
      <path
         d="m 30.09842,25.613832 q -0.148828,0 -0.297656,0.03583 -0.148828,0.03583 -0.292144,0.09371 -0.132292,0.05512 -0.23151,0.115755 -0.09646,0.06063 -0.173633,0.112999 h -0.03307 V 25.39059 q 0.179145,-0.09646 0.485069,-0.173633 0.308681,-0.07993 0.587045,-0.07993 0.278363,0 0.485069,0.05788 0.209462,0.05512 0.377583,0.173633 0.181901,0.132291 0.272851,0.319704 0.09371,0.187414 0.09371,0.438217 0,0.338997 -0.223242,0.595312 -0.223243,0.256315 -0.534679,0.325217 v 0.03859 q 0.129535,0.02481 0.275607,0.08544 0.148828,0.06063 0.275608,0.179145 0.12678,0.118512 0.206706,0.305925 0.07993,0.184657 0.07993,0.451996 0,0.278364 -0.09646,0.512631 -0.09371,0.23151 -0.267339,0.410655 -0.179145,0.187413 -0.432704,0.283876 -0.253559,0.09646 -0.57602,0.09646 -0.308681,0 -0.611849,-0.07441 -0.303168,-0.07442 -0.509874,-0.179145 v -0.581533 h 0.03858 q 0.173633,0.12678 0.465777,0.242535 0.292144,0.115755 0.584288,0.115755 0.168121,0 0.336241,-0.05236 0.170877,-0.05512 0.283876,-0.176389 0.110243,-0.121267 0.168121,-0.267339 0.05788,-0.146072 0.05788,-0.369315 0,-0.223242 -0.06614,-0.366558 -0.06339,-0.143316 -0.179145,-0.225998 -0.115756,-0.08268 -0.275608,-0.112999 -0.157096,-0.03307 -0.341753,-0.03307 h -0.234267 v -0.457509 h 0.181901 q 0.37207,0 0.603581,-0.176389 0.234266,-0.176389 0.234266,-0.51263 0,-0.15434 -0.06063,-0.264583 -0.06063,-0.112999 -0.154341,-0.179145 -0.104731,-0.07166 -0.23151,-0.09922 -0.12678,-0.02756 -0.270096,-0.02756 z"
         style="stroke-width:0.52916664"
         id="path1337" />
      <path
         d="m 34.717606,27.915156 h -0.487825 v 1.411111 H 33.700614 V 27.915156 H 31.887116 V 27.33638 l 1.835547,-2.113911 h 0.507118 v 2.251715 h 0.487825 z m -1.016992,-0.440972 v -1.604037 l -1.38355,1.604037 z"
         style="stroke-width:0.52916664"
         id="path1339" />
      <path
         d="m 37.650069,28.019887 q 0,0.297656 -0.09646,0.551215 -0.09371,0.253559 -0.264584,0.438216 -0.173633,0.187414 -0.432704,0.294901 -0.256315,0.107487 -0.57602,0.107487 -0.2949,0 -0.581532,-0.06615 -0.283876,-0.06339 -0.493337,-0.168121 v -0.581532 h 0.03858 q 0.06339,0.04685 0.181901,0.107487 0.118511,0.05788 0.261827,0.110243 0.162608,0.05788 0.297656,0.09095 0.135048,0.03032 0.303169,0.03032 0.165364,0 0.322461,-0.05788 0.157096,-0.06063 0.270095,-0.192926 0.101975,-0.121267 0.15434,-0.283875 0.05512,-0.162609 0.05512,-0.383095 0,-0.21773 -0.06063,-0.35829 -0.05788,-0.14056 -0.170877,-0.23151 -0.118511,-0.104731 -0.292144,-0.146072 -0.170876,-0.0441 -0.383094,-0.0441 -0.223243,0 -0.449241,0.03583 -0.225998,0.03307 -0.361046,0.06339 v -2.113911 h 2.251715 v 0.482314 h -1.719792 v 1.091406 q 0.09922,-0.01102 0.195681,-0.01654 0.09646,-0.0055 0.176389,-0.0055 0.314193,0 0.531923,0.05237 0.21773,0.05237 0.418924,0.20395 0.203949,0.15434 0.311436,0.38585 0.110243,0.231511 0.110243,0.603581 z"
         style="stroke-width:0.52916664"
         id="path1341" />
      <path
         d="m 40.84712,27.995082 q 0,0.316949 -0.104731,0.584289 -0.104731,0.267339 -0.28112,0.446484 -0.184657,0.190169 -0.413412,0.289388 -0.228754,0.09646 -0.504362,0.09646 -0.278363,0 -0.507118,-0.09371 -0.225998,-0.09371 -0.399631,-0.278364 -0.212218,-0.223242 -0.333485,-0.595312 -0.118511,-0.374827 -0.118511,-0.92053 0,-0.534679 0.110243,-0.964626 0.110243,-0.432704 0.338997,-0.752409 0.223242,-0.311437 0.57602,-0.48507 0.352778,-0.176389 0.815799,-0.176389 0.137804,0 0.256315,0.01378 0.118511,0.01378 0.209462,0.0441 v 0.526411 h -0.02481 q -0.07441,-0.04134 -0.214974,-0.07441 -0.14056,-0.03583 -0.300412,-0.03583 -0.51263,0 -0.829579,0.347266 -0.314193,0.34451 -0.372071,1.025261 0.195682,-0.137804 0.402388,-0.212218 0.206705,-0.07441 0.451996,-0.07441 0.239779,0 0.418924,0.04961 0.181901,0.04685 0.377582,0.192925 0.225999,0.170877 0.336242,0.432704 0.110243,0.261828 0.110243,0.614605 z m -0.559484,0.02205 q 0,-0.253559 -0.06615,-0.424436 -0.06615,-0.170877 -0.214974,-0.292144 -0.107487,-0.08819 -0.24529,-0.115755 -0.135048,-0.02756 -0.278364,-0.02756 -0.192926,0 -0.374827,0.05788 -0.181901,0.05788 -0.35829,0.16812 -0.0055,0.06063 -0.0083,0.118512 -0.0028,0.05512 -0.0028,0.14056 0,0.427191 0.08268,0.689019 0.08544,0.261827 0.209462,0.396875 0.118512,0.129535 0.242535,0.181901 0.12678,0.05237 0.272852,0.05237 0.330729,0 0.534678,-0.237022 0.206706,-0.237023 0.206706,-0.708312 z"
         style="stroke-width:0.52916664"
         id="path1343" />
      <path
         d="m 43.914631,25.837075 -1.774914,3.489192 h -0.587044 l 1.879644,-3.621484 h -2.122179 v -0.482314 h 2.604493 z"
         style="stroke-width:0.52916664"
         id="path1345" />
      <path
         d="m 46.359272,26.178828 q 0,-0.275608 -0.184657,-0.460265 -0.184657,-0.184657 -0.51263,-0.184657 -0.300413,0 -0.493338,0.165365 -0.190169,0.165364 -0.190169,0.446484 0,0.20395 0.09646,0.34451 0.09922,0.14056 0.294901,0.253559 0.08544,0.04685 0.259071,0.129535 0.176389,0.08268 0.319705,0.129536 0.239778,-0.184657 0.325217,-0.377583 0.08544,-0.195681 0.08544,-0.446484 z m 0.07717,2.056033 q 0,-0.253559 -0.09922,-0.402387 -0.09922,-0.148828 -0.383094,-0.303169 -0.09371,-0.05237 -0.250803,-0.112999 -0.15434,-0.06063 -0.350022,-0.143316 -0.228754,0.151585 -0.350022,0.374827 -0.121267,0.220486 -0.121267,0.504362 0,0.37207 0.223242,0.614605 0.225998,0.242534 0.564996,0.242534 0.347265,0 0.556727,-0.206705 0.209462,-0.209462 0.209462,-0.567752 z m -0.771701,1.185113 q -0.305925,0 -0.556728,-0.09095 -0.250803,-0.09095 -0.427192,-0.261827 -0.173632,-0.165365 -0.264583,-0.391363 -0.08819,-0.228754 -0.08819,-0.482313 0,-0.333485 0.176389,-0.611849 0.179145,-0.28112 0.518142,-0.446484 v -0.01654 q -0.303168,-0.176389 -0.449241,-0.385851 -0.146072,-0.209461 -0.146072,-0.523654 0,-0.463021 0.350022,-0.771702 0.350022,-0.30868 0.887457,-0.30868 0.559483,0 0.895725,0.2949 0.338997,0.292144 0.338997,0.749653 0,0.275607 -0.162609,0.545703 -0.159852,0.270095 -0.46302,0.42168 v 0.01654 q 0.35829,0.168121 0.542947,0.407899 0.184657,0.239779 0.184657,0.617362 0,0.52641 -0.383095,0.881944 -0.380338,0.355534 -0.953602,0.355534 z"
         style="stroke-width:0.52916664"
         id="path1347" />
      <path
         d="m 49.503957,26.909188 q 0,-0.418923 -0.07717,-0.680751 -0.07717,-0.264583 -0.212218,-0.407899 -0.121268,-0.132292 -0.245291,-0.181901 -0.124023,-0.04961 -0.272852,-0.04961 -0.338997,0 -0.540191,0.242534 -0.201193,0.242535 -0.201193,0.7028 0,0.259071 0.06615,0.427192 0.06615,0.16812 0.214974,0.289388 0.104731,0.08544 0.237022,0.115755 0.132292,0.02756 0.283876,0.02756 0.176389,0 0.380339,-0.06063 0.203949,-0.06339 0.355534,-0.165365 0.0028,-0.04134 0.0055,-0.107487 0.0055,-0.0689 0.0055,-0.151584 z M 47.395558,26.55641 q 0,-0.316948 0.101975,-0.578776 0.104731,-0.261827 0.283876,-0.451996 0.170877,-0.181901 0.416168,-0.283876 0.248046,-0.101975 0.501606,-0.101975 0.283875,0 0.51263,0.09646 0.23151,0.09371 0.399631,0.272851 0.212218,0.225999 0.327973,0.592557 0.118511,0.366558 0.118511,0.926042 0,0.509874 -0.115755,0.967382 -0.112999,0.454753 -0.336241,0.755165 -0.237023,0.319705 -0.570508,0.487826 -0.330729,0.16812 -0.818555,0.16812 -0.110243,0 -0.234266,-0.01378 -0.124024,-0.01102 -0.231511,-0.0441 v -0.526411 h 0.02756 q 0.0689,0.03858 0.214974,0.07441 0.146072,0.03583 0.297656,0.03583 0.540191,0 0.848872,-0.355534 0.30868,-0.355533 0.350021,-1.016992 -0.220486,0.148828 -0.421679,0.21773 -0.198438,0.0689 -0.432704,0.0689 -0.228755,0 -0.416168,-0.04961 -0.187413,-0.04961 -0.377582,-0.192926 -0.220486,-0.16812 -0.333485,-0.424435 -0.113,-0.259071 -0.113,-0.622874 z"
         style="stroke-width:0.52916664"
         id="path1349" />
      <path
         d="m 50.270144,29.326267 1.38355,-4.103798 h 0.672483 l 1.38355,4.103798 h -0.57602 l -0.37207,-1.146528 H 51.19343 l -0.372071,1.146528 z m 2.339909,-1.612304 -0.633898,-1.934766 -0.631141,1.934766 z"
         style="stroke-width:0.52916664"
         id="path1351" />
      <path
         d="m 56.88197,28.06674 q 0,0.305925 -0.115755,0.540191 -0.115756,0.234267 -0.311437,0.385851 -0.23151,0.181901 -0.496094,0.259071 -0.264583,0.07441 -0.683507,0.07441 h -1.176844 v -4.103798 h 1.08865 q 0.438216,0 0.655946,0.03032 0.220486,0.02756 0.42168,0.135048 0.220486,0.118511 0.322461,0.311437 0.101974,0.190169 0.101974,0.44924 0,0.289388 -0.15434,0.518143 -0.151584,0.228754 -0.421679,0.358289 v 0.02205 q 0.366558,0.09922 0.567751,0.363802 0.201194,0.261827 0.201194,0.655946 z m -0.760677,-1.841059 q 0,-0.148828 -0.04961,-0.256315 -0.04961,-0.110243 -0.159852,-0.173633 -0.132292,-0.07441 -0.2949,-0.09095 -0.162609,-0.01654 -0.449241,-0.01654 h -0.523654 v 1.20165 h 0.620117 q 0.256315,0 0.377582,-0.02481 0.121268,-0.02756 0.250803,-0.110243 0.124024,-0.07993 0.176389,-0.209462 0.05237,-0.129535 0.05237,-0.319705 z m 0.192925,1.863108 q 0,-0.23151 -0.06615,-0.380339 -0.06615,-0.151584 -0.267339,-0.256315 -0.129536,-0.0689 -0.283876,-0.08819 -0.151584,-0.01929 -0.432704,-0.01929 h -0.620117 v 1.515842 h 0.443728 q 0.35829,0 0.564996,-0.03307 0.206706,-0.03307 0.363802,-0.140559 0.15434,-0.107487 0.225998,-0.242535 0.07166,-0.137804 0.07166,-0.355534 z"
         style="stroke-width:0.52916664"
         id="path1353" />
      <path
         d="m 59.031711,29.400681 q -0.402387,0 -0.741385,-0.135047 -0.336241,-0.135048 -0.581532,-0.402388 -0.24529,-0.267339 -0.380338,-0.66697 -0.135048,-0.399631 -0.135048,-0.917774 0,-0.515386 0.129536,-0.89848 0.132291,-0.383095 0.383094,-0.666971 0.245291,-0.275608 0.581532,-0.418924 0.336242,-0.146072 0.752409,-0.146072 0.206706,0 0.385851,0.03032 0.181901,0.03032 0.336241,0.07717 0.132292,0.04134 0.270096,0.104731 0.14056,0.06063 0.275607,0.135048 v 0.658702 h -0.0441 q -0.07166,-0.06615 -0.184657,-0.159852 -0.112999,-0.09371 -0.275608,-0.184657 -0.157096,-0.08544 -0.341753,-0.14056 -0.184657,-0.05512 -0.427192,-0.05512 -0.261827,0 -0.496094,0.107487 -0.234266,0.107487 -0.410655,0.316949 -0.173633,0.209462 -0.270096,0.526411 -0.09646,0.316948 -0.09646,0.713823 0,0.42168 0.101975,0.727605 0.101974,0.303168 0.278363,0.51263 0.170877,0.20395 0.402388,0.30868 0.23151,0.101975 0.490581,0.101975 0.237023,0 0.438216,-0.05788 0.201194,-0.05788 0.35829,-0.146072 0.151584,-0.08544 0.261827,-0.173633 0.110244,-0.09095 0.173633,-0.154341 h 0.04134 v 0.650435 q -0.135047,0.06339 -0.256315,0.121267 -0.118511,0.05788 -0.289388,0.112999 -0.179145,0.05788 -0.333485,0.08819 -0.151584,0.03032 -0.396875,0.03032 z"
         style="stroke-width:0.52916664"
         id="path1355" />
      <path
         d="m 64.058793,27.278502 q 0,0.56224 -0.228754,1.014237 -0.225998,0.451996 -0.609093,0.705555 -0.311437,0.195682 -0.633898,0.261827 -0.319704,0.06615 -0.818554,0.06615 h -0.945335 v -4.103798 h 0.93431 q 0.578776,0 0.90675,0.08819 0.330729,0.08544 0.562239,0.237022 0.396875,0.261828 0.614605,0.697288 0.21773,0.432704 0.21773,1.033528 z m -0.567752,-0.0083 q 0,-0.474045 -0.157096,-0.80753 -0.157096,-0.336241 -0.465777,-0.523655 -0.21773,-0.132291 -0.465777,-0.190169 -0.248047,-0.05788 -0.617361,-0.05788 h -0.416167 v 3.166732 h 0.416167 q 0.363802,0 0.636654,-0.05788 0.272851,-0.05788 0.49885,-0.214974 0.283876,-0.192926 0.427191,-0.512631 0.143316,-0.32246 0.143316,-0.802018 z"
         style="stroke-width:0.52916664"
         id="path1357" />
      <path
         d="m 64.648595,29.326267 v -4.103798 h 2.565907 v 0.48507 h -2.020204 v 1.124479 h 1.8824 v 0.48507 h -1.8824 v 1.52411 h 2.020204 v 0.485069 z"
         style="stroke-width:0.52916664"
         id="path1359" />
      <path
         d="m 70.268238,25.707539 h -1.909961 v 1.157552 h 1.830035 v 0.485069 h -1.830035 v 1.976107 h -0.545703 v -4.103798 h 2.455664 z"
         style="stroke-width:0.52916664"
         id="path1361" />
    </g>
    <path
       style="fill:none;stroke:#000000;stroke-width:0.52916664px;stroke-linecap:butt;stroke-linejoin:miter;stroke-opacity:1"
       d="m 16.54128,29.855435 v 4.7625"
       id="path821"
       inkscape:connector-curvature="0" />
    <path
       style="fill:none;stroke:#000000;stroke-width:0.52999997;stroke-linecap:butt;stroke-linejoin:miter;stroke-miterlimit:4;stroke-dasharray:none;stroke-opacity:1;marker-end:url(#Arrow1Send)"
       d="M 3.84128,31.972101 H 16.012112"
       id="path823"
       inkscape:connector-curvature="0" />
    <path
       style="fill:none;stroke:#000000;stroke-width:0.52916664px;stroke-linecap:butt;stroke-linejoin:miter;stroke-opacity:1"
       d="m 40.882946,29.855435 v 4.7625"
       id="path825"
       inkscape:connector-curvature="0" />
    <path
       style="fill:none;stroke:#000000;stroke-width:0.52916664px;stroke-linecap:butt;stroke-linejoin:miter;stroke-opacity:1;marker-start:url(#Arrow2Sstart);marker-end:url(#Arrow2Send)"
       d="M 17.070446,31.972101 H 40.35378"
       id="path827"
       inkscape:connector-curvature="0" />
    <g
       aria-label="LeadingZeroCount:12"
       style="font-style:normal;font-variant:normal;font-weight:normal;font-stretch:normal;font-size:2.82222247px;line-height:1.25;font-family:Tahoma;-inkscape-font-specification:Tahoma;letter-spacing:0px;word-spacing:0px;fill:#000000;fill-opacity:1;stroke:none;stroke-width:1.05833328"
       id="text1215">
      <path
         d="M 3.1250437,35.008263 H 2.5304201 v -1.02595 h 0.1364258 v 0.904682 h 0.4581978 z"
         style="font-size:1.41111124px;stroke-width:1.05833328"
         id="path1280" />
      <path
         d="m 3.5570587,35.026177 q -0.1839681,0 -0.2859429,-0.103353 -0.1012859,-0.104042 -0.1012859,-0.2949 0,-0.188102 0.09853,-0.299034 0.09853,-0.111621 0.2576931,-0.111621 0.071658,0 0.1267796,0.02067 0.055122,0.02067 0.096463,0.06477 0.041341,0.0441 0.06339,0.108176 0.022049,0.06339 0.022049,0.155718 v 0.07028 H 3.3014326 q 0,0.134359 0.067524,0.205328 0.067524,0.07097 0.1867242,0.07097 0.042719,0 0.083371,-0.0096 0.041341,-0.0096 0.074414,-0.02481 0.03514,-0.01585 0.059256,-0.03032 0.024116,-0.01516 0.039963,-0.02825 h 0.00758 v 0.141249 q -0.022738,0.009 -0.056499,0.02274 -0.033762,0.01309 -0.060634,0.02067 -0.037896,0.01033 -0.068902,0.01585 -0.030317,0.0055 -0.07717,0.0055 z m 0.1515842,-0.488514 q -0.00138,-0.05237 -0.012402,-0.09026 -0.011024,-0.0379 -0.031695,-0.06408 -0.022738,-0.02894 -0.058567,-0.0441 -0.03514,-0.01516 -0.087505,-0.01516 -0.051676,0 -0.088194,0.01585 -0.035829,0.01516 -0.065457,0.04479 -0.028939,0.03032 -0.044097,0.06752 -0.015158,0.03652 -0.019293,0.08544 z"
         style="font-size:1.41111124px;stroke-width:1.05833328"
         id="path1282" />
      <path
         d="m 4.396973,34.818782 v -0.213596 q -0.046164,0.0041 -0.1171333,0.01171 -0.07028,0.0069 -0.1136881,0.01998 -0.051677,0.01585 -0.085438,0.04892 -0.033762,0.03238 -0.033762,0.09095 0,0.06615 0.037207,0.09991 0.037207,0.03376 0.108865,0.03376 0.061323,0 0.1109321,-0.02618 0.049609,-0.02687 0.093018,-0.06546 z m 0,0.107487 q -0.015847,0.01171 -0.042719,0.03307 -0.026183,0.02067 -0.050987,0.03307 -0.034451,0.01792 -0.066835,0.02756 -0.031695,0.0096 -0.089573,0.0096 -0.047542,0 -0.090262,-0.01791 -0.042719,-0.01792 -0.075103,-0.0503 -0.031006,-0.0317 -0.049609,-0.07786 -0.018604,-0.04685 -0.018604,-0.09853 0,-0.07993 0.033762,-0.135736 0.033762,-0.0565 0.106798,-0.08957 0.064768,-0.02963 0.1529622,-0.04065 0.088195,-0.01171 0.1901693,-0.01722 v -0.02481 q 0,-0.04548 -0.01378,-0.07304 -0.01378,-0.02825 -0.038585,-0.04341 -0.024805,-0.01585 -0.060634,-0.02067 -0.035829,-0.0055 -0.073725,-0.0055 -0.044786,0 -0.1054199,0.01378 -0.060634,0.01309 -0.1212674,0.03858 h -0.00758 v -0.131602 q 0.035829,-0.01034 0.1026638,-0.02274 0.066835,-0.0124 0.1322917,-0.0124 0.079237,0 0.1336697,0.0124 0.054433,0.0124 0.097841,0.04479 0.04203,0.03169 0.062701,0.08199 0.020671,0.0503 0.020671,0.122645 v 0.526411 H 4.396973 Z"
         style="font-size:1.41111124px;stroke-width:1.05833328"
         id="path1284" />
      <path
         d="M 5.3009663,35.008263 H 5.1714307 v -0.07855 q -0.030317,0.02549 -0.052366,0.04203 -0.022049,0.01654 -0.051676,0.03032 -0.027561,0.01309 -0.057189,0.01998 -0.029628,0.0076 -0.068902,0.0076 -0.062701,0 -0.1164443,-0.02618 -0.053055,-0.02618 -0.090262,-0.07648 -0.037896,-0.05099 -0.058567,-0.125401 -0.020671,-0.0751 -0.020671,-0.172255 0,-0.101286 0.026183,-0.175011 0.026183,-0.07441 0.072347,-0.129535 0.04203,-0.0503 0.1012859,-0.07855 0.059945,-0.02894 0.1254015,-0.02894 0.057878,0 0.1005967,0.01309 0.042719,0.0124 0.090262,0.03927 V 33.936149 H 5.3009663 Z M 5.1714307,34.820849 v -0.443728 q -0.048231,-0.02343 -0.086817,-0.03238 -0.037896,-0.009 -0.082682,-0.009 -0.099908,0 -0.1564073,0.0751 -0.0565,0.07441 -0.0565,0.215663 0,0.135737 0.043408,0.208084 0.043408,0.07166 0.1391819,0.07166 0.050987,0 0.1026639,-0.02274 0.051676,-0.02343 0.097152,-0.0627 z"
         style="font-size:1.41111124px;stroke-width:1.05833328"
         id="path1286" />
      <path
         d="M 5.6206712,35.008263 H 5.4911356 v -0.769635 h 0.1295356 z m 0.00896,-0.898481 H 5.4821783 v -0.134359 h 0.1474501 z"
         style="font-size:1.41111124px;stroke-width:1.05833328"
         id="path1288" />
      <path
         d="M 6.4157992,35.008263 H 6.2862636 v -0.438217 q 0,-0.05305 -0.00551,-0.09853 -0.00482,-0.04617 -0.019292,-0.07372 -0.015847,-0.02894 -0.044097,-0.04272 -0.02825,-0.01447 -0.07717,-0.01447 -0.048231,0 -0.099908,0.02618 -0.050987,0.02549 -0.099908,0.06684 v 0.574642 H 5.8108404 V 34.238628 H 5.940376 v 0.08544 q 0.057878,-0.05168 0.1143771,-0.07924 0.0565,-0.02756 0.1192004,-0.02756 0.1136881,0 0.1777669,0.0751 0.064079,0.07441 0.064079,0.216352 z"
         style="font-size:1.41111124px;stroke-width:1.05833328"
         id="path1290" />
      <path
         d="m 7.0620991,34.79949 v -0.422369 q -0.048231,-0.02343 -0.089573,-0.03307 -0.040652,-0.01033 -0.081304,-0.01033 -0.09853,0 -0.1550293,0.07235 -0.0565,0.07235 -0.0565,0.207395 0,0.128157 0.042719,0.194992 0.043408,0.06683 0.1398709,0.06683 0.050298,0 0.1033529,-0.01998 0.053743,-0.01998 0.096463,-0.05581 z m -0.4354602,0.332107 q 0.013091,0.0055 0.038585,0.01447 0.025494,0.0096 0.057878,0.01792 0.035829,0.009 0.066146,0.01447 0.030317,0.0055 0.066146,0.0055 0.059945,0 0.1012858,-0.01585 0.04203,-0.01585 0.065457,-0.0441 0.022049,-0.02825 0.031006,-0.06546 0.00896,-0.03721 0.00896,-0.08475 v -0.06752 q -0.052366,0.04547 -0.1026639,0.06752 -0.050298,0.02136 -0.1260905,0.02136 -0.1316027,0 -0.2094618,-0.09784 -0.077859,-0.09784 -0.077859,-0.28112 0,-0.09577 0.026872,-0.169499 0.026872,-0.07441 0.072347,-0.12609 0.043408,-0.04961 0.1026638,-0.07648 0.059256,-0.02687 0.1226454,-0.02687 0.059945,0 0.1033529,0.01447 0.044097,0.01378 0.088195,0.03996 l 0.00758,-0.03307 h 0.1219564 v 0.682129 q 0,0.195682 -0.085438,0.287321 -0.085438,0.09164 -0.2611383,0.09164 -0.0565,0 -0.1157552,-0.009 -0.058567,-0.009 -0.109554,-0.02412 v -0.135048 z"
         style="font-size:1.41111124px;stroke-width:1.05833328"
         id="path1292" />
      <path
         d="M 8.0432623,35.008263 H 7.3266824 v -0.12678 L 7.8758307,34.10358 H 7.3514871 V 33.982313 H 8.029482 v 0.123335 l -0.5553495,0.781347 h 0.5691298 z"
         style="font-size:1.41111124px;stroke-width:1.05833328"
         id="path1294" />
      <path
         d="m 8.5014602,35.026177 q -0.1839681,0 -0.2859429,-0.103353 -0.1012859,-0.104042 -0.1012859,-0.2949 0,-0.188102 0.09853,-0.299034 0.09853,-0.111621 0.2576931,-0.111621 0.071658,0 0.1267796,0.02067 0.055121,0.02067 0.096463,0.06477 0.041341,0.0441 0.06339,0.108176 0.022049,0.06339 0.022049,0.155718 v 0.07028 H 8.2458341 q 0,0.134359 0.067524,0.205328 0.067524,0.07097 0.1867242,0.07097 0.042719,0 0.083371,-0.0096 0.041341,-0.0096 0.074414,-0.02481 0.03514,-0.01585 0.059256,-0.03032 0.024116,-0.01516 0.039963,-0.02825 h 0.00758 v 0.141249 q -0.022738,0.009 -0.056499,0.02274 -0.033762,0.01309 -0.060634,0.02067 -0.037896,0.01033 -0.068902,0.01585 -0.030317,0.0055 -0.07717,0.0055 z m 0.1515842,-0.488514 q -0.00138,-0.05237 -0.012402,-0.09026 -0.011024,-0.0379 -0.031695,-0.06408 -0.022738,-0.02894 -0.058567,-0.0441 -0.03514,-0.01516 -0.087506,-0.01516 -0.051676,0 -0.088194,0.01585 -0.035829,0.01516 -0.065457,0.04479 -0.028939,0.03032 -0.044097,0.06752 -0.015158,0.03652 -0.019293,0.08544 z"
         style="font-size:1.41111124px;stroke-width:1.05833328"
         id="path1296" />
      <path
         d="m 9.3193259,34.37781 h -0.00689 q -0.014469,-0.0041 -0.031006,-0.0048 -0.015847,-0.0014 -0.038585,-0.0014 -0.052366,0 -0.1040419,0.02274 -0.051676,0.02274 -0.097841,0.06752 v 0.546393 H 8.9114265 v -0.769635 h 0.1295356 v 0.114377 q 0.070969,-0.0627 0.1233345,-0.08819 0.053054,-0.02618 0.1026638,-0.02618 0.019982,0 0.029628,0.0014 0.010335,6.89e-4 0.022738,0.0028 z"
         style="font-size:1.41111124px;stroke-width:1.05833328"
         id="path1298" />
      <path
         d="m 10.054509,34.62379 q 0,0.194303 -0.093706,0.300412 -0.093707,0.10542 -0.2494249,0.10542 -0.1605415,0 -0.2528701,-0.108865 -0.09164,-0.109554 -0.09164,-0.296967 0,-0.192925 0.094396,-0.299723 0.095085,-0.106798 0.250114,-0.106798 0.1557183,0 0.2494249,0.106798 0.093706,0.106109 0.093706,0.299723 z m -0.1336692,0 q 0,-0.149517 -0.054432,-0.221864 -0.054433,-0.07304 -0.1550293,-0.07304 -0.1012859,0 -0.1564074,0.07304 -0.054433,0.07235 -0.054433,0.221864 0,0.144694 0.054433,0.219797 0.055121,0.07441 0.1564074,0.07441 0.099908,0 0.1543402,-0.07304 0.055122,-0.07373 0.055122,-0.221175 z"
         style="font-size:1.41111124px;stroke-width:1.05833328"
         id="path1300" />
      <path
         d="m 10.598834,35.026866 q -0.100596,0 -0.185346,-0.03376 -0.08406,-0.03376 -0.145383,-0.100597 -0.06132,-0.06683 -0.09508,-0.166742 -0.03376,-0.09991 -0.03376,-0.229444 0,-0.128846 0.03238,-0.22462 0.03307,-0.09577 0.09577,-0.166742 0.06132,-0.0689 0.145383,-0.104731 0.08406,-0.03652 0.188102,-0.03652 0.05168,0 0.09646,0.0076 0.04547,0.0076 0.08406,0.01929 0.03307,0.01034 0.06752,0.02618 0.03514,0.01516 0.0689,0.03376 v 0.164676 h -0.01102 q -0.01792,-0.01654 -0.04616,-0.03996 -0.02825,-0.02343 -0.0689,-0.04616 -0.03927,-0.02136 -0.08544,-0.03514 -0.04616,-0.01378 -0.106798,-0.01378 -0.06546,0 -0.124023,0.02687 -0.05857,0.02687 -0.102664,0.07924 -0.04341,0.05237 -0.06752,0.131602 -0.02412,0.07924 -0.02412,0.178456 0,0.10542 0.02549,0.181901 0.02549,0.07579 0.06959,0.128158 0.04272,0.05099 0.100597,0.07717 0.05788,0.02549 0.122645,0.02549 0.05926,0 0.109554,-0.01447 0.0503,-0.01447 0.08957,-0.03652 0.0379,-0.02136 0.06546,-0.04341 0.02756,-0.02274 0.04341,-0.03858 h 0.01033 v 0.162609 q -0.03376,0.01585 -0.06408,0.03032 -0.02963,0.01447 -0.07235,0.02825 -0.04479,0.01447 -0.08337,0.02205 -0.0379,0.0076 -0.09922,0.0076 z"
         style="font-size:1.41111124px;stroke-width:1.05833328"
         id="path1302" />
      <path
         d="m 11.66957,34.62379 q 0,0.194303 -0.09371,0.300412 -0.09371,0.10542 -0.249425,0.10542 -0.160541,0 -0.25287,-0.108865 -0.09164,-0.109554 -0.09164,-0.296967 0,-0.192925 0.0944,-0.299723 0.09509,-0.106798 0.250114,-0.106798 0.155719,0 0.249425,0.106798 0.09371,0.106109 0.09371,0.299723 z m -0.13367,0 q 0,-0.149517 -0.05443,-0.221864 -0.05443,-0.07304 -0.15503,-0.07304 -0.101286,0 -0.156407,0.07304 -0.05443,0.07235 -0.05443,0.221864 0,0.144694 0.05443,0.219797 0.05512,0.07441 0.156407,0.07441 0.09991,0 0.154341,-0.07304 0.05512,-0.07373 0.05512,-0.221175 z"
         style="font-size:1.41111124px;stroke-width:1.05833328"
         id="path1304" />
      <path
         d="m 12.401997,35.008263 h -0.129535 v -0.08544 q -0.05995,0.05237 -0.113688,0.07993 -0.05374,0.02687 -0.11989,0.02687 -0.0503,0 -0.09508,-0.01654 -0.0441,-0.01654 -0.07717,-0.05237 -0.03307,-0.03583 -0.05168,-0.09026 -0.01791,-0.05443 -0.01791,-0.132292 v -0.499539 h 0.129535 v 0.438216 q 0,0.06132 0.0041,0.101975 0.0048,0.03996 0.02067,0.07028 0.01585,0.02963 0.04272,0.04341 0.02756,0.01378 0.07855,0.01378 0.04754,0 0.101286,-0.02687 0.05374,-0.02687 0.09853,-0.06615 v -0.574642 h 0.129535 z"
         style="font-size:1.41111124px;stroke-width:1.05833328"
         id="path1306" />
      <path
         d="m 13.195748,35.008263 h -0.129535 v -0.438217 q 0,-0.05305 -0.0055,-0.09853 -0.0048,-0.04617 -0.01929,-0.07372 -0.01585,-0.02894 -0.0441,-0.04272 -0.02825,-0.01447 -0.07717,-0.01447 -0.04823,0 -0.09991,0.02618 -0.05099,0.02549 -0.09991,0.06684 v 0.574642 h -0.129536 v -0.769635 h 0.129536 v 0.08544 q 0.05788,-0.05168 0.114377,-0.07924 0.0565,-0.02756 0.1192,-0.02756 0.113689,0 0.177767,0.0751 0.06408,0.07441 0.06408,0.216352 z"
         style="font-size:1.41111124px;stroke-width:1.05833328"
         id="path1308" />
      <path
         d="m 13.611915,35.023421 q -0.106109,0 -0.165364,-0.05994 -0.05926,-0.06063 -0.05926,-0.190858 v -0.426503 h -0.08751 v -0.107487 h 0.08751 v -0.221175 h 0.129536 v 0.221175 h 0.2384 v 0.107487 h -0.2384 v 0.365869 q 0,0.05857 0.0021,0.09026 0.0021,0.0317 0.01585,0.05926 0.01171,0.02412 0.0379,0.03652 0.02618,0.01171 0.07097,0.01171 0.03169,0 0.06132,-0.009 0.02963,-0.0096 0.04272,-0.01585 h 0.0076 v 0.116444 q -0.03652,0.01034 -0.07441,0.01585 -0.03721,0.0062 -0.0689,0.0062 z"
         style="font-size:1.41111124px;stroke-width:1.05833328"
         id="path1310" />
      <path
         d="m 14.088716,34.434999 h -0.164675 v -0.196371 h 0.164675 z m 0,0.573264 h -0.164675 v -0.196371 h 0.164675 z"
         style="font-size:1.41111124px;stroke-width:1.05833328"
         id="path1312" />
      <path
         d="m 14.911405,35.008263 h -0.500228 v -0.104731 h 0.186035 v -0.687641 h -0.186035 v -0.09371 q 0.10542,0 0.155029,-0.02963 0.0503,-0.03032 0.0565,-0.113688 h 0.106798 v 0.924664 h 0.181901 z"
         style="font-size:1.41111124px;stroke-width:1.05833328"
         id="path1314" />
      <path
         d="m 15.735472,35.008263 h -0.633208 v -0.144005 q 0.06821,-0.06477 0.128846,-0.124024 0.06063,-0.05926 0.118512,-0.123334 0.117133,-0.128847 0.159852,-0.206017 0.04272,-0.07786 0.04272,-0.160541 0,-0.04272 -0.01378,-0.0751 -0.01309,-0.03238 -0.03652,-0.05374 -0.02412,-0.02067 -0.05581,-0.03101 -0.0317,-0.01033 -0.06959,-0.01033 -0.03652,0 -0.07441,0.0096 -0.03721,0.009 -0.07166,0.02274 -0.02894,0.01171 -0.05581,0.02825 -0.02687,0.01654 -0.04341,0.02825 h -0.0076 v -0.146072 q 0.04272,-0.02136 0.118512,-0.04134 0.07648,-0.02067 0.144694,-0.02067 0.143316,0 0.22462,0.07648 0.0813,0.07579 0.0813,0.206016 0,0.05994 -0.01447,0.110932 -0.01378,0.05099 -0.03858,0.0944 -0.02549,0.04479 -0.06132,0.08888 -0.03583,0.0441 -0.07579,0.08682 -0.06477,0.07028 -0.144694,0.146072 -0.07924,0.07579 -0.12678,0.119889 h 0.504362 z"
         style="font-size:1.41111124px;stroke-width:1.05833328"
         id="path1316" />
    </g>
    <g
       aria-label="LeadingSetBits32 : 0x70123456"
       style="font-style:normal;font-variant:normal;font-weight:normal;font-stretch:normal;font-size:1.41111147px;line-height:1.25;font-family:Tahoma;-inkscape-font-specification:Tahoma;letter-spacing:0px;word-spacing:0px;fill:#000000;fill-opacity:1;stroke:none;stroke-width:1.05833328"
       id="text1219">
      <path
         d="M 19.809294,35.005936 H 19.21467 v -1.02595 h 0.136426 v 0.904682 h 0.458198 z"
         style="stroke-width:1.05833328"
         id="path1225" />
      <path
         d="m 20.241309,35.02385 q -0.183968,0 -0.285943,-0.103353 -0.101286,-0.104042 -0.101286,-0.2949 0,-0.188102 0.09853,-0.299034 0.09853,-0.111621 0.257693,-0.111621 0.07166,0 0.126779,0.02067 0.05512,0.02067 0.09646,0.06477 0.04134,0.0441 0.06339,0.108176 0.02205,0.06339 0.02205,0.155718 v 0.07028 h -0.533301 q 0,0.134359 0.06752,0.205328 0.06752,0.07097 0.186724,0.07097 0.04272,0 0.08337,-0.0096 0.04134,-0.0096 0.07441,-0.02481 0.03514,-0.01585 0.05926,-0.03032 0.02411,-0.01516 0.03996,-0.02825 h 0.0076 v 0.141249 q -0.02274,0.009 -0.0565,0.02274 -0.03376,0.01309 -0.06063,0.02067 -0.0379,0.01033 -0.0689,0.01585 -0.03032,0.0055 -0.07717,0.0055 z m 0.151584,-0.488514 q -0.0014,-0.05237 -0.0124,-0.09026 -0.01103,-0.0379 -0.03169,-0.06408 -0.02274,-0.02894 -0.05857,-0.0441 -0.03514,-0.01516 -0.08751,-0.01516 -0.05168,0 -0.08819,0.01585 -0.03583,0.01516 -0.06546,0.04479 -0.02894,0.03032 -0.0441,0.06752 -0.01516,0.03652 -0.01929,0.08544 z"
         style="stroke-width:1.05833328"
         id="path1227" />
      <path
         d="m 21.081223,34.816455 v -0.213596 q -0.04616,0.0041 -0.117133,0.01171 -0.07028,0.0069 -0.113688,0.01998 -0.05168,0.01585 -0.08544,0.04892 -0.03376,0.03238 -0.03376,0.09095 0,0.06615 0.03721,0.09991 0.03721,0.03376 0.108865,0.03376 0.06132,0 0.110933,-0.02618 0.04961,-0.02687 0.09302,-0.06546 z m 0,0.107487 q -0.01585,0.01171 -0.04272,0.03307 -0.02618,0.02067 -0.05099,0.03307 -0.03445,0.01792 -0.06684,0.02756 -0.03169,0.0096 -0.08957,0.0096 -0.04754,0 -0.09026,-0.01791 -0.04272,-0.01791 -0.0751,-0.0503 -0.03101,-0.03169 -0.04961,-0.07786 -0.0186,-0.04685 -0.0186,-0.09853 0,-0.07993 0.03376,-0.135736 0.03376,-0.0565 0.106798,-0.08957 0.06477,-0.02963 0.152962,-0.04065 0.08819,-0.01171 0.190169,-0.01722 v -0.02481 q 0,-0.04548 -0.01378,-0.07304 -0.01378,-0.02825 -0.03859,-0.04341 -0.02481,-0.01585 -0.06063,-0.02067 -0.03583,-0.0055 -0.07372,-0.0055 -0.04479,0 -0.10542,0.01378 -0.06063,0.01309 -0.121267,0.03858 h -0.0076 v -0.131602 q 0.03583,-0.01034 0.102664,-0.02274 0.06683,-0.0124 0.132292,-0.0124 0.07924,0 0.13367,0.0124 0.05443,0.0124 0.09784,0.04479 0.04203,0.03169 0.0627,0.08199 0.02067,0.0503 0.02067,0.122645 v 0.526411 h -0.128847 z"
         style="stroke-width:1.05833328"
         id="path1229" />
      <path
         d="m 21.985216,35.005936 h -0.129535 v -0.07855 q -0.03032,0.02549 -0.05237,0.04203 -0.02205,0.01654 -0.05168,0.03032 -0.02756,0.01309 -0.05719,0.01998 -0.02963,0.0076 -0.0689,0.0076 -0.0627,0 -0.116444,-0.02618 -0.05305,-0.02618 -0.09026,-0.07648 -0.0379,-0.05099 -0.05857,-0.125401 -0.02067,-0.0751 -0.02067,-0.172255 0,-0.101286 0.02618,-0.175011 0.02618,-0.07441 0.07235,-0.129535 0.04203,-0.0503 0.101286,-0.07855 0.05994,-0.02894 0.125402,-0.02894 0.05788,0 0.100596,0.01309 0.04272,0.0124 0.09026,0.03927 v -0.333485 h 0.129535 z m -0.129535,-0.187414 v -0.443728 q -0.04823,-0.02343 -0.08682,-0.03238 -0.0379,-0.009 -0.08268,-0.009 -0.09991,0 -0.156407,0.0751 -0.0565,0.07441 -0.0565,0.215663 0,0.135737 0.04341,0.208084 0.04341,0.07166 0.139182,0.07166 0.05099,0 0.102664,-0.02274 0.05168,-0.02343 0.09715,-0.0627 z"
         style="stroke-width:1.05833328"
         id="path1231" />
      <path
         d="m 22.304922,35.005936 h -0.129536 v -0.769635 h 0.129536 z m 0.009,-0.898481 h -0.14745 v -0.134359 h 0.14745 z"
         style="stroke-width:1.05833328"
         id="path1233" />
      <path
         d="m 23.10005,35.005936 h -0.129536 v -0.438217 q 0,-0.05305 -0.0055,-0.09853 -0.0048,-0.04616 -0.01929,-0.07372 -0.01585,-0.02894 -0.0441,-0.04272 -0.02825,-0.01447 -0.07717,-0.01447 -0.04823,0 -0.09991,0.02618 -0.05099,0.02549 -0.09991,0.06684 v 0.574642 h -0.129535 v -0.769635 h 0.129535 v 0.08544 q 0.05788,-0.05168 0.114378,-0.07924 0.0565,-0.02756 0.1192,-0.02756 0.113688,0 0.177767,0.0751 0.06408,0.07441 0.06408,0.216352 z"
         style="stroke-width:1.05833328"
         id="path1235" />
      <path
         d="m 23.74635,34.797163 v -0.422369 q -0.04823,-0.02343 -0.08957,-0.03307 -0.04065,-0.01033 -0.0813,-0.01033 -0.09853,0 -0.155029,0.07235 -0.0565,0.07235 -0.0565,0.207395 0,0.128157 0.04272,0.194992 0.04341,0.06683 0.139871,0.06683 0.0503,0 0.103353,-0.01998 0.05374,-0.01998 0.09646,-0.05581 z m -0.43546,0.332107 q 0.01309,0.0055 0.03859,0.01447 0.02549,0.0096 0.05788,0.01791 0.03583,0.009 0.06615,0.01447 0.03032,0.0055 0.06615,0.0055 0.05995,0 0.101286,-0.01585 0.04203,-0.01585 0.06546,-0.0441 0.02205,-0.02825 0.03101,-0.06546 0.009,-0.03721 0.009,-0.08475 v -0.06752 q -0.05236,0.04547 -0.102664,0.06752 -0.0503,0.02136 -0.12609,0.02136 -0.131603,0 -0.209462,-0.09784 -0.07786,-0.09784 -0.07786,-0.28112 0,-0.09577 0.02687,-0.169499 0.02687,-0.07441 0.07235,-0.126091 0.04341,-0.04961 0.102664,-0.07648 0.05926,-0.02687 0.122646,-0.02687 0.05994,0 0.103353,0.01447 0.0441,0.01378 0.08819,0.03996 l 0.0076,-0.03307 h 0.121957 v 0.682129 q 0,0.195682 -0.08544,0.287321 -0.08544,0.09164 -0.261138,0.09164 -0.0565,0 -0.115755,-0.009 -0.05857,-0.009 -0.109554,-0.02412 V 35.12927 Z"
         style="stroke-width:1.05833328"
         id="path1237" />
      <path
         d="m 24.359577,35.024539 q -0.111621,0 -0.190169,-0.02274 -0.07786,-0.02343 -0.146761,-0.05719 v -0.170877 h 0.0096 q 0.06752,0.06339 0.152962,0.09853 0.08544,0.03445 0.164676,0.03445 0.112999,0 0.170877,-0.04685 0.05788,-0.04754 0.05788,-0.124713 0,-0.06132 -0.03032,-0.09991 -0.03032,-0.03859 -0.09646,-0.05719 -0.04754,-0.01378 -0.08682,-0.02274 -0.03927,-0.009 -0.09853,-0.02412 -0.05305,-0.01378 -0.09508,-0.03514 -0.04203,-0.02136 -0.07441,-0.05581 -0.03169,-0.03376 -0.04961,-0.07924 -0.01722,-0.04616 -0.01722,-0.106109 0,-0.124713 0.09715,-0.208773 0.09715,-0.08475 0.248046,-0.08475 0.08613,0 0.162609,0.01723 0.07717,0.01722 0.142627,0.04892 v 0.163298 h -0.01034 q -0.04892,-0.04479 -0.125402,-0.07786 -0.07648,-0.03376 -0.160541,-0.03376 -0.09508,0 -0.153652,0.04479 -0.05857,0.0441 -0.05857,0.116444 0,0.06546 0.03445,0.104042 0.03445,0.03859 0.09991,0.0565 0.04341,0.01171 0.106108,0.02687 0.0627,0.01447 0.104042,0.02687 0.106109,0.03238 0.15503,0.09784 0.04892,0.06546 0.04892,0.16123 0,0.05994 -0.02481,0.118512 -0.02411,0.05857 -0.06821,0.09922 -0.04961,0.04479 -0.112311,0.0689 -0.06201,0.02411 -0.155718,0.02411 z"
         style="stroke-width:1.05833328"
         id="path1239" />
      <path
         d="m 25.182955,35.02385 q -0.183968,0 -0.285943,-0.103353 -0.101286,-0.104042 -0.101286,-0.2949 0,-0.188102 0.09853,-0.299034 0.09853,-0.111621 0.257693,-0.111621 0.07166,0 0.12678,0.02067 0.05512,0.02067 0.09646,0.06477 0.04134,0.0441 0.06339,0.108176 0.02205,0.06339 0.02205,0.155718 v 0.07028 h -0.533301 q 0,0.134359 0.06752,0.205328 0.06752,0.07097 0.186724,0.07097 0.04272,0 0.08337,-0.0096 0.04134,-0.0096 0.07441,-0.02481 0.03514,-0.01585 0.05926,-0.03032 0.02412,-0.01516 0.03996,-0.02825 h 0.0076 v 0.141249 q -0.02274,0.009 -0.0565,0.02274 -0.03376,0.01309 -0.06063,0.02067 -0.0379,0.01033 -0.0689,0.01585 -0.03032,0.0055 -0.07717,0.0055 z m 0.151584,-0.488514 q -0.0014,-0.05237 -0.0124,-0.09026 -0.01102,-0.0379 -0.0317,-0.06408 -0.02274,-0.02894 -0.05857,-0.0441 -0.03514,-0.01516 -0.08751,-0.01516 -0.05168,0 -0.08819,0.01585 -0.03583,0.01516 -0.06546,0.04479 -0.02894,0.03032 -0.0441,0.06752 -0.01516,0.03652 -0.01929,0.08544 z"
         style="stroke-width:1.05833328"
         id="path1241" />
      <path
         d="m 25.82581,35.021094 q -0.106109,0 -0.165365,-0.05994 -0.05926,-0.06063 -0.05926,-0.190858 v -0.426503 h -0.08751 v -0.107487 h 0.08751 v -0.221175 h 0.129535 v 0.221175 h 0.238401 v 0.107487 h -0.238401 v 0.365869 q 0,0.05857 0.0021,0.09026 0.0021,0.03169 0.01585,0.05926 0.01171,0.02412 0.0379,0.03652 0.02618,0.01171 0.07097,0.01171 0.03169,0 0.06132,-0.009 0.02963,-0.0096 0.04272,-0.01585 h 0.0076 v 0.116444 q -0.03652,0.01034 -0.07441,0.01585 -0.03721,0.0062 -0.0689,0.0062 z"
         style="stroke-width:1.05833328"
         id="path1243" />
      <path
         d="m 26.770455,34.691054 q 0,0.07648 -0.02894,0.135048 -0.02894,0.05857 -0.07786,0.09646 -0.05788,0.04548 -0.124023,0.06477 -0.06615,0.0186 -0.170877,0.0186 h -0.294211 v -1.02595 h 0.272162 q 0.109554,0 0.163987,0.0076 0.05512,0.0069 0.10542,0.03376 0.05512,0.02963 0.08061,0.07786 0.02549,0.04754 0.02549,0.11231 0,0.07235 -0.03859,0.129536 -0.0379,0.05719 -0.10542,0.08957 v 0.0055 q 0.09164,0.0248 0.141938,0.09095 0.0503,0.06546 0.0503,0.163987 z m -0.190169,-0.460265 q 0,-0.03721 -0.0124,-0.06408 -0.0124,-0.02756 -0.03996,-0.04341 -0.03307,-0.0186 -0.07373,-0.02274 -0.04065,-0.0041 -0.11231,-0.0041 h -0.130913 v 0.300413 h 0.155029 q 0.06408,0 0.0944,-0.0062 0.03032,-0.0069 0.0627,-0.02756 0.03101,-0.01998 0.0441,-0.05237 0.01309,-0.03238 0.01309,-0.07993 z m 0.04823,0.465777 q 0,-0.05788 -0.01654,-0.09508 -0.01654,-0.0379 -0.06684,-0.06408 -0.03238,-0.01723 -0.07097,-0.02205 -0.0379,-0.0048 -0.108176,-0.0048 h -0.155029 v 0.37896 h 0.110932 q 0.08957,0 0.141249,-0.0083 0.05168,-0.0083 0.09095,-0.03514 0.03858,-0.02687 0.0565,-0.06063 0.01791,-0.03445 0.01791,-0.08888 z"
         style="stroke-width:1.05833328"
         id="path1245" />
      <path
         d="m 27.028838,35.005936 h -0.129536 v -0.769635 h 0.129536 z m 0.009,-0.898481 h -0.14745 v -0.134359 h 0.14745 z"
         style="stroke-width:1.05833328"
         id="path1247" />
      <path
         d="m 27.451896,35.021094 q -0.106109,0 -0.165365,-0.05994 -0.05926,-0.06063 -0.05926,-0.190858 v -0.426503 h -0.08751 v -0.107487 h 0.08751 v -0.221175 h 0.129536 v 0.221175 h 0.238401 v 0.107487 h -0.238401 v 0.365869 q 0,0.05857 0.0021,0.09026 0.0021,0.03169 0.01585,0.05926 0.01171,0.02412 0.0379,0.03652 0.02618,0.01171 0.07097,0.01171 0.03169,0 0.06132,-0.009 0.02963,-0.0096 0.04272,-0.01585 h 0.0076 v 0.116444 q -0.03652,0.01034 -0.07441,0.01585 -0.03721,0.0062 -0.0689,0.0062 z"
         style="stroke-width:1.05833328"
         id="path1249" />
      <path
         d="m 27.89838,35.024539 q -0.07717,0 -0.144695,-0.02067 -0.06683,-0.02067 -0.110932,-0.0441 v -0.145383 h 0.0069 q 0.01654,0.01309 0.03859,0.02894 0.02274,0.01585 0.05994,0.03307 0.03307,0.01516 0.07235,0.02687 0.03996,0.01171 0.08268,0.01171 0.03101,0 0.06615,-0.0069 0.03514,-0.0076 0.05236,-0.0186 0.02412,-0.01585 0.03445,-0.03376 0.01102,-0.01791 0.01102,-0.05374 0,-0.04616 -0.02549,-0.06959 -0.02481,-0.02343 -0.08888,-0.03927 -0.02481,-0.0062 -0.06477,-0.01447 -0.03996,-0.0083 -0.07372,-0.01792 -0.08819,-0.02549 -0.128157,-0.07855 -0.03996,-0.05374 -0.03996,-0.129536 0,-0.104042 0.07855,-0.169499 0.07855,-0.06546 0.208773,-0.06546 0.06408,0 0.128846,0.01585 0.06477,0.01585 0.108865,0.03996 v 0.138493 h -0.0069 q -0.04961,-0.03927 -0.110932,-0.06201 -0.06063,-0.02274 -0.122646,-0.02274 -0.06408,0 -0.108176,0.02687 -0.0441,0.02687 -0.0441,0.08131 0,0.04823 0.02618,0.07235 0.02618,0.02343 0.08406,0.03858 0.02894,0.0076 0.06408,0.01516 0.03583,0.0069 0.0751,0.01654 0.08544,0.02136 0.128158,0.07097 0.04341,0.04961 0.04341,0.135047 0,0.04961 -0.01998,0.0944 -0.01929,0.0441 -0.05719,0.07579 -0.04134,0.03445 -0.09371,0.05237 -0.05168,0.01791 -0.130224,0.01791 z"
         style="stroke-width:1.05833328"
         id="path1251" />
      <path
         d="m 28.456588,34.684887 q -0.02418,0 -0.04837,0.0058 -0.02418,0.0058 -0.04747,0.01523 -0.0215,0.009 -0.03762,0.01881 -0.01568,0.0099 -0.02821,0.01836 h -0.0054 v -0.0945 q 0.02911,-0.01567 0.07882,-0.02821 0.05016,-0.01299 0.09539,-0.01299 0.04523,0 0.07882,0.0094 0.03404,0.009 0.06136,0.02821 0.02956,0.0215 0.04434,0.05195 0.01523,0.03046 0.01523,0.07121 0,0.05509 -0.03628,0.09674 -0.03628,0.04165 -0.08688,0.05285 v 0.0063 q 0.02105,0.004 0.04479,0.01388 0.02418,0.0099 0.04479,0.02911 0.0206,0.01926 0.03359,0.04971 0.01299,0.03001 0.01299,0.07345 0,0.04523 -0.01568,0.0833 -0.01523,0.03762 -0.04344,0.06673 -0.02911,0.03045 -0.07031,0.04613 -0.0412,0.01568 -0.0936,0.01568 -0.05016,0 -0.09943,-0.01209 -0.04926,-0.01209 -0.08285,-0.02911 v -0.0945 h 0.0063 q 0.02822,0.0206 0.07569,0.03941 0.04747,0.01881 0.09495,0.01881 0.02732,0 0.05464,-0.0085 0.02777,-0.009 0.04613,-0.02866 0.01792,-0.01971 0.02732,-0.04344 0.0094,-0.02374 0.0094,-0.06001 0,-0.03628 -0.01075,-0.05957 -0.0103,-0.02329 -0.02911,-0.03672 -0.01881,-0.01344 -0.04479,-0.01836 -0.02553,-0.0054 -0.05554,-0.0054 h -0.03807 v -0.07435 h 0.02956 q 0.06046,0 0.09808,-0.02866 0.03807,-0.02866 0.03807,-0.0833 0,-0.02508 -0.0099,-0.04299 -0.0099,-0.01836 -0.02508,-0.02911 -0.01702,-0.01165 -0.03762,-0.01612 -0.0206,-0.0045 -0.04389,-0.0045 z"
         style="font-size:0.91722244px;baseline-shift:sub;stroke-width:1.05833328"
         id="path1253" />
      <path
         d="m 29.18974,35.288158 h -0.411585 v -0.0936 q 0.04434,-0.0421 0.08375,-0.08062 0.03941,-0.03852 0.07703,-0.08017 0.07614,-0.08375 0.103904,-0.133911 0.02777,-0.05061 0.02777,-0.104352 0,-0.02777 -0.009,-0.04882 -0.0085,-0.02105 -0.02374,-0.03493 -0.01568,-0.01344 -0.03628,-0.02015 -0.0206,-0.0067 -0.04523,-0.0067 -0.02374,0 -0.04837,0.0063 -0.02419,0.0058 -0.04658,0.01478 -0.01881,0.0076 -0.03628,0.01836 -0.01747,0.01075 -0.02821,0.01836 h -0.0049 v -0.09495 q 0.02777,-0.01388 0.07703,-0.02687 0.04971,-0.01344 0.09405,-0.01344 0.09316,0 0.146003,0.04971 0.05285,0.04926 0.05285,0.133911 0,0.03896 -0.0094,0.07211 -0.009,0.03314 -0.02508,0.06136 -0.01657,0.02911 -0.03986,0.05777 -0.02329,0.02866 -0.04926,0.05643 -0.0421,0.04568 -0.09405,0.09495 -0.0515,0.04926 -0.08241,0.07793 h 0.327835 z"
         style="font-size:0.91722244px;baseline-shift:sub;stroke-width:1.05833328"
         id="path1255" />
      <path
         d="m 30.004023,34.432672 h -0.164675 v -0.196371 h 0.164675 z m 0,0.573264 h -0.164675 v -0.196371 h 0.164675 z"
         style="stroke-width:1.05833328"
         id="path1257" />
      <path
         d="m 31.324873,34.492616 q 0,0.276297 -0.08062,0.405833 -0.07993,0.128846 -0.247358,0.128846 -0.169499,0 -0.248736,-0.131602 -0.07924,-0.131603 -0.07924,-0.401699 0,-0.277674 0.07993,-0.405832 0.08061,-0.128847 0.248047,-0.128847 0.169499,0 0.248736,0.132981 0.07924,0.132981 0.07924,0.40032 z m -0.176389,0.312815 q 0.01998,-0.05099 0.02825,-0.128847 0.0083,-0.07786 0.0083,-0.183968 0,-0.10542 -0.0083,-0.183279 -0.0083,-0.07786 -0.02894,-0.129535 -0.02067,-0.05237 -0.05719,-0.07924 -0.03583,-0.02756 -0.09371,-0.02756 -0.05719,0 -0.0944,0.02756 -0.03652,0.02687 -0.05788,0.08062 -0.02067,0.05237 -0.02825,0.132291 -0.0076,0.07993 -0.0076,0.180523 0,0.107487 0.0062,0.179834 0.0069,0.07235 0.02894,0.129536 0.01998,0.05305 0.0565,0.08199 0.03721,0.02825 0.09646,0.02825 0.05719,0 0.09371,-0.02687 0.03721,-0.02756 0.05788,-0.0813 z"
         style="stroke-width:1.05833328"
         id="path1259" />
      <path
         d="M 32.075214,35.005936 H 31.916051 L 31.729327,34.71517 31.53709,35.005936 h -0.146761 l 0.26734,-0.381717 -0.264584,-0.387918 h 0.159164 l 0.185346,0.28801 0.190169,-0.28801 h 0.14745 l -0.265961,0.378961 z"
         style="stroke-width:1.05833328"
         id="path1261" />
      <path
         d="m 32.802819,34.133637 -0.443729,0.872299 h -0.146761 l 0.469911,-0.905372 h -0.530544 v -0.120578 h 0.651123 z"
         style="stroke-width:1.05833328"
         id="path1263" />
      <path
         d="m 33.56832,34.492616 q 0,0.276297 -0.08062,0.405833 -0.07993,0.128846 -0.247358,0.128846 -0.169498,0 -0.248736,-0.131602 -0.07924,-0.131603 -0.07924,-0.401699 0,-0.277674 0.07993,-0.405832 0.08062,-0.128847 0.248047,-0.128847 0.169499,0 0.248736,0.132981 0.07924,0.132981 0.07924,0.40032 z m -0.176389,0.312815 q 0.01998,-0.05099 0.02825,-0.128847 0.0083,-0.07786 0.0083,-0.183968 0,-0.10542 -0.0083,-0.183279 -0.0083,-0.07786 -0.02894,-0.129535 -0.02067,-0.05237 -0.05719,-0.07924 -0.03583,-0.02756 -0.09371,-0.02756 -0.05719,0 -0.0944,0.02756 -0.03652,0.02687 -0.05788,0.08062 -0.02067,0.05237 -0.02825,0.132291 -0.0076,0.07993 -0.0076,0.180523 0,0.107487 0.0062,0.179834 0.0069,0.07235 0.02894,0.129536 0.01998,0.05305 0.0565,0.08199 0.03721,0.02825 0.09646,0.02825 0.05719,0 0.09371,-0.02687 0.03721,-0.02756 0.05788,-0.0813 z"
         style="stroke-width:1.05833328"
         id="path1265" />
      <path
         d="m 34.282833,35.005936 h -0.500228 v -0.104731 h 0.186035 v -0.687641 h -0.186035 v -0.09371 q 0.10542,0 0.155029,-0.02963 0.0503,-0.03032 0.0565,-0.113688 h 0.106798 v 0.924664 h 0.181901 z"
         style="stroke-width:1.05833328"
         id="path1267" />
      <path
         d="m 35.1069,35.005936 h -0.633209 v -0.144005 q 0.06821,-0.06477 0.128847,-0.124024 0.06063,-0.05926 0.118511,-0.123334 0.117133,-0.128847 0.159853,-0.206017 0.04272,-0.07786 0.04272,-0.160542 0,-0.04272 -0.01378,-0.0751 -0.01309,-0.03238 -0.03652,-0.05374 -0.02412,-0.02067 -0.05581,-0.03101 -0.03169,-0.01033 -0.06959,-0.01033 -0.03652,0 -0.07441,0.0096 -0.03721,0.009 -0.07166,0.02274 -0.02894,0.01171 -0.05581,0.02825 -0.02687,0.01654 -0.04341,0.02825 h -0.0076 v -0.146072 q 0.04272,-0.02136 0.118511,-0.04134 0.07648,-0.02067 0.144694,-0.02067 0.143316,0 0.224621,0.07648 0.0813,0.07579 0.0813,0.206016 0,0.05994 -0.01447,0.110932 -0.01378,0.05099 -0.03859,0.0944 -0.02549,0.04479 -0.06132,0.08888 -0.03583,0.0441 -0.07579,0.08682 -0.06477,0.07028 -0.144694,0.146072 -0.07924,0.07579 -0.126779,0.119889 H 35.1069 Z"
         style="stroke-width:1.05833328"
         id="path1269" />
      <path
         d="m 35.522379,34.077827 q -0.03721,0 -0.07441,0.009 -0.03721,0.009 -0.07304,0.02343 -0.03307,0.01378 -0.05788,0.02894 -0.02412,0.01516 -0.04341,0.02825 h -0.0083 v -0.145383 q 0.04479,-0.02412 0.121267,-0.04341 0.07717,-0.01998 0.146761,-0.01998 0.06959,0 0.121268,0.01447 0.05237,0.01378 0.09439,0.04341 0.04548,0.03307 0.06821,0.07993 0.02343,0.04685 0.02343,0.109554 0,0.08475 -0.05581,0.148828 -0.05581,0.06408 -0.13367,0.08131 v 0.0096 q 0.03238,0.0062 0.0689,0.02136 0.03721,0.01516 0.0689,0.04479 0.03169,0.02963 0.05168,0.07648 0.01998,0.04616 0.01998,0.112999 0,0.06959 -0.02412,0.128158 -0.02343,0.05788 -0.06683,0.102664 -0.04479,0.04685 -0.108176,0.07097 -0.06339,0.02412 -0.144005,0.02412 -0.07717,0 -0.152963,-0.0186 -0.07579,-0.0186 -0.127468,-0.04479 v -0.145383 h 0.0096 q 0.04341,0.03169 0.116444,0.06063 0.07304,0.02894 0.146072,0.02894 0.04203,0 0.08406,-0.01309 0.04272,-0.01378 0.07097,-0.0441 0.02756,-0.03032 0.04203,-0.06684 0.01447,-0.03652 0.01447,-0.09233 0,-0.05581 -0.01654,-0.09164 -0.01585,-0.03583 -0.04479,-0.0565 -0.02894,-0.02067 -0.0689,-0.02825 -0.03927,-0.0083 -0.08544,-0.0083 h -0.05857 v -0.114377 h 0.04547 q 0.09302,0 0.150895,-0.0441 0.05857,-0.0441 0.05857,-0.128157 0,-0.03858 -0.01516,-0.06615 -0.01516,-0.02825 -0.03859,-0.04479 -0.02618,-0.01791 -0.05788,-0.02481 -0.03169,-0.0069 -0.06752,-0.0069 z"
         style="stroke-width:1.05833328"
         id="path1271" />
      <path
         d="m 36.677175,34.653158 h -0.121956 v 0.352778 h -0.132292 v -0.352778 h -0.453374 v -0.144694 l 0.458886,-0.528478 h 0.12678 v 0.562929 h 0.121956 z m -0.254248,-0.110243 v -0.40101 l -0.345887,0.40101 z"
         style="stroke-width:1.05833328"
         id="path1273" />
      <path
         d="m 37.41029,34.679341 q 0,0.07441 -0.02412,0.137803 -0.02343,0.06339 -0.06615,0.109554 -0.04341,0.04685 -0.108176,0.07373 -0.06408,0.02687 -0.144005,0.02687 -0.07372,0 -0.145383,-0.01654 -0.07097,-0.01585 -0.123335,-0.04203 v -0.145383 h 0.0096 q 0.01585,0.01171 0.04548,0.02687 0.02963,0.01447 0.06546,0.02756 0.04065,0.01447 0.07442,0.02274 0.03376,0.0076 0.07579,0.0076 0.04134,0 0.08062,-0.01447 0.03927,-0.01516 0.06752,-0.04823 0.02549,-0.03032 0.03858,-0.07097 0.01378,-0.04065 0.01378,-0.09577 0,-0.05443 -0.01516,-0.08957 -0.01447,-0.03514 -0.04272,-0.05788 -0.02963,-0.02618 -0.07304,-0.03652 -0.04272,-0.01102 -0.09577,-0.01102 -0.05581,0 -0.11231,0.009 -0.0565,0.0083 -0.09026,0.01585 v -0.528478 h 0.562929 v 0.120578 h -0.429948 v 0.272852 q 0.0248,-0.0028 0.04892,-0.0041 0.02412,-0.0014 0.0441,-0.0014 0.07855,0 0.13298,0.01309 0.05443,0.01309 0.104731,0.05099 0.05099,0.03858 0.07786,0.09646 0.02756,0.05788 0.02756,0.150896 z"
         style="stroke-width:1.05833328"
         id="path1275" />
      <path
         d="m 38.209553,34.673139 q 0,0.07924 -0.02618,0.146072 -0.02618,0.06683 -0.07028,0.111622 -0.04616,0.04754 -0.103353,0.07235 -0.05719,0.02412 -0.12609,0.02412 -0.06959,0 -0.12678,-0.02343 -0.0565,-0.02343 -0.09991,-0.06959 -0.05305,-0.05581 -0.08337,-0.148828 -0.02963,-0.09371 -0.02963,-0.230133 0,-0.13367 0.02756,-0.241157 0.02756,-0.108176 0.08475,-0.188102 0.05581,-0.07786 0.144005,-0.121267 0.08819,-0.0441 0.20395,-0.0441 0.03445,0 0.06408,0.0034 0.02963,0.0034 0.05237,0.01102 v 0.131603 h -0.0062 q -0.0186,-0.01034 -0.05374,-0.0186 -0.03514,-0.009 -0.0751,-0.009 -0.128158,0 -0.207395,0.08682 -0.07855,0.08613 -0.09302,0.256315 0.04892,-0.03445 0.100597,-0.05305 0.05168,-0.0186 0.112999,-0.0186 0.05994,0 0.104731,0.0124 0.04548,0.01171 0.0944,0.04823 0.0565,0.04272 0.08406,0.108176 0.02756,0.06546 0.02756,0.153651 z m -0.139871,0.0055 q 0,-0.06339 -0.01654,-0.106109 -0.01654,-0.04272 -0.05374,-0.07304 -0.02687,-0.02205 -0.06132,-0.02894 -0.03376,-0.0069 -0.06959,-0.0069 -0.04823,0 -0.09371,0.01447 -0.04548,0.01447 -0.08957,0.04203 -0.0014,0.01516 -0.0021,0.02963 -6.89e-4,0.01378 -6.89e-4,0.03514 0,0.106798 0.02067,0.172255 0.02136,0.06546 0.05236,0.09922 0.02963,0.03238 0.06063,0.04548 0.03169,0.01309 0.06821,0.01309 0.08268,0 0.133669,-0.05926 0.05168,-0.05925 0.05168,-0.177077 z"
         style="stroke-width:1.05833328"
         id="path1277" />
    </g>
  </g>
</svg>
