<?xml version="1.0" encoding="UTF-8" standalone="no"?>
<!-- Created with Inkscape (http://www.inkscape.org/) -->

<svg
   xmlns:dc="http://purl.org/dc/elements/1.1/"
   xmlns:cc="http://creativecommons.org/ns#"
   xmlns:rdf="http://www.w3.org/1999/02/22-rdf-syntax-ns#"
   xmlns:svg="http://www.w3.org/2000/svg"
   xmlns="http://www.w3.org/2000/svg"
   xmlns:sodipodi="http://sodipodi.sourceforge.net/DTD/sodipodi-0.dtd"
   xmlns:inkscape="http://www.inkscape.org/namespaces/inkscape"
   width="165.22569mm"
   height="24.41584mm"
   viewBox="0 0 165.22569 24.415841"
   version="1.1"
   id="svg8"
   inkscape:version="0.92.4 (5da689c313, 2019-01-14)"
   sodipodi:docname="convert_bits_binary_logit.svg">
  <defs
     id="defs2">
    <marker
       inkscape:stockid="Arrow2Send"
       orient="auto"
       refY="0"
       refX="0"
       id="Arrow2Send"
       style="overflow:visible"
       inkscape:isstock="true">
      <path
         id="path862"
         style="fill:#000000;fill-opacity:1;fill-rule:evenodd;stroke:#000000;stroke-width:0.625;stroke-linejoin:round;stroke-opacity:1"
         d="M 8.7185878,4.0337352 -2.2072895,0.01601326 8.7185884,-4.0017078 c -1.7454984,2.3720609 -1.7354408,5.6174519 -6e-7,8.035443 z"
         transform="matrix(-0.3,0,0,-0.3,0.69,0)"
         inkscape:connector-curvature="0" />
    </marker>
    <marker
       inkscape:stockid="Arrow2Sstart"
       orient="auto"
       refY="0"
       refX="0"
       id="Arrow2Sstart"
       style="overflow:visible"
       inkscape:isstock="true">
      <path
         id="path859"
         style="fill:#000000;fill-opacity:1;fill-rule:evenodd;stroke:#000000;stroke-width:0.625;stroke-linejoin:round;stroke-opacity:1"
         d="M 8.7185878,4.0337352 -2.2072895,0.01601326 8.7185884,-4.0017078 c -1.7454984,2.3720609 -1.7354408,5.6174519 -6e-7,8.035443 z"
         transform="matrix(0.3,0,0,0.3,-0.69,0)"
         inkscape:connector-curvature="0" />
    </marker>
    <marker
       inkscape:stockid="Arrow1Send"
       orient="auto"
       refY="0"
       refX="0"
       id="Arrow1Send"
       style="overflow:visible"
       inkscape:isstock="true">
      <path
         id="path844"
         d="M 0,0 5,-5 -12.5,0 5,5 Z"
         style="fill:#000000;fill-opacity:1;fill-rule:evenodd;stroke:#000000;stroke-width:1.00000003pt;stroke-opacity:1"
         transform="matrix(-0.2,0,0,-0.2,-1.2,0)"
         inkscape:connector-curvature="0" />
    </marker>
    <marker
       inkscape:stockid="Arrow1Mend"
       orient="auto"
       refY="0"
       refX="0"
       id="Arrow1Mend"
       style="overflow:visible"
       inkscape:isstock="true">
      <path
         id="path838"
         d="M 0,0 5,-5 -12.5,0 5,5 Z"
         style="fill:#000000;fill-opacity:1;fill-rule:evenodd;stroke:#000000;stroke-width:1.00000003pt;stroke-opacity:1"
         transform="matrix(-0.4,0,0,-0.4,-4,0)"
         inkscape:connector-curvature="0" />
    </marker>
  </defs>
  <sodipodi:namedview
     id="base"
     pagecolor="#ffffff"
     bordercolor="#666666"
     borderopacity="1.0"
     inkscape:pageopacity="0.0"
     inkscape:pageshadow="2"
     inkscape:zoom="1.979899"
     inkscape:cx="282.5606"
     inkscape:cy="115.79229"
     inkscape:document-units="mm"
     inkscape:current-layer="text1219"
     showgrid="true"
     inkscape:snap-grids="true"
     inkscape:snap-bbox="true"
     inkscape:snap-object-midpoints="true"
     inkscape:snap-center="true"
     inkscape:bbox-paths="true"
     inkscape:bbox-nodes="true"
     inkscape:snap-bbox-edge-midpoints="true"
     inkscape:snap-bbox-midpoints="true"
     fit-margin-top="0"
     fit-margin-left="0"
     fit-margin-right="0"
     fit-margin-bottom="0"
     inkscape:window-width="1920"
     inkscape:window-height="1017"
     inkscape:window-x="-8"
     inkscape:window-y="-8"
     inkscape:window-maximized="1"
     inkscape:snap-global="false">
    <inkscape:grid
       type="xygrid"
       id="grid815"
       originx="46.766633"
       originy="-254.57671" />
  </sodipodi:namedview>
  <metadata
     id="metadata5">
    <rdf:RDF>
      <cc:Work
         rdf:about="">
        <dc:format>image/svg+xml</dc:format>
        <dc:type
           rdf:resource="http://purl.org/dc/dcmitype/StillImage" />
        <dc:title></dc:title>
      </cc:Work>
    </rdf:RDF>
  </metadata>
  <g
     inkscape:label="レイヤー 1"
     inkscape:groupmode="layer"
     id="layer1"
     transform="translate(46.766622,-18.007467)">
    <g
       aria-label="0x00070123456789ABCDEF"
       style="font-style:normal;font-variant:normal;font-weight:normal;font-stretch:normal;font-size:5.64444447px;line-height:1.25;font-family:Tahoma;-inkscape-font-specification:Tahoma;letter-spacing:0px;word-spacing:0px;fill:#000000;fill-opacity:1;stroke:none;stroke-width:0.52916664"
       id="text819"
       transform="matrix(2.4,0,0,2.4,-50.184708,-42.301559)">
      <path
         d="m 4.047987,27.27299 q 0,1.105187 -0.3224609,1.623329 -0.3197049,0.515387 -0.9894315,0.515387 -0.6779948,0 -0.9949436,-0.526411 -0.3169487,-0.526411 -0.3169487,-1.606793 0,-1.110698 0.3197048,-1.623329 0.322461,-0.515386 0.9921875,-0.515386 0.6779948,0 0.9949436,0.531923 0.3169488,0.531923 0.3169488,1.60128 z m -0.7055556,1.251259 q 0.079926,-0.20395 0.1129992,-0.515386 0.033073,-0.311437 0.033073,-0.735873 0,-0.421679 -0.033073,-0.733116 Q 3.4223577,26.228437 3.3396754,26.021732 3.2569931,25.81227 3.110921,25.704783 2.967605,25.59454 2.7360946,25.59454 q -0.2287543,0 -0.3775824,0.110243 -0.1460721,0.107487 -0.2315105,0.322461 -0.082682,0.209462 -0.1129991,0.529166 -0.030317,0.319705 -0.030317,0.722092 0,0.429948 0.024805,0.719336 0.027561,0.289388 0.1157552,0.518143 0.079926,0.212218 0.2259982,0.327973 0.1488282,0.112999 0.3858507,0.112999 0.2287544,0 0.3748264,-0.107487 0.1488281,-0.110243 0.2315103,-0.325217 z"
         style="stroke-width:0.52916664"
         id="path1319"
         inkscape:connector-curvature="0" />
      <path
         d="M 7.0493542,29.326267 H 6.4127006 L 5.6658039,28.163203 4.8968585,29.326267 H 4.3098143 L 5.3791719,27.799401 4.3208386,26.24773 h 0.6366536 l 0.7413846,1.15204 0.7606771,-1.15204 h 0.5898003 l -1.0638455,1.515842 z"
         style="stroke-width:0.52916664"
         id="path1321"
         inkscape:connector-curvature="0" />
      <path
         d="m 9.9349661,27.27299 q 0,1.105187 -0.3224609,1.623329 -0.3197049,0.515387 -0.9894315,0.515387 -0.6779948,0 -0.9949435,-0.526411 -0.3169488,-0.526411 -0.3169488,-1.606793 0,-1.110698 0.3197048,-1.623329 0.322461,-0.515386 0.9921875,-0.515386 0.6779948,0 0.9949436,0.531923 0.3169488,0.531923 0.3169488,1.60128 z m -0.7055556,1.251259 q 0.079926,-0.20395 0.1129992,-0.515386 0.033073,-0.311437 0.033073,-0.735873 0,-0.421679 -0.033073,-0.733116 Q 9.3093368,26.228437 9.2266545,26.021732 9.1439722,25.81227 8.9979001,25.704783 8.8545841,25.59454 8.6230737,25.59454 q -0.2287543,0 -0.3775824,0.110243 -0.1460721,0.107487 -0.2315105,0.322461 -0.082682,0.209462 -0.1129991,0.529166 -0.030317,0.319705 -0.030317,0.722092 0,0.429948 0.024805,0.719336 0.027561,0.289388 0.1157552,0.518143 0.079926,0.212218 0.2259982,0.327973 0.1488282,0.112999 0.3858507,0.112999 0.2287544,0 0.3748264,-0.107487 0.1488281,-0.110243 0.2315103,-0.325217 z"
         style="stroke-width:0.52916664"
         id="path1323"
         inkscape:connector-curvature="0" />
      <path
         d="m 13.021771,27.27299 q 0,1.105187 -0.32246,1.623329 -0.319705,0.515387 -0.989432,0.515387 -0.677995,0 -0.994944,-0.526411 -0.316948,-0.526411 -0.316948,-1.606793 0,-1.110698 0.319705,-1.623329 0.322461,-0.515386 0.992187,-0.515386 0.677995,0 0.994944,0.531923 0.316948,0.531923 0.316948,1.60128 z m -0.705555,1.251259 q 0.07993,-0.20395 0.112999,-0.515386 0.03307,-0.311437 0.03307,-0.735873 0,-0.421679 -0.03307,-0.733116 -0.03307,-0.311437 -0.115755,-0.518142 -0.08268,-0.209462 -0.228755,-0.316949 -0.143316,-0.110243 -0.374826,-0.110243 -0.228754,0 -0.377582,0.110243 -0.146072,0.107487 -0.231511,0.322461 -0.08268,0.209462 -0.112999,0.529166 -0.03032,0.319705 -0.03032,0.722092 0,0.429948 0.0248,0.719336 0.02756,0.289388 0.115755,0.518143 0.07993,0.212218 0.225998,0.327973 0.148829,0.112999 0.385851,0.112999 0.228754,0 0.374826,-0.107487 0.148829,-0.110243 0.231511,-0.325217 z"
         style="stroke-width:0.52916664"
         id="path1325"
         inkscape:connector-curvature="0" />
      <path
         d="m 16.108578,27.27299 q 0,1.105187 -0.322461,1.623329 -0.319705,0.515387 -0.989432,0.515387 -0.677994,0 -0.994943,-0.526411 -0.316949,-0.526411 -0.316949,-1.606793 0,-1.110698 0.319705,-1.623329 0.322461,-0.515386 0.992187,-0.515386 0.677995,0 0.994944,0.531923 0.316949,0.531923 0.316949,1.60128 z m -0.705556,1.251259 q 0.07993,-0.20395 0.112999,-0.515386 0.03307,-0.311437 0.03307,-0.735873 0,-0.421679 -0.03307,-0.733116 -0.03307,-0.311437 -0.115755,-0.518142 -0.08268,-0.209462 -0.228754,-0.316949 -0.143316,-0.110243 -0.374827,-0.110243 -0.228754,0 -0.377582,0.110243 -0.146072,0.107487 -0.231511,0.322461 -0.08268,0.209462 -0.112999,0.529166 -0.03032,0.319705 -0.03032,0.722092 0,0.429948 0.0248,0.719336 0.02756,0.289388 0.115755,0.518143 0.07993,0.212218 0.225999,0.327973 0.148828,0.112999 0.38585,0.112999 0.228755,0 0.374827,-0.107487 0.148828,-0.110243 0.23151,-0.325217 z"
         style="stroke-width:0.52916664"
         id="path1327"
         inkscape:connector-curvature="0" />
      <path
         d="m 22.282188,27.27299 q 0,1.105187 -0.322461,1.623329 -0.319704,0.515387 -0.989431,0.515387 -0.677995,0 -0.994944,-0.526411 -0.316948,-0.526411 -0.316948,-1.606793 0,-1.110698 0.319705,-1.623329 0.32246,-0.515386 0.992187,-0.515386 0.677995,0 0.994944,0.531923 0.316948,0.531923 0.316948,1.60128 z m -0.705555,1.251259 q 0.07993,-0.20395 0.112999,-0.515386 0.03307,-0.311437 0.03307,-0.735873 0,-0.421679 -0.03307,-0.733116 -0.03307,-0.311437 -0.115755,-0.518142 -0.08268,-0.209462 -0.228755,-0.316949 -0.143316,-0.110243 -0.374826,-0.110243 -0.228754,0 -0.377582,0.110243 -0.146072,0.107487 -0.231511,0.322461 -0.08268,0.209462 -0.112999,0.529166 -0.03032,0.319705 -0.03032,0.722092 0,0.429948 0.02481,0.719336 0.02756,0.289388 0.115755,0.518143 0.07993,0.212218 0.225998,0.327973 0.148828,0.112999 0.385851,0.112999 0.228754,0 0.374826,-0.107487 0.148829,-0.110243 0.231511,-0.325217 z"
         style="stroke-width:0.52916664"
         id="path1331"
         inkscape:connector-curvature="0" />
      <path
         d="m 25.140239,29.326267 h -2.000911 v -0.418923 h 0.744141 v -2.750565 h -0.744141 v -0.374826 q 0.42168,0 0.620117,-0.118511 0.201194,-0.121268 0.225998,-0.454753 h 0.427192 v 3.698655 h 0.727604 z"
         style="stroke-width:0.52916664"
         id="path1333"
         inkscape:connector-curvature="0" />
      <path
         d="m 28.436507,29.326267 h -2.532835 v -0.57602 q 0.272852,-0.259071 0.515387,-0.496093 0.242534,-0.237023 0.474045,-0.493338 0.468533,-0.515386 0.63941,-0.824067 0.170876,-0.311437 0.170876,-0.642166 0,-0.170877 -0.05512,-0.300412 -0.05237,-0.129536 -0.146072,-0.214974 -0.09646,-0.08268 -0.223243,-0.124024 -0.126779,-0.04134 -0.278363,-0.04134 -0.146072,0 -0.297656,0.03859 -0.148829,0.03583 -0.286632,0.09095 -0.115756,0.04685 -0.223243,0.112999 -0.107487,0.06615 -0.173632,0.112999 h -0.03032 v -0.584288 q 0.170876,-0.08544 0.474045,-0.165365 0.305924,-0.08268 0.578776,-0.08268 0.573264,0 0.898481,0.305925 0.325217,0.303168 0.325217,0.824066 0,0.239779 -0.05788,0.443729 -0.05512,0.203949 -0.15434,0.377582 -0.101975,0.179145 -0.245291,0.355534 -0.143316,0.176389 -0.303168,0.347266 -0.259071,0.281119 -0.578776,0.584288 -0.316949,0.303168 -0.507118,0.479557 h 2.017448 z"
         style="stroke-width:0.52916664"
         id="path1335"
         inkscape:connector-curvature="0" />
      <path
         d="m 30.09842,25.613832 q -0.148828,0 -0.297656,0.03583 -0.148828,0.03583 -0.292144,0.09371 -0.132292,0.05512 -0.23151,0.115755 -0.09646,0.06063 -0.173633,0.112999 h -0.03307 V 25.39059 q 0.179145,-0.09646 0.485069,-0.173633 0.308681,-0.07993 0.587045,-0.07993 0.278363,0 0.485069,0.05788 0.209462,0.05512 0.377583,0.173633 0.181901,0.132291 0.272851,0.319704 0.09371,0.187414 0.09371,0.438217 0,0.338997 -0.223242,0.595312 -0.223243,0.256315 -0.534679,0.325217 v 0.03859 q 0.129535,0.02481 0.275607,0.08544 0.148828,0.06063 0.275608,0.179145 0.12678,0.118512 0.206706,0.305925 0.07993,0.184657 0.07993,0.451996 0,0.278364 -0.09646,0.512631 -0.09371,0.23151 -0.267339,0.410655 -0.179145,0.187413 -0.432704,0.283876 -0.253559,0.09646 -0.57602,0.09646 -0.308681,0 -0.611849,-0.07441 -0.303168,-0.07442 -0.509874,-0.179145 V 28.57662 h 0.03858 q 0.173633,0.12678 0.465777,0.242535 0.292144,0.115755 0.584288,0.115755 0.168121,0 0.336241,-0.05236 0.170877,-0.05512 0.283876,-0.176389 0.110243,-0.121267 0.168121,-0.267339 0.05788,-0.146072 0.05788,-0.369315 0,-0.223242 -0.06614,-0.366558 -0.06339,-0.143316 -0.179145,-0.225998 -0.115756,-0.08268 -0.275608,-0.112999 -0.157096,-0.03307 -0.341753,-0.03307 h -0.234267 v -0.457509 h 0.181901 q 0.37207,0 0.603581,-0.176389 0.234266,-0.176389 0.234266,-0.51263 0,-0.15434 -0.06063,-0.264583 -0.06063,-0.112999 -0.154341,-0.179145 -0.104731,-0.07166 -0.23151,-0.09922 -0.12678,-0.02756 -0.270096,-0.02756 z"
         style="stroke-width:0.52916664"
         id="path1337"
         inkscape:connector-curvature="0" />
      <path
         d="m 34.717606,27.915156 h -0.487825 v 1.411111 H 33.700614 V 27.915156 H 31.887116 V 27.33638 l 1.835547,-2.113911 h 0.507118 v 2.251715 h 0.487825 z m -1.016992,-0.440972 v -1.604037 l -1.38355,1.604037 z"
         style="stroke-width:0.52916664"
         id="path1339"
         inkscape:connector-curvature="0" />
      <path
         d="m 37.650069,28.019887 q 0,0.297656 -0.09646,0.551215 -0.09371,0.253559 -0.264584,0.438216 -0.173633,0.187414 -0.432704,0.294901 -0.256315,0.107487 -0.57602,0.107487 -0.2949,0 -0.581532,-0.06615 -0.283876,-0.06339 -0.493337,-0.168121 v -0.581532 h 0.03858 q 0.06339,0.04685 0.181901,0.107487 0.118511,0.05788 0.261827,0.110243 0.162608,0.05788 0.297656,0.09095 0.135048,0.03032 0.303169,0.03032 0.165364,0 0.322461,-0.05788 0.157096,-0.06063 0.270095,-0.192926 0.101975,-0.121267 0.15434,-0.283875 0.05512,-0.162609 0.05512,-0.383095 0,-0.21773 -0.06063,-0.35829 -0.05788,-0.14056 -0.170877,-0.23151 -0.118511,-0.104731 -0.292144,-0.146072 -0.170876,-0.0441 -0.383094,-0.0441 -0.223243,0 -0.449241,0.03583 -0.225998,0.03307 -0.361046,0.06339 v -2.113911 h 2.251715 v 0.482314 h -1.719792 v 1.091406 q 0.09922,-0.01102 0.195681,-0.01654 0.09646,-0.0055 0.176389,-0.0055 0.314193,0 0.531923,0.05237 0.21773,0.05237 0.418924,0.20395 0.203949,0.15434 0.311436,0.38585 0.110243,0.231511 0.110243,0.603581 z"
         style="stroke-width:0.52916664"
         id="path1341"
         inkscape:connector-curvature="0" />
      <path
         d="m 40.84712,27.995082 q 0,0.316949 -0.104731,0.584289 -0.104731,0.267339 -0.28112,0.446484 -0.184657,0.190169 -0.413412,0.289388 -0.228754,0.09646 -0.504362,0.09646 -0.278363,0 -0.507118,-0.09371 -0.225998,-0.09371 -0.399631,-0.278364 -0.212218,-0.223242 -0.333485,-0.595312 -0.118511,-0.374827 -0.118511,-0.92053 0,-0.534679 0.110243,-0.964626 0.110243,-0.432704 0.338997,-0.752409 0.223242,-0.311437 0.57602,-0.48507 0.352778,-0.176389 0.815799,-0.176389 0.137804,0 0.256315,0.01378 0.118511,0.01378 0.209462,0.0441 v 0.526411 h -0.02481 q -0.07441,-0.04134 -0.214974,-0.07441 -0.14056,-0.03583 -0.300412,-0.03583 -0.51263,0 -0.829579,0.347266 -0.314193,0.34451 -0.372071,1.025261 0.195682,-0.137804 0.402388,-0.212218 0.206705,-0.07441 0.451996,-0.07441 0.239779,0 0.418924,0.04961 0.181901,0.04685 0.377582,0.192925 0.225999,0.170877 0.336242,0.432704 0.110243,0.261828 0.110243,0.614605 z m -0.559484,0.02205 q 0,-0.253559 -0.06615,-0.424436 -0.06615,-0.170877 -0.214974,-0.292144 -0.107487,-0.08819 -0.24529,-0.115755 -0.135048,-0.02756 -0.278364,-0.02756 -0.192926,0 -0.374827,0.05788 -0.181901,0.05788 -0.35829,0.16812 -0.0055,0.06063 -0.0083,0.118512 -0.0028,0.05512 -0.0028,0.14056 0,0.427191 0.08268,0.689019 0.08544,0.261827 0.209462,0.396875 0.118512,0.129535 0.242535,0.181901 0.12678,0.05237 0.272852,0.05237 0.330729,0 0.534678,-0.237022 0.206706,-0.237023 0.206706,-0.708312 z"
         style="stroke-width:0.52916664"
         id="path1343"
         inkscape:connector-curvature="0" />
      <path
         d="m 43.914631,25.837075 -1.774914,3.489192 h -0.587044 l 1.879644,-3.621484 h -2.122179 v -0.482314 h 2.604493 z"
         style="stroke-width:0.52916664"
         id="path1345"
         inkscape:connector-curvature="0" />
      <path
         d="m 46.359272,26.178828 q 0,-0.275608 -0.184657,-0.460265 -0.184657,-0.184657 -0.51263,-0.184657 -0.300413,0 -0.493338,0.165365 -0.190169,0.165364 -0.190169,0.446484 0,0.20395 0.09646,0.34451 0.09922,0.14056 0.294901,0.253559 0.08544,0.04685 0.259071,0.129535 0.176389,0.08268 0.319705,0.129536 0.239778,-0.184657 0.325217,-0.377583 0.08544,-0.195681 0.08544,-0.446484 z m 0.07717,2.056033 q 0,-0.253559 -0.09922,-0.402387 -0.09922,-0.148828 -0.383094,-0.303169 -0.09371,-0.05237 -0.250803,-0.112999 -0.15434,-0.06063 -0.350022,-0.143316 -0.228754,0.151585 -0.350022,0.374827 -0.121267,0.220486 -0.121267,0.504362 0,0.37207 0.223242,0.614605 0.225998,0.242534 0.564996,0.242534 0.347265,0 0.556727,-0.206705 0.209462,-0.209462 0.209462,-0.567752 z m -0.771701,1.185113 q -0.305925,0 -0.556728,-0.09095 -0.250803,-0.09095 -0.427192,-0.261827 -0.173632,-0.165365 -0.264583,-0.391363 -0.08819,-0.228754 -0.08819,-0.482313 0,-0.333485 0.176389,-0.611849 0.179145,-0.28112 0.518142,-0.446484 v -0.01654 q -0.303168,-0.176389 -0.449241,-0.385851 -0.146072,-0.209461 -0.146072,-0.523654 0,-0.463021 0.350022,-0.771702 0.350022,-0.30868 0.887457,-0.30868 0.559483,0 0.895725,0.2949 0.338997,0.292144 0.338997,0.749653 0,0.275607 -0.162609,0.545703 -0.159852,0.270095 -0.46302,0.42168 v 0.01654 q 0.35829,0.168121 0.542947,0.407899 0.184657,0.239779 0.184657,0.617362 0,0.52641 -0.383095,0.881944 -0.380338,0.355534 -0.953602,0.355534 z"
         style="stroke-width:0.52916664"
         id="path1347"
         inkscape:connector-curvature="0" />
      <path
         d="m 49.503957,26.909188 q 0,-0.418923 -0.07717,-0.680751 -0.07717,-0.264583 -0.212218,-0.407899 -0.121268,-0.132292 -0.245291,-0.181901 -0.124023,-0.04961 -0.272852,-0.04961 -0.338997,0 -0.540191,0.242534 -0.201193,0.242535 -0.201193,0.7028 0,0.259071 0.06615,0.427192 0.06615,0.16812 0.214974,0.289388 0.104731,0.08544 0.237022,0.115755 0.132292,0.02756 0.283876,0.02756 0.176389,0 0.380339,-0.06063 0.203949,-0.06339 0.355534,-0.165365 0.0028,-0.04134 0.0055,-0.107487 0.0055,-0.0689 0.0055,-0.151584 z M 47.395558,26.55641 q 0,-0.316948 0.101975,-0.578776 0.104731,-0.261827 0.283876,-0.451996 0.170877,-0.181901 0.416168,-0.283876 0.248046,-0.101975 0.501606,-0.101975 0.283875,0 0.51263,0.09646 0.23151,0.09371 0.399631,0.272851 0.212218,0.225999 0.327973,0.592557 0.118511,0.366558 0.118511,0.926042 0,0.509874 -0.115755,0.967382 -0.112999,0.454753 -0.336241,0.755165 -0.237023,0.319705 -0.570508,0.487826 -0.330729,0.16812 -0.818555,0.16812 -0.110243,0 -0.234266,-0.01378 -0.124024,-0.01102 -0.231511,-0.0441 v -0.526411 h 0.02756 q 0.0689,0.03858 0.214974,0.07441 0.146072,0.03583 0.297656,0.03583 0.540191,0 0.848872,-0.355534 0.30868,-0.355533 0.350021,-1.016992 -0.220486,0.148828 -0.421679,0.21773 -0.198438,0.0689 -0.432704,0.0689 -0.228755,0 -0.416168,-0.04961 -0.187413,-0.04961 -0.377582,-0.192926 -0.220486,-0.16812 -0.333485,-0.424435 -0.113,-0.259071 -0.113,-0.622874 z"
         style="stroke-width:0.52916664"
         id="path1349"
         inkscape:connector-curvature="0" />
      <path
         d="m 50.270144,29.326267 1.38355,-4.103798 h 0.672483 l 1.38355,4.103798 h -0.57602 l -0.37207,-1.146528 H 51.19343 l -0.372071,1.146528 z m 2.339909,-1.612304 -0.633898,-1.934766 -0.631141,1.934766 z"
         style="stroke-width:0.52916664"
         id="path1351"
         inkscape:connector-curvature="0" />
      <path
         d="m 56.88197,28.06674 q 0,0.305925 -0.115755,0.540191 -0.115756,0.234267 -0.311437,0.385851 -0.23151,0.181901 -0.496094,0.259071 -0.264583,0.07441 -0.683507,0.07441 h -1.176844 v -4.103798 h 1.08865 q 0.438216,0 0.655946,0.03032 0.220486,0.02756 0.42168,0.135048 0.220486,0.118511 0.322461,0.311437 0.101974,0.190169 0.101974,0.44924 0,0.289388 -0.15434,0.518143 -0.151584,0.228754 -0.421679,0.358289 v 0.02205 q 0.366558,0.09922 0.567751,0.363802 0.201194,0.261827 0.201194,0.655946 z m -0.760677,-1.841059 q 0,-0.148828 -0.04961,-0.256315 -0.04961,-0.110243 -0.159852,-0.173633 -0.132292,-0.07441 -0.2949,-0.09095 -0.162609,-0.01654 -0.449241,-0.01654 h -0.523654 v 1.20165 h 0.620117 q 0.256315,0 0.377582,-0.02481 0.121268,-0.02756 0.250803,-0.110243 0.124024,-0.07993 0.176389,-0.209462 0.05237,-0.129535 0.05237,-0.319705 z m 0.192925,1.863108 q 0,-0.23151 -0.06615,-0.380339 -0.06615,-0.151584 -0.267339,-0.256315 -0.129536,-0.0689 -0.283876,-0.08819 -0.151584,-0.01929 -0.432704,-0.01929 h -0.620117 v 1.515842 h 0.443728 q 0.35829,0 0.564996,-0.03307 0.206706,-0.03307 0.363802,-0.140559 0.15434,-0.107487 0.225998,-0.242535 0.07166,-0.137804 0.07166,-0.355534 z"
         style="stroke-width:0.52916664"
         id="path1353"
         inkscape:connector-curvature="0" />
      <path
         d="m 59.031711,29.400681 q -0.402387,0 -0.741385,-0.135047 -0.336241,-0.135048 -0.581532,-0.402388 -0.24529,-0.267339 -0.380338,-0.66697 -0.135048,-0.399631 -0.135048,-0.917774 0,-0.515386 0.129536,-0.89848 0.132291,-0.383095 0.383094,-0.666971 0.245291,-0.275608 0.581532,-0.418924 0.336242,-0.146072 0.752409,-0.146072 0.206706,0 0.385851,0.03032 0.181901,0.03032 0.336241,0.07717 0.132292,0.04134 0.270096,0.104731 0.14056,0.06063 0.275607,0.135048 v 0.658702 h -0.0441 q -0.07166,-0.06615 -0.184657,-0.159852 -0.112999,-0.09371 -0.275608,-0.184657 -0.157096,-0.08544 -0.341753,-0.14056 -0.184657,-0.05512 -0.427192,-0.05512 -0.261827,0 -0.496094,0.107487 -0.234266,0.107487 -0.410655,0.316949 -0.173633,0.209462 -0.270096,0.526411 -0.09646,0.316948 -0.09646,0.713823 0,0.42168 0.101975,0.727605 0.101974,0.303168 0.278363,0.51263 0.170877,0.20395 0.402388,0.30868 0.23151,0.101975 0.490581,0.101975 0.237023,0 0.438216,-0.05788 0.201194,-0.05788 0.35829,-0.146072 0.151584,-0.08544 0.261827,-0.173633 0.110244,-0.09095 0.173633,-0.154341 h 0.04134 v 0.650435 q -0.135047,0.06339 -0.256315,0.121267 -0.118511,0.05788 -0.289388,0.112999 -0.179145,0.05788 -0.333485,0.08819 -0.151584,0.03032 -0.396875,0.03032 z"
         style="stroke-width:0.52916664"
         id="path1355"
         inkscape:connector-curvature="0" />
      <path
         d="m 64.058793,27.278502 q 0,0.56224 -0.228754,1.014237 -0.225998,0.451996 -0.609093,0.705555 -0.311437,0.195682 -0.633898,0.261827 -0.319704,0.06615 -0.818554,0.06615 h -0.945335 v -4.103798 h 0.93431 q 0.578776,0 0.90675,0.08819 0.330729,0.08544 0.562239,0.237022 0.396875,0.261828 0.614605,0.697288 0.21773,0.432704 0.21773,1.033529 z m -0.567752,-0.0083 q 0,-0.474045 -0.157096,-0.80753 -0.157096,-0.336241 -0.465777,-0.523655 -0.21773,-0.132291 -0.465777,-0.190169 -0.248047,-0.05788 -0.617361,-0.05788 H 61.368863 V 28.8577 h 0.416167 q 0.363802,0 0.636654,-0.05788 0.272851,-0.05788 0.49885,-0.214974 0.283876,-0.192926 0.427191,-0.512631 0.143316,-0.32246 0.143316,-0.802018 z"
         style="stroke-width:0.52916664"
         id="path1357"
         inkscape:connector-curvature="0" />
      <path
         d="m 64.648595,29.326267 v -4.103798 h 2.565907 v 0.48507 h -2.020204 v 1.124479 h 1.8824 v 0.48507 h -1.8824 v 1.52411 h 2.020204 v 0.485069 z"
         style="stroke-width:0.52916664"
         id="path1359"
         inkscape:connector-curvature="0" />
      <path
         d="m 70.268238,25.707539 h -1.909961 v 1.157552 h 1.830035 v 0.485069 h -1.830035 v 1.976107 h -0.545703 v -4.103798 h 2.455664 z"
         style="stroke-width:0.52916664"
         id="path1361"
         inkscape:connector-curvature="0" />
      <path
         d="m 18.74433,26.187551 q 0,-0.275608 -0.184657,-0.460265 -0.184657,-0.184657 -0.51263,-0.184657 -0.300413,0 -0.493338,0.165365 -0.190169,0.165364 -0.190169,0.446484 0,0.20395 0.09646,0.34451 0.09922,0.14056 0.294901,0.253559 0.08544,0.04685 0.259071,0.129535 0.176389,0.08268 0.319705,0.129536 0.239777,-0.184657 0.325217,-0.377583 0.08544,-0.195681 0.08544,-0.446484 z m 0.07717,2.056033 q 0,-0.253559 -0.09922,-0.402387 -0.09922,-0.148828 -0.383094,-0.303169 -0.09371,-0.05237 -0.250803,-0.112999 -0.15434,-0.06063 -0.350022,-0.143316 -0.228754,0.151585 -0.350022,0.374827 -0.121267,0.220486 -0.121267,0.504362 0,0.37207 0.223242,0.614605 0.225998,0.242534 0.564996,0.242534 0.347265,0 0.556727,-0.206705 0.209462,-0.209462 0.209462,-0.567752 z m -0.771701,1.185113 q -0.305925,0 -0.556728,-0.09095 -0.250803,-0.09095 -0.427192,-0.261827 -0.173632,-0.165365 -0.264583,-0.391363 -0.08819,-0.228754 -0.08819,-0.482313 0,-0.333485 0.176389,-0.611849 0.179145,-0.28112 0.518142,-0.446484 v -0.01654 q -0.303168,-0.176389 -0.449241,-0.385851 -0.146072,-0.209461 -0.146072,-0.523654 0,-0.463021 0.350022,-0.771702 0.350022,-0.30868 0.887457,-0.30868 0.559483,0 0.895725,0.2949 0.338996,0.292144 0.338996,0.749653 0,0.275607 -0.162608,0.545703 -0.159852,0.270095 -0.46302,0.42168 v 0.01654 q 0.35829,0.168121 0.542947,0.407899 0.184657,0.239779 0.184657,0.617362 0,0.52641 -0.383095,0.881944 -0.380339,0.355534 -0.953602,0.355534 z"
         style="font-style:normal;font-variant:normal;font-weight:normal;font-stretch:normal;font-size:5.64444447px;line-height:1.25;font-family:Tahoma;-inkscape-font-specification:Tahoma;letter-spacing:0px;word-spacing:0px;fill:#000000;fill-opacity:1;stroke:none;stroke-width:0.52916664"
         id="path1347-8"
         inkscape:connector-curvature="0" />
    </g>
    <path
       style="fill:none;stroke:#000000;stroke-width:1.26999998px;stroke-linecap:butt;stroke-linejoin:miter;stroke-opacity:1"
       d="m -10.485636,29.351485 v 11.43"
       id="path821"
       inkscape:connector-curvature="0" />
    <path
       style="fill:none;stroke:#000000;stroke-width:1.27199996;stroke-linecap:butt;stroke-linejoin:miter;stroke-miterlimit:4;stroke-dasharray:none;stroke-opacity:1;marker-end:url(#Arrow1Send)"
       d="M -40.965636,34.431484 H -11.75564"
       id="path823"
       inkscape:connector-curvature="0" />
    <path
       style="fill:none;stroke:#000000;stroke-width:1.26999998px;stroke-linecap:butt;stroke-linejoin:miter;stroke-opacity:1"
       d="m 47.934363,29.351485 v 11.43"
       id="path825"
       inkscape:connector-curvature="0" />
    <path
       style="fill:none;stroke:#000000;stroke-width:1.26999998px;stroke-linecap:butt;stroke-linejoin:miter;stroke-opacity:1;marker-start:url(#Arrow2Sstart);marker-end:url(#Arrow2Send)"
       d="M -9.2156374,34.431484 H 46.664364"
       id="path827"
       inkscape:connector-curvature="0" />
    <g
       aria-label="LeadingZeroCount:12"
       style="font-style:normal;font-variant:normal;font-weight:normal;font-stretch:normal;font-size:2.82222247px;line-height:1.25;font-family:Tahoma;-inkscape-font-specification:Tahoma;letter-spacing:0px;word-spacing:0px;fill:#000000;fill-opacity:1;stroke:none;stroke-width:1.05833328"
       id="text1215"
       transform="matrix(2.4,0,0,2.4,-50.184708,-42.301559)">
      <path
         d="M 3.1250437,35.008263 H 2.5304201 v -1.02595 h 0.1364258 v 0.904682 h 0.4581978 z"
         style="font-size:1.41111124px;stroke-width:1.05833328"
         id="path1280"
         inkscape:connector-curvature="0" />
      <path
         d="m 3.5570587,35.026177 q -0.1839681,0 -0.2859429,-0.103353 -0.1012859,-0.104042 -0.1012859,-0.2949 0,-0.188102 0.09853,-0.299034 0.09853,-0.111621 0.2576931,-0.111621 0.071658,0 0.1267796,0.02067 0.055122,0.02067 0.096463,0.06477 0.041341,0.0441 0.06339,0.108176 0.022049,0.06339 0.022049,0.155718 v 0.07028 h -0.533302 q 0,0.134359 0.067524,0.205328 0.067524,0.07097 0.1867242,0.07097 0.042719,0 0.083371,-0.0096 0.041341,-0.0096 0.074414,-0.02481 0.03514,-0.01585 0.059256,-0.03032 0.024116,-0.01516 0.039963,-0.02825 h 0.00758 v 0.141249 q -0.022738,0.009 -0.056499,0.02274 -0.033762,0.01309 -0.060634,0.02067 -0.037896,0.01033 -0.068902,0.01585 -0.030317,0.0055 -0.07717,0.0055 z m 0.1515842,-0.488514 q -0.00138,-0.05237 -0.012402,-0.09026 -0.011024,-0.0379 -0.031695,-0.06408 -0.022738,-0.02894 -0.058567,-0.0441 -0.03514,-0.01516 -0.087505,-0.01516 -0.051676,0 -0.088194,0.01585 -0.035829,0.01516 -0.065457,0.04479 -0.028939,0.03032 -0.044097,0.06752 -0.015158,0.03652 -0.019293,0.08544 z"
         style="font-size:1.41111124px;stroke-width:1.05833328"
         id="path1282"
         inkscape:connector-curvature="0" />
      <path
         d="m 4.396973,34.818782 v -0.213596 q -0.046164,0.0041 -0.1171333,0.01171 -0.07028,0.0069 -0.1136881,0.01998 -0.051677,0.01585 -0.085438,0.04892 -0.033762,0.03238 -0.033762,0.09095 0,0.06615 0.037207,0.09991 0.037207,0.03376 0.108865,0.03376 0.061323,0 0.1109321,-0.02618 0.049609,-0.02687 0.093018,-0.06546 z m 0,0.107487 q -0.015847,0.01171 -0.042719,0.03307 -0.026183,0.02067 -0.050987,0.03307 -0.034451,0.01792 -0.066835,0.02756 -0.031695,0.0096 -0.089573,0.0096 -0.047542,0 -0.090262,-0.01791 -0.042719,-0.01792 -0.075103,-0.0503 -0.031006,-0.0317 -0.049609,-0.07786 -0.018604,-0.04685 -0.018604,-0.09853 0,-0.07993 0.033762,-0.135736 0.033762,-0.0565 0.106798,-0.08957 0.064768,-0.02963 0.1529622,-0.04065 0.088195,-0.01171 0.1901693,-0.01722 v -0.02481 q 0,-0.04548 -0.01378,-0.07304 -0.01378,-0.02825 -0.038585,-0.04341 -0.024805,-0.01585 -0.060634,-0.02067 -0.035829,-0.0055 -0.073725,-0.0055 -0.044786,0 -0.1054199,0.01378 -0.060634,0.01309 -0.1212674,0.03858 h -0.00758 v -0.131602 q 0.035829,-0.01034 0.1026638,-0.02274 0.066835,-0.0124 0.1322917,-0.0124 0.079237,0 0.1336697,0.0124 0.054433,0.0124 0.097841,0.04479 0.04203,0.03169 0.062701,0.08199 0.020671,0.0503 0.020671,0.122645 v 0.526411 H 4.396973 Z"
         style="font-size:1.41111124px;stroke-width:1.05833328"
         id="path1284"
         inkscape:connector-curvature="0" />
      <path
         d="M 5.3009663,35.008263 H 5.1714307 v -0.07855 q -0.030317,0.02549 -0.052366,0.04203 -0.022049,0.01654 -0.051676,0.03032 -0.027561,0.01309 -0.057189,0.01998 -0.029628,0.0076 -0.068902,0.0076 -0.062701,0 -0.1164443,-0.02618 -0.053055,-0.02618 -0.090262,-0.07648 -0.037896,-0.05099 -0.058567,-0.125401 -0.020671,-0.0751 -0.020671,-0.172255 0,-0.101286 0.026183,-0.175011 0.026183,-0.07441 0.072347,-0.129535 0.04203,-0.0503 0.1012859,-0.07855 0.059945,-0.02894 0.1254015,-0.02894 0.057878,0 0.1005967,0.01309 0.042719,0.0124 0.090262,0.03927 V 33.936149 H 5.3009663 Z M 5.1714307,34.820849 v -0.443728 q -0.048231,-0.02343 -0.086817,-0.03238 -0.037896,-0.009 -0.082682,-0.009 -0.099908,0 -0.1564073,0.0751 -0.0565,0.07441 -0.0565,0.215663 0,0.135737 0.043408,0.208084 0.043408,0.07166 0.1391819,0.07166 0.050987,0 0.1026639,-0.02274 0.051676,-0.02343 0.097152,-0.0627 z"
         style="font-size:1.41111124px;stroke-width:1.05833328"
         id="path1286"
         inkscape:connector-curvature="0" />
      <path
         d="M 5.6206712,35.008263 H 5.4911356 v -0.769635 h 0.1295356 z m 0.00896,-0.898481 H 5.4821783 v -0.134359 h 0.1474501 z"
         style="font-size:1.41111124px;stroke-width:1.05833328"
         id="path1288"
         inkscape:connector-curvature="0" />
      <path
         d="M 6.4157992,35.008263 H 6.2862636 v -0.438217 q 0,-0.05305 -0.00551,-0.09853 -0.00482,-0.04617 -0.019292,-0.07372 -0.015847,-0.02894 -0.044097,-0.04272 -0.02825,-0.01447 -0.07717,-0.01447 -0.048231,0 -0.099908,0.02618 -0.050987,0.02549 -0.099908,0.06684 v 0.574642 H 5.8108404 v -0.76964 H 5.940376 v 0.08544 q 0.057878,-0.05168 0.1143771,-0.07924 0.0565,-0.02756 0.1192004,-0.02756 0.1136881,0 0.1777669,0.0751 0.064079,0.07441 0.064079,0.216352 z"
         style="font-size:1.41111124px;stroke-width:1.05833328"
         id="path1290"
         inkscape:connector-curvature="0" />
      <path
         d="m 7.0620991,34.79949 v -0.422369 q -0.048231,-0.02343 -0.089573,-0.03307 -0.040652,-0.01033 -0.081304,-0.01033 -0.09853,0 -0.1550293,0.07235 -0.0565,0.07235 -0.0565,0.207395 0,0.128157 0.042719,0.194992 0.043408,0.06683 0.1398709,0.06683 0.050298,0 0.1033529,-0.01998 0.053743,-0.01998 0.096463,-0.05581 z m -0.4354602,0.332107 q 0.013091,0.0055 0.038585,0.01447 0.025494,0.0096 0.057878,0.01792 0.035829,0.009 0.066146,0.01447 0.030317,0.0055 0.066146,0.0055 0.059945,0 0.1012858,-0.01585 0.04203,-0.01585 0.065457,-0.0441 0.022049,-0.02825 0.031006,-0.06546 0.00896,-0.03721 0.00896,-0.08475 v -0.06752 q -0.052366,0.04547 -0.1026639,0.06752 -0.050298,0.02136 -0.1260905,0.02136 -0.1316027,0 -0.2094618,-0.09784 -0.077859,-0.09784 -0.077859,-0.28112 0,-0.09577 0.026872,-0.169499 0.026872,-0.07441 0.072347,-0.12609 0.043408,-0.04961 0.1026638,-0.07648 0.059256,-0.02687 0.1226454,-0.02687 0.059945,0 0.1033529,0.01447 0.044097,0.01378 0.088195,0.03996 l 0.00758,-0.03307 H 7.19164 v 0.682129 q 0,0.195682 -0.085438,0.287321 -0.085438,0.09164 -0.2611383,0.09164 -0.0565,0 -0.1157552,-0.009 -0.058567,-0.009 -0.109554,-0.02412 V 35.13154 Z"
         style="font-size:1.41111124px;stroke-width:1.05833328"
         id="path1292"
         inkscape:connector-curvature="0" />
      <path
         d="M 8.0432623,35.008263 H 7.3266824 v -0.12678 L 7.8758307,34.10358 H 7.3514871 V 33.982313 H 8.029482 v 0.123335 l -0.5553495,0.781347 h 0.5691298 z"
         style="font-size:1.41111124px;stroke-width:1.05833328"
         id="path1294"
         inkscape:connector-curvature="0" />
      <path
         d="m 8.5014602,35.026177 q -0.1839681,0 -0.2859429,-0.103353 -0.1012859,-0.104042 -0.1012859,-0.2949 0,-0.188102 0.09853,-0.299034 0.09853,-0.111621 0.2576931,-0.111621 0.071658,0 0.1267796,0.02067 0.055121,0.02067 0.096463,0.06477 0.041341,0.0441 0.06339,0.108176 0.022049,0.06339 0.022049,0.155718 v 0.07028 h -0.533302 q 0,0.134359 0.067524,0.205328 0.067524,0.07097 0.1867242,0.07097 0.042719,0 0.083371,-0.0096 0.041341,-0.0096 0.074414,-0.02481 0.03514,-0.01585 0.059256,-0.03032 0.024116,-0.01516 0.039963,-0.02825 h 0.00758 v 0.141249 q -0.022738,0.009 -0.056499,0.02274 -0.033762,0.01309 -0.060634,0.02067 -0.037896,0.01033 -0.068902,0.01585 -0.030317,0.0055 -0.07717,0.0055 z m 0.1515842,-0.488514 q -0.00138,-0.05237 -0.012402,-0.09026 -0.011024,-0.0379 -0.031695,-0.06408 -0.022738,-0.02894 -0.058567,-0.0441 -0.03514,-0.01516 -0.087506,-0.01516 -0.051676,0 -0.088194,0.01585 -0.035829,0.01516 -0.065457,0.04479 -0.028939,0.03032 -0.044097,0.06752 -0.015158,0.03652 -0.019293,0.08544 z"
         style="font-size:1.41111124px;stroke-width:1.05833328"
         id="path1296"
         inkscape:connector-curvature="0" />
      <path
         d="m 9.3193259,34.37781 h -0.00689 q -0.014469,-0.0041 -0.031006,-0.0048 -0.015847,-0.0014 -0.038585,-0.0014 -0.052366,0 -0.1040419,0.02274 -0.051676,0.02274 -0.097841,0.06752 v 0.546393 H 8.9114265 v -0.769635 h 0.1295356 v 0.114377 q 0.070969,-0.0627 0.1233345,-0.08819 0.053054,-0.02618 0.1026638,-0.02618 0.019982,0 0.029628,0.0014 0.010335,6.89e-4 0.022738,0.0028 z"
         style="font-size:1.41111124px;stroke-width:1.05833328"
         id="path1298"
         inkscape:connector-curvature="0" />
      <path
         d="m 10.054509,34.62379 q 0,0.194303 -0.093706,0.300412 -0.093707,0.10542 -0.2494249,0.10542 -0.1605415,0 -0.2528701,-0.108865 -0.09164,-0.109554 -0.09164,-0.296967 0,-0.192925 0.094396,-0.299723 0.095085,-0.106798 0.250114,-0.106798 0.1557183,0 0.2494249,0.106798 0.093706,0.106109 0.093706,0.299723 z m -0.1336692,0 q 0,-0.149517 -0.054432,-0.221864 -0.054433,-0.07304 -0.1550293,-0.07304 -0.1012859,0 -0.1564074,0.07304 -0.054433,0.07235 -0.054433,0.221864 0,0.144694 0.054433,0.219797 0.055121,0.07441 0.1564074,0.07441 0.099908,0 0.1543402,-0.07304 0.055122,-0.07373 0.055122,-0.221175 z"
         style="font-size:1.41111124px;stroke-width:1.05833328"
         id="path1300"
         inkscape:connector-curvature="0" />
      <path
         d="m 10.598834,35.026866 q -0.100596,0 -0.185346,-0.03376 -0.08406,-0.03376 -0.145383,-0.100597 -0.06132,-0.06683 -0.09508,-0.166742 -0.03376,-0.09991 -0.03376,-0.229444 0,-0.128846 0.03238,-0.22462 0.03307,-0.09577 0.09577,-0.166742 0.06132,-0.0689 0.145383,-0.104731 0.08406,-0.03652 0.188102,-0.03652 0.05168,0 0.09646,0.0076 0.04547,0.0076 0.08406,0.01929 0.03307,0.01034 0.06752,0.02618 0.03514,0.01516 0.0689,0.03376 v 0.164676 h -0.01102 q -0.01792,-0.01654 -0.04616,-0.03996 -0.02825,-0.02343 -0.0689,-0.04616 -0.03927,-0.02136 -0.08544,-0.03514 -0.04616,-0.01378 -0.106798,-0.01378 -0.06546,0 -0.124023,0.02687 -0.05857,0.02687 -0.102664,0.07924 -0.04341,0.05237 -0.06752,0.131602 -0.02412,0.07924 -0.02412,0.178456 0,0.10542 0.02549,0.181901 0.02549,0.07579 0.06959,0.128158 0.04272,0.05099 0.100597,0.07717 0.05788,0.02549 0.122645,0.02549 0.05926,0 0.109554,-0.01447 0.0503,-0.01447 0.08957,-0.03652 0.0379,-0.02136 0.06546,-0.04341 0.02756,-0.02274 0.04341,-0.03858 h 0.01033 v 0.162609 q -0.03376,0.01585 -0.06408,0.03032 -0.02963,0.01447 -0.07235,0.02825 -0.04479,0.01447 -0.08337,0.02205 -0.0379,0.0076 -0.09922,0.0076 z"
         style="font-size:1.41111124px;stroke-width:1.05833328"
         id="path1302"
         inkscape:connector-curvature="0" />
      <path
         d="m 11.66957,34.62379 q 0,0.194303 -0.09371,0.300412 -0.09371,0.10542 -0.249425,0.10542 -0.160541,0 -0.25287,-0.108865 -0.09164,-0.109554 -0.09164,-0.296967 0,-0.192925 0.0944,-0.299723 0.09509,-0.106798 0.250114,-0.106798 0.155719,0 0.249425,0.106798 0.09371,0.106109 0.09371,0.299723 z m -0.13367,0 q 0,-0.149517 -0.05443,-0.221864 -0.05443,-0.07304 -0.15503,-0.07304 -0.101286,0 -0.156407,0.07304 -0.05443,0.07235 -0.05443,0.221864 0,0.144694 0.05443,0.219797 0.05512,0.07441 0.156407,0.07441 0.09991,0 0.154341,-0.07304 0.05512,-0.07373 0.05512,-0.221175 z"
         style="font-size:1.41111124px;stroke-width:1.05833328"
         id="path1304"
         inkscape:connector-curvature="0" />
      <path
         d="m 12.401997,35.008263 h -0.129535 v -0.08544 q -0.05995,0.05237 -0.113688,0.07993 -0.05374,0.02687 -0.11989,0.02687 -0.0503,0 -0.09508,-0.01654 -0.0441,-0.01654 -0.07717,-0.05237 -0.03307,-0.03583 -0.05168,-0.09026 -0.01791,-0.05443 -0.01791,-0.132292 v -0.499539 h 0.129535 v 0.438216 q 0,0.06132 0.0041,0.101975 0.0048,0.03996 0.02067,0.07028 0.01585,0.02963 0.04272,0.04341 0.02756,0.01378 0.07855,0.01378 0.04754,0 0.101286,-0.02687 0.05374,-0.02687 0.09853,-0.06615 v -0.574642 h 0.129535 z"
         style="font-size:1.41111124px;stroke-width:1.05833328"
         id="path1306"
         inkscape:connector-curvature="0" />
      <path
         d="m 13.195748,35.008263 h -0.129535 v -0.438217 q 0,-0.05305 -0.0055,-0.09853 -0.0048,-0.04617 -0.01929,-0.07372 -0.01585,-0.02894 -0.0441,-0.04272 -0.02825,-0.01447 -0.07717,-0.01447 -0.04823,0 -0.09991,0.02618 -0.05099,0.02549 -0.09991,0.06684 v 0.574642 h -0.129536 v -0.769635 h 0.129536 v 0.08544 q 0.05788,-0.05168 0.114377,-0.07924 0.0565,-0.02756 0.1192,-0.02756 0.113689,0 0.177767,0.0751 0.06408,0.07441 0.06408,0.216352 z"
         style="font-size:1.41111124px;stroke-width:1.05833328"
         id="path1308"
         inkscape:connector-curvature="0" />
      <path
         d="m 13.611915,35.023421 q -0.106109,0 -0.165364,-0.05994 -0.05926,-0.06063 -0.05926,-0.190858 V 34.34612 h -0.08751 v -0.107487 h 0.08751 v -0.221175 h 0.129536 v 0.221175 h 0.2384 v 0.107487 h -0.2384 v 0.365869 q 0,0.05857 0.0021,0.09026 0.0021,0.0317 0.01585,0.05926 0.01171,0.02412 0.0379,0.03652 0.02618,0.01171 0.07097,0.01171 0.03169,0 0.06132,-0.009 0.02963,-0.0096 0.04272,-0.01585 h 0.0076 v 0.116444 q -0.03652,0.01034 -0.07441,0.01585 -0.03721,0.0062 -0.0689,0.0062 z"
         style="font-size:1.41111124px;stroke-width:1.05833328"
         id="path1310"
         inkscape:connector-curvature="0" />
      <path
         d="m 14.088716,34.434999 h -0.164675 v -0.196371 h 0.164675 z m 0,0.573264 h -0.164675 v -0.196371 h 0.164675 z"
         style="font-size:1.41111124px;stroke-width:1.05833328"
         id="path1312"
         inkscape:connector-curvature="0" />
      <path
         d="m 14.911405,35.008263 h -0.500228 v -0.104731 h 0.186035 v -0.687641 h -0.186035 v -0.09371 q 0.10542,0 0.155029,-0.02963 0.0503,-0.03032 0.0565,-0.113688 h 0.106798 v 0.924664 h 0.181901 z"
         style="font-size:1.41111124px;stroke-width:1.05833328"
         id="path1314"
         inkscape:connector-curvature="0" />
      <path
         d="m 15.735472,35.008263 h -0.633208 v -0.144005 q 0.06821,-0.06477 0.128846,-0.124024 0.06063,-0.05926 0.118512,-0.123334 0.117133,-0.128847 0.159852,-0.206017 0.04272,-0.07786 0.04272,-0.160541 0,-0.04272 -0.01378,-0.0751 -0.01309,-0.03238 -0.03652,-0.05374 -0.02412,-0.02067 -0.05581,-0.03101 -0.0317,-0.01033 -0.06959,-0.01033 -0.03652,0 -0.07441,0.0096 -0.03721,0.009 -0.07166,0.02274 -0.02894,0.01171 -0.05581,0.02825 -0.02687,0.01654 -0.04341,0.02825 h -0.0076 V 34.02293 q 0.04272,-0.02136 0.118512,-0.04134 0.07648,-0.02067 0.144694,-0.02067 0.143316,0 0.22462,0.07648 0.0813,0.07579 0.0813,0.206016 0,0.05994 -0.01447,0.110932 -0.01378,0.05099 -0.03858,0.0944 -0.02549,0.04479 -0.06132,0.08888 -0.03583,0.0441 -0.07579,0.08682 -0.06477,0.07028 -0.144694,0.146072 -0.07924,0.07579 -0.12678,0.119889 h 0.504362 z"
         style="font-size:1.41111124px;stroke-width:1.05833328"
         id="path1316"
         inkscape:connector-curvature="0" />
    </g>
    <g
       aria-label="LeadingSetBits32 : 0x70123456"
       style="font-style:normal;font-variant:normal;font-weight:normal;font-stretch:normal;font-size:1.41111147px;line-height:1.25;font-family:Tahoma;-inkscape-font-specification:Tahoma;letter-spacing:0px;word-spacing:0px;fill:#000000;fill-opacity:1;stroke:none;stroke-width:1.05833328"
       id="text1219">
      <path
         d="m -2.6424022,41.712688 h -1.4270976 v -2.46228 h 0.3274224 v 2.171236 h 1.0996752 z"
         style="stroke-width:2.53999996"
         id="path1225"
         inkscape:connector-curvature="0" />
      <path
         d="m -1.6055662,41.755681 q -0.4415232,0 -0.6862632,-0.248047 -0.243087,-0.249701 -0.243087,-0.70776 0,-0.451445 0.236472,-0.717682 0.236472,-0.26789 0.6184632,-0.26789 0.1719846,0 0.3042696,0.04961 0.132288,0.04961 0.231504,0.155448 0.099216,0.10584 0.15213604,0.259622 0.05292,0.152136 0.05292,0.373724 v 0.168672 H -2.219074 q 0,0.322461 0.162048,0.492787 0.162048,0.170328 0.4481376,0.170328 0.102528,0 0.200088,-0.02304 0.099216,-0.02304 0.178584,-0.05954 0.084336,-0.03804 0.142224,-0.07277 0.057864,-0.03638 0.095904,-0.0678 h 0.01824 v 0.338997 q -0.054576,0.0216 -0.1356,0.05458 -0.081024,0.03142 -0.145512,0.04961 -0.09096,0.02479 -0.16536,0.03804 -0.072768,0.0132 -0.185208,0.0132 z m 0.3638016,-1.172433 q -0.00336,-0.125688 -0.02976,-0.216624 -0.026472,-0.09096 -0.076056,-0.153792 -0.054576,-0.06946 -0.140568,-0.10584 -0.084336,-0.03638 -0.210024,-0.03638 -0.124032,0 -0.211656,0.03804 -0.085992,0.03638 -0.157104,0.107496 -0.069456,0.07277 -0.10584,0.162048 -0.036384,0.08765 -0.046296,0.205056 z"
         style="stroke-width:2.53999996"
         id="path1227"
         inkscape:connector-curvature="0" />
      <path
         d="m 0.41022744,41.257933 v -0.51263 q -0.110784,0.0098 -0.2811192,0.0281 -0.168672,0.01656 -0.2728512,0.04795 -0.124032,0.03804 -0.205056,0.117408 -0.081024,0.07771 -0.081024,0.21828 0,0.15876 0.089304,0.239784 0.089304,0.08102 0.261276,0.08102 0.147168,0 0.2662392,-0.06283 0.119064,-0.06449 0.223248,-0.157104 z m 0,0.257969 q -0.03804,0.0281 -0.102528,0.07937 -0.062832,0.04961 -0.122376,0.07937 -0.08268,0.04301 -0.160416,0.06614 -0.076056,0.02304 -0.214968,0.02304 -0.114096,0 -0.216624,-0.04298 -0.102528,-0.04298 -0.18024,-0.12072 -0.074424,-0.07606 -0.119064,-0.186864 -0.04464,-0.11244 -0.04464,-0.236472 0,-0.191832 0.081024,-0.325766 0.081024,-0.1356 0.2563152,-0.214968 0.155448,-0.07111 0.3671088,-0.09756 0.211656,-0.0281 0.4564056,-0.04133 v -0.05954 q 0,-0.109152 -0.033072,-0.175296 -0.033072,-0.0678 -0.092616,-0.104184 -0.059544,-0.03804 -0.145512,-0.04961 -0.085992,-0.0132 -0.176928,-0.0132 -0.107496,0 -0.253008,0.03307 -0.145512,0.03142 -0.2910408,0.09259 h -0.01824 v -0.315845 q 0.085992,-0.02482 0.2463936,-0.05458 0.160392,-0.02976 0.3175008,-0.02976 0.190176,0 0.320808,0.02976 0.130632,0.02976 0.234816,0.107496 0.100872,0.07606 0.15048,0.196776 0.049608,0.12072 0.049608,0.294348 v 1.263386 h -0.3092328 z"
         style="stroke-width:2.53999996"
         id="path1229"
         inkscape:connector-curvature="0" />
      <path
         d="m 2.5798106,41.712688 h -0.310884 v -0.18852 q -0.072768,0.06118 -0.125688,0.100872 -0.05292,0.0397 -0.1240326,0.07277 -0.066144,0.03142 -0.1372554,0.04795 -0.071112,0.01824 -0.16536,0.01824 -0.15048,0 -0.2794656,-0.06283 -0.12732,-0.06283 -0.2166246,-0.183552 -0.09096,-0.122376 -0.140568,-0.300963 -0.049608,-0.18024 -0.049608,-0.413412 0,-0.243086 0.062832,-0.420026 0.062832,-0.178584 0.17364,-0.310884 0.100872,-0.12072 0.2430864,-0.18852 0.143856,-0.06946 0.3009648,-0.06946 0.138912,0 0.2414304,0.03142 0.102528,0.02976 0.216624,0.09425 v -0.800364 h 0.310884 z m -0.310884,-0.449794 v -1.064947 q -0.115752,-0.05623 -0.208368,-0.07771 -0.09096,-0.0216 -0.198432,-0.0216 -0.2397846,0 -0.3753774,0.18024 -0.1356,0.178584 -0.1356,0.517591 0,0.325769 0.104184,0.499402 0.104184,0.171984 0.3340368,0.171984 0.122376,0 0.2463936,-0.05458 0.124032,-0.05623 0.23316,-0.15048 z"
         style="stroke-width:2.53999996"
         id="path1231"
         inkscape:connector-curvature="0" />
      <path
         d="M 3.347105,41.712688 H 3.036218 v -1.847124 h 0.310887 z m 0.0216,-2.156355 h -0.35388 v -0.322461 h 0.35388 z"
         style="stroke-width:2.53999996"
         id="path1233"
         inkscape:connector-curvature="0" />
      <path
         d="M 5.2554122,41.712688 H 4.9445258 v -1.051721 q 0,-0.12732 -0.0132,-0.236472 -0.01152,-0.110784 -0.046296,-0.176928 -0.03804,-0.06946 -0.10584,-0.102528 -0.0678,-0.03473 -0.185208,-0.03473 -0.115752,0 -0.239784,0.06283 -0.122376,0.06118 -0.239784,0.160416 V 41.7127 h -0.310884 v -1.847124 h 0.310884 v 0.205056 q 0.138912,-0.124032 0.2745072,-0.190176 0.1356,-0.06614 0.28608,-0.06614 0.2728512,0 0.4266408,0.18024 0.153792,0.178584 0.153792,0.519244 z"
         style="stroke-width:2.53999996"
         id="path1235"
         inkscape:connector-curvature="0" />
      <path
         d="m 6.8065322,41.211632 v -1.013685 q -0.115752,-0.05623 -0.214968,-0.07937 -0.09756,-0.02479 -0.19512,-0.02479 -0.236472,0 -0.3720696,0.17364 -0.1356,0.17364 -0.1356,0.497748 0,0.307577 0.102528,0.467981 0.104184,0.160392 0.3356904,0.160392 0.12072,0 0.2480472,-0.04795 0.128976,-0.04795 0.231504,-0.133944 z m -1.045104,0.797057 q 0.031416,0.0132 0.092616,0.03473 0.061176,0.02304 0.138912,0.04298 0.085992,0.0216 0.15876,0.03473 0.072768,0.0132 0.15876,0.0132 0.14388,0 0.2430864,-0.03804 0.100872,-0.03804 0.157104,-0.10584 0.05292,-0.0678 0.074424,-0.157104 0.0216,-0.0893 0.0216,-0.2034 v -0.162048 q -0.125664,0.109128 -0.2463936,0.162048 -0.12072,0.05126 -0.302616,0.05126 -0.3158472,0 -0.5027088,-0.234816 -0.186864,-0.234816 -0.186864,-0.674688 0,-0.229848 0.064488,-0.406797 0.064488,-0.178584 0.17364,-0.302619 0.104184,-0.119064 0.2463936,-0.183552 0.142224,-0.06449 0.2943504,-0.06449 0.143856,0 0.2480472,0.03473 0.10584,0.03307 0.211656,0.0959 l 0.01824,-0.07937 h 0.2926968 v 1.63711 q 0,0.469637 -0.205056,0.68957 -0.205056,0.219936 -0.6267312,0.219936 -0.1356,0 -0.277812,-0.0216 -0.140568,-0.0216 -0.2629296,-0.05789 v -0.323952 z"
         style="stroke-width:2.53999996"
         id="path1237"
         inkscape:connector-curvature="0" />
      <path
         d="m 8.278277,41.757335 q -0.2678904,0 -0.4564056,-0.05458 -0.186864,-0.05623 -0.3522264,-0.137256 v -0.410105 h 0.02304 q 0.162048,0.152136 0.3671088,0.236472 0.205056,0.08268 0.3952224,0.08268 0.2711975,0 0.4101047,-0.11244 0.138912,-0.114096 0.138912,-0.299311 0,-0.147168 -0.072768,-0.239784 -0.072768,-0.09262 -0.231504,-0.137256 -0.114096,-0.03307 -0.2083679,-0.05458 -0.094248,-0.0216 -0.236472,-0.05789 -0.12732,-0.03307 -0.228192,-0.08434 -0.100872,-0.05126 -0.178584,-0.133944 -0.076056,-0.08102 -0.119064,-0.190176 -0.041328,-0.110784 -0.041328,-0.254662 0,-0.299311 0.23316,-0.501055 0.23316,-0.2034 0.5953104,-0.2034 0.2067119,0 0.3902615,0.04135 0.185208,0.04133 0.3423048,0.117408 v 0.391915 h -0.024816 q -0.117408,-0.107496 -0.3009648,-0.186864 -0.183552,-0.08102 -0.3852983,-0.08102 -0.228192,0 -0.3687648,0.107496 -0.140568,0.10584 -0.140568,0.279466 0,0.157104 0.08268,0.249701 0.08268,0.09262 0.239784,0.1356 0.104184,0.0281 0.2546591,0.06449 0.15048,0.03473 0.2497008,0.06449 0.2546616,0.07771 0.372072,0.234816 0.117408,0.157104 0.117408,0.386952 0,0.143856 -0.059544,0.284428 -0.057864,0.140568 -0.163704,0.238128 -0.119064,0.107496 -0.2695464,0.16536 -0.148824,0.05786 -0.3737231,0.05786 z"
         style="stroke-width:2.53999996"
         id="path1239"
         inkscape:connector-curvature="0" />
      <path
         d="m 10.254384,41.755681 q -0.4415231,0 -0.6862631,-0.248047 -0.2430864,-0.249701 -0.2430864,-0.70776 0,-0.451445 0.236472,-0.717682 0.236472,-0.26789 0.6184635,-0.26789 0.171984,0 0.304272,0.04961 0.132288,0.04961 0.231504,0.155448 0.09922,0.10584 0.152136,0.259622 0.05292,0.152136 0.05292,0.373724 v 0.168672 H 9.6408793 q 0,0.322461 0.162048,0.492787 0.162048,0.170328 0.4481377,0.170328 0.102528,0 0.200088,-0.02304 0.09922,-0.02304 0.178584,-0.05954 0.08434,-0.03804 0.142224,-0.07277 0.05789,-0.03638 0.0959,-0.0678 h 0.01824 v 0.338997 q -0.05458,0.0216 -0.1356,0.05458 -0.08102,0.03142 -0.145512,0.04961 -0.09096,0.02479 -0.16536,0.03804 -0.07277,0.0132 -0.185208,0.0132 z m 0.363802,-1.172433 q -0.0034,-0.125688 -0.02976,-0.216624 -0.02645,-0.09096 -0.07608,-0.153792 -0.05458,-0.06946 -0.140568,-0.10584 -0.08434,-0.03638 -0.210024,-0.03638 -0.124032,0 -0.2116563,0.03804 -0.085992,0.03638 -0.157104,0.107496 -0.069456,0.07277 -0.10584,0.162048 -0.036384,0.08765 -0.046296,0.205056 z"
         style="stroke-width:2.53999996"
         id="path1241"
         inkscape:connector-curvature="0" />
      <path
         d="m 11.797236,41.749067 q -0.254662,0 -0.396876,-0.143856 -0.142224,-0.145512 -0.142224,-0.458059 v -1.023608 h -0.210024 v -0.257968 h 0.210024 v -0.53082 h 0.310884 v 0.53082 h 0.572162 v 0.257968 H 11.56902 v 0.878086 q 0,0.140568 0.005,0.216624 0.005,0.07606 0.03804,0.142224 0.0281,0.05789 0.09096,0.08765 0.06283,0.0281 0.170328,0.0281 0.07606,0 0.147168,-0.0216 0.07111,-0.02304 0.102528,-0.03804 h 0.01824 v 0.279466 q -0.08765,0.02482 -0.178584,0.03804 -0.0893,0.01488 -0.16536,0.01488 z"
         style="stroke-width:2.53999996"
         id="path1243"
         inkscape:connector-curvature="0" />
      <path
         d="m 14.064384,40.956971 q 0,0.183552 -0.06946,0.324115 -0.06946,0.140568 -0.186864,0.231504 -0.138912,0.109152 -0.297655,0.155448 -0.15876,0.04464 -0.410105,0.04464 h -0.706106 v -2.46228 h 0.653188 q 0.26293,0 0.393569,0.01824 0.132288,0.01656 0.253008,0.08102 0.132288,0.07111 0.193464,0.186864 0.06118,0.114096 0.06118,0.269544 0,0.17364 -0.09262,0.310886 -0.09096,0.137256 -0.253008,0.214968 v 0.0132 q 0.219936,0.05952 0.340651,0.21828 0.12072,0.157104 0.12072,0.393569 z m -0.456406,-1.104636 q 0,-0.0893 -0.02976,-0.153792 -0.02976,-0.06614 -0.0959,-0.104184 -0.07937,-0.04464 -0.176952,-0.05458 -0.09756,-0.0098 -0.269544,-0.0098 h -0.314191 v 0.720991 h 0.37207 q 0.153792,0 0.22656,-0.01488 0.07277,-0.01656 0.15048,-0.06614 0.07442,-0.04795 0.10584,-0.125688 0.03142,-0.07771 0.03142,-0.191832 z M 13.72373,40.9702 q 0,-0.138912 -0.0397,-0.228192 -0.0397,-0.09096 -0.160416,-0.153792 -0.07771,-0.04135 -0.170328,-0.05292 -0.09096,-0.01152 -0.259622,-0.01152 h -0.37207 v 0.909504 h 0.266237 q 0.214968,0 0.338998,-0.01992 0.124032,-0.01992 0.21828,-0.08434 0.09259,-0.06449 0.1356,-0.145512 0.04298,-0.08268 0.04298,-0.213312 z"
         style="stroke-width:2.53999996"
         id="path1245"
         inkscape:connector-curvature="0" />
      <path
         d="m 14.684503,41.712688 h -0.310886 v -1.847124 h 0.310886 z m 0.0216,-2.156355 h -0.35388 v -0.322461 h 0.35388 z"
         style="stroke-width:2.53999996"
         id="path1247"
         inkscape:connector-curvature="0" />
      <path
         d="m 15.699842,41.749067 q -0.254661,0 -0.396876,-0.143856 -0.142224,-0.145512 -0.142224,-0.458059 v -1.023608 h -0.210024 v -0.257968 h 0.210024 v -0.53082 h 0.310887 v 0.53082 h 0.572162 v 0.257968 h -0.572162 v 0.878086 q 0,0.140568 0.005,0.216624 0.005,0.07606 0.03804,0.142224 0.0281,0.05789 0.09096,0.08765 0.06283,0.0281 0.170328,0.0281 0.07606,0 0.147168,-0.0216 0.07111,-0.02304 0.102528,-0.03804 h 0.01824 v 0.279466 q -0.08765,0.02482 -0.178584,0.03804 -0.0893,0.01488 -0.16536,0.01488 z"
         style="stroke-width:2.53999996"
         id="path1249"
         inkscape:connector-curvature="0" />
      <path
         d="m 16.771404,41.757335 q -0.185208,0 -0.347268,-0.04961 -0.160392,-0.04961 -0.266237,-0.10584 v -0.348919 h 0.01656 q 0.0397,0.03142 0.09262,0.06946 0.05458,0.03804 0.143856,0.07937 0.07937,0.03638 0.17364,0.06449 0.0959,0.0281 0.198432,0.0281 0.07442,0 0.15876,-0.01656 0.08434,-0.01824 0.125664,-0.04464 0.05789,-0.03804 0.08268,-0.08102 0.02645,-0.04298 0.02645,-0.128976 0,-0.110784 -0.06118,-0.167016 -0.05954,-0.05623 -0.213312,-0.09425 -0.05954,-0.01488 -0.155448,-0.03473 -0.0959,-0.01992 -0.176928,-0.04301 -0.211656,-0.06118 -0.307577,-0.18852 -0.0959,-0.128976 -0.0959,-0.310887 0,-0.249701 0.18852,-0.406797 0.18852,-0.157104 0.501056,-0.157104 0.153792,0 0.30923,0.03804 0.155448,0.03804 0.261276,0.0959 v 0.332383 h -0.01656 q -0.119064,-0.09425 -0.266237,-0.148824 -0.145512,-0.05458 -0.29435,-0.05458 -0.153792,0 -0.259623,0.06449 -0.10584,0.06449 -0.10584,0.195144 0,0.115752 0.06283,0.17364 0.06283,0.05623 0.201744,0.09259 0.06946,0.01824 0.153792,0.03638 0.08599,0.01656 0.18024,0.0397 0.205056,0.05126 0.30758,0.170328 0.104184,0.119064 0.104184,0.324113 0,0.119064 -0.04795,0.22656 -0.0463,0.10584 -0.137256,0.181896 -0.09922,0.08268 -0.224904,0.125688 -0.124032,0.04298 -0.312538,0.04298 z"
         style="stroke-width:2.53999996"
         id="path1251"
         inkscape:connector-curvature="0" />
      <path
         d="m 18.111103,40.94217 q -0.05803,0 -0.116088,0.01392 -0.05803,0.01392 -0.113928,0.03655 -0.0516,0.0216 -0.09029,0.04514 -0.03763,0.02376 -0.0677,0.04406 h -0.01296 v -0.2268 q 0.06986,-0.03761 0.189168,-0.0677 0.120384,-0.03118 0.228936,-0.03118 0.108552,0 0.189168,0.02256 0.0817,0.0216 0.147264,0.0677 0.07094,0.0516 0.106416,0.12468 0.03655,0.0731 0.03655,0.170904 0,0.132216 -0.08707,0.232176 -0.08707,0.09996 -0.208512,0.12684 v 0.01512 q 0.05052,0.0096 0.107496,0.03331 0.05803,0.02376 0.107496,0.06986 0.04944,0.04622 0.08062,0.119304 0.03118,0.07202 0.03118,0.17628 0,0.108552 -0.03763,0.19992 -0.03655,0.09029 -0.104256,0.160152 -0.06986,0.07308 -0.168744,0.110712 -0.09888,0.03763 -0.22464,0.03763 -0.120384,0 -0.238632,-0.02902 -0.118224,-0.02902 -0.19884,-0.06986 v -0.2268 h 0.01512 q 0.06773,0.04944 0.181656,0.09458 0.113928,0.04514 0.22788,0.04514 0.06557,0 0.131136,-0.0204 0.06665,-0.0216 0.110712,-0.06878 0.04301,-0.0473 0.06557,-0.104256 0.02256,-0.05698 0.02256,-0.144024 0,-0.08707 -0.0258,-0.142968 -0.02472,-0.0559 -0.06986,-0.08813 -0.04514,-0.03226 -0.107496,-0.04406 -0.06127,-0.01296 -0.133296,-0.01296 h -0.09137 v -0.17844 h 0.07094 q 0.145104,0 0.235392,-0.06878 0.09137,-0.06878 0.09137,-0.19992 0,-0.06019 -0.02376,-0.103176 -0.02376,-0.04406 -0.06019,-0.06986 -0.04085,-0.02796 -0.09029,-0.03869 -0.04944,-0.0108 -0.105336,-0.0108 z"
         style="font-size:0.91722244px;baseline-shift:sub;stroke-width:2.53999996"
         id="path1253"
         inkscape:connector-curvature="0" />
      <path
         d="m 19.870668,42.39002 h -0.987804 v -0.22464 q 0.106416,-0.10104 0.201,-0.193488 0.09458,-0.09245 0.184872,-0.192408 0.182736,-0.201 0.24937,-0.321386 0.06665,-0.121464 0.06665,-0.250445 0,-0.06665 -0.0216,-0.117168 -0.0204,-0.05052 -0.05698,-0.08383 -0.03763,-0.03226 -0.08707,-0.04836 -0.04944,-0.01608 -0.108552,-0.01608 -0.05698,0 -0.116088,0.01512 -0.05806,0.01392 -0.111792,0.03547 -0.04514,0.01824 -0.08707,0.04406 -0.04193,0.0258 -0.0677,0.04406 h -0.01176 v -0.22788 q 0.06665,-0.03331 0.184872,-0.06449 0.119304,-0.03226 0.22572,-0.03226 0.223584,0 0.350407,0.119304 0.12684,0.118224 0.12684,0.321387 0,0.0935 -0.02256,0.173064 -0.0216,0.07954 -0.06019,0.147264 -0.03977,0.06986 -0.09566,0.138648 -0.0559,0.06878 -0.118224,0.135432 -0.10104,0.109632 -0.22572,0.22788 -0.1236,0.118224 -0.197784,0.187032 h 0.786804 z"
         style="font-size:0.91722244px;baseline-shift:sub;stroke-width:2.53999996"
         id="path1255"
         inkscape:connector-curvature="0" />
      <path
         d="m 21.824947,40.336854 h -0.39522 v -0.47129 h 0.39522 z m 0,1.375834 h -0.39522 v -0.471291 h 0.39522 z"
         style="stroke-width:2.53999996"
         id="path1257"
         inkscape:connector-curvature="0" />
      <path
         d="m 24.994987,40.48072 q 0,0.663112 -0.193488,0.973999 -0.191832,0.30923 -0.593659,0.30923 -0.406797,0 -0.596966,-0.315845 -0.190176,-0.315847 -0.190176,-0.964077 0,-0.666418 0.191832,-0.973997 0.193464,-0.309233 0.595313,-0.309233 0.406797,0 0.596966,0.319155 0.190176,0.319154 0.190178,0.960768 z m -0.423333,0.750756 q 0.04795,-0.122376 0.0678,-0.309233 0.01992,-0.186864 0.01992,-0.441523 0,-0.253008 -0.01992,-0.43987 -0.01992,-0.186864 -0.06946,-0.310884 -0.04961,-0.125688 -0.137256,-0.190176 -0.08599,-0.06614 -0.224904,-0.06614 -0.137256,0 -0.22656,0.06614 -0.08765,0.06449 -0.138912,0.193488 -0.04961,0.125688 -0.0678,0.317498 -0.01824,0.191832 -0.01824,0.433256 0,0.257968 0.01488,0.431601 0.01656,0.17364 0.06946,0.310887 0.04795,0.12732 0.1356,0.196776 0.0893,0.0678 0.231504,0.0678 0.137256,0 0.224904,-0.06449 0.0893,-0.06614 0.138912,-0.19512 z"
         style="stroke-width:2.53999996"
         id="path1259"
         inkscape:connector-curvature="0" />
      <path
         d="m 26.795806,41.712688 h -0.381991 l -0.448138,-0.697839 -0.461369,0.697839 h -0.352226 l 0.641616,-0.916121 -0.635002,-0.931003 h 0.381994 l 0.44483,0.691224 0.456406,-0.691224 h 0.35388 l -0.638307,0.909506 z"
         style="stroke-width:2.53999996"
         id="path1261"
         inkscape:connector-curvature="0" />
      <path
         d="m 30.37926,40.48072 q 0,0.663112 -0.193488,0.973999 -0.191832,0.30923 -0.593659,0.30923 -0.406795,0 -0.596966,-0.315845 -0.190176,-0.315847 -0.190176,-0.964077 0,-0.666418 0.191832,-0.973997 0.193488,-0.309233 0.595312,-0.309233 0.406798,0 0.596967,0.319155 0.190176,0.319154 0.190176,0.960768 z m -0.423333,0.750756 q 0.04795,-0.122376 0.0678,-0.309233 0.01992,-0.186864 0.01992,-0.441523 0,-0.253008 -0.01992,-0.43987 -0.01992,-0.186864 -0.06946,-0.310884 -0.04961,-0.125688 -0.137256,-0.190176 -0.08599,-0.06614 -0.224904,-0.06614 -0.137256,0 -0.22656,0.06614 -0.08765,0.06449 -0.138912,0.193488 -0.04961,0.125688 -0.0678,0.317498 -0.01824,0.191832 -0.01824,0.433256 0,0.257968 0.01488,0.431601 0.01656,0.17364 0.06946,0.310887 0.04795,0.12732 0.1356,0.196776 0.0893,0.0678 0.231504,0.0678 0.137256,0 0.224904,-0.06449 0.0893,-0.06614 0.138912,-0.19512 z"
         style="stroke-width:2.53999996"
         id="path1265"
         inkscape:connector-curvature="0" />
      <path
         d="m 32.094091,41.712688 h -1.200547 v -0.251355 h 0.446484 v -1.650338 h -0.446484 v -0.224904 q 0.253008,0 0.37207,-0.07111 0.12072,-0.07277 0.1356,-0.272851 h 0.256315 v 2.219193 h 0.436562 z"
         style="stroke-width:2.53999996"
         id="path1267"
         inkscape:connector-curvature="0" />
      <path
         d="m 34.071852,41.712688 h -1.519701 v -0.345612 q 0.163704,-0.155448 0.309232,-0.297658 0.145512,-0.142224 0.284427,-0.296002 0.281119,-0.309232 0.383647,-0.49444 0.102528,-0.186864 0.102528,-0.385301 0,-0.102528 -0.03307,-0.18024 -0.03142,-0.07771 -0.08765,-0.128976 -0.05789,-0.04961 -0.133944,-0.07442 -0.07606,-0.02479 -0.167016,-0.02479 -0.08765,0 -0.178584,0.02304 -0.0893,0.0216 -0.171984,0.05458 -0.06946,0.0281 -0.133944,0.0678 -0.06449,0.0397 -0.104184,0.0678 h -0.01824 v -0.350573 q 0.102528,-0.05126 0.284426,-0.09922 0.183552,-0.04961 0.347266,-0.04961 0.343958,0 0.53909,0.183552 0.19512,0.181896 0.19512,0.494438 0,0.143856 -0.03473,0.266237 -0.03307,0.122376 -0.09262,0.22656 -0.06118,0.107496 -0.147168,0.213312 -0.08599,0.10584 -0.181896,0.208368 -0.155448,0.168672 -0.347265,0.350573 -0.190176,0.181896 -0.30427,0.287734 h 1.210524 z"
         style="stroke-width:2.53999996"
         id="path1269"
         inkscape:connector-curvature="0" />
      <path
         d="m 35.069002,39.485226 q -0.0893,0 -0.178584,0.0216 -0.0893,0.0216 -0.175296,0.05623 -0.07937,0.03307 -0.138912,0.06946 -0.05789,0.03638 -0.104184,0.0678 h -0.01992 v -0.348919 q 0.107496,-0.05789 0.291041,-0.104184 0.185208,-0.04795 0.352226,-0.04795 0.167016,0 0.291043,0.03473 0.125688,0.03307 0.226536,0.104184 0.109152,0.07937 0.163704,0.191832 0.05623,0.11244 0.05623,0.262929 0,0.2034 -0.133944,0.357188 -0.133944,0.153792 -0.320808,0.195144 v 0.02304 q 0.07771,0.01488 0.16536,0.05126 0.0893,0.03638 0.16536,0.107496 0.07606,0.07111 0.124032,0.183552 0.04795,0.110784 0.04795,0.271197 0,0.167016 -0.05789,0.307579 -0.05623,0.138912 -0.160392,0.246394 -0.107496,0.11244 -0.259622,0.170328 -0.152136,0.05789 -0.345612,0.05789 -0.185208,0 -0.367111,-0.04464 -0.181896,-0.04464 -0.305924,-0.107496 v -0.348919 h 0.02304 q 0.104184,0.07606 0.279466,0.145512 0.175296,0.06946 0.350573,0.06946 0.100872,0 0.201744,-0.03142 0.102528,-0.03307 0.170328,-0.10584 0.06614,-0.07277 0.100872,-0.160416 0.03473,-0.08765 0.03473,-0.221592 0,-0.133944 -0.0397,-0.219936 -0.03804,-0.08599 -0.107496,-0.1356 -0.06946,-0.04961 -0.16536,-0.0678 -0.09425,-0.01992 -0.205056,-0.01992 h -0.14056 V 40.24089 h 0.109128 q 0.223248,0 0.362148,-0.10584 0.140568,-0.10584 0.140568,-0.307577 0,-0.09259 -0.03638,-0.15876 -0.03638,-0.0678 -0.09262,-0.107496 -0.06283,-0.04298 -0.138912,-0.05954 -0.07606,-0.01656 -0.162048,-0.01656 z"
         style="stroke-width:2.53999996"
         id="path1271"
         inkscape:connector-curvature="0" />
      <path
         d="m 37.840512,40.86602 h -0.292694 v 0.846668 H 37.230317 V 40.86602 h -1.088098 v -0.347265 l 1.101327,-1.268347 h 0.304272 v 1.351029 h 0.292694 z m -0.610195,-0.264583 v -0.962424 l -0.830129,0.962424 z"
         style="stroke-width:2.53999996"
         id="path1273"
         inkscape:connector-curvature="0" />
      <path
         d="m 39.599988,40.92886 q 0,0.178584 -0.05789,0.330727 -0.05623,0.152136 -0.15876,0.262929 -0.104184,0.11244 -0.259622,0.176952 -0.153792,0.06449 -0.345612,0.06449 -0.176928,0 -0.348919,-0.0397 -0.170328,-0.03804 -0.296004,-0.100872 v -0.348919 h 0.02304 q 0.03804,0.0281 0.109152,0.06449 0.07111,0.03473 0.157104,0.06614 0.09756,0.03473 0.178608,0.05458 0.08102,0.01824 0.181896,0.01824 0.09922,0 0.193488,-0.03473 0.09425,-0.03638 0.162048,-0.115752 0.06118,-0.07277 0.09259,-0.170328 0.03307,-0.09756 0.03307,-0.229848 0,-0.130632 -0.03638,-0.214968 -0.03473,-0.08434 -0.102528,-0.138912 -0.07111,-0.06283 -0.175296,-0.08765 -0.102528,-0.02645 -0.229848,-0.02645 -0.133944,0 -0.269544,0.0216 -0.1356,0.01992 -0.216624,0.03804 v -1.268347 h 1.351029 v 0.289387 h -1.031875 v 0.654845 q 0.05952,-0.0067 0.117408,-0.0098 0.05789,-0.0034 0.10584,-0.0034 0.18852,0 0.319152,0.03142 0.130632,0.03142 0.251354,0.122376 0.122376,0.09259 0.186864,0.231504 0.06614,0.138912 0.06614,0.36215 z"
         style="stroke-width:2.53999996"
         id="path1275"
         inkscape:connector-curvature="0" />
      <path
         d="m 41.518219,40.913975 q 0,0.190176 -0.06283,0.350573 -0.06283,0.160392 -0.168672,0.267892 -0.110784,0.114096 -0.248047,0.17364 -0.137256,0.05789 -0.302616,0.05789 -0.167016,0 -0.304272,-0.05623 -0.1356,-0.05623 -0.239784,-0.167016 -0.12732,-0.133944 -0.200088,-0.357187 -0.07111,-0.224904 -0.07111,-0.552319 0,-0.320808 0.06614,-0.578777 0.06614,-0.259622 0.2034,-0.451445 0.133944,-0.186864 0.345612,-0.29104 0.211656,-0.10584 0.48948,-0.10584 0.08268,0 0.153792,0.0082 0.07111,0.0082 0.125688,0.02645 v 0.315847 h -0.01488 q -0.04464,-0.02482 -0.128976,-0.04464 -0.08434,-0.0216 -0.18024,-0.0216 -0.307579,0 -0.497748,0.208368 -0.18852,0.206712 -0.223248,0.615156 0.117408,-0.08268 0.241433,-0.12732 0.124032,-0.04464 0.271198,-0.04464 0.143856,0 0.251354,0.02976 0.109152,0.0281 0.22656,0.115752 0.1356,0.102528 0.201744,0.259622 0.06614,0.157104 0.06614,0.368763 z m -0.33569,0.0132 q 0,-0.152136 -0.0397,-0.254662 -0.0397,-0.102528 -0.128976,-0.175296 -0.06449,-0.05292 -0.147168,-0.06946 -0.08102,-0.01656 -0.167016,-0.01656 -0.115752,0 -0.224904,0.03473 -0.109152,0.03473 -0.214968,0.100872 -0.0034,0.03638 -0.005,0.07111 -0.0017,0.03307 -0.0017,0.08434 0,0.256315 0.04961,0.413412 0.05126,0.157104 0.125664,0.238128 0.07111,0.07771 0.145512,0.109152 0.07606,0.03142 0.163704,0.03142 0.198432,0 0.320806,-0.142224 0.124032,-0.1422 0.124032,-0.424985 z"
         style="stroke-width:2.53999996"
         id="path1277"
         inkscape:connector-curvature="0" />
      <g
         aria-label="8"
         style="font-style:normal;font-variant:normal;font-weight:normal;font-stretch:normal;font-size:3.34955168px;line-height:1.25;font-family:Tahoma;-inkscape-font-specification:Tahoma;letter-spacing:0px;word-spacing:0px;fill:#000000;fill-opacity:1;stroke:none;stroke-width:0.3323383"
         id="text1396">
        <path
           d="m 28.191722,39.866489 q 0,-0.163552 -0.10958,-0.273132 -0.10958,-0.10958 -0.304207,-0.10958 -0.178272,0 -0.292759,0.09813 -0.112851,0.09813 -0.112851,0.264955 0,0.121029 0.05724,0.20444 0.05888,0.08341 0.175001,0.150468 0.0507,0.0278 0.153739,0.07687 0.104674,0.04907 0.189721,0.07687 0.142291,-0.10958 0.192992,-0.224067 0.0507,-0.116122 0.0507,-0.264955 z m 0.0458,1.220101 q 0,-0.150469 -0.05888,-0.238787 -0.05888,-0.08832 -0.227338,-0.179907 -0.05561,-0.03108 -0.148833,-0.06706 -0.09159,-0.03598 -0.207711,-0.08505 -0.135748,0.08995 -0.207711,0.222431 -0.07196,0.130842 -0.07196,0.299301 0,0.220795 0.132478,0.364722 0.134113,0.143926 0.335282,0.143926 0.206076,0 0.330376,-0.122665 0.1243,-0.124299 0.1243,-0.336917 z m -0.457947,0.703275 q -0.181543,0 -0.330376,-0.05397 -0.148832,-0.05397 -0.253506,-0.155374 -0.103038,-0.09813 -0.15701,-0.232245 -0.05234,-0.135748 -0.05234,-0.286216 0,-0.197899 0.104674,-0.363086 0.106309,-0.166824 0.307478,-0.264955 v -0.0098 q -0.179907,-0.104674 -0.26659,-0.228974 -0.08668,-0.124299 -0.08668,-0.310749 0,-0.274768 0.207712,-0.457947 0.207711,-0.183178 0.526638,-0.183178 0.332011,0 0.531545,0.175001 0.20117,0.173365 0.20117,0.444862 0,0.163552 -0.0965,0.323834 -0.09486,0.160281 -0.274768,0.250235 v 0.0098 q 0.212618,0.09977 0.322198,0.242057 0.10958,0.142291 0.10958,0.366358 0,0.312385 -0.227338,0.523367 -0.225702,0.210983 -0.565891,0.210983 z"
           style="stroke-width:0.3323383"
           id="path1398" />
      </g>
    </g>
  </g>
</svg>
