<?xml version="1.0" encoding="utf-8" standalone="no"?>
<!DOCTYPE svg PUBLIC "-//W3C//DTD SVG 1.1//EN"
  "http://www.w3.org/Graphics/SVG/1.1/DTD/svg11.dtd">
<!-- Created with matplotlib (https://matplotlib.org/) -->
<svg height="360pt" version="1.1" viewBox="0 0 864 360" width="864pt" xmlns="http://www.w3.org/2000/svg" xmlns:xlink="http://www.w3.org/1999/xlink">
 <metadata>
  <rdf:RDF xmlns:cc="http://creativecommons.org/ns#" xmlns:dc="http://purl.org/dc/elements/1.1/" xmlns:rdf="http://www.w3.org/1999/02/22-rdf-syntax-ns#">
   <cc:Work>
    <dc:type rdf:resource="http://purl.org/dc/dcmitype/StillImage"/>
    <dc:date>2021-06-27T15:46:29.331555</dc:date>
    <dc:format>image/svg+xml</dc:format>
    <dc:creator>
     <cc:Agent>
      <dc:title>Matplotlib v3.3.3, https://matplotlib.org/</dc:title>
     </cc:Agent>
    </dc:creator>
   </cc:Work>
  </rdf:RDF>
 </metadata>
 <defs>
  <style type="text/css">*{stroke-linecap:butt;stroke-linejoin:round;}</style>
 </defs>
 <g id="figure_1">
  <g id="patch_1">
   <path d="M 0 360 
L 864 360 
L 864 0 
L 0 0 
z
" style="fill:#ffffff;"/>
  </g>
  <g id="axes_1">
   <g id="patch_2">
    <path d="M 108 320.4 
L 777.6 320.4 
L 777.6 43.2 
L 108 43.2 
z
" style="fill:#ffffff;"/>
   </g>
   <g id="matplotlib.axis_1">
    <g id="xtick_1">
     <g id="line2d_1">
      <path clip-path="url(#pfe284af84e)" d="M 108 320.4 
L 108 43.2 
" style="fill:none;stroke:#b0b0b0;stroke-linecap:square;stroke-width:0.8;"/>
     </g>
     <g id="line2d_2">
      <defs>
       <path d="M 0 0 
L 0 3.5 
" id="m064cef7aa1" style="stroke:#000000;stroke-width:0.8;"/>
      </defs>
      <g>
       <use style="stroke:#000000;stroke-width:0.8;" x="108" xlink:href="#m064cef7aa1" y="320.4"/>
      </g>
     </g>
     <g id="text_1">
      <!-- 0.00 -->
      <g transform="translate(94.640625 336.518125)scale(0.12 -0.12)">
       <defs>
        <path d="M 31.78125 66.40625 
Q 24.171875 66.40625 20.328125 58.90625 
Q 16.5 51.421875 16.5 36.375 
Q 16.5 21.390625 20.328125 13.890625 
Q 24.171875 6.390625 31.78125 6.390625 
Q 39.453125 6.390625 43.28125 13.890625 
Q 47.125 21.390625 47.125 36.375 
Q 47.125 51.421875 43.28125 58.90625 
Q 39.453125 66.40625 31.78125 66.40625 
z
M 31.78125 74.21875 
Q 44.046875 74.21875 50.515625 64.515625 
Q 56.984375 54.828125 56.984375 36.375 
Q 56.984375 17.96875 50.515625 8.265625 
Q 44.046875 -1.421875 31.78125 -1.421875 
Q 19.53125 -1.421875 13.0625 8.265625 
Q 6.59375 17.96875 6.59375 36.375 
Q 6.59375 54.828125 13.0625 64.515625 
Q 19.53125 74.21875 31.78125 74.21875 
z
" id="DejaVuSans-48"/>
        <path d="M 10.6875 12.40625 
L 21 12.40625 
L 21 0 
L 10.6875 0 
z
" id="DejaVuSans-46"/>
       </defs>
       <use xlink:href="#DejaVuSans-48"/>
       <use x="63.623047" xlink:href="#DejaVuSans-46"/>
       <use x="95.410156" xlink:href="#DejaVuSans-48"/>
       <use x="159.033203" xlink:href="#DejaVuSans-48"/>
      </g>
     </g>
    </g>
    <g id="xtick_2">
     <g id="line2d_3">
      <path clip-path="url(#pfe284af84e)" d="M 149.85 320.4 
L 149.85 43.2 
" style="fill:none;stroke:#b0b0b0;stroke-linecap:square;stroke-width:0.8;"/>
     </g>
     <g id="line2d_4">
      <g>
       <use style="stroke:#000000;stroke-width:0.8;" x="149.85" xlink:href="#m064cef7aa1" y="320.4"/>
      </g>
     </g>
     <g id="text_2">
      <!-- 0.25 -->
      <g transform="translate(136.490625 336.518125)scale(0.12 -0.12)">
       <defs>
        <path d="M 19.1875 8.296875 
L 53.609375 8.296875 
L 53.609375 0 
L 7.328125 0 
L 7.328125 8.296875 
Q 12.9375 14.109375 22.625 23.890625 
Q 32.328125 33.6875 34.8125 36.53125 
Q 39.546875 41.84375 41.421875 45.53125 
Q 43.3125 49.21875 43.3125 52.78125 
Q 43.3125 58.59375 39.234375 62.25 
Q 35.15625 65.921875 28.609375 65.921875 
Q 23.96875 65.921875 18.8125 64.3125 
Q 13.671875 62.703125 7.8125 59.421875 
L 7.8125 69.390625 
Q 13.765625 71.78125 18.9375 73 
Q 24.125 74.21875 28.421875 74.21875 
Q 39.75 74.21875 46.484375 68.546875 
Q 53.21875 62.890625 53.21875 53.421875 
Q 53.21875 48.921875 51.53125 44.890625 
Q 49.859375 40.875 45.40625 35.40625 
Q 44.1875 33.984375 37.640625 27.21875 
Q 31.109375 20.453125 19.1875 8.296875 
z
" id="DejaVuSans-50"/>
        <path d="M 10.796875 72.90625 
L 49.515625 72.90625 
L 49.515625 64.59375 
L 19.828125 64.59375 
L 19.828125 46.734375 
Q 21.96875 47.46875 24.109375 47.828125 
Q 26.265625 48.1875 28.421875 48.1875 
Q 40.625 48.1875 47.75 41.5 
Q 54.890625 34.8125 54.890625 23.390625 
Q 54.890625 11.625 47.5625 5.09375 
Q 40.234375 -1.421875 26.90625 -1.421875 
Q 22.3125 -1.421875 17.546875 -0.640625 
Q 12.796875 0.140625 7.71875 1.703125 
L 7.71875 11.625 
Q 12.109375 9.234375 16.796875 8.0625 
Q 21.484375 6.890625 26.703125 6.890625 
Q 35.15625 6.890625 40.078125 11.328125 
Q 45.015625 15.765625 45.015625 23.390625 
Q 45.015625 31 40.078125 35.4375 
Q 35.15625 39.890625 26.703125 39.890625 
Q 22.75 39.890625 18.8125 39.015625 
Q 14.890625 38.140625 10.796875 36.28125 
z
" id="DejaVuSans-53"/>
       </defs>
       <use xlink:href="#DejaVuSans-48"/>
       <use x="63.623047" xlink:href="#DejaVuSans-46"/>
       <use x="95.410156" xlink:href="#DejaVuSans-50"/>
       <use x="159.033203" xlink:href="#DejaVuSans-53"/>
      </g>
     </g>
    </g>
    <g id="xtick_3">
     <g id="line2d_5">
      <path clip-path="url(#pfe284af84e)" d="M 191.7 320.4 
L 191.7 43.2 
" style="fill:none;stroke:#b0b0b0;stroke-linecap:square;stroke-width:0.8;"/>
     </g>
     <g id="line2d_6">
      <g>
       <use style="stroke:#000000;stroke-width:0.8;" x="191.7" xlink:href="#m064cef7aa1" y="320.4"/>
      </g>
     </g>
     <g id="text_3">
      <!-- 0.50 -->
      <g transform="translate(178.340625 336.518125)scale(0.12 -0.12)">
       <use xlink:href="#DejaVuSans-48"/>
       <use x="63.623047" xlink:href="#DejaVuSans-46"/>
       <use x="95.410156" xlink:href="#DejaVuSans-53"/>
       <use x="159.033203" xlink:href="#DejaVuSans-48"/>
      </g>
     </g>
    </g>
    <g id="xtick_4">
     <g id="line2d_7">
      <path clip-path="url(#pfe284af84e)" d="M 233.55 320.4 
L 233.55 43.2 
" style="fill:none;stroke:#b0b0b0;stroke-linecap:square;stroke-width:0.8;"/>
     </g>
     <g id="line2d_8">
      <g>
       <use style="stroke:#000000;stroke-width:0.8;" x="233.55" xlink:href="#m064cef7aa1" y="320.4"/>
      </g>
     </g>
     <g id="text_4">
      <!-- 0.75 -->
      <g transform="translate(220.190625 336.518125)scale(0.12 -0.12)">
       <defs>
        <path d="M 8.203125 72.90625 
L 55.078125 72.90625 
L 55.078125 68.703125 
L 28.609375 0 
L 18.3125 0 
L 43.21875 64.59375 
L 8.203125 64.59375 
z
" id="DejaVuSans-55"/>
       </defs>
       <use xlink:href="#DejaVuSans-48"/>
       <use x="63.623047" xlink:href="#DejaVuSans-46"/>
       <use x="95.410156" xlink:href="#DejaVuSans-55"/>
       <use x="159.033203" xlink:href="#DejaVuSans-53"/>
      </g>
     </g>
    </g>
    <g id="xtick_5">
     <g id="line2d_9">
      <path clip-path="url(#pfe284af84e)" d="M 275.4 320.4 
L 275.4 43.2 
" style="fill:none;stroke:#b0b0b0;stroke-linecap:square;stroke-width:0.8;"/>
     </g>
     <g id="line2d_10">
      <g>
       <use style="stroke:#000000;stroke-width:0.8;" x="275.4" xlink:href="#m064cef7aa1" y="320.4"/>
      </g>
     </g>
     <g id="text_5">
      <!-- 1.00 -->
      <g transform="translate(262.040625 336.518125)scale(0.12 -0.12)">
       <defs>
        <path d="M 12.40625 8.296875 
L 28.515625 8.296875 
L 28.515625 63.921875 
L 10.984375 60.40625 
L 10.984375 69.390625 
L 28.421875 72.90625 
L 38.28125 72.90625 
L 38.28125 8.296875 
L 54.390625 8.296875 
L 54.390625 0 
L 12.40625 0 
z
" id="DejaVuSans-49"/>
       </defs>
       <use xlink:href="#DejaVuSans-49"/>
       <use x="63.623047" xlink:href="#DejaVuSans-46"/>
       <use x="95.410156" xlink:href="#DejaVuSans-48"/>
       <use x="159.033203" xlink:href="#DejaVuSans-48"/>
      </g>
     </g>
    </g>
    <g id="xtick_6">
     <g id="line2d_11">
      <path clip-path="url(#pfe284af84e)" d="M 317.25 320.4 
L 317.25 43.2 
" style="fill:none;stroke:#b0b0b0;stroke-linecap:square;stroke-width:0.8;"/>
     </g>
     <g id="line2d_12">
      <g>
       <use style="stroke:#000000;stroke-width:0.8;" x="317.25" xlink:href="#m064cef7aa1" y="320.4"/>
      </g>
     </g>
     <g id="text_6">
      <!-- 1.25 -->
      <g transform="translate(303.890625 336.518125)scale(0.12 -0.12)">
       <use xlink:href="#DejaVuSans-49"/>
       <use x="63.623047" xlink:href="#DejaVuSans-46"/>
       <use x="95.410156" xlink:href="#DejaVuSans-50"/>
       <use x="159.033203" xlink:href="#DejaVuSans-53"/>
      </g>
     </g>
    </g>
    <g id="xtick_7">
     <g id="line2d_13">
      <path clip-path="url(#pfe284af84e)" d="M 359.1 320.4 
L 359.1 43.2 
" style="fill:none;stroke:#b0b0b0;stroke-linecap:square;stroke-width:0.8;"/>
     </g>
     <g id="line2d_14">
      <g>
       <use style="stroke:#000000;stroke-width:0.8;" x="359.1" xlink:href="#m064cef7aa1" y="320.4"/>
      </g>
     </g>
     <g id="text_7">
      <!-- 1.50 -->
      <g transform="translate(345.740625 336.518125)scale(0.12 -0.12)">
       <use xlink:href="#DejaVuSans-49"/>
       <use x="63.623047" xlink:href="#DejaVuSans-46"/>
       <use x="95.410156" xlink:href="#DejaVuSans-53"/>
       <use x="159.033203" xlink:href="#DejaVuSans-48"/>
      </g>
     </g>
    </g>
    <g id="xtick_8">
     <g id="line2d_15">
      <path clip-path="url(#pfe284af84e)" d="M 400.95 320.4 
L 400.95 43.2 
" style="fill:none;stroke:#b0b0b0;stroke-linecap:square;stroke-width:0.8;"/>
     </g>
     <g id="line2d_16">
      <g>
       <use style="stroke:#000000;stroke-width:0.8;" x="400.95" xlink:href="#m064cef7aa1" y="320.4"/>
      </g>
     </g>
     <g id="text_8">
      <!-- 1.75 -->
      <g transform="translate(387.590625 336.518125)scale(0.12 -0.12)">
       <use xlink:href="#DejaVuSans-49"/>
       <use x="63.623047" xlink:href="#DejaVuSans-46"/>
       <use x="95.410156" xlink:href="#DejaVuSans-55"/>
       <use x="159.033203" xlink:href="#DejaVuSans-53"/>
      </g>
     </g>
    </g>
    <g id="xtick_9">
     <g id="line2d_17">
      <path clip-path="url(#pfe284af84e)" d="M 442.8 320.4 
L 442.8 43.2 
" style="fill:none;stroke:#b0b0b0;stroke-linecap:square;stroke-width:0.8;"/>
     </g>
     <g id="line2d_18">
      <g>
       <use style="stroke:#000000;stroke-width:0.8;" x="442.8" xlink:href="#m064cef7aa1" y="320.4"/>
      </g>
     </g>
     <g id="text_9">
      <!-- 2.00 -->
      <g transform="translate(429.440625 336.518125)scale(0.12 -0.12)">
       <use xlink:href="#DejaVuSans-50"/>
       <use x="63.623047" xlink:href="#DejaVuSans-46"/>
       <use x="95.410156" xlink:href="#DejaVuSans-48"/>
       <use x="159.033203" xlink:href="#DejaVuSans-48"/>
      </g>
     </g>
    </g>
    <g id="xtick_10">
     <g id="line2d_19">
      <path clip-path="url(#pfe284af84e)" d="M 484.65 320.4 
L 484.65 43.2 
" style="fill:none;stroke:#b0b0b0;stroke-linecap:square;stroke-width:0.8;"/>
     </g>
     <g id="line2d_20">
      <g>
       <use style="stroke:#000000;stroke-width:0.8;" x="484.65" xlink:href="#m064cef7aa1" y="320.4"/>
      </g>
     </g>
     <g id="text_10">
      <!-- 2.25 -->
      <g transform="translate(471.290625 336.518125)scale(0.12 -0.12)">
       <use xlink:href="#DejaVuSans-50"/>
       <use x="63.623047" xlink:href="#DejaVuSans-46"/>
       <use x="95.410156" xlink:href="#DejaVuSans-50"/>
       <use x="159.033203" xlink:href="#DejaVuSans-53"/>
      </g>
     </g>
    </g>
    <g id="xtick_11">
     <g id="line2d_21">
      <path clip-path="url(#pfe284af84e)" d="M 526.5 320.4 
L 526.5 43.2 
" style="fill:none;stroke:#b0b0b0;stroke-linecap:square;stroke-width:0.8;"/>
     </g>
     <g id="line2d_22">
      <g>
       <use style="stroke:#000000;stroke-width:0.8;" x="526.5" xlink:href="#m064cef7aa1" y="320.4"/>
      </g>
     </g>
     <g id="text_11">
      <!-- 2.50 -->
      <g transform="translate(513.140625 336.518125)scale(0.12 -0.12)">
       <use xlink:href="#DejaVuSans-50"/>
       <use x="63.623047" xlink:href="#DejaVuSans-46"/>
       <use x="95.410156" xlink:href="#DejaVuSans-53"/>
       <use x="159.033203" xlink:href="#DejaVuSans-48"/>
      </g>
     </g>
    </g>
    <g id="xtick_12">
     <g id="line2d_23">
      <path clip-path="url(#pfe284af84e)" d="M 568.35 320.4 
L 568.35 43.2 
" style="fill:none;stroke:#b0b0b0;stroke-linecap:square;stroke-width:0.8;"/>
     </g>
     <g id="line2d_24">
      <g>
       <use style="stroke:#000000;stroke-width:0.8;" x="568.35" xlink:href="#m064cef7aa1" y="320.4"/>
      </g>
     </g>
     <g id="text_12">
      <!-- 2.75 -->
      <g transform="translate(554.990625 336.518125)scale(0.12 -0.12)">
       <use xlink:href="#DejaVuSans-50"/>
       <use x="63.623047" xlink:href="#DejaVuSans-46"/>
       <use x="95.410156" xlink:href="#DejaVuSans-55"/>
       <use x="159.033203" xlink:href="#DejaVuSans-53"/>
      </g>
     </g>
    </g>
    <g id="xtick_13">
     <g id="line2d_25">
      <path clip-path="url(#pfe284af84e)" d="M 610.2 320.4 
L 610.2 43.2 
" style="fill:none;stroke:#b0b0b0;stroke-linecap:square;stroke-width:0.8;"/>
     </g>
     <g id="line2d_26">
      <g>
       <use style="stroke:#000000;stroke-width:0.8;" x="610.2" xlink:href="#m064cef7aa1" y="320.4"/>
      </g>
     </g>
     <g id="text_13">
      <!-- 3.00 -->
      <g transform="translate(596.840625 336.518125)scale(0.12 -0.12)">
       <defs>
        <path d="M 40.578125 39.3125 
Q 47.65625 37.796875 51.625 33 
Q 55.609375 28.21875 55.609375 21.1875 
Q 55.609375 10.40625 48.1875 4.484375 
Q 40.765625 -1.421875 27.09375 -1.421875 
Q 22.515625 -1.421875 17.65625 -0.515625 
Q 12.796875 0.390625 7.625 2.203125 
L 7.625 11.71875 
Q 11.71875 9.328125 16.59375 8.109375 
Q 21.484375 6.890625 26.8125 6.890625 
Q 36.078125 6.890625 40.9375 10.546875 
Q 45.796875 14.203125 45.796875 21.1875 
Q 45.796875 27.640625 41.28125 31.265625 
Q 36.765625 34.90625 28.71875 34.90625 
L 20.21875 34.90625 
L 20.21875 43.015625 
L 29.109375 43.015625 
Q 36.375 43.015625 40.234375 45.921875 
Q 44.09375 48.828125 44.09375 54.296875 
Q 44.09375 59.90625 40.109375 62.90625 
Q 36.140625 65.921875 28.71875 65.921875 
Q 24.65625 65.921875 20.015625 65.03125 
Q 15.375 64.15625 9.8125 62.3125 
L 9.8125 71.09375 
Q 15.4375 72.65625 20.34375 73.4375 
Q 25.25 74.21875 29.59375 74.21875 
Q 40.828125 74.21875 47.359375 69.109375 
Q 53.90625 64.015625 53.90625 55.328125 
Q 53.90625 49.265625 50.4375 45.09375 
Q 46.96875 40.921875 40.578125 39.3125 
z
" id="DejaVuSans-51"/>
       </defs>
       <use xlink:href="#DejaVuSans-51"/>
       <use x="63.623047" xlink:href="#DejaVuSans-46"/>
       <use x="95.410156" xlink:href="#DejaVuSans-48"/>
       <use x="159.033203" xlink:href="#DejaVuSans-48"/>
      </g>
     </g>
    </g>
    <g id="xtick_14">
     <g id="line2d_27">
      <path clip-path="url(#pfe284af84e)" d="M 652.05 320.4 
L 652.05 43.2 
" style="fill:none;stroke:#b0b0b0;stroke-linecap:square;stroke-width:0.8;"/>
     </g>
     <g id="line2d_28">
      <g>
       <use style="stroke:#000000;stroke-width:0.8;" x="652.05" xlink:href="#m064cef7aa1" y="320.4"/>
      </g>
     </g>
     <g id="text_14">
      <!-- 3.25 -->
      <g transform="translate(638.690625 336.518125)scale(0.12 -0.12)">
       <use xlink:href="#DejaVuSans-51"/>
       <use x="63.623047" xlink:href="#DejaVuSans-46"/>
       <use x="95.410156" xlink:href="#DejaVuSans-50"/>
       <use x="159.033203" xlink:href="#DejaVuSans-53"/>
      </g>
     </g>
    </g>
    <g id="xtick_15">
     <g id="line2d_29">
      <path clip-path="url(#pfe284af84e)" d="M 693.9 320.4 
L 693.9 43.2 
" style="fill:none;stroke:#b0b0b0;stroke-linecap:square;stroke-width:0.8;"/>
     </g>
     <g id="line2d_30">
      <g>
       <use style="stroke:#000000;stroke-width:0.8;" x="693.9" xlink:href="#m064cef7aa1" y="320.4"/>
      </g>
     </g>
     <g id="text_15">
      <!-- 3.50 -->
      <g transform="translate(680.540625 336.518125)scale(0.12 -0.12)">
       <use xlink:href="#DejaVuSans-51"/>
       <use x="63.623047" xlink:href="#DejaVuSans-46"/>
       <use x="95.410156" xlink:href="#DejaVuSans-53"/>
       <use x="159.033203" xlink:href="#DejaVuSans-48"/>
      </g>
     </g>
    </g>
    <g id="xtick_16">
     <g id="line2d_31">
      <path clip-path="url(#pfe284af84e)" d="M 735.75 320.4 
L 735.75 43.2 
" style="fill:none;stroke:#b0b0b0;stroke-linecap:square;stroke-width:0.8;"/>
     </g>
     <g id="line2d_32">
      <g>
       <use style="stroke:#000000;stroke-width:0.8;" x="735.75" xlink:href="#m064cef7aa1" y="320.4"/>
      </g>
     </g>
     <g id="text_16">
      <!-- 3.75 -->
      <g transform="translate(722.390625 336.518125)scale(0.12 -0.12)">
       <use xlink:href="#DejaVuSans-51"/>
       <use x="63.623047" xlink:href="#DejaVuSans-46"/>
       <use x="95.410156" xlink:href="#DejaVuSans-55"/>
       <use x="159.033203" xlink:href="#DejaVuSans-53"/>
      </g>
     </g>
    </g>
    <g id="xtick_17">
     <g id="line2d_33">
      <path clip-path="url(#pfe284af84e)" d="M 777.6 320.4 
L 777.6 43.2 
" style="fill:none;stroke:#b0b0b0;stroke-linecap:square;stroke-width:0.8;"/>
     </g>
     <g id="line2d_34">
      <g>
       <use style="stroke:#000000;stroke-width:0.8;" x="777.6" xlink:href="#m064cef7aa1" y="320.4"/>
      </g>
     </g>
     <g id="text_17">
      <!-- 4.00 -->
      <g transform="translate(764.240625 336.518125)scale(0.12 -0.12)">
       <defs>
        <path d="M 37.796875 64.3125 
L 12.890625 25.390625 
L 37.796875 25.390625 
z
M 35.203125 72.90625 
L 47.609375 72.90625 
L 47.609375 25.390625 
L 58.015625 25.390625 
L 58.015625 17.1875 
L 47.609375 17.1875 
L 47.609375 0 
L 37.796875 0 
L 37.796875 17.1875 
L 4.890625 17.1875 
L 4.890625 26.703125 
z
" id="DejaVuSans-52"/>
       </defs>
       <use xlink:href="#DejaVuSans-52"/>
       <use x="63.623047" xlink:href="#DejaVuSans-46"/>
       <use x="95.410156" xlink:href="#DejaVuSans-48"/>
       <use x="159.033203" xlink:href="#DejaVuSans-48"/>
      </g>
     </g>
    </g>
    <g id="text_18">
     <!-- t -->
     <g transform="translate(440.447812 352.131875)scale(0.12 -0.12)">
      <defs>
       <path d="M 18.3125 70.21875 
L 18.3125 54.6875 
L 36.8125 54.6875 
L 36.8125 47.703125 
L 18.3125 47.703125 
L 18.3125 18.015625 
Q 18.3125 11.328125 20.140625 9.421875 
Q 21.96875 7.515625 27.59375 7.515625 
L 36.8125 7.515625 
L 36.8125 0 
L 27.59375 0 
Q 17.1875 0 13.234375 3.875 
Q 9.28125 7.765625 9.28125 18.015625 
L 9.28125 47.703125 
L 2.6875 47.703125 
L 2.6875 54.6875 
L 9.28125 54.6875 
L 9.28125 70.21875 
z
" id="DejaVuSans-116"/>
      </defs>
      <use xlink:href="#DejaVuSans-116"/>
     </g>
    </g>
   </g>
   <g id="matplotlib.axis_2">
    <g id="ytick_1">
     <g id="line2d_35">
      <path clip-path="url(#pfe284af84e)" d="M 108 320.4 
L 777.6 320.4 
" style="fill:none;stroke:#b0b0b0;stroke-linecap:square;stroke-width:0.8;"/>
     </g>
     <g id="line2d_36">
      <defs>
       <path d="M 0 0 
L -3.5 0 
" id="mb0cc1b7d31" style="stroke:#000000;stroke-width:0.8;"/>
      </defs>
      <g>
       <use style="stroke:#000000;stroke-width:0.8;" x="108" xlink:href="#mb0cc1b7d31" y="320.4"/>
      </g>
     </g>
     <g id="text_19">
      <!-- −0.5 -->
      <g transform="translate(71.860625 324.959063)scale(0.12 -0.12)">
       <defs>
        <path d="M 10.59375 35.5 
L 73.1875 35.5 
L 73.1875 27.203125 
L 10.59375 27.203125 
z
" id="DejaVuSans-8722"/>
       </defs>
       <use xlink:href="#DejaVuSans-8722"/>
       <use x="83.789062" xlink:href="#DejaVuSans-48"/>
       <use x="147.412109" xlink:href="#DejaVuSans-46"/>
       <use x="179.199219" xlink:href="#DejaVuSans-53"/>
      </g>
     </g>
    </g>
    <g id="ytick_2">
     <g id="line2d_37">
      <path clip-path="url(#pfe284af84e)" d="M 108 301.92 
L 777.6 301.92 
" style="fill:none;stroke:#b0b0b0;stroke-linecap:square;stroke-width:0.8;"/>
     </g>
     <g id="line2d_38">
      <g>
       <use style="stroke:#000000;stroke-width:0.8;" x="108" xlink:href="#mb0cc1b7d31" y="301.92"/>
      </g>
     </g>
     <g id="text_20">
      <!-- −0.4 -->
      <g transform="translate(71.860625 306.479062)scale(0.12 -0.12)">
       <use xlink:href="#DejaVuSans-8722"/>
       <use x="83.789062" xlink:href="#DejaVuSans-48"/>
       <use x="147.412109" xlink:href="#DejaVuSans-46"/>
       <use x="179.199219" xlink:href="#DejaVuSans-52"/>
      </g>
     </g>
    </g>
    <g id="ytick_3">
     <g id="line2d_39">
      <path clip-path="url(#pfe284af84e)" d="M 108 283.44 
L 777.6 283.44 
" style="fill:none;stroke:#b0b0b0;stroke-linecap:square;stroke-width:0.8;"/>
     </g>
     <g id="line2d_40">
      <g>
       <use style="stroke:#000000;stroke-width:0.8;" x="108" xlink:href="#mb0cc1b7d31" y="283.44"/>
      </g>
     </g>
     <g id="text_21">
      <!-- −0.3 -->
      <g transform="translate(71.860625 287.999063)scale(0.12 -0.12)">
       <use xlink:href="#DejaVuSans-8722"/>
       <use x="83.789062" xlink:href="#DejaVuSans-48"/>
       <use x="147.412109" xlink:href="#DejaVuSans-46"/>
       <use x="179.199219" xlink:href="#DejaVuSans-51"/>
      </g>
     </g>
    </g>
    <g id="ytick_4">
     <g id="line2d_41">
      <path clip-path="url(#pfe284af84e)" d="M 108 264.96 
L 777.6 264.96 
" style="fill:none;stroke:#b0b0b0;stroke-linecap:square;stroke-width:0.8;"/>
     </g>
     <g id="line2d_42">
      <g>
       <use style="stroke:#000000;stroke-width:0.8;" x="108" xlink:href="#mb0cc1b7d31" y="264.96"/>
      </g>
     </g>
     <g id="text_22">
      <!-- −0.2 -->
      <g transform="translate(71.860625 269.519063)scale(0.12 -0.12)">
       <use xlink:href="#DejaVuSans-8722"/>
       <use x="83.789062" xlink:href="#DejaVuSans-48"/>
       <use x="147.412109" xlink:href="#DejaVuSans-46"/>
       <use x="179.199219" xlink:href="#DejaVuSans-50"/>
      </g>
     </g>
    </g>
    <g id="ytick_5">
     <g id="line2d_43">
      <path clip-path="url(#pfe284af84e)" d="M 108 246.48 
L 777.6 246.48 
" style="fill:none;stroke:#b0b0b0;stroke-linecap:square;stroke-width:0.8;"/>
     </g>
     <g id="line2d_44">
      <g>
       <use style="stroke:#000000;stroke-width:0.8;" x="108" xlink:href="#mb0cc1b7d31" y="246.48"/>
      </g>
     </g>
     <g id="text_23">
      <!-- −0.1 -->
      <g transform="translate(71.860625 251.039062)scale(0.12 -0.12)">
       <use xlink:href="#DejaVuSans-8722"/>
       <use x="83.789062" xlink:href="#DejaVuSans-48"/>
       <use x="147.412109" xlink:href="#DejaVuSans-46"/>
       <use x="179.199219" xlink:href="#DejaVuSans-49"/>
      </g>
     </g>
    </g>
    <g id="ytick_6">
     <g id="line2d_45">
      <path clip-path="url(#pfe284af84e)" d="M 108 228 
L 777.6 228 
" style="fill:none;stroke:#b0b0b0;stroke-linecap:square;stroke-width:0.8;"/>
     </g>
     <g id="line2d_46">
      <g>
       <use style="stroke:#000000;stroke-width:0.8;" x="108" xlink:href="#mb0cc1b7d31" y="228"/>
      </g>
     </g>
     <g id="text_24">
      <!-- 0.0 -->
      <g transform="translate(81.91625 232.559063)scale(0.12 -0.12)">
       <use xlink:href="#DejaVuSans-48"/>
       <use x="63.623047" xlink:href="#DejaVuSans-46"/>
       <use x="95.410156" xlink:href="#DejaVuSans-48"/>
      </g>
     </g>
    </g>
    <g id="ytick_7">
     <g id="line2d_47">
      <path clip-path="url(#pfe284af84e)" d="M 108 209.52 
L 777.6 209.52 
" style="fill:none;stroke:#b0b0b0;stroke-linecap:square;stroke-width:0.8;"/>
     </g>
     <g id="line2d_48">
      <g>
       <use style="stroke:#000000;stroke-width:0.8;" x="108" xlink:href="#mb0cc1b7d31" y="209.52"/>
      </g>
     </g>
     <g id="text_25">
      <!-- 0.1 -->
      <g transform="translate(81.91625 214.079063)scale(0.12 -0.12)">
       <use xlink:href="#DejaVuSans-48"/>
       <use x="63.623047" xlink:href="#DejaVuSans-46"/>
       <use x="95.410156" xlink:href="#DejaVuSans-49"/>
      </g>
     </g>
    </g>
    <g id="ytick_8">
     <g id="line2d_49">
      <path clip-path="url(#pfe284af84e)" d="M 108 191.04 
L 777.6 191.04 
" style="fill:none;stroke:#b0b0b0;stroke-linecap:square;stroke-width:0.8;"/>
     </g>
     <g id="line2d_50">
      <g>
       <use style="stroke:#000000;stroke-width:0.8;" x="108" xlink:href="#mb0cc1b7d31" y="191.04"/>
      </g>
     </g>
     <g id="text_26">
      <!-- 0.2 -->
      <g transform="translate(81.91625 195.599063)scale(0.12 -0.12)">
       <use xlink:href="#DejaVuSans-48"/>
       <use x="63.623047" xlink:href="#DejaVuSans-46"/>
       <use x="95.410156" xlink:href="#DejaVuSans-50"/>
      </g>
     </g>
    </g>
    <g id="ytick_9">
     <g id="line2d_51">
      <path clip-path="url(#pfe284af84e)" d="M 108 172.56 
L 777.6 172.56 
" style="fill:none;stroke:#b0b0b0;stroke-linecap:square;stroke-width:0.8;"/>
     </g>
     <g id="line2d_52">
      <g>
       <use style="stroke:#000000;stroke-width:0.8;" x="108" xlink:href="#mb0cc1b7d31" y="172.56"/>
      </g>
     </g>
     <g id="text_27">
      <!-- 0.3 -->
      <g transform="translate(81.91625 177.119063)scale(0.12 -0.12)">
       <use xlink:href="#DejaVuSans-48"/>
       <use x="63.623047" xlink:href="#DejaVuSans-46"/>
       <use x="95.410156" xlink:href="#DejaVuSans-51"/>
      </g>
     </g>
    </g>
    <g id="ytick_10">
     <g id="line2d_53">
      <path clip-path="url(#pfe284af84e)" d="M 108 154.08 
L 777.6 154.08 
" style="fill:none;stroke:#b0b0b0;stroke-linecap:square;stroke-width:0.8;"/>
     </g>
     <g id="line2d_54">
      <g>
       <use style="stroke:#000000;stroke-width:0.8;" x="108" xlink:href="#mb0cc1b7d31" y="154.08"/>
      </g>
     </g>
     <g id="text_28">
      <!-- 0.4 -->
      <g transform="translate(81.91625 158.639063)scale(0.12 -0.12)">
       <use xlink:href="#DejaVuSans-48"/>
       <use x="63.623047" xlink:href="#DejaVuSans-46"/>
       <use x="95.410156" xlink:href="#DejaVuSans-52"/>
      </g>
     </g>
    </g>
    <g id="ytick_11">
     <g id="line2d_55">
      <path clip-path="url(#pfe284af84e)" d="M 108 135.6 
L 777.6 135.6 
" style="fill:none;stroke:#b0b0b0;stroke-linecap:square;stroke-width:0.8;"/>
     </g>
     <g id="line2d_56">
      <g>
       <use style="stroke:#000000;stroke-width:0.8;" x="108" xlink:href="#mb0cc1b7d31" y="135.6"/>
      </g>
     </g>
     <g id="text_29">
      <!-- 0.5 -->
      <g transform="translate(81.91625 140.159063)scale(0.12 -0.12)">
       <use xlink:href="#DejaVuSans-48"/>
       <use x="63.623047" xlink:href="#DejaVuSans-46"/>
       <use x="95.410156" xlink:href="#DejaVuSans-53"/>
      </g>
     </g>
    </g>
    <g id="ytick_12">
     <g id="line2d_57">
      <path clip-path="url(#pfe284af84e)" d="M 108 117.12 
L 777.6 117.12 
" style="fill:none;stroke:#b0b0b0;stroke-linecap:square;stroke-width:0.8;"/>
     </g>
     <g id="line2d_58">
      <g>
       <use style="stroke:#000000;stroke-width:0.8;" x="108" xlink:href="#mb0cc1b7d31" y="117.12"/>
      </g>
     </g>
     <g id="text_30">
      <!-- 0.6 -->
      <g transform="translate(81.91625 121.679063)scale(0.12 -0.12)">
       <defs>
        <path d="M 33.015625 40.375 
Q 26.375 40.375 22.484375 35.828125 
Q 18.609375 31.296875 18.609375 23.390625 
Q 18.609375 15.53125 22.484375 10.953125 
Q 26.375 6.390625 33.015625 6.390625 
Q 39.65625 6.390625 43.53125 10.953125 
Q 47.40625 15.53125 47.40625 23.390625 
Q 47.40625 31.296875 43.53125 35.828125 
Q 39.65625 40.375 33.015625 40.375 
z
M 52.59375 71.296875 
L 52.59375 62.3125 
Q 48.875 64.0625 45.09375 64.984375 
Q 41.3125 65.921875 37.59375 65.921875 
Q 27.828125 65.921875 22.671875 59.328125 
Q 17.53125 52.734375 16.796875 39.40625 
Q 19.671875 43.65625 24.015625 45.921875 
Q 28.375 48.1875 33.59375 48.1875 
Q 44.578125 48.1875 50.953125 41.515625 
Q 57.328125 34.859375 57.328125 23.390625 
Q 57.328125 12.15625 50.6875 5.359375 
Q 44.046875 -1.421875 33.015625 -1.421875 
Q 20.359375 -1.421875 13.671875 8.265625 
Q 6.984375 17.96875 6.984375 36.375 
Q 6.984375 53.65625 15.1875 63.9375 
Q 23.390625 74.21875 37.203125 74.21875 
Q 40.921875 74.21875 44.703125 73.484375 
Q 48.484375 72.75 52.59375 71.296875 
z
" id="DejaVuSans-54"/>
       </defs>
       <use xlink:href="#DejaVuSans-48"/>
       <use x="63.623047" xlink:href="#DejaVuSans-46"/>
       <use x="95.410156" xlink:href="#DejaVuSans-54"/>
      </g>
     </g>
    </g>
    <g id="ytick_13">
     <g id="line2d_59">
      <path clip-path="url(#pfe284af84e)" d="M 108 98.64 
L 777.6 98.64 
" style="fill:none;stroke:#b0b0b0;stroke-linecap:square;stroke-width:0.8;"/>
     </g>
     <g id="line2d_60">
      <g>
       <use style="stroke:#000000;stroke-width:0.8;" x="108" xlink:href="#mb0cc1b7d31" y="98.64"/>
      </g>
     </g>
     <g id="text_31">
      <!-- 0.7 -->
      <g transform="translate(81.91625 103.199063)scale(0.12 -0.12)">
       <use xlink:href="#DejaVuSans-48"/>
       <use x="63.623047" xlink:href="#DejaVuSans-46"/>
       <use x="95.410156" xlink:href="#DejaVuSans-55"/>
      </g>
     </g>
    </g>
    <g id="ytick_14">
     <g id="line2d_61">
      <path clip-path="url(#pfe284af84e)" d="M 108 80.16 
L 777.6 80.16 
" style="fill:none;stroke:#b0b0b0;stroke-linecap:square;stroke-width:0.8;"/>
     </g>
     <g id="line2d_62">
      <g>
       <use style="stroke:#000000;stroke-width:0.8;" x="108" xlink:href="#mb0cc1b7d31" y="80.16"/>
      </g>
     </g>
     <g id="text_32">
      <!-- 0.8 -->
      <g transform="translate(81.91625 84.719063)scale(0.12 -0.12)">
       <defs>
        <path d="M 31.78125 34.625 
Q 24.75 34.625 20.71875 30.859375 
Q 16.703125 27.09375 16.703125 20.515625 
Q 16.703125 13.921875 20.71875 10.15625 
Q 24.75 6.390625 31.78125 6.390625 
Q 38.8125 6.390625 42.859375 10.171875 
Q 46.921875 13.96875 46.921875 20.515625 
Q 46.921875 27.09375 42.890625 30.859375 
Q 38.875 34.625 31.78125 34.625 
z
M 21.921875 38.8125 
Q 15.578125 40.375 12.03125 44.71875 
Q 8.5 49.078125 8.5 55.328125 
Q 8.5 64.0625 14.71875 69.140625 
Q 20.953125 74.21875 31.78125 74.21875 
Q 42.671875 74.21875 48.875 69.140625 
Q 55.078125 64.0625 55.078125 55.328125 
Q 55.078125 49.078125 51.53125 44.71875 
Q 48 40.375 41.703125 38.8125 
Q 48.828125 37.15625 52.796875 32.3125 
Q 56.78125 27.484375 56.78125 20.515625 
Q 56.78125 9.90625 50.3125 4.234375 
Q 43.84375 -1.421875 31.78125 -1.421875 
Q 19.734375 -1.421875 13.25 4.234375 
Q 6.78125 9.90625 6.78125 20.515625 
Q 6.78125 27.484375 10.78125 32.3125 
Q 14.796875 37.15625 21.921875 38.8125 
z
M 18.3125 54.390625 
Q 18.3125 48.734375 21.84375 45.5625 
Q 25.390625 42.390625 31.78125 42.390625 
Q 38.140625 42.390625 41.71875 45.5625 
Q 45.3125 48.734375 45.3125 54.390625 
Q 45.3125 60.0625 41.71875 63.234375 
Q 38.140625 66.40625 31.78125 66.40625 
Q 25.390625 66.40625 21.84375 63.234375 
Q 18.3125 60.0625 18.3125 54.390625 
z
" id="DejaVuSans-56"/>
       </defs>
       <use xlink:href="#DejaVuSans-48"/>
       <use x="63.623047" xlink:href="#DejaVuSans-46"/>
       <use x="95.410156" xlink:href="#DejaVuSans-56"/>
      </g>
     </g>
    </g>
    <g id="ytick_15">
     <g id="line2d_63">
      <path clip-path="url(#pfe284af84e)" d="M 108 61.68 
L 777.6 61.68 
" style="fill:none;stroke:#b0b0b0;stroke-linecap:square;stroke-width:0.8;"/>
     </g>
     <g id="line2d_64">
      <g>
       <use style="stroke:#000000;stroke-width:0.8;" x="108" xlink:href="#mb0cc1b7d31" y="61.68"/>
      </g>
     </g>
     <g id="text_33">
      <!-- 0.9 -->
      <g transform="translate(81.91625 66.239063)scale(0.12 -0.12)">
       <defs>
        <path d="M 10.984375 1.515625 
L 10.984375 10.5 
Q 14.703125 8.734375 18.5 7.8125 
Q 22.3125 6.890625 25.984375 6.890625 
Q 35.75 6.890625 40.890625 13.453125 
Q 46.046875 20.015625 46.78125 33.40625 
Q 43.953125 29.203125 39.59375 26.953125 
Q 35.25 24.703125 29.984375 24.703125 
Q 19.046875 24.703125 12.671875 31.3125 
Q 6.296875 37.9375 6.296875 49.421875 
Q 6.296875 60.640625 12.9375 67.421875 
Q 19.578125 74.21875 30.609375 74.21875 
Q 43.265625 74.21875 49.921875 64.515625 
Q 56.59375 54.828125 56.59375 36.375 
Q 56.59375 19.140625 48.40625 8.859375 
Q 40.234375 -1.421875 26.421875 -1.421875 
Q 22.703125 -1.421875 18.890625 -0.6875 
Q 15.09375 0.046875 10.984375 1.515625 
z
M 30.609375 32.421875 
Q 37.25 32.421875 41.125 36.953125 
Q 45.015625 41.5 45.015625 49.421875 
Q 45.015625 57.28125 41.125 61.84375 
Q 37.25 66.40625 30.609375 66.40625 
Q 23.96875 66.40625 20.09375 61.84375 
Q 16.21875 57.28125 16.21875 49.421875 
Q 16.21875 41.5 20.09375 36.953125 
Q 23.96875 32.421875 30.609375 32.421875 
z
" id="DejaVuSans-57"/>
       </defs>
       <use xlink:href="#DejaVuSans-48"/>
       <use x="63.623047" xlink:href="#DejaVuSans-46"/>
       <use x="95.410156" xlink:href="#DejaVuSans-57"/>
      </g>
     </g>
    </g>
    <g id="ytick_16">
     <g id="line2d_65">
      <path clip-path="url(#pfe284af84e)" d="M 108 43.2 
L 777.6 43.2 
" style="fill:none;stroke:#b0b0b0;stroke-linecap:square;stroke-width:0.8;"/>
     </g>
     <g id="line2d_66">
      <g>
       <use style="stroke:#000000;stroke-width:0.8;" x="108" xlink:href="#mb0cc1b7d31" y="43.2"/>
      </g>
     </g>
     <g id="text_34">
      <!-- 1.0 -->
      <g transform="translate(81.91625 47.759063)scale(0.12 -0.12)">
       <use xlink:href="#DejaVuSans-49"/>
       <use x="63.623047" xlink:href="#DejaVuSans-46"/>
       <use x="95.410156" xlink:href="#DejaVuSans-48"/>
      </g>
     </g>
    </g>
    <g id="text_35">
     <!-- integrand -->
     <g transform="translate(65.365 210.8775)rotate(-90)scale(0.12 -0.12)">
      <defs>
       <path d="M 9.421875 54.6875 
L 18.40625 54.6875 
L 18.40625 0 
L 9.421875 0 
z
M 9.421875 75.984375 
L 18.40625 75.984375 
L 18.40625 64.59375 
L 9.421875 64.59375 
z
" id="DejaVuSans-105"/>
       <path d="M 54.890625 33.015625 
L 54.890625 0 
L 45.90625 0 
L 45.90625 32.71875 
Q 45.90625 40.484375 42.875 44.328125 
Q 39.84375 48.1875 33.796875 48.1875 
Q 26.515625 48.1875 22.3125 43.546875 
Q 18.109375 38.921875 18.109375 30.90625 
L 18.109375 0 
L 9.078125 0 
L 9.078125 54.6875 
L 18.109375 54.6875 
L 18.109375 46.1875 
Q 21.34375 51.125 25.703125 53.5625 
Q 30.078125 56 35.796875 56 
Q 45.21875 56 50.046875 50.171875 
Q 54.890625 44.34375 54.890625 33.015625 
z
" id="DejaVuSans-110"/>
       <path d="M 56.203125 29.59375 
L 56.203125 25.203125 
L 14.890625 25.203125 
Q 15.484375 15.921875 20.484375 11.0625 
Q 25.484375 6.203125 34.421875 6.203125 
Q 39.59375 6.203125 44.453125 7.46875 
Q 49.3125 8.734375 54.109375 11.28125 
L 54.109375 2.78125 
Q 49.265625 0.734375 44.1875 -0.34375 
Q 39.109375 -1.421875 33.890625 -1.421875 
Q 20.796875 -1.421875 13.15625 6.1875 
Q 5.515625 13.8125 5.515625 26.8125 
Q 5.515625 40.234375 12.765625 48.109375 
Q 20.015625 56 32.328125 56 
Q 43.359375 56 49.78125 48.890625 
Q 56.203125 41.796875 56.203125 29.59375 
z
M 47.21875 32.234375 
Q 47.125 39.59375 43.09375 43.984375 
Q 39.0625 48.390625 32.421875 48.390625 
Q 24.90625 48.390625 20.390625 44.140625 
Q 15.875 39.890625 15.1875 32.171875 
z
" id="DejaVuSans-101"/>
       <path d="M 45.40625 27.984375 
Q 45.40625 37.75 41.375 43.109375 
Q 37.359375 48.484375 30.078125 48.484375 
Q 22.859375 48.484375 18.828125 43.109375 
Q 14.796875 37.75 14.796875 27.984375 
Q 14.796875 18.265625 18.828125 12.890625 
Q 22.859375 7.515625 30.078125 7.515625 
Q 37.359375 7.515625 41.375 12.890625 
Q 45.40625 18.265625 45.40625 27.984375 
z
M 54.390625 6.78125 
Q 54.390625 -7.171875 48.1875 -13.984375 
Q 42 -20.796875 29.203125 -20.796875 
Q 24.46875 -20.796875 20.265625 -20.09375 
Q 16.0625 -19.390625 12.109375 -17.921875 
L 12.109375 -9.1875 
Q 16.0625 -11.328125 19.921875 -12.34375 
Q 23.78125 -13.375 27.78125 -13.375 
Q 36.625 -13.375 41.015625 -8.765625 
Q 45.40625 -4.15625 45.40625 5.171875 
L 45.40625 9.625 
Q 42.625 4.78125 38.28125 2.390625 
Q 33.9375 0 27.875 0 
Q 17.828125 0 11.671875 7.65625 
Q 5.515625 15.328125 5.515625 27.984375 
Q 5.515625 40.671875 11.671875 48.328125 
Q 17.828125 56 27.875 56 
Q 33.9375 56 38.28125 53.609375 
Q 42.625 51.21875 45.40625 46.390625 
L 45.40625 54.6875 
L 54.390625 54.6875 
z
" id="DejaVuSans-103"/>
       <path d="M 41.109375 46.296875 
Q 39.59375 47.171875 37.8125 47.578125 
Q 36.03125 48 33.890625 48 
Q 26.265625 48 22.1875 43.046875 
Q 18.109375 38.09375 18.109375 28.8125 
L 18.109375 0 
L 9.078125 0 
L 9.078125 54.6875 
L 18.109375 54.6875 
L 18.109375 46.1875 
Q 20.953125 51.171875 25.484375 53.578125 
Q 30.03125 56 36.53125 56 
Q 37.453125 56 38.578125 55.875 
Q 39.703125 55.765625 41.0625 55.515625 
z
" id="DejaVuSans-114"/>
       <path d="M 34.28125 27.484375 
Q 23.390625 27.484375 19.1875 25 
Q 14.984375 22.515625 14.984375 16.5 
Q 14.984375 11.71875 18.140625 8.90625 
Q 21.296875 6.109375 26.703125 6.109375 
Q 34.1875 6.109375 38.703125 11.40625 
Q 43.21875 16.703125 43.21875 25.484375 
L 43.21875 27.484375 
z
M 52.203125 31.203125 
L 52.203125 0 
L 43.21875 0 
L 43.21875 8.296875 
Q 40.140625 3.328125 35.546875 0.953125 
Q 30.953125 -1.421875 24.3125 -1.421875 
Q 15.921875 -1.421875 10.953125 3.296875 
Q 6 8.015625 6 15.921875 
Q 6 25.140625 12.171875 29.828125 
Q 18.359375 34.515625 30.609375 34.515625 
L 43.21875 34.515625 
L 43.21875 35.40625 
Q 43.21875 41.609375 39.140625 45 
Q 35.0625 48.390625 27.6875 48.390625 
Q 23 48.390625 18.546875 47.265625 
Q 14.109375 46.140625 10.015625 43.890625 
L 10.015625 52.203125 
Q 14.9375 54.109375 19.578125 55.046875 
Q 24.21875 56 28.609375 56 
Q 40.484375 56 46.34375 49.84375 
Q 52.203125 43.703125 52.203125 31.203125 
z
" id="DejaVuSans-97"/>
       <path d="M 45.40625 46.390625 
L 45.40625 75.984375 
L 54.390625 75.984375 
L 54.390625 0 
L 45.40625 0 
L 45.40625 8.203125 
Q 42.578125 3.328125 38.25 0.953125 
Q 33.9375 -1.421875 27.875 -1.421875 
Q 17.96875 -1.421875 11.734375 6.484375 
Q 5.515625 14.40625 5.515625 27.296875 
Q 5.515625 40.1875 11.734375 48.09375 
Q 17.96875 56 27.875 56 
Q 33.9375 56 38.25 53.625 
Q 42.578125 51.265625 45.40625 46.390625 
z
M 14.796875 27.296875 
Q 14.796875 17.390625 18.875 11.75 
Q 22.953125 6.109375 30.078125 6.109375 
Q 37.203125 6.109375 41.296875 11.75 
Q 45.40625 17.390625 45.40625 27.296875 
Q 45.40625 37.203125 41.296875 42.84375 
Q 37.203125 48.484375 30.078125 48.484375 
Q 22.953125 48.484375 18.875 42.84375 
Q 14.796875 37.203125 14.796875 27.296875 
z
" id="DejaVuSans-100"/>
      </defs>
      <use xlink:href="#DejaVuSans-105"/>
      <use x="27.783203" xlink:href="#DejaVuSans-110"/>
      <use x="91.162109" xlink:href="#DejaVuSans-116"/>
      <use x="130.371094" xlink:href="#DejaVuSans-101"/>
      <use x="191.894531" xlink:href="#DejaVuSans-103"/>
      <use x="255.371094" xlink:href="#DejaVuSans-114"/>
      <use x="296.484375" xlink:href="#DejaVuSans-97"/>
      <use x="357.763672" xlink:href="#DejaVuSans-110"/>
      <use x="421.142578" xlink:href="#DejaVuSans-100"/>
     </g>
    </g>
   </g>
   <g id="line2d_67">
    <path clip-path="url(#pfe284af84e)" d="M 108 43.2 
L 114.696 50.447353 
L 121.392 57.420651 
L 129.762 65.786275 
L 138.132 73.796145 
L 146.502 81.477429 
L 154.872 88.848229 
L 163.242 95.919379 
L 171.612 102.696365 
L 179.982 109.181091 
L 188.352 115.373405 
L 196.722 121.272347 
L 205.092 126.877138 
L 213.462 132.187927 
L 221.832 137.206313 
L 230.202 141.935701 
L 238.572 146.381489 
L 246.942 150.551144 
L 255.312 154.454177 
L 263.682 158.102051 
L 272.052 161.50803 
L 280.422 164.687001 
L 288.792 167.655276 
L 298.836 170.963835 
L 308.88 174.026426 
L 320.598 177.333591 
L 332.316 180.407119 
L 347.382 184.105778 
L 369.144 189.169071 
L 399.276 196.192353 
L 416.016 200.339851 
L 431.082 204.312027 
L 446.148 208.534042 
L 461.214 212.985935 
L 484.65 220.188493 
L 503.064 225.78286 
L 514.782 229.127598 
L 524.826 231.755553 
L 533.196 233.716569 
L 541.566 235.420261 
L 548.262 236.568193 
L 554.958 237.502461 
L 561.654 238.204992 
L 568.35 238.661186 
L 575.046 238.860796 
L 581.742 238.798779 
L 588.438 238.476074 
L 595.134 237.900271 
L 601.83 237.086115 
L 608.526 236.055787 
L 616.896 234.509718 
L 626.94 232.374895 
L 655.398 226.067219 
L 662.094 224.845355 
L 668.79 223.82976 
L 675.486 223.060944 
L 682.182 222.569376 
L 687.204 222.394085 
L 692.226 222.387768 
L 698.922 222.637564 
L 705.618 223.164095 
L 712.314 223.932826 
L 720.684 225.158611 
L 734.076 227.435043 
L 745.794 229.342489 
L 752.49 230.238491 
L 759.186 230.916495 
L 765.882 231.332475 
L 772.578 231.462015 
L 777.6 231.369107 
L 777.6 231.369107 
" style="fill:none;stroke:#1f77b4;stroke-linecap:square;stroke-width:1.5;"/>
   </g>
   <g id="line2d_68">
    <path clip-path="url(#pfe284af84e)" d="M 108 43.2 
L 114.696 50.448121 
L 123.066 59.138965 
L 131.436 67.488662 
L 141.48 77.157973 
L 153.198 88.083954 
L 166.59 100.243611 
L 181.656 113.620213 
L 196.722 126.709839 
L 210.114 138.068732 
L 221.832 147.739132 
L 231.876 155.782139 
L 241.92 163.556086 
L 251.964 171.021212 
L 260.334 176.979127 
L 268.704 182.676928 
L 277.074 188.097506 
L 285.444 193.226607 
L 293.814 198.053084 
L 302.184 202.569023 
L 308.88 205.954953 
L 315.576 209.138191 
L 322.272 212.119093 
L 328.968 214.899208 
L 335.664 217.481207 
L 342.36 219.868789 
L 350.73 222.587003 
L 359.1 225.019567 
L 367.47 227.179005 
L 375.84 229.079199 
L 384.21 230.735067 
L 392.58 232.162255 
L 400.95 233.376844 
L 409.32 234.395085 
L 419.364 235.380566 
L 429.408 236.134006 
L 439.452 236.681812 
L 451.17 237.094369 
L 464.562 237.312151 
L 477.954 237.306934 
L 493.02 237.088852 
L 511.434 236.591007 
L 533.196 235.773467 
L 563.328 234.395855 
L 616.896 231.668514 
L 678.834 228.57219 
L 712.314 227.114723 
L 739.098 226.169224 
L 760.86 225.608939 
L 777.6 225.336544 
L 777.6 225.336544 
" style="fill:none;stroke:#ff7f0e;stroke-linecap:square;stroke-width:1.5;"/>
   </g>
   <g id="line2d_69">
    <path clip-path="url(#pfe284af84e)" d="M 108 43.2 
L 114.696 50.449073 
L 123.066 59.158542 
L 133.11 69.24965 
L 164.916 100.879424 
L 174.96 111.342619 
L 183.33 120.358752 
L 191.7 129.661365 
L 201.744 141.189209 
L 211.788 153.060266 
L 225.18 169.248135 
L 246.942 195.591757 
L 255.312 205.410186 
L 263.682 214.877028 
L 270.378 222.117849 
L 277.074 228.998701 
L 282.096 233.888863 
L 287.118 238.521955 
L 292.14 242.87681 
L 297.162 246.93396 
L 302.184 250.675869 
L 307.206 254.087142 
L 312.228 257.154718 
L 317.25 259.868032 
L 322.272 262.219144 
L 325.62 263.582642 
L 328.968 264.781936 
L 332.316 265.816731 
L 335.664 266.687296 
L 339.012 267.394464 
L 342.36 267.939623 
L 345.708 268.324719 
L 349.056 268.552241 
L 352.404 268.62521 
L 355.752 268.547167 
L 360.774 268.155931 
L 365.796 267.449781 
L 370.818 266.44664 
L 375.84 265.1665 
L 380.862 263.631205 
L 385.884 261.864214 
L 390.906 259.890346 
L 397.602 256.981616 
L 404.298 253.8148 
L 412.668 249.592295 
L 426.06 242.524315 
L 439.452 235.505991 
L 447.822 231.345651 
L 454.518 228.221039 
L 461.214 225.322646 
L 467.91 222.685422 
L 474.606 220.337596 
L 479.628 218.779733 
L 484.65 217.403228 
L 489.672 216.21234 
L 494.694 215.209201 
L 499.716 214.393888 
L 504.738 213.764513 
L 509.76 213.317336 
L 514.782 213.046893 
L 521.478 212.948838 
L 528.174 213.131721 
L 534.87 213.571178 
L 541.566 214.239777 
L 548.262 215.107776 
L 556.632 216.425405 
L 566.676 218.264797 
L 580.068 220.979044 
L 605.178 226.117768 
L 616.896 228.248703 
L 626.94 229.839299 
L 636.984 231.172473 
L 645.354 232.070866 
L 653.724 232.770568 
L 662.094 233.273139 
L 672.138 233.626372 
L 682.182 233.727288 
L 692.226 233.604426 
L 703.944 233.223456 
L 717.336 232.54658 
L 735.75 231.352012 
L 777.6 228.48785 
L 777.6 228.48785 
" style="fill:none;stroke:#2ca02c;stroke-linecap:square;stroke-width:1.5;"/>
   </g>
   <g id="line2d_70">
    <path clip-path="url(#pfe284af84e)" d="M 108 43.2 
L 114.696 50.451531 
L 124.74 60.940599 
L 138.132 74.888944 
L 144.828 82.193026 
L 149.85 87.942842 
L 154.872 93.993399 
L 159.894 100.39974 
L 164.916 107.209595 
L 169.938 114.461778 
L 174.96 122.18463 
L 179.982 130.394525 
L 185.004 139.09448 
L 190.026 148.272888 
L 195.048 157.90243 
L 200.07 167.939232 
L 206.766 181.847236 
L 215.136 199.796967 
L 228.528 228.60677 
L 233.55 238.998273 
L 238.572 248.927431 
L 243.594 258.232295 
L 246.942 264.007989 
L 250.29 269.385787 
L 253.638 274.319179 
L 256.986 278.763622 
L 260.334 282.67724 
L 263.682 286.02155 
L 265.356 287.469294 
L 267.03 288.762184 
L 268.704 289.896683 
L 270.378 290.869602 
L 272.052 291.678117 
L 273.726 292.31979 
L 275.4 292.79259 
L 277.074 293.094912 
L 278.748 293.225592 
L 280.422 293.183925 
L 282.096 292.969682 
L 283.77 292.583122 
L 285.444 292.025004 
L 287.118 291.296599 
L 288.792 290.3997 
L 290.466 289.33663 
L 292.14 288.110242 
L 293.814 286.723931 
L 295.488 285.18163 
L 298.836 281.647481 
L 302.184 277.549967 
L 305.532 272.93961 
L 308.88 267.87493 
L 312.228 262.421914 
L 317.25 253.675129 
L 323.946 241.38001 
L 332.316 225.981565 
L 337.338 217.27052 
L 340.686 211.868387 
L 344.034 206.888011 
L 347.382 202.406525 
L 350.73 198.493548 
L 352.404 196.769578 
L 354.078 195.209674 
L 355.752 193.819772 
L 357.426 192.605077 
L 359.1 191.570027 
L 360.774 190.718266 
L 362.448 190.052608 
L 364.122 189.575018 
L 365.796 189.286592 
L 367.47 189.187536 
L 369.144 189.277155 
L 370.818 189.553847 
L 372.492 190.015101 
L 374.166 190.657494 
L 375.84 191.476701 
L 377.514 192.467509 
L 379.188 193.62383 
L 380.862 194.938724 
L 384.21 198.012388 
L 387.558 201.617131 
L 390.906 205.670238 
L 394.254 210.079238 
L 399.276 217.138863 
L 409.32 231.525518 
L 412.668 235.999722 
L 416.016 240.139887 
L 419.364 243.852656 
L 422.712 247.05523 
L 424.386 248.442758 
L 426.06 249.677589 
L 427.734 250.753285 
L 429.408 251.664431 
L 431.082 252.406678 
L 432.756 252.976774 
L 434.43 253.372594 
L 436.104 253.593159 
L 437.778 253.638649 
L 439.452 253.510406 
L 441.126 253.210933 
L 442.8 252.743879 
L 444.474 252.114024 
L 446.148 251.327246 
L 447.822 250.390488 
L 449.496 249.311711 
L 452.844 246.764728 
L 456.192 243.768219 
L 459.54 240.416328 
L 464.562 234.950918 
L 472.932 225.608365 
L 476.28 222.117395 
L 479.628 218.925362 
L 482.976 216.12515 
L 486.324 213.79648 
L 487.998 212.829639 
L 489.672 212.003318 
L 491.346 211.322704 
L 493.02 210.791769 
L 494.694 210.413231 
L 496.368 210.188532 
L 498.042 210.117828 
L 499.716 210.199983 
L 501.39 210.432581 
L 503.064 210.811944 
L 504.738 211.333162 
L 506.412 211.99014 
L 509.76 213.681378 
L 513.108 215.815381 
L 516.456 218.307265 
L 519.804 221.060554 
L 533.196 232.554843 
L 536.544 235.019611 
L 539.892 237.132886 
L 543.24 238.822617 
L 544.914 239.490802 
L 546.588 240.034038 
L 548.262 240.448519 
L 549.936 240.731737 
L 551.61 240.882502 
L 553.284 240.900955 
L 554.958 240.788558 
L 556.632 240.54808 
L 558.306 240.183565 
L 561.654 239.104686 
L 565.002 237.607748 
L 568.35 235.764841 
L 571.698 233.661236 
L 578.394 229.056584 
L 583.416 225.651863 
L 586.764 223.588079 
L 590.112 221.790313 
L 593.46 220.330914 
L 596.808 219.265962 
L 600.156 218.632899 
L 601.83 218.484533 
L 603.504 218.448993 
L 606.852 218.710731 
L 610.2 219.394173 
L 613.548 220.456251 
L 616.896 221.83697 
L 620.244 223.46241 
L 625.266 226.173462 
L 631.962 229.819935 
L 635.31 231.456576 
L 638.658 232.86324 
L 642.006 233.976008 
L 645.354 234.746975 
L 648.702 235.146488 
L 652.05 235.16444 
L 655.398 234.810549 
L 658.746 234.11361 
L 662.094 233.119752 
L 665.442 231.889784 
L 670.464 229.761904 
L 678.834 226.133043 
L 682.182 224.882964 
L 685.53 223.85038 
L 688.878 223.086476 
L 692.226 222.626317 
L 695.574 222.487106 
L 698.922 222.667474 
L 702.27 223.147832 
L 705.618 223.89177 
L 708.966 224.848425 
L 713.988 226.544177 
L 722.358 229.473304 
L 725.706 230.476645 
L 729.054 231.293482 
L 732.402 231.879597 
L 735.75 232.205907 
L 739.098 232.260001 
L 742.446 232.04663 
L 745.794 231.58712 
L 749.142 230.917749 
L 754.164 229.629286 
L 765.882 226.362437 
L 769.23 225.635348 
L 772.578 225.09064 
L 775.926 224.758811 
L 777.6 224.678215 
L 777.6 224.678215 
" style="fill:none;stroke:#d62728;stroke-linecap:square;stroke-width:1.5;"/>
   </g>
   <g id="line2d_71">
    <path clip-path="url(#pfe284af84e)" d="M 108 43.2 
L 116.37 52.241976 
L 126.414 63.007561 
L 131.436 68.698021 
L 134.784 72.730542 
L 138.132 77.023414 
L 141.48 81.637119 
L 144.828 86.631651 
L 148.176 92.065082 
L 151.524 97.992033 
L 154.872 104.462049 
L 158.22 111.517864 
L 161.568 119.193579 
L 164.916 127.512761 
L 168.264 136.486507 
L 171.612 146.111503 
L 174.96 156.368137 
L 178.308 167.218745 
L 183.33 184.477385 
L 188.352 202.656393 
L 203.418 258.242694 
L 206.766 269.683259 
L 210.114 280.343138 
L 213.462 289.998325 
L 215.136 294.379098 
L 216.81 298.425277 
L 218.484 302.110142 
L 220.158 305.407922 
L 221.832 308.294056 
L 223.506 310.745461 
L 225.18 312.7408 
L 226.854 314.260764 
L 228.528 315.288345 
L 230.202 315.809114 
L 231.876 315.811484 
L 233.55 315.286976 
L 235.224 314.230467 
L 236.898 312.640419 
L 238.572 310.519093 
L 240.246 307.872742 
L 241.92 304.711767 
L 243.594 301.050852 
L 245.268 296.909054 
L 246.942 292.309866 
L 248.616 287.281223 
L 251.964 276.069294 
L 255.312 263.583148 
L 258.66 250.196343 
L 268.704 209.114219 
L 272.052 196.753405 
L 273.726 191.103673 
L 275.4 185.886501 
L 277.074 181.157291 
L 278.748 176.967584 
L 280.422 173.364302 
L 282.096 170.389016 
L 283.77 168.077237 
L 285.444 166.457749 
L 287.118 165.552004 
L 288.792 165.373578 
L 290.466 165.927707 
L 292.14 167.210919 
L 293.814 169.210759 
L 295.488 171.90564 
L 297.162 175.264802 
L 298.836 179.248412 
L 300.51 183.807793 
L 302.184 188.885799 
L 305.532 200.329993 
L 308.88 212.977595 
L 315.576 239.065656 
L 318.924 251.009366 
L 320.598 256.385325 
L 322.272 261.251968 
L 323.946 265.533401 
L 325.62 269.161985 
L 327.294 272.079679 
L 328.968 274.239276 
L 330.642 275.6055 
L 332.316 276.155923 
L 333.99 275.881692 
L 335.664 274.788032 
L 337.338 272.894512 
L 339.012 270.235047 
L 340.686 266.857635 
L 342.36 262.82381 
L 344.034 258.207822 
L 345.708 253.095529 
L 349.056 241.775044 
L 355.752 217.875148 
L 357.426 212.322232 
L 359.1 207.167411 
L 360.774 202.515327 
L 362.448 198.461088 
L 364.122 195.088033 
L 365.796 192.465707 
L 367.47 190.648059 
L 369.144 189.671947 
L 370.818 189.555992 
L 372.492 190.299801 
L 374.166 191.883624 
L 375.84 194.26845 
L 377.514 197.396556 
L 379.188 201.192531 
L 380.862 205.564749 
L 382.536 210.407285 
L 385.884 221.022379 
L 390.906 237.286887 
L 392.58 242.258971 
L 394.254 246.792184 
L 395.928 250.771954 
L 397.602 254.097521 
L 399.276 256.684817 
L 400.95 258.468974 
L 402.624 259.406358 
L 404.298 259.476076 
L 405.972 258.680878 
L 407.646 257.047421 
L 409.32 254.625856 
L 410.994 251.488731 
L 412.668 247.729229 
L 414.342 243.458749 
L 417.69 233.903001 
L 422.712 219.197155 
L 424.386 214.784566 
L 426.06 210.845769 
L 427.734 207.499391 
L 429.408 204.845902 
L 431.082 202.964226 
L 432.756 201.908972 
L 434.43 201.708407 
L 436.104 202.36324 
L 437.778 203.846298 
L 439.452 206.103118 
L 441.126 209.053473 
L 442.8 212.593793 
L 444.474 216.60043 
L 447.822 225.442444 
L 451.17 234.356183 
L 452.844 238.44955 
L 454.518 242.106297 
L 456.192 245.19879 
L 457.866 247.619674 
L 459.54 249.28597 
L 461.214 250.142351 
L 462.888 250.163428 
L 464.562 249.354963 
L 466.236 247.753911 
L 467.91 245.427274 
L 469.584 242.469782 
L 471.258 239.000453 
L 474.606 231.096328 
L 477.954 222.964394 
L 479.628 219.218418 
L 481.302 215.888082 
L 482.976 213.105387 
L 484.65 210.979783 
L 486.324 209.593473 
L 487.998 208.997814 
L 489.672 209.210947 
L 491.346 210.216815 
L 493.02 211.965634 
L 494.694 214.375818 
L 496.368 217.337319 
L 498.042 220.716252 
L 504.738 235.238182 
L 506.412 238.304755 
L 508.086 240.851414 
L 509.76 242.766265 
L 511.434 243.9668 
L 513.108 244.403881 
L 514.782 244.06421 
L 516.456 242.971121 
L 518.13 241.18365 
L 519.804 238.793864 
L 521.478 235.922581 
L 524.826 229.326917 
L 528.174 222.692997 
L 529.848 219.773761 
L 531.522 217.316279 
L 533.196 215.440133 
L 534.87 214.234983 
L 536.544 213.755863 
L 538.218 214.020222 
L 539.892 215.0069 
L 541.566 216.657097 
L 543.24 218.877353 
L 544.914 221.544388 
L 548.262 227.616754 
L 551.61 233.567386 
L 553.284 236.090943 
L 554.958 238.126385 
L 556.632 239.566065 
L 558.306 240.335964 
L 559.98 240.399913 
L 561.654 239.761721 
L 563.328 238.465041 
L 565.002 236.590958 
L 566.676 234.253394 
L 570.024 228.766921 
L 573.372 223.289567 
L 575.046 220.959935 
L 576.72 219.090418 
L 578.394 217.788292 
L 580.068 217.126051 
L 581.742 217.136961 
L 583.416 217.812981 
L 585.09 219.105211 
L 586.764 220.926886 
L 588.438 223.158736 
L 595.134 233.122794 
L 596.808 235.074993 
L 598.482 236.537067 
L 600.156 237.419689 
L 601.83 237.671815 
L 603.504 237.284044 
L 605.178 236.289242 
L 606.852 234.760367 
L 608.526 232.805597 
L 611.874 228.181686 
L 615.222 223.668025 
L 616.896 221.840341 
L 618.57 220.469886 
L 620.244 219.646527 
L 621.918 219.421393 
L 623.592 219.803308 
L 625.266 220.758194 
L 626.94 222.211526 
L 628.614 224.053679 
L 635.31 232.382069 
L 636.984 233.939922 
L 638.658 235.032351 
L 640.332 235.583913 
L 642.006 235.559966 
L 643.68 234.969212 
L 645.354 233.862977 
L 647.028 232.331265 
L 650.376 228.50089 
L 653.724 224.653362 
L 655.398 223.097359 
L 657.072 221.951872 
L 658.746 221.301875 
L 660.42 221.192627 
L 662.094 221.626163 
L 663.768 222.561218 
L 665.442 223.91663 
L 667.116 225.577961 
L 672.138 230.963081 
L 673.812 232.400184 
L 675.486 233.448224 
L 677.16 234.024996 
L 678.834 234.088241 
L 680.508 233.639088 
L 682.182 232.72184 
L 683.856 231.420108 
L 687.204 228.148045 
L 688.878 226.463472 
L 690.552 224.941215 
L 692.226 223.711397 
L 693.9 222.877608 
L 695.574 222.507913 
L 697.248 222.628964 
L 698.922 223.223779 
L 700.596 224.233389 
L 702.27 225.562246 
L 707.292 230.159462 
L 708.966 231.428564 
L 710.64 232.361367 
L 712.314 232.876453 
L 713.988 232.931652 
L 715.662 232.527809 
L 717.336 231.708543 
L 719.01 230.556006 
L 725.706 225.090765 
L 727.38 224.168571 
L 729.054 223.631847 
L 730.728 223.527443 
L 732.402 223.859809 
L 734.076 224.590743 
L 735.75 225.643312 
L 742.446 230.686251 
L 744.12 231.519656 
L 745.794 231.983589 
L 747.468 232.036045 
L 749.142 231.677188 
L 750.816 230.949142 
L 752.49 229.931478 
L 757.512 226.302708 
L 759.186 225.323812 
L 760.86 224.642823 
L 762.534 224.327369 
L 764.208 224.405844 
L 765.882 224.864591 
L 767.556 225.649568 
L 770.904 227.819722 
L 774.252 229.987457 
L 775.926 230.774061 
L 777.6 231.243208 
L 777.6 231.243208 
" style="fill:none;stroke:#9467bd;stroke-linecap:square;stroke-width:1.5;"/>
   </g>
   <g id="line2d_72">
    <path clip-path="url(#pfe284af84e)" d="M 108 43.2 
L 114.696 50.446112 
L 121.392 57.408099 
L 128.088 64.097103 
L 134.784 70.523828 
L 141.48 76.698557 
L 149.85 84.077615 
L 158.22 91.096793 
L 166.59 97.773641 
L 174.96 104.124855 
L 183.33 110.166318 
L 191.7 115.913134 
L 200.07 121.379675 
L 208.44 126.57961 
L 216.81 131.52594 
L 225.18 136.231036 
L 233.55 140.706661 
L 241.92 144.964007 
L 251.964 149.799647 
L 262.008 154.353681 
L 272.052 158.642509 
L 282.096 162.681575 
L 292.14 166.485424 
L 302.184 170.067754 
L 312.228 173.441465 
L 323.946 177.129959 
L 335.664 180.569088 
L 347.382 183.775711 
L 359.1 186.765546 
L 372.492 189.935802 
L 385.884 192.862316 
L 399.276 195.56383 
L 414.342 198.355573 
L 429.408 200.907033 
L 444.474 203.238893 
L 461.214 205.595224 
L 477.954 207.72732 
L 496.368 209.839041 
L 514.782 211.730793 
L 534.87 213.570508 
L 556.632 215.329529 
L 580.068 216.984822 
L 605.178 218.519148 
L 631.962 219.920951 
L 660.42 221.183991 
L 692.226 222.363439 
L 727.38 223.431092 
L 765.882 224.369849 
L 777.6 224.61527 
L 777.6 224.61527 
" style="fill:none;stroke:#808080;stroke-dasharray:5.55,2.4;stroke-dashoffset:0;stroke-width:1.5;"/>
   </g>
   <g id="patch_3">
    <path d="M 108 320.4 
L 108 43.2 
" style="fill:none;stroke:#000000;stroke-linecap:square;stroke-linejoin:miter;stroke-width:0.8;"/>
   </g>
   <g id="patch_4">
    <path d="M 777.6 320.4 
L 777.6 43.2 
" style="fill:none;stroke:#000000;stroke-linecap:square;stroke-linejoin:miter;stroke-width:0.8;"/>
   </g>
   <g id="patch_5">
    <path d="M 108 320.4 
L 777.6 320.4 
" style="fill:none;stroke:#000000;stroke-linecap:square;stroke-linejoin:miter;stroke-width:0.8;"/>
   </g>
   <g id="patch_6">
    <path d="M 108 43.2 
L 777.6 43.2 
" style="fill:none;stroke:#000000;stroke-linecap:square;stroke-linejoin:miter;stroke-width:0.8;"/>
   </g>
   <g id="legend_1">
    <g id="patch_7">
     <path d="M 690.508125 158.4825 
L 769.2 158.4825 
Q 771.6 158.4825 771.6 156.0825 
L 771.6 51.6 
Q 771.6 49.2 769.2 49.2 
L 690.508125 49.2 
Q 688.108125 49.2 688.108125 51.6 
L 688.108125 156.0825 
Q 688.108125 158.4825 690.508125 158.4825 
z
" style="fill:#ffffff;opacity:0.8;stroke:#cccccc;stroke-linejoin:miter;"/>
    </g>
    <g id="line2d_73">
     <path d="M 692.908125 58.918125 
L 716.908125 58.918125 
" style="fill:none;stroke:#1f77b4;stroke-linecap:square;stroke-width:1.5;"/>
    </g>
    <g id="line2d_74"/>
    <g id="text_36">
     <!-- x = 0 -->
     <g transform="translate(726.508125 63.118125)scale(0.12 -0.12)">
      <defs>
       <path d="M 54.890625 54.6875 
L 35.109375 28.078125 
L 55.90625 0 
L 45.3125 0 
L 29.390625 21.484375 
L 13.484375 0 
L 2.875 0 
L 24.125 28.609375 
L 4.6875 54.6875 
L 15.28125 54.6875 
L 29.78125 35.203125 
L 44.28125 54.6875 
z
" id="DejaVuSans-120"/>
       <path id="DejaVuSans-32"/>
       <path d="M 10.59375 45.40625 
L 73.1875 45.40625 
L 73.1875 37.203125 
L 10.59375 37.203125 
z
M 10.59375 25.484375 
L 73.1875 25.484375 
L 73.1875 17.1875 
L 10.59375 17.1875 
z
" id="DejaVuSans-61"/>
      </defs>
      <use xlink:href="#DejaVuSans-120"/>
      <use x="59.179688" xlink:href="#DejaVuSans-32"/>
      <use x="90.966797" xlink:href="#DejaVuSans-61"/>
      <use x="174.755859" xlink:href="#DejaVuSans-32"/>
      <use x="206.542969" xlink:href="#DejaVuSans-48"/>
     </g>
    </g>
    <g id="line2d_75">
     <path d="M 692.908125 76.531875 
L 716.908125 76.531875 
" style="fill:none;stroke:#ff7f0e;stroke-linecap:square;stroke-width:1.5;"/>
    </g>
    <g id="line2d_76"/>
    <g id="text_37">
     <!-- x = -1 -->
     <g transform="translate(726.508125 80.731875)scale(0.12 -0.12)">
      <defs>
       <path d="M 4.890625 31.390625 
L 31.203125 31.390625 
L 31.203125 23.390625 
L 4.890625 23.390625 
z
" id="DejaVuSans-45"/>
      </defs>
      <use xlink:href="#DejaVuSans-120"/>
      <use x="59.179688" xlink:href="#DejaVuSans-32"/>
      <use x="90.966797" xlink:href="#DejaVuSans-61"/>
      <use x="174.755859" xlink:href="#DejaVuSans-32"/>
      <use x="206.542969" xlink:href="#DejaVuSans-45"/>
      <use x="242.626953" xlink:href="#DejaVuSans-49"/>
     </g>
    </g>
    <g id="line2d_77">
     <path d="M 692.908125 94.145625 
L 716.908125 94.145625 
" style="fill:none;stroke:#2ca02c;stroke-linecap:square;stroke-width:1.5;"/>
    </g>
    <g id="line2d_78"/>
    <g id="text_38">
     <!-- x = -2 -->
     <g transform="translate(726.508125 98.345625)scale(0.12 -0.12)">
      <use xlink:href="#DejaVuSans-120"/>
      <use x="59.179688" xlink:href="#DejaVuSans-32"/>
      <use x="90.966797" xlink:href="#DejaVuSans-61"/>
      <use x="174.755859" xlink:href="#DejaVuSans-32"/>
      <use x="206.542969" xlink:href="#DejaVuSans-45"/>
      <use x="242.626953" xlink:href="#DejaVuSans-50"/>
     </g>
    </g>
    <g id="line2d_79">
     <path d="M 692.908125 111.759375 
L 716.908125 111.759375 
" style="fill:none;stroke:#d62728;stroke-linecap:square;stroke-width:1.5;"/>
    </g>
    <g id="line2d_80"/>
    <g id="text_39">
     <!-- x = -4 -->
     <g transform="translate(726.508125 115.959375)scale(0.12 -0.12)">
      <use xlink:href="#DejaVuSans-120"/>
      <use x="59.179688" xlink:href="#DejaVuSans-32"/>
      <use x="90.966797" xlink:href="#DejaVuSans-61"/>
      <use x="174.755859" xlink:href="#DejaVuSans-32"/>
      <use x="206.542969" xlink:href="#DejaVuSans-45"/>
      <use x="242.626953" xlink:href="#DejaVuSans-52"/>
     </g>
    </g>
    <g id="line2d_81">
     <path d="M 692.908125 129.373125 
L 716.908125 129.373125 
" style="fill:none;stroke:#9467bd;stroke-linecap:square;stroke-width:1.5;"/>
    </g>
    <g id="line2d_82"/>
    <g id="text_40">
     <!-- x = -8 -->
     <g transform="translate(726.508125 133.573125)scale(0.12 -0.12)">
      <use xlink:href="#DejaVuSans-120"/>
      <use x="59.179688" xlink:href="#DejaVuSans-32"/>
      <use x="90.966797" xlink:href="#DejaVuSans-61"/>
      <use x="174.755859" xlink:href="#DejaVuSans-32"/>
      <use x="206.542969" xlink:href="#DejaVuSans-45"/>
      <use x="242.626953" xlink:href="#DejaVuSans-56"/>
     </g>
    </g>
    <g id="line2d_83">
     <path d="M 692.908125 146.986875 
L 716.908125 146.986875 
" style="fill:none;stroke:#808080;stroke-dasharray:5.55,2.4;stroke-dashoffset:0;stroke-width:1.5;"/>
    </g>
    <g id="line2d_84"/>
    <g id="text_41">
     <!-- exp(-t) -->
     <g transform="translate(726.508125 151.186875)scale(0.12 -0.12)">
      <defs>
       <path d="M 18.109375 8.203125 
L 18.109375 -20.796875 
L 9.078125 -20.796875 
L 9.078125 54.6875 
L 18.109375 54.6875 
L 18.109375 46.390625 
Q 20.953125 51.265625 25.265625 53.625 
Q 29.59375 56 35.59375 56 
Q 45.5625 56 51.78125 48.09375 
Q 58.015625 40.1875 58.015625 27.296875 
Q 58.015625 14.40625 51.78125 6.484375 
Q 45.5625 -1.421875 35.59375 -1.421875 
Q 29.59375 -1.421875 25.265625 0.953125 
Q 20.953125 3.328125 18.109375 8.203125 
z
M 48.6875 27.296875 
Q 48.6875 37.203125 44.609375 42.84375 
Q 40.53125 48.484375 33.40625 48.484375 
Q 26.265625 48.484375 22.1875 42.84375 
Q 18.109375 37.203125 18.109375 27.296875 
Q 18.109375 17.390625 22.1875 11.75 
Q 26.265625 6.109375 33.40625 6.109375 
Q 40.53125 6.109375 44.609375 11.75 
Q 48.6875 17.390625 48.6875 27.296875 
z
" id="DejaVuSans-112"/>
       <path d="M 31 75.875 
Q 24.46875 64.65625 21.28125 53.65625 
Q 18.109375 42.671875 18.109375 31.390625 
Q 18.109375 20.125 21.3125 9.0625 
Q 24.515625 -2 31 -13.1875 
L 23.1875 -13.1875 
Q 15.875 -1.703125 12.234375 9.375 
Q 8.59375 20.453125 8.59375 31.390625 
Q 8.59375 42.28125 12.203125 53.3125 
Q 15.828125 64.359375 23.1875 75.875 
z
" id="DejaVuSans-40"/>
       <path d="M 8.015625 75.875 
L 15.828125 75.875 
Q 23.140625 64.359375 26.78125 53.3125 
Q 30.421875 42.28125 30.421875 31.390625 
Q 30.421875 20.453125 26.78125 9.375 
Q 23.140625 -1.703125 15.828125 -13.1875 
L 8.015625 -13.1875 
Q 14.5 -2 17.703125 9.0625 
Q 20.90625 20.125 20.90625 31.390625 
Q 20.90625 42.671875 17.703125 53.65625 
Q 14.5 64.65625 8.015625 75.875 
z
" id="DejaVuSans-41"/>
      </defs>
      <use xlink:href="#DejaVuSans-101"/>
      <use x="59.773438" xlink:href="#DejaVuSans-120"/>
      <use x="118.953125" xlink:href="#DejaVuSans-112"/>
      <use x="182.429688" xlink:href="#DejaVuSans-40"/>
      <use x="221.443359" xlink:href="#DejaVuSans-45"/>
      <use x="257.527344" xlink:href="#DejaVuSans-116"/>
      <use x="296.736328" xlink:href="#DejaVuSans-41"/>
     </g>
    </g>
   </g>
  </g>
 </g>
 <defs>
  <clipPath id="pfe284af84e">
   <rect height="277.2" width="669.6" x="108" y="43.2"/>
  </clipPath>
 </defs>
</svg>
