<?xml version="1.0" encoding="utf-8" standalone="no"?>
<!DOCTYPE svg PUBLIC "-//W3C//DTD SVG 1.1//EN"
  "http://www.w3.org/Graphics/SVG/1.1/DTD/svg11.dtd">
<svg xmlns:xlink="http://www.w3.org/1999/xlink" width="755.762969pt" height="327.691094pt" viewBox="0 0 755.762969 327.691094" xmlns="http://www.w3.org/2000/svg" version="1.1">
 <metadata>
  <rdf:RDF xmlns:dc="http://purl.org/dc/elements/1.1/" xmlns:cc="http://creativecommons.org/ns#" xmlns:rdf="http://www.w3.org/1999/02/22-rdf-syntax-ns#">
   <cc:Work>
    <dc:type rdf:resource="http://purl.org/dc/dcmitype/StillImage"/>
    <dc:date>2024-05-26T15:05:49.440975</dc:date>
    <dc:format>image/svg+xml</dc:format>
    <dc:creator>
     <cc:Agent>
      <dc:title>Matplotlib v3.5.2, https://matplotlib.org/</dc:title>
     </cc:Agent>
    </dc:creator>
   </cc:Work>
  </rdf:RDF>
 </metadata>
 <defs>
  <style type="text/css">*{stroke-linejoin: round; stroke-linecap: butt}</style>
 </defs>
 <g id="figure_1">
  <g id="patch_1">
   <path d="M 0 327.691094 
L 755.762969 327.691094 
L 755.762969 0 
L 0 0 
z
" style="fill: #ffffff"/>
  </g>
  <g id="axes_1">
   <g id="patch_2">
    <path d="M 66.821562 288.199219 
L 736.421563 288.199219 
L 736.421563 10.999219 
L 66.821562 10.999219 
z
" style="fill: #ffffff"/>
   </g>
   <g id="matplotlib.axis_1">
    <g id="xtick_1">
     <g id="line2d_1">
      <path d="M 154.160693 288.199219 
L 154.160693 10.999219 
" clip-path="url(#p6f02e7928e)" style="fill: none; stroke: #b0b0b0; stroke-width: 0.8; stroke-linecap: square"/>
     </g>
     <g id="line2d_2">
      <defs>
       <path id="md9b8150afe" d="M 0 0 
L 0 3.5 
" style="stroke: #000000; stroke-width: 0.8"/>
      </defs>
      <g>
       <use xlink:href="#md9b8150afe" x="154.160693" y="288.199219" style="stroke: #000000; stroke-width: 0.8"/>
      </g>
     </g>
     <g id="text_1">
      <!-- −7.5 -->
      <g transform="translate(142.019287 302.797656)scale(0.1 -0.1)">
       <defs>
        <path id="DejaVuSans-2212" d="M 678 2272 
L 4684 2272 
L 4684 1741 
L 678 1741 
L 678 2272 
z
" transform="scale(0.015625)"/>
        <path id="DejaVuSans-37" d="M 525 4666 
L 3525 4666 
L 3525 4397 
L 1831 0 
L 1172 0 
L 2766 4134 
L 525 4134 
L 525 4666 
z
" transform="scale(0.015625)"/>
        <path id="DejaVuSans-2e" d="M 684 794 
L 1344 794 
L 1344 0 
L 684 0 
L 684 794 
z
" transform="scale(0.015625)"/>
        <path id="DejaVuSans-35" d="M 691 4666 
L 3169 4666 
L 3169 4134 
L 1269 4134 
L 1269 2991 
Q 1406 3038 1543 3061 
Q 1681 3084 1819 3084 
Q 2600 3084 3056 2656 
Q 3513 2228 3513 1497 
Q 3513 744 3044 326 
Q 2575 -91 1722 -91 
Q 1428 -91 1123 -41 
Q 819 9 494 109 
L 494 744 
Q 775 591 1075 516 
Q 1375 441 1709 441 
Q 2250 441 2565 725 
Q 2881 1009 2881 1497 
Q 2881 1984 2565 2268 
Q 2250 2553 1709 2553 
Q 1456 2553 1204 2497 
Q 953 2441 691 2322 
L 691 4666 
z
" transform="scale(0.015625)"/>
       </defs>
       <use xlink:href="#DejaVuSans-2212"/>
       <use xlink:href="#DejaVuSans-37" x="83.789062"/>
       <use xlink:href="#DejaVuSans-2e" x="147.412109"/>
       <use xlink:href="#DejaVuSans-35" x="179.199219"/>
      </g>
     </g>
    </g>
    <g id="xtick_2">
     <g id="line2d_3">
      <path d="M 270.612867 288.199219 
L 270.612867 10.999219 
" clip-path="url(#p6f02e7928e)" style="fill: none; stroke: #b0b0b0; stroke-width: 0.8; stroke-linecap: square"/>
     </g>
     <g id="line2d_4">
      <g>
       <use xlink:href="#md9b8150afe" x="270.612867" y="288.199219" style="stroke: #000000; stroke-width: 0.8"/>
      </g>
     </g>
     <g id="text_2">
      <!-- −7.0 -->
      <g transform="translate(258.471461 302.797656)scale(0.1 -0.1)">
       <defs>
        <path id="DejaVuSans-30" d="M 2034 4250 
Q 1547 4250 1301 3770 
Q 1056 3291 1056 2328 
Q 1056 1369 1301 889 
Q 1547 409 2034 409 
Q 2525 409 2770 889 
Q 3016 1369 3016 2328 
Q 3016 3291 2770 3770 
Q 2525 4250 2034 4250 
z
M 2034 4750 
Q 2819 4750 3233 4129 
Q 3647 3509 3647 2328 
Q 3647 1150 3233 529 
Q 2819 -91 2034 -91 
Q 1250 -91 836 529 
Q 422 1150 422 2328 
Q 422 3509 836 4129 
Q 1250 4750 2034 4750 
z
" transform="scale(0.015625)"/>
       </defs>
       <use xlink:href="#DejaVuSans-2212"/>
       <use xlink:href="#DejaVuSans-37" x="83.789062"/>
       <use xlink:href="#DejaVuSans-2e" x="147.412109"/>
       <use xlink:href="#DejaVuSans-30" x="179.199219"/>
      </g>
     </g>
    </g>
    <g id="xtick_3">
     <g id="line2d_5">
      <path d="M 387.065041 288.199219 
L 387.065041 10.999219 
" clip-path="url(#p6f02e7928e)" style="fill: none; stroke: #b0b0b0; stroke-width: 0.8; stroke-linecap: square"/>
     </g>
     <g id="line2d_6">
      <g>
       <use xlink:href="#md9b8150afe" x="387.065041" y="288.199219" style="stroke: #000000; stroke-width: 0.8"/>
      </g>
     </g>
     <g id="text_3">
      <!-- −6.5 -->
      <g transform="translate(374.923635 302.797656)scale(0.1 -0.1)">
       <defs>
        <path id="DejaVuSans-36" d="M 2113 2584 
Q 1688 2584 1439 2293 
Q 1191 2003 1191 1497 
Q 1191 994 1439 701 
Q 1688 409 2113 409 
Q 2538 409 2786 701 
Q 3034 994 3034 1497 
Q 3034 2003 2786 2293 
Q 2538 2584 2113 2584 
z
M 3366 4563 
L 3366 3988 
Q 3128 4100 2886 4159 
Q 2644 4219 2406 4219 
Q 1781 4219 1451 3797 
Q 1122 3375 1075 2522 
Q 1259 2794 1537 2939 
Q 1816 3084 2150 3084 
Q 2853 3084 3261 2657 
Q 3669 2231 3669 1497 
Q 3669 778 3244 343 
Q 2819 -91 2113 -91 
Q 1303 -91 875 529 
Q 447 1150 447 2328 
Q 447 3434 972 4092 
Q 1497 4750 2381 4750 
Q 2619 4750 2861 4703 
Q 3103 4656 3366 4563 
z
" transform="scale(0.015625)"/>
       </defs>
       <use xlink:href="#DejaVuSans-2212"/>
       <use xlink:href="#DejaVuSans-36" x="83.789062"/>
       <use xlink:href="#DejaVuSans-2e" x="147.412109"/>
       <use xlink:href="#DejaVuSans-35" x="179.199219"/>
      </g>
     </g>
    </g>
    <g id="xtick_4">
     <g id="line2d_7">
      <path d="M 503.517215 288.199219 
L 503.517215 10.999219 
" clip-path="url(#p6f02e7928e)" style="fill: none; stroke: #b0b0b0; stroke-width: 0.8; stroke-linecap: square"/>
     </g>
     <g id="line2d_8">
      <g>
       <use xlink:href="#md9b8150afe" x="503.517215" y="288.199219" style="stroke: #000000; stroke-width: 0.8"/>
      </g>
     </g>
     <g id="text_4">
      <!-- −6.0 -->
      <g transform="translate(491.375808 302.797656)scale(0.1 -0.1)">
       <use xlink:href="#DejaVuSans-2212"/>
       <use xlink:href="#DejaVuSans-36" x="83.789062"/>
       <use xlink:href="#DejaVuSans-2e" x="147.412109"/>
       <use xlink:href="#DejaVuSans-30" x="179.199219"/>
      </g>
     </g>
    </g>
    <g id="xtick_5">
     <g id="line2d_9">
      <path d="M 619.969389 288.199219 
L 619.969389 10.999219 
" clip-path="url(#p6f02e7928e)" style="fill: none; stroke: #b0b0b0; stroke-width: 0.8; stroke-linecap: square"/>
     </g>
     <g id="line2d_10">
      <g>
       <use xlink:href="#md9b8150afe" x="619.969389" y="288.199219" style="stroke: #000000; stroke-width: 0.8"/>
      </g>
     </g>
     <g id="text_5">
      <!-- −5.5 -->
      <g transform="translate(607.827982 302.797656)scale(0.1 -0.1)">
       <use xlink:href="#DejaVuSans-2212"/>
       <use xlink:href="#DejaVuSans-35" x="83.789062"/>
       <use xlink:href="#DejaVuSans-2e" x="147.412109"/>
       <use xlink:href="#DejaVuSans-35" x="179.199219"/>
      </g>
     </g>
    </g>
    <g id="xtick_6">
     <g id="line2d_11">
      <path d="M 736.421562 288.199219 
L 736.421562 10.999219 
" clip-path="url(#p6f02e7928e)" style="fill: none; stroke: #b0b0b0; stroke-width: 0.8; stroke-linecap: square"/>
     </g>
     <g id="line2d_12">
      <g>
       <use xlink:href="#md9b8150afe" x="736.421562" y="288.199219" style="stroke: #000000; stroke-width: 0.8"/>
      </g>
     </g>
     <g id="text_6">
      <!-- −5.0 -->
      <g transform="translate(724.280156 302.797656)scale(0.1 -0.1)">
       <use xlink:href="#DejaVuSans-2212"/>
       <use xlink:href="#DejaVuSans-35" x="83.789062"/>
       <use xlink:href="#DejaVuSans-2e" x="147.412109"/>
       <use xlink:href="#DejaVuSans-30" x="179.199219"/>
      </g>
     </g>
    </g>
    <g id="text_7">
     <!-- $\lambda$ -->
     <g transform="translate(398.021562 317.995469)scale(0.12 -0.12)">
      <defs>
       <path id="DejaVuSans-Oblique-3bb" d="M 2350 4316 
L 3125 0 
L 2516 0 
L 2038 2588 
L 328 0 
L -281 0 
L 1903 3356 
L 1794 3975 
Q 1725 4369 1391 4369 
L 1091 4369 
L 1184 4863 
L 1550 4856 
Q 2253 4847 2350 4316 
z
" transform="scale(0.015625)"/>
      </defs>
      <use xlink:href="#DejaVuSans-Oblique-3bb" transform="translate(0 0.015625)"/>
     </g>
    </g>
   </g>
   <g id="matplotlib.axis_2">
    <g id="ytick_1">
     <g id="line2d_13">
      <path d="M 66.821562 288.199219 
L 736.421563 288.199219 
" clip-path="url(#p6f02e7928e)" style="fill: none; stroke: #b0b0b0; stroke-width: 0.8; stroke-linecap: square"/>
     </g>
     <g id="line2d_14">
      <defs>
       <path id="m339d73c13e" d="M 0 0 
L -3.5 0 
" style="stroke: #000000; stroke-width: 0.8"/>
      </defs>
      <g>
       <use xlink:href="#m339d73c13e" x="66.821562" y="288.199219" style="stroke: #000000; stroke-width: 0.8"/>
      </g>
     </g>
     <g id="text_8">
      <!-- −0.005 -->
      <g transform="translate(22.81375 291.998437)scale(0.1 -0.1)">
       <use xlink:href="#DejaVuSans-2212"/>
       <use xlink:href="#DejaVuSans-30" x="83.789062"/>
       <use xlink:href="#DejaVuSans-2e" x="147.412109"/>
       <use xlink:href="#DejaVuSans-30" x="179.199219"/>
       <use xlink:href="#DejaVuSans-30" x="242.822266"/>
       <use xlink:href="#DejaVuSans-35" x="306.445312"/>
      </g>
     </g>
    </g>
    <g id="ytick_2">
     <g id="line2d_15">
      <path d="M 66.821562 241.999219 
L 736.421563 241.999219 
" clip-path="url(#p6f02e7928e)" style="fill: none; stroke: #b0b0b0; stroke-width: 0.8; stroke-linecap: square"/>
     </g>
     <g id="line2d_16">
      <g>
       <use xlink:href="#m339d73c13e" x="66.821562" y="241.999219" style="stroke: #000000; stroke-width: 0.8"/>
      </g>
     </g>
     <g id="text_9">
      <!-- −0.004 -->
      <g transform="translate(22.81375 245.798437)scale(0.1 -0.1)">
       <defs>
        <path id="DejaVuSans-34" d="M 2419 4116 
L 825 1625 
L 2419 1625 
L 2419 4116 
z
M 2253 4666 
L 3047 4666 
L 3047 1625 
L 3713 1625 
L 3713 1100 
L 3047 1100 
L 3047 0 
L 2419 0 
L 2419 1100 
L 313 1100 
L 313 1709 
L 2253 4666 
z
" transform="scale(0.015625)"/>
       </defs>
       <use xlink:href="#DejaVuSans-2212"/>
       <use xlink:href="#DejaVuSans-30" x="83.789062"/>
       <use xlink:href="#DejaVuSans-2e" x="147.412109"/>
       <use xlink:href="#DejaVuSans-30" x="179.199219"/>
       <use xlink:href="#DejaVuSans-30" x="242.822266"/>
       <use xlink:href="#DejaVuSans-34" x="306.445312"/>
      </g>
     </g>
    </g>
    <g id="ytick_3">
     <g id="line2d_17">
      <path d="M 66.821562 195.799219 
L 736.421563 195.799219 
" clip-path="url(#p6f02e7928e)" style="fill: none; stroke: #b0b0b0; stroke-width: 0.8; stroke-linecap: square"/>
     </g>
     <g id="line2d_18">
      <g>
       <use xlink:href="#m339d73c13e" x="66.821562" y="195.799219" style="stroke: #000000; stroke-width: 0.8"/>
      </g>
     </g>
     <g id="text_10">
      <!-- −0.003 -->
      <g transform="translate(22.81375 199.598437)scale(0.1 -0.1)">
       <defs>
        <path id="DejaVuSans-33" d="M 2597 2516 
Q 3050 2419 3304 2112 
Q 3559 1806 3559 1356 
Q 3559 666 3084 287 
Q 2609 -91 1734 -91 
Q 1441 -91 1130 -33 
Q 819 25 488 141 
L 488 750 
Q 750 597 1062 519 
Q 1375 441 1716 441 
Q 2309 441 2620 675 
Q 2931 909 2931 1356 
Q 2931 1769 2642 2001 
Q 2353 2234 1838 2234 
L 1294 2234 
L 1294 2753 
L 1863 2753 
Q 2328 2753 2575 2939 
Q 2822 3125 2822 3475 
Q 2822 3834 2567 4026 
Q 2313 4219 1838 4219 
Q 1578 4219 1281 4162 
Q 984 4106 628 3988 
L 628 4550 
Q 988 4650 1302 4700 
Q 1616 4750 1894 4750 
Q 2613 4750 3031 4423 
Q 3450 4097 3450 3541 
Q 3450 3153 3228 2886 
Q 3006 2619 2597 2516 
z
" transform="scale(0.015625)"/>
       </defs>
       <use xlink:href="#DejaVuSans-2212"/>
       <use xlink:href="#DejaVuSans-30" x="83.789062"/>
       <use xlink:href="#DejaVuSans-2e" x="147.412109"/>
       <use xlink:href="#DejaVuSans-30" x="179.199219"/>
       <use xlink:href="#DejaVuSans-30" x="242.822266"/>
       <use xlink:href="#DejaVuSans-33" x="306.445312"/>
      </g>
     </g>
    </g>
    <g id="ytick_4">
     <g id="line2d_19">
      <path d="M 66.821562 149.599219 
L 736.421563 149.599219 
" clip-path="url(#p6f02e7928e)" style="fill: none; stroke: #b0b0b0; stroke-width: 0.8; stroke-linecap: square"/>
     </g>
     <g id="line2d_20">
      <g>
       <use xlink:href="#m339d73c13e" x="66.821562" y="149.599219" style="stroke: #000000; stroke-width: 0.8"/>
      </g>
     </g>
     <g id="text_11">
      <!-- −0.002 -->
      <g transform="translate(22.81375 153.398437)scale(0.1 -0.1)">
       <defs>
        <path id="DejaVuSans-32" d="M 1228 531 
L 3431 531 
L 3431 0 
L 469 0 
L 469 531 
Q 828 903 1448 1529 
Q 2069 2156 2228 2338 
Q 2531 2678 2651 2914 
Q 2772 3150 2772 3378 
Q 2772 3750 2511 3984 
Q 2250 4219 1831 4219 
Q 1534 4219 1204 4116 
Q 875 4013 500 3803 
L 500 4441 
Q 881 4594 1212 4672 
Q 1544 4750 1819 4750 
Q 2544 4750 2975 4387 
Q 3406 4025 3406 3419 
Q 3406 3131 3298 2873 
Q 3191 2616 2906 2266 
Q 2828 2175 2409 1742 
Q 1991 1309 1228 531 
z
" transform="scale(0.015625)"/>
       </defs>
       <use xlink:href="#DejaVuSans-2212"/>
       <use xlink:href="#DejaVuSans-30" x="83.789062"/>
       <use xlink:href="#DejaVuSans-2e" x="147.412109"/>
       <use xlink:href="#DejaVuSans-30" x="179.199219"/>
       <use xlink:href="#DejaVuSans-30" x="242.822266"/>
       <use xlink:href="#DejaVuSans-32" x="306.445312"/>
      </g>
     </g>
    </g>
    <g id="ytick_5">
     <g id="line2d_21">
      <path d="M 66.821562 103.399219 
L 736.421563 103.399219 
" clip-path="url(#p6f02e7928e)" style="fill: none; stroke: #b0b0b0; stroke-width: 0.8; stroke-linecap: square"/>
     </g>
     <g id="line2d_22">
      <g>
       <use xlink:href="#m339d73c13e" x="66.821562" y="103.399219" style="stroke: #000000; stroke-width: 0.8"/>
      </g>
     </g>
     <g id="text_12">
      <!-- −0.001 -->
      <g transform="translate(22.81375 107.198437)scale(0.1 -0.1)">
       <defs>
        <path id="DejaVuSans-31" d="M 794 531 
L 1825 531 
L 1825 4091 
L 703 3866 
L 703 4441 
L 1819 4666 
L 2450 4666 
L 2450 531 
L 3481 531 
L 3481 0 
L 794 0 
L 794 531 
z
" transform="scale(0.015625)"/>
       </defs>
       <use xlink:href="#DejaVuSans-2212"/>
       <use xlink:href="#DejaVuSans-30" x="83.789062"/>
       <use xlink:href="#DejaVuSans-2e" x="147.412109"/>
       <use xlink:href="#DejaVuSans-30" x="179.199219"/>
       <use xlink:href="#DejaVuSans-30" x="242.822266"/>
       <use xlink:href="#DejaVuSans-31" x="306.445312"/>
      </g>
     </g>
    </g>
    <g id="ytick_6">
     <g id="line2d_23">
      <path d="M 66.821562 57.199219 
L 736.421563 57.199219 
" clip-path="url(#p6f02e7928e)" style="fill: none; stroke: #b0b0b0; stroke-width: 0.8; stroke-linecap: square"/>
     </g>
     <g id="line2d_24">
      <g>
       <use xlink:href="#m339d73c13e" x="66.821562" y="57.199219" style="stroke: #000000; stroke-width: 0.8"/>
      </g>
     </g>
     <g id="text_13">
      <!-- 0.000 -->
      <g transform="translate(31.193437 60.998437)scale(0.1 -0.1)">
       <use xlink:href="#DejaVuSans-30"/>
       <use xlink:href="#DejaVuSans-2e" x="63.623047"/>
       <use xlink:href="#DejaVuSans-30" x="95.410156"/>
       <use xlink:href="#DejaVuSans-30" x="159.033203"/>
       <use xlink:href="#DejaVuSans-30" x="222.65625"/>
      </g>
     </g>
    </g>
    <g id="ytick_7">
     <g id="line2d_25">
      <path d="M 66.821562 10.999219 
L 736.421563 10.999219 
" clip-path="url(#p6f02e7928e)" style="fill: none; stroke: #b0b0b0; stroke-width: 0.8; stroke-linecap: square"/>
     </g>
     <g id="line2d_26">
      <g>
       <use xlink:href="#m339d73c13e" x="66.821562" y="10.999219" style="stroke: #000000; stroke-width: 0.8"/>
      </g>
     </g>
     <g id="text_14">
      <!-- 0.001 -->
      <g transform="translate(31.193437 14.798437)scale(0.1 -0.1)">
       <use xlink:href="#DejaVuSans-30"/>
       <use xlink:href="#DejaVuSans-2e" x="63.623047"/>
       <use xlink:href="#DejaVuSans-30" x="95.410156"/>
       <use xlink:href="#DejaVuSans-30" x="159.033203"/>
       <use xlink:href="#DejaVuSans-31" x="222.65625"/>
      </g>
     </g>
    </g>
    <g id="text_15">
     <!-- relative error -->
     <g transform="translate(16.318125 188.658281)rotate(-90)scale(0.12 -0.12)">
      <defs>
       <path id="DejaVuSans-72" d="M 2631 2963 
Q 2534 3019 2420 3045 
Q 2306 3072 2169 3072 
Q 1681 3072 1420 2755 
Q 1159 2438 1159 1844 
L 1159 0 
L 581 0 
L 581 3500 
L 1159 3500 
L 1159 2956 
Q 1341 3275 1631 3429 
Q 1922 3584 2338 3584 
Q 2397 3584 2469 3576 
Q 2541 3569 2628 3553 
L 2631 2963 
z
" transform="scale(0.015625)"/>
       <path id="DejaVuSans-65" d="M 3597 1894 
L 3597 1613 
L 953 1613 
Q 991 1019 1311 708 
Q 1631 397 2203 397 
Q 2534 397 2845 478 
Q 3156 559 3463 722 
L 3463 178 
Q 3153 47 2828 -22 
Q 2503 -91 2169 -91 
Q 1331 -91 842 396 
Q 353 884 353 1716 
Q 353 2575 817 3079 
Q 1281 3584 2069 3584 
Q 2775 3584 3186 3129 
Q 3597 2675 3597 1894 
z
M 3022 2063 
Q 3016 2534 2758 2815 
Q 2500 3097 2075 3097 
Q 1594 3097 1305 2825 
Q 1016 2553 972 2059 
L 3022 2063 
z
" transform="scale(0.015625)"/>
       <path id="DejaVuSans-6c" d="M 603 4863 
L 1178 4863 
L 1178 0 
L 603 0 
L 603 4863 
z
" transform="scale(0.015625)"/>
       <path id="DejaVuSans-61" d="M 2194 1759 
Q 1497 1759 1228 1600 
Q 959 1441 959 1056 
Q 959 750 1161 570 
Q 1363 391 1709 391 
Q 2188 391 2477 730 
Q 2766 1069 2766 1631 
L 2766 1759 
L 2194 1759 
z
M 3341 1997 
L 3341 0 
L 2766 0 
L 2766 531 
Q 2569 213 2275 61 
Q 1981 -91 1556 -91 
Q 1019 -91 701 211 
Q 384 513 384 1019 
Q 384 1609 779 1909 
Q 1175 2209 1959 2209 
L 2766 2209 
L 2766 2266 
Q 2766 2663 2505 2880 
Q 2244 3097 1772 3097 
Q 1472 3097 1187 3025 
Q 903 2953 641 2809 
L 641 3341 
Q 956 3463 1253 3523 
Q 1550 3584 1831 3584 
Q 2591 3584 2966 3190 
Q 3341 2797 3341 1997 
z
" transform="scale(0.015625)"/>
       <path id="DejaVuSans-74" d="M 1172 4494 
L 1172 3500 
L 2356 3500 
L 2356 3053 
L 1172 3053 
L 1172 1153 
Q 1172 725 1289 603 
Q 1406 481 1766 481 
L 2356 481 
L 2356 0 
L 1766 0 
Q 1100 0 847 248 
Q 594 497 594 1153 
L 594 3053 
L 172 3053 
L 172 3500 
L 594 3500 
L 594 4494 
L 1172 4494 
z
" transform="scale(0.015625)"/>
       <path id="DejaVuSans-69" d="M 603 3500 
L 1178 3500 
L 1178 0 
L 603 0 
L 603 3500 
z
M 603 4863 
L 1178 4863 
L 1178 4134 
L 603 4134 
L 603 4863 
z
" transform="scale(0.015625)"/>
       <path id="DejaVuSans-76" d="M 191 3500 
L 800 3500 
L 1894 563 
L 2988 3500 
L 3597 3500 
L 2284 0 
L 1503 0 
L 191 3500 
z
" transform="scale(0.015625)"/>
       <path id="DejaVuSans-20" transform="scale(0.015625)"/>
       <path id="DejaVuSans-6f" d="M 1959 3097 
Q 1497 3097 1228 2736 
Q 959 2375 959 1747 
Q 959 1119 1226 758 
Q 1494 397 1959 397 
Q 2419 397 2687 759 
Q 2956 1122 2956 1747 
Q 2956 2369 2687 2733 
Q 2419 3097 1959 3097 
z
M 1959 3584 
Q 2709 3584 3137 3096 
Q 3566 2609 3566 1747 
Q 3566 888 3137 398 
Q 2709 -91 1959 -91 
Q 1206 -91 779 398 
Q 353 888 353 1747 
Q 353 2609 779 3096 
Q 1206 3584 1959 3584 
z
" transform="scale(0.015625)"/>
      </defs>
      <use xlink:href="#DejaVuSans-72"/>
      <use xlink:href="#DejaVuSans-65" x="38.863281"/>
      <use xlink:href="#DejaVuSans-6c" x="100.386719"/>
      <use xlink:href="#DejaVuSans-61" x="128.169922"/>
      <use xlink:href="#DejaVuSans-74" x="189.449219"/>
      <use xlink:href="#DejaVuSans-69" x="228.658203"/>
      <use xlink:href="#DejaVuSans-76" x="256.441406"/>
      <use xlink:href="#DejaVuSans-65" x="315.621094"/>
      <use xlink:href="#DejaVuSans-20" x="377.144531"/>
      <use xlink:href="#DejaVuSans-65" x="408.931641"/>
      <use xlink:href="#DejaVuSans-72" x="470.455078"/>
      <use xlink:href="#DejaVuSans-72" x="509.818359"/>
      <use xlink:href="#DejaVuSans-6f" x="548.681641"/>
      <use xlink:href="#DejaVuSans-72" x="609.863281"/>
     </g>
    </g>
   </g>
   <g id="line2d_27">
    <path d="M 95.934606 65.953863 
L 154.160693 60.328384 
L 183.273736 75.272983 
L 212.38678 68.361264 
L 241.499823 60.414421 
L 270.612867 68.822095 
L 299.72591 63.570133 
L 328.838954 51.08167 
L 357.951997 54.705593 
L 387.065041 49.347505 
L 416.178084 48.304358 
L 445.291128 47.122967 
L 474.404171 45.785104 
L 503.517215 44.27017 
L 532.630258 42.554886 
L 561.743302 40.612954 
L 590.856345 38.414682 
L 619.969389 35.926559 
L 649.082432 33.110781 
L 678.195476 29.924728 
L 707.308519 26.320376 
L 736.421562 22.243658 
L 756.762969 19.022691 
" clip-path="url(#p6f02e7928e)" style="fill: none; stroke: #ff0000; stroke-width: 1.5; stroke-linecap: square"/>
   </g>
   <g id="line2d_28">
    <path d="M 95.934606 92.957761 
L 154.160693 94.986297 
L 183.273736 114.534794 
L 212.38678 112.836937 
L 241.499823 110.79428 
L 270.612867 125.887279 
L 299.72591 128.204386 
L 328.838954 124.284608 
L 357.951997 137.60763 
L 387.065041 143.226627 
L 416.178084 154.604959 
L 445.291128 167.476959 
L 474.404171 182.035569 
L 503.517215 198.497785 
L 532.630258 217.107421 
L 561.743302 238.138129 
L 590.856345 261.896664 
L 619.969389 288.726422 
L 649.082432 319.011218 
L 657.330208 328.691094 
" clip-path="url(#p6f02e7928e)" style="fill: none; stroke: #0000ff; stroke-width: 1.5; stroke-linecap: square"/>
   </g>
   <g id="line2d_29">
    <path d="M 37.708519 57.199219 
L 736.421562 57.199219 
" clip-path="url(#p6f02e7928e)" style="fill: none; stroke: #000000; stroke-width: 1.5; stroke-linecap: square"/>
   </g>
   <g id="patch_3">
    <path d="M 66.821562 288.199219 
L 66.821562 10.999219 
" style="fill: none; stroke: #000000; stroke-width: 0.8; stroke-linejoin: miter; stroke-linecap: square"/>
   </g>
   <g id="patch_4">
    <path d="M 736.421563 288.199219 
L 736.421563 10.999219 
" style="fill: none; stroke: #000000; stroke-width: 0.8; stroke-linejoin: miter; stroke-linecap: square"/>
   </g>
   <g id="patch_5">
    <path d="M 66.821562 288.199219 
L 736.421562 288.199219 
" style="fill: none; stroke: #000000; stroke-width: 0.8; stroke-linejoin: miter; stroke-linecap: square"/>
   </g>
   <g id="patch_6">
    <path d="M 66.821562 10.999219 
L 736.421562 10.999219 
" style="fill: none; stroke: #000000; stroke-width: 0.8; stroke-linejoin: miter; stroke-linecap: square"/>
   </g>
   <g id="legend_1">
    <g id="patch_7">
     <path d="M 75.221563 282.199219 
L 388.541563 282.199219 
Q 390.941563 282.199219 390.941563 279.799219 
L 390.941563 207.520219 
Q 390.941563 205.120219 388.541563 205.120219 
L 75.221563 205.120219 
Q 72.821562 205.120219 72.821562 207.520219 
L 72.821562 279.799219 
Q 72.821562 282.199219 75.221563 282.199219 
z
" style="fill: #ffffff; opacity: 0.8; stroke: #cccccc; stroke-linejoin: miter"/>
    </g>
    <g id="line2d_30">
     <path d="M 77.621562 225.649031 
L 89.621562 225.649031 
L 101.621562 225.649031 
" style="fill: none; stroke: #ff0000; stroke-width: 1.5; stroke-linecap: square"/>
    </g>
    <g id="text_16">
     <!-- wolfram_pdf -->
     <g transform="translate(111.221563 219.038344)scale(0.12 -0.12)">
      <defs>
       <path id="DejaVuSans-77" d="M 269 3500 
L 844 3500 
L 1563 769 
L 2278 3500 
L 2956 3500 
L 3675 769 
L 4391 3500 
L 4966 3500 
L 4050 0 
L 3372 0 
L 2619 2869 
L 1863 0 
L 1184 0 
L 269 3500 
z
" transform="scale(0.015625)"/>
       <path id="DejaVuSans-66" d="M 2375 4863 
L 2375 4384 
L 1825 4384 
Q 1516 4384 1395 4259 
Q 1275 4134 1275 3809 
L 1275 3500 
L 2222 3500 
L 2222 3053 
L 1275 3053 
L 1275 0 
L 697 0 
L 697 3053 
L 147 3053 
L 147 3500 
L 697 3500 
L 697 3744 
Q 697 4328 969 4595 
Q 1241 4863 1831 4863 
L 2375 4863 
z
" transform="scale(0.015625)"/>
       <path id="DejaVuSans-6d" d="M 3328 2828 
Q 3544 3216 3844 3400 
Q 4144 3584 4550 3584 
Q 5097 3584 5394 3201 
Q 5691 2819 5691 2113 
L 5691 0 
L 5113 0 
L 5113 2094 
Q 5113 2597 4934 2840 
Q 4756 3084 4391 3084 
Q 3944 3084 3684 2787 
Q 3425 2491 3425 1978 
L 3425 0 
L 2847 0 
L 2847 2094 
Q 2847 2600 2669 2842 
Q 2491 3084 2119 3084 
Q 1678 3084 1418 2786 
Q 1159 2488 1159 1978 
L 1159 0 
L 581 0 
L 581 3500 
L 1159 3500 
L 1159 2956 
Q 1356 3278 1631 3431 
Q 1906 3584 2284 3584 
Q 2666 3584 2933 3390 
Q 3200 3197 3328 2828 
z
" transform="scale(0.015625)"/>
       <path id="DejaVuSans-5f" d="M 3263 -1063 
L 3263 -1509 
L -63 -1509 
L -63 -1063 
L 3263 -1063 
z
" transform="scale(0.015625)"/>
       <path id="DejaVuSans-70" d="M 1159 525 
L 1159 -1331 
L 581 -1331 
L 581 3500 
L 1159 3500 
L 1159 2969 
Q 1341 3281 1617 3432 
Q 1894 3584 2278 3584 
Q 2916 3584 3314 3078 
Q 3713 2572 3713 1747 
Q 3713 922 3314 415 
Q 2916 -91 2278 -91 
Q 1894 -91 1617 61 
Q 1341 213 1159 525 
z
M 3116 1747 
Q 3116 2381 2855 2742 
Q 2594 3103 2138 3103 
Q 1681 3103 1420 2742 
Q 1159 2381 1159 1747 
Q 1159 1113 1420 752 
Q 1681 391 2138 391 
Q 2594 391 2855 752 
Q 3116 1113 3116 1747 
z
" transform="scale(0.015625)"/>
       <path id="DejaVuSans-64" d="M 2906 2969 
L 2906 4863 
L 3481 4863 
L 3481 0 
L 2906 0 
L 2906 525 
Q 2725 213 2448 61 
Q 2172 -91 1784 -91 
Q 1150 -91 751 415 
Q 353 922 353 1747 
Q 353 2572 751 3078 
Q 1150 3584 1784 3584 
Q 2172 3584 2448 3432 
Q 2725 3281 2906 2969 
z
M 947 1747 
Q 947 1113 1208 752 
Q 1469 391 1925 391 
Q 2381 391 2643 752 
Q 2906 1113 2906 1747 
Q 2906 2381 2643 2742 
Q 2381 3103 1925 3103 
Q 1469 3103 1208 2742 
Q 947 2381 947 1747 
z
" transform="scale(0.015625)"/>
      </defs>
      <use xlink:href="#DejaVuSans-77"/>
      <use xlink:href="#DejaVuSans-6f" x="81.787109"/>
      <use xlink:href="#DejaVuSans-6c" x="142.96875"/>
      <use xlink:href="#DejaVuSans-66" x="170.751953"/>
      <use xlink:href="#DejaVuSans-72" x="205.957031"/>
      <use xlink:href="#DejaVuSans-61" x="247.070312"/>
      <use xlink:href="#DejaVuSans-6d" x="308.349609"/>
      <use xlink:href="#DejaVuSans-5f" x="405.761719"/>
      <use xlink:href="#DejaVuSans-70" x="455.761719"/>
      <use xlink:href="#DejaVuSans-64" x="519.238281"/>
      <use xlink:href="#DejaVuSans-66" x="582.714844"/>
     </g>
     <!--  / $(\sqrt{\exp(-\lambda - 1)} / (\exp(\exp(-\lambda - 1)) \sqrt{2 \pi})) - 1$ -->
     <g transform="translate(111.221563 238.139719)scale(0.12 -0.12)">
      <defs>
       <path id="DejaVuSans-2f" d="M 1625 4666 
L 2156 4666 
L 531 -594 
L 0 -594 
L 1625 4666 
z
" transform="scale(0.015625)"/>
       <path id="DejaVuSans-28" d="M 1984 4856 
Q 1566 4138 1362 3434 
Q 1159 2731 1159 2009 
Q 1159 1288 1364 580 
Q 1569 -128 1984 -844 
L 1484 -844 
Q 1016 -109 783 600 
Q 550 1309 550 2009 
Q 550 2706 781 3412 
Q 1013 4119 1484 4856 
L 1984 4856 
z
" transform="scale(0.015625)"/>
       <path id="STIXSizeOneSym-Regular-221a" d="M 6970 9933 
L 3373 -1888 
L 3104 -1888 
L 1626 2918 
Q 1555 3149 1465 3251 
Q 1376 3354 1229 3354 
Q 1011 3354 794 3181 
L 717 3309 
L 1766 4115 
L 1926 4115 
L 3379 -602 
L 3405 -602 
L 6605 9933 
L 6970 9933 
z
" transform="scale(0.015625)"/>
       <path id="DejaVuSans-78" d="M 3513 3500 
L 2247 1797 
L 3578 0 
L 2900 0 
L 1881 1375 
L 863 0 
L 184 0 
L 1544 1831 
L 300 3500 
L 978 3500 
L 1906 2253 
L 2834 3500 
L 3513 3500 
z
" transform="scale(0.015625)"/>
       <path id="DejaVuSans-29" d="M 513 4856 
L 1013 4856 
Q 1481 4119 1714 3412 
Q 1947 2706 1947 2009 
Q 1947 1309 1714 600 
Q 1481 -109 1013 -844 
L 513 -844 
Q 928 -128 1133 580 
Q 1338 1288 1338 2009 
Q 1338 2731 1133 3434 
Q 928 4138 513 4856 
z
" transform="scale(0.015625)"/>
       <path id="DejaVuSans-Oblique-3c0" d="M 584 3500 
L 3938 3500 
L 3825 2925 
L 3384 2925 
L 2966 775 
Q 2922 550 2981 450 
Q 3038 353 3209 353 
Q 3256 353 3325 363 
Q 3397 369 3419 372 
L 3338 -44 
Q 3222 -84 3103 -103 
Q 2981 -122 2866 -122 
Q 2491 -122 2388 81 
Q 2284 288 2391 838 
L 2797 2925 
L 1506 2925 
L 938 0 
L 350 0 
L 919 2925 
L 472 2925 
L 584 3500 
z
" transform="scale(0.015625)"/>
      </defs>
      <use xlink:href="#DejaVuSans-20" transform="translate(0 0.34375)"/>
      <use xlink:href="#DejaVuSans-2f" transform="translate(31.787109 0.34375)"/>
      <use xlink:href="#DejaVuSans-20" transform="translate(65.478516 0.34375)"/>
      <use xlink:href="#DejaVuSans-28" transform="translate(97.265625 0.34375)"/>
      <use xlink:href="#STIXSizeOneSym-Regular-221a" transform="translate(136.279297 -0.09375)scale(0.693173)"/>
      <use xlink:href="#DejaVuSans-65" transform="translate(222.108673 0.765625)"/>
      <use xlink:href="#DejaVuSans-78" transform="translate(283.632111 0.765625)"/>
      <use xlink:href="#DejaVuSans-70" transform="translate(342.811798 0.765625)"/>
      <use xlink:href="#DejaVuSans-28" transform="translate(406.288361 0.765625)"/>
      <use xlink:href="#DejaVuSans-2212" transform="translate(445.302032 0.765625)"/>
      <use xlink:href="#DejaVuSans-Oblique-3bb" transform="translate(529.091095 0.765625)"/>
      <use xlink:href="#DejaVuSans-2212" transform="translate(607.753204 0.765625)"/>
      <use xlink:href="#DejaVuSans-31" transform="translate(711.024689 0.765625)"/>
      <use xlink:href="#DejaVuSans-29" transform="translate(774.647736 0.765625)"/>
      <use xlink:href="#DejaVuSans-2f" transform="translate(826.161407 0.34375)"/>
      <use xlink:href="#DejaVuSans-28" transform="translate(859.852814 0.34375)"/>
      <use xlink:href="#DejaVuSans-65" transform="translate(898.866486 0.34375)"/>
      <use xlink:href="#DejaVuSans-78" transform="translate(960.389923 0.34375)"/>
      <use xlink:href="#DejaVuSans-70" transform="translate(1019.569611 0.34375)"/>
      <use xlink:href="#DejaVuSans-28" transform="translate(1083.046173 0.34375)"/>
      <use xlink:href="#DejaVuSans-65" transform="translate(1122.059845 0.34375)"/>
      <use xlink:href="#DejaVuSans-78" transform="translate(1183.583282 0.34375)"/>
      <use xlink:href="#DejaVuSans-70" transform="translate(1242.76297 0.34375)"/>
      <use xlink:href="#DejaVuSans-28" transform="translate(1306.239532 0.34375)"/>
      <use xlink:href="#DejaVuSans-2212" transform="translate(1345.253204 0.34375)"/>
      <use xlink:href="#DejaVuSans-Oblique-3bb" transform="translate(1429.042267 0.34375)"/>
      <use xlink:href="#DejaVuSans-2212" transform="translate(1507.704376 0.34375)"/>
      <use xlink:href="#DejaVuSans-31" transform="translate(1610.975861 0.34375)"/>
      <use xlink:href="#DejaVuSans-29" transform="translate(1674.598907 0.34375)"/>
      <use xlink:href="#DejaVuSans-29" transform="translate(1713.612579 0.34375)"/>
      <use xlink:href="#STIXSizeOneSym-Regular-221a" transform="translate(1752.626251 15.546875)scale(0.581338)"/>
      <use xlink:href="#DejaVuSans-32" transform="translate(1826.564362 0.09375)"/>
      <use xlink:href="#DejaVuSans-Oblique-3c0" transform="translate(1890.187408 0.09375)"/>
      <use xlink:href="#DejaVuSans-29" transform="translate(1962.892487 0.34375)"/>
      <use xlink:href="#DejaVuSans-29" transform="translate(2001.906158 0.34375)"/>
      <use xlink:href="#DejaVuSans-2212" transform="translate(2060.402252 0.34375)"/>
      <use xlink:href="#DejaVuSans-31" transform="translate(2163.673737 0.34375)"/>
      <path d="M 209.608673 100.5 
L 209.608673 106.75 
L 826.161407 106.75 
L 826.161407 100.5 
L 209.608673 100.5 
z
"/>
      <path d="M 1814.064362 99.0625 
L 1814.064362 105.3125 
L 1962.892487 105.3125 
L 1962.892487 99.0625 
L 1814.064362 99.0625 
z
"/>
     </g>
    </g>
    <g id="line2d_31">
     <path d="M 77.621562 262.388531 
L 89.621562 262.388531 
L 101.621562 262.388531 
" style="fill: none; stroke: #0000ff; stroke-width: 1.5; stroke-linecap: square"/>
    </g>
    <g id="text_17">
     <!-- wolfram_cdf -->
     <g transform="translate(111.221563 255.777844)scale(0.12 -0.12)">
      <defs>
       <path id="DejaVuSans-63" d="M 3122 3366 
L 3122 2828 
Q 2878 2963 2633 3030 
Q 2388 3097 2138 3097 
Q 1578 3097 1268 2742 
Q 959 2388 959 1747 
Q 959 1106 1268 751 
Q 1578 397 2138 397 
Q 2388 397 2633 464 
Q 2878 531 3122 666 
L 3122 134 
Q 2881 22 2623 -34 
Q 2366 -91 2075 -91 
Q 1284 -91 818 406 
Q 353 903 353 1747 
Q 353 2603 823 3093 
Q 1294 3584 2113 3584 
Q 2378 3584 2631 3529 
Q 2884 3475 3122 3366 
z
" transform="scale(0.015625)"/>
      </defs>
      <use xlink:href="#DejaVuSans-77"/>
      <use xlink:href="#DejaVuSans-6f" x="81.787109"/>
      <use xlink:href="#DejaVuSans-6c" x="142.96875"/>
      <use xlink:href="#DejaVuSans-66" x="170.751953"/>
      <use xlink:href="#DejaVuSans-72" x="205.957031"/>
      <use xlink:href="#DejaVuSans-61" x="247.070312"/>
      <use xlink:href="#DejaVuSans-6d" x="308.349609"/>
      <use xlink:href="#DejaVuSans-5f" x="405.761719"/>
      <use xlink:href="#DejaVuSans-63" x="455.761719"/>
      <use xlink:href="#DejaVuSans-64" x="510.742188"/>
      <use xlink:href="#DejaVuSans-66" x="574.21875"/>
     </g>
     <!--  / $(1 / (\sqrt{\exp(-\lambda - 1)} \exp(\exp(-\lambda - 1)) \sqrt{2 \pi})) - 1$ -->
     <g transform="translate(111.221563 274.879219)scale(0.12 -0.12)">
      <use xlink:href="#DejaVuSans-20" transform="translate(0 0.34375)"/>
      <use xlink:href="#DejaVuSans-2f" transform="translate(31.787109 0.34375)"/>
      <use xlink:href="#DejaVuSans-20" transform="translate(65.478516 0.34375)"/>
      <use xlink:href="#DejaVuSans-28" transform="translate(97.265625 0.34375)"/>
      <use xlink:href="#DejaVuSans-31" transform="translate(136.279297 0.34375)"/>
      <use xlink:href="#DejaVuSans-2f" transform="translate(199.902344 0.34375)"/>
      <use xlink:href="#DejaVuSans-28" transform="translate(233.59375 0.34375)"/>
      <use xlink:href="#STIXSizeOneSym-Regular-221a" transform="translate(272.607422 -0.09375)scale(0.693173)"/>
      <use xlink:href="#DejaVuSans-65" transform="translate(358.436798 0.765625)"/>
      <use xlink:href="#DejaVuSans-78" transform="translate(419.960236 0.765625)"/>
      <use xlink:href="#DejaVuSans-70" transform="translate(479.139923 0.765625)"/>
      <use xlink:href="#DejaVuSans-28" transform="translate(542.616486 0.765625)"/>
      <use xlink:href="#DejaVuSans-2212" transform="translate(581.630157 0.765625)"/>
      <use xlink:href="#DejaVuSans-Oblique-3bb" transform="translate(665.41922 0.765625)"/>
      <use xlink:href="#DejaVuSans-2212" transform="translate(744.081329 0.765625)"/>
      <use xlink:href="#DejaVuSans-31" transform="translate(847.352814 0.765625)"/>
      <use xlink:href="#DejaVuSans-29" transform="translate(910.975861 0.765625)"/>
      <use xlink:href="#DejaVuSans-65" transform="translate(962.489532 0.34375)"/>
      <use xlink:href="#DejaVuSans-78" transform="translate(1024.01297 0.34375)"/>
      <use xlink:href="#DejaVuSans-70" transform="translate(1083.192657 0.34375)"/>
      <use xlink:href="#DejaVuSans-28" transform="translate(1146.66922 0.34375)"/>
      <use xlink:href="#DejaVuSans-65" transform="translate(1185.682892 0.34375)"/>
      <use xlink:href="#DejaVuSans-78" transform="translate(1247.206329 0.34375)"/>
      <use xlink:href="#DejaVuSans-70" transform="translate(1306.386017 0.34375)"/>
      <use xlink:href="#DejaVuSans-28" transform="translate(1369.862579 0.34375)"/>
      <use xlink:href="#DejaVuSans-2212" transform="translate(1408.876251 0.34375)"/>
      <use xlink:href="#DejaVuSans-Oblique-3bb" transform="translate(1492.665314 0.34375)"/>
      <use xlink:href="#DejaVuSans-2212" transform="translate(1571.327423 0.34375)"/>
      <use xlink:href="#DejaVuSans-31" transform="translate(1674.598907 0.34375)"/>
      <use xlink:href="#DejaVuSans-29" transform="translate(1738.221954 0.34375)"/>
      <use xlink:href="#DejaVuSans-29" transform="translate(1777.235626 0.34375)"/>
      <use xlink:href="#STIXSizeOneSym-Regular-221a" transform="translate(1816.249298 15.546875)scale(0.581338)"/>
      <use xlink:href="#DejaVuSans-32" transform="translate(1890.187408 0.09375)"/>
      <use xlink:href="#DejaVuSans-Oblique-3c0" transform="translate(1953.810455 0.09375)"/>
      <use xlink:href="#DejaVuSans-29" transform="translate(2026.515533 0.34375)"/>
      <use xlink:href="#DejaVuSans-29" transform="translate(2065.529205 0.34375)"/>
      <use xlink:href="#DejaVuSans-2212" transform="translate(2124.025299 0.34375)"/>
      <use xlink:href="#DejaVuSans-31" transform="translate(2227.296783 0.34375)"/>
      <path d="M 345.936798 100.5 
L 345.936798 106.75 
L 962.489532 106.75 
L 962.489532 100.5 
L 345.936798 100.5 
z
"/>
      <path d="M 1877.687408 99.0625 
L 1877.687408 105.3125 
L 2026.515533 105.3125 
L 2026.515533 99.0625 
L 1877.687408 99.0625 
z
"/>
     </g>
    </g>
   </g>
  </g>
 </g>
 <defs>
  <clipPath id="p6f02e7928e">
   <rect x="66.821562" y="10.999219" width="669.6" height="277.2"/>
  </clipPath>
 </defs>
</svg>
